<svg viewBox="0 0 24 24" xmlns="http://www.w3.org/2000/svg" fill-opacity="context-fill-opacity" fill="context-fill"><path d="m6.71875,2.49375c-1.16716,0 -2.1125,0.94534 -2.1125,2.1125l14.7875,0c0,-1.16716 -0.94534,-2.1125 -2.1125,-2.1125l-10.5625,0zm-3.16875,4.225c-1.16716,0 -2.1125,0.94534 -2.1125,2.1125l0,10.5625c0,1.16716 0.94534,2.1125 2.1125,2.1125l16.9,0c1.16716,0 2.1125,-0.94534 2.1125,-2.1125l0,-10.5625c0,-1.16716 -0.94534,-2.1125 -2.1125,-2.1125l-16.9,0zm0,2.1125l16.9,0l0,10.5625l-16.9,0l0,-10.5625zm6.3375,2.1125l0,6.3375l5.28125,-3.16875l-5.28125,-3.16875z"/></svg>