<svg xmlns="http://www.w3.org/2000/svg" xmlns:xlink="http://www.w3.org/1999/xlink" viewBox="0 0 50 50"><path fill="context-fill" fill-opacity="context-fill-opacity" d="M5 3C3.347656 3 2 4.347656 2 6L2 26C2 26.800781 2.308594 27.558594 2.875 28.125C3.441406 28.691406 4.199219 29 5 29L8.53125 29L11.53125 27L5 27C4.734375 27 4.46875 26.90625 4.28125 26.71875C4.09375 26.53125 4 26.269531 4 26L4 6C4 5.449219 4.449219 5 5 5L45 5C45.550781 5 46 5.449219 46 6L46 25.96875C46 26.519531 45.558594 26.96875 45 26.96875L38.46875 27L41.5 29L45 28.96875C46.652344 28.96875 48 27.621094 48 25.96875L48 6C48 4.347656 46.652344 3 45 3 Z M 12 13C10.34375 13 9 14.34375 9 16C9 17.65625 10.34375 19 12 19C13.65625 19 15 17.65625 15 16C15 14.34375 13.65625 13 12 13 Z M 25 13C23.34375 13 22 14.34375 22 16C22 17.65625 23.34375 19 25 19C26.65625 19 28 17.65625 28 16C28 14.34375 26.65625 13 25 13 Z M 38 13C36.34375 13 35 14.34375 35 16C35 17.65625 36.34375 19 38 19C39.65625 19 41 17.65625 41 16C41 14.34375 39.65625 13 38 13 Z M 25 25C13.453125 25 5.21875 35.375 5.21875 35.375C4.933594 35.726563 4.921875 36.226563 5.1875 36.59375C5.1875 36.59375 12.5625 47 25 47C37.4375 47 44.8125 36.59375 44.8125 36.59375C45.078125 36.226563 45.066406 35.726563 44.78125 35.375C44.78125 35.375 36.546875 25 25 25 Z M 25 27C25.371094 27 25.730469 27.039063 26.09375 27.0625C30.5625 27.59375 34 31.386719 34 36C34 40.625 30.546875 44.417969 26.0625 44.9375C26.019531 44.941406 25.980469 44.96875 25.9375 44.96875C25.632813 45 25.3125 45 25 45C20.019531 45 16 40.980469 16 36C16 31.386719 19.4375 27.59375 23.90625 27.0625C24.269531 27.039063 24.628906 27 25 27 Z M 16.5 29.0625C14.953125 30.957031 14 33.371094 14 36C14 38.789063 15.0625 41.339844 16.78125 43.28125C11.503906 41.003906 8.21875 37.144531 7.34375 36.03125C8.246094 35.003906 11.632813 31.394531 16.5 29.0625 Z M 33.5 29.0625C38.367188 31.394531 41.753906 35.003906 42.65625 36.03125C41.78125 37.144531 38.496094 41.003906 33.21875 43.28125C34.9375 41.339844 36 38.789063 36 36C36 33.371094 35.046875 30.957031 33.5 29.0625 Z M 25 31C22.238281 31 20 33.238281 20 36C20 38.761719 22.238281 41 25 41C27.761719 41 30 38.761719 30 36C30 35.367188 29.871094 34.773438 29.65625 34.21875C29.285156 34.792969 28.640625 35.15625 27.90625 35.15625C26.753906 35.15625 25.84375 34.242188 25.84375 33.09375C25.84375 32.359375 26.207031 31.714844 26.78125 31.34375C26.222656 31.128906 25.632813 31 25 31Z"/></svg>