<?xml version="1.0" encoding="utf-8"?>
<svg xmlns="http://www.w3.org/2000/svg" viewBox="0 0 24 24" width="16" height="16" fill="context-fill" fill-opacity="context-fill-opacity">
  <path d="M5 3C3.895 3 3 3.895 3 5L3 19C3 20.105 3.895 21 5 21L14.757812 21L15.757812 20L14.757812 19L5 19L5 8L19 8L19 14.757812L20 15.757812L21 14.757812L21 5C21 3.895 20.105 3 19 3L5 3 z M 7 11L7 13L9 13L9 11L7 11 z M 11 11L11 13L17 13L17 11L11 11 z M 7 15L7 17L9 17L9 15L7 15 z M 11 15L11 17L13.576172 17L15.576172 15L11 15 z M 17.408203 15.994141L15.994141 17.408203L18.585938 20L16 22.585938L17.414062 24L20 21.414062L22.580078 23.994141L23.994141 22.580078L21.414062 20L24 17.414062L22.585938 16L20 18.585938L17.408203 15.994141 z" />
</svg>