<?xml version="1.0" standalone="no"?><!DOCTYPE svg PUBLIC "-//W3C//DTD SVG 1.1//EN" "http://www.w3.org/Graphics/SVG/1.1/DTD/svg11.dtd"><svg viewBox="0 0 1024 1024" xmlns="http://www.w3.org/2000/svg" xmlns:xlink="http://www.w3.org/1999/xlink" fill="context-fill" fill-opacity="context-fill-opacity" stroke-width="1"><path d="M821.333333 85.333333a117.333333 117.333333 0 0 1 117.12 110.165334L938.666667 202.666667v618.666666a117.333333 117.333333 0 0 1-110.165334 117.12L821.333333 938.666667H202.666667a117.333333 117.333333 0 0 1-117.12-110.165334L85.333333 821.333333V202.666667a117.333333 117.333333 0 0 1 110.165334-117.12L202.666667 85.333333h618.666666z m0 64l-46.506666-0.042666L173.44 866.005333c6.954667 4.565333 15.061333 7.509333 23.765333 8.405334l5.461334 0.256h47.061333l601.173333-716.373334a52.992 52.992 0 0 0-24.106666-8.704L821.333333 149.333333z m53.333334 80.213334L333.226667 874.666667H416.853333l457.813334-545.706667V229.546667z m0 199.04L500.309333 874.666667h83.626667l290.730667-346.453334v-99.626666z m0 199.168L667.52 874.666667h83.498667l123.648-147.328v-99.584z m-38.229334 244.778666c20.266667-5.973333 35.498667-23.637333 37.930667-45.184l-37.930667 45.184zM691.285333 149.290667h-83.584L149.333333 695.637333v99.541334L691.2 149.290667z m-167.168 0h-83.541333L149.333333 496.426667v99.626666l374.826667-446.762666z m-167.04 0h-83.626666l-124.16 147.968v99.626666l207.786666-247.594666z m-168.96 2.005333c-18.944 5.376-33.621333 20.906667-37.674666 40.405333l-0.853334 5.632 38.528-46.037333z"></path></svg>