<?xml version="1.0" encoding="utf-8"?>
<svg xmlns="http://www.w3.org/2000/svg" viewBox="0 0 128 128" width="16" height="16" fill="context-fill" fill-opacity="context-fill-opacity">
  <path d="M79 16C60.7 16 43.699219 26.699219 35.699219 43.199219C34.999219 44.699219 35.599609 46.499219 37.099609 47.199219C38.599609 47.899219 40.399609 47.300781 41.099609 45.800781C48.099609 31.300781 63 22 79 22C102.2 22 121 40.8 121 64C121 87.2 102.2 106 79 106C62.9 106 48.500781 96.999609 41.300781 82.599609C40.600781 81.099609 38.800781 80.499219 37.300781 81.199219C35.800781 81.899219 35.200391 83.699219 35.900391 85.199219C44.100391 101.69922 60.6 112 79 112C105.5 112 127 90.5 127 64C127 37.5 105.5 16 79 16 z M 68.462891 45.400391C67.700391 45.400391 66.950391 45.700781 66.400391 46.300781C65.200391 47.500781 65.200391 49.4 66.400391 50.5L76.800781 61L4 61C2.3 61 1 62.3 1 64C1 65.7 2.3 67 4 67L76.800781 67L66.300781 77.400391C65.100781 78.600391 65.100781 80.499609 66.300781 81.599609C66.900781 82.199609 67.700391 82.5 68.400391 82.5C69.100391 82.5 69.9 82.199609 70.5 81.599609L86.099609 66C87.299609 64.8 87.299609 62.900781 86.099609 61.800781L70.599609 46.300781C69.999609 45.700781 69.225391 45.400391 68.462891 45.400391 z" />
</svg>