<?xml version="1.0" encoding="utf-8"?>
<svg xmlns="http://www.w3.org/2000/svg" viewBox="0 0 128 128" width="16" height="16" fill="context-fill" fill-opacity="context-fill-opacity">
  <path d="M79 16C60.7 16 43.699219 26.699219 35.699219 43.199219C34.999219 44.699219 35.599609 46.499219 37.099609 47.199219C38.599609 47.899219 40.399609 47.300781 41.099609 45.800781C48.099609 31.300781 63 22 79 22C102.2 22 121 40.8 121 64C121 87.2 102.2 106 79 106C62.9 106 48.500781 96.999609 41.300781 82.599609C40.600781 81.099609 38.800781 80.499219 37.300781 81.199219C35.800781 81.899219 35.200391 83.699219 35.900391 85.199219C44.100391 101.69922 60.6 112 79 112C105.5 112 127 90.5 127 64C127 37.5 105.5 16 79 16 z M 19.5625 45.400391C18.8 45.400391 18.05 45.700781 17.5 46.300781L1.9003906 61.900391C0.70039063 63.100391 0.70039063 64.999609 1.9003906 66.099609L17.5 81.699219C18.1 82.299219 18.899609 82.599609 19.599609 82.599609C20.399609 82.599609 21.099219 82.299219 21.699219 81.699219C22.899219 80.499219 22.899219 78.6 21.699219 77.5L11.199219 67L84 67C85.7 67 87 65.7 87 64C87 62.3 85.7 61 84 61L11.199219 61L21.599609 50.599609C22.799609 49.399609 22.799219 47.500781 21.699219 46.300781C21.099219 45.700781 20.325 45.400391 19.5625 45.400391 z" />
</svg>