<?xml version="1.0" encoding="utf-8"?>
<svg xmlns="http://www.w3.org/2000/svg" viewBox="0 0 128 128" width="16" height="16" fill="context-fill" fill-opacity="context-fill-opacity">
  <path d="M107.42188 4.8710938C106.81992 4.8535156 106.21211 4.8628906 105.59961 4.9003906C95.599609 5.7003906 87.5 14 87 24C86.4 35.8 96.1 45.500391 108 44.900391C118 44.400391 126.2 36.4 127 26.5C127.2 23.2 126.60078 19.9 125.30078 17C124.90078 16 123.50078 15.799609 122.80078 16.599609C122.30078 17.099609 121.79922 17.700391 121.19922 18.400391C116.79922 23.400391 109.19922 31.900391 109.19922 31.900391C108.59922 32.500391 107.8 32.900391 107 32.900391L106.90039 32.900391C106.00039 32.900391 105.19961 32.499219 104.59961 31.699219L97.699219 22.800781C96.799219 21.700781 96.799219 20.000391 97.699219 18.900391C98.999219 17.400391 101.20078 17.5 102.30078 19L107.09961 25.199219C107.09961 25.199219 114.39922 16.999219 118.19922 12.699219C118.49922 12.299219 118.79961 11.999219 119.09961 11.699219C119.89961 10.799219 119.80078 9.5007813 118.80078 8.8007812C115.56328 6.4382812 111.63555 4.9941406 107.42188 4.8710938 z M 14 5C6.8 5 1 10.8 1 18L1 84C1 85.7 2.3 87 4 87C5.7 87 7 85.7 7 84L7 18C7 14.1 10.1 11 14 11L68 11C69.7 11 71 9.7 71 8C71 6.3 69.7 5 68 5L14 5 z M 42.699219 43.599609 A 8.4 8.4 0 1 0 42.699219 60.400391 A 8.4 8.4 0 1 0 42.699219 43.599609 z M 110 58C108.3 58 107 59.3 107 61L107 82C107 83.7 108.3 85 110 85C111.7 85 113 83.7 113 82L113 61C113 59.3 111.7 58 110 58 z M 73.699219 73.324219C71.524219 73.324219 69.349219 74.150781 67.699219 75.800781L42 101.59961C41 102.59961 39.5 102.59961 38.5 101.59961L30.5 93.599609C28.9 91.999609 26.8 91.099609 24.5 91.099609C22.2 91.099609 20.1 91.999609 18.5 93.599609L13.800781 98.300781C11.900781 100.20078 10.900391 102.59922 10.900391 105.19922L10.900391 113.90039C10.900391 121.10039 16.700391 126.90039 23.900391 126.90039L89.900391 126.90039C97.100391 126.90039 102.90039 121.10039 102.90039 113.90039L102.90039 103.09961C103.00039 100.59961 101.99961 98.100781 100.09961 96.300781L79.699219 75.800781C78.049219 74.150781 75.874219 73.324219 73.699219 73.324219 z" />
</svg>