<svg viewBox="0 0 1024 1024" version="1.1" xmlns="http://www.w3.org/2000/svg" fill="context-fill" fill-opacity="context-fill-opacity"><path d="M245.333333 128h533.333334A117.333333 117.333333 0 0 1 896 245.333333v533.333334A117.333333 117.333333 0 0 1 778.666667 896H245.333333A117.333333 117.333333 0 0 1 128 778.666667V245.333333A117.333333 117.333333 0 0 1 245.333333 128z m0 64c-29.44 0-53.333333 23.893333-53.333333 53.333333v533.333334c0 29.44 23.893333 53.333333 53.333333 53.333333h533.333334c29.44 0 53.333333-23.893333 53.333333-53.333333V245.333333c0-29.44-23.893333-53.333333-53.333333-53.333333H245.333333z"></path></svg>