<?xml version="1.0" standalone="no"?><!DOCTYPE svg PUBLIC "-//W3C//DTD SVG 1.1//EN" "http://www.w3.org/Graphics/SVG/1.1/DTD/svg11.dtd"><svg viewBox="0 0 1024 1024" version="1.1" xmlns="http://www.w3.org/2000/svg" xmlns:xlink="http://www.w3.org/1999/xlink" width="16" height="16" fill="context-fill" fill-opacity="context-fill-opacity"><path d="M204.8 368.64h122.88V245.76H204.8v122.88zM163.84 204.8h204.8v204.8h-204.8V204.8z m61.44-102.4h40.96v40.96h-40.96V102.4z m81.92 0h40.96v40.96H307.2V102.4z m81.92 0h40.96v40.96h-40.96V102.4z m81.92 0H512v40.96h-40.96V102.4z m81.92 0h40.96v40.96h-40.96V102.4z m81.92 0h40.96v40.96h-40.96V102.4z m81.92 0h40.96v40.96H716.8V102.4z m81.92 0h40.96v40.96h-40.96V102.4z m81.92 0h81.92v40.96h-81.92V102.4z m40.96 81.92h40.96v40.96H921.6v-40.96z m0 81.92h40.96v40.96H921.6v-40.96z m0 81.92h40.96v40.96H921.6v-40.96z m0 81.92h40.96V512H921.6v-81.92z m-81.92 40.96h40.96V512h-40.96v-40.96z m-81.92 0h40.96V512h-40.96v-40.96z m-81.92 0h40.96V512h-40.96v-40.96z m-81.92 0h40.96V512h-40.96v-40.96z m-81.92 0h40.96V512H512v-40.96z m-81.92 0h40.96V512h-40.96v-40.96z m-81.92 0h40.96V512h-40.96v-40.96z m-81.92 0h40.96V512h-40.96v-40.96z m-81.92 0h40.96V512h-40.96v-40.96z m-122.88 0h81.92V512H61.44v-40.96z m0-81.92h40.96v40.96H61.44v-40.96z m0-81.92h40.96v40.96H61.44V307.2z m0-81.92h40.96v40.96H61.44v-40.96z m0-122.88h40.96v81.92H61.44V102.4z m81.92 0h40.96v40.96h-40.96V102.4z m301.056 456.704L512 626.688l67.584-67.584c8.192-8.192 20.48-8.192 28.672 0s8.192 20.48 0 28.672L512 684.032l-96.256-96.256c-8.192-8.192-8.192-20.48 0-28.672s20.48-8.192 28.672 0zM409.6 204.8h204.8v204.8H409.6V204.8z m-20.48 512h245.76v204.8H389.12V716.8z m266.24-512h204.8v204.8h-204.8V204.8z m-204.8 163.84h122.88V245.76H450.56v122.88z m-20.48 512h163.84V757.76H430.08v122.88z m266.24-512H819.2V245.76H696.32v122.88z"></path></svg>