<?xml version="1.0" encoding="utf-8"?>
<svg xmlns="http://www.w3.org/2000/svg" viewBox="0 0 48 48" width="16" height="16" fill="context-fill" fill-opacity="context-fill-opacity">
  <path d="M20.476562 4.9785156 A 1.50015 1.50015 0 0 0 19 6.5L19 41.5 A 1.50015 1.50015 0 1 0 22 41.5L22 6.5 A 1.50015 1.50015 0 0 0 20.476562 4.9785156 z M 27.476562 4.9785156 A 1.50015 1.50015 0 0 0 26 6.5L26 41.5 A 1.50015 1.50015 0 1 0 29 41.5L29 6.5 A 1.50015 1.50015 0 0 0 27.476562 4.9785156 z M 38.484375 16.984375 A 1.50015 1.50015 0 0 0 37.439453 19.560547L40.878906 23L32.5 23 A 1.50015 1.50015 0 1 0 32.5 26L40.878906 26L37.439453 29.439453 A 1.50015 1.50015 0 1 0 39.560547 31.560547L45.560547 25.560547 A 1.50015 1.50015 0 0 0 45.560547 23.439453L39.560547 17.439453 A 1.50015 1.50015 0 0 0 38.484375 16.984375 z M 9.4707031 16.986328 A 1.50015 1.50015 0 0 0 8.4394531 17.439453L2.5683594 23.310547 A 1.50015 1.50015 0 0 0 2.5761719 25.697266L8.4394531 31.560547 A 1.50015 1.50015 0 1 0 10.560547 29.439453L7.1210938 26L15.5 26 A 1.50015 1.50015 0 1 0 15.5 23L7.1210938 23L10.560547 19.560547 A 1.50015 1.50015 0 0 0 9.4707031 16.986328 z" />
</svg>