<?xml version="1.0" encoding="utf-8"?>
<svg xmlns="http://www.w3.org/2000/svg" viewBox="0 0 50 50" fill="context-fill" fill-opacity="context-fill-opacity">
  <path d="M25 2C12.309534 2 2 12.309534 2 25C2 37.690466 12.309534 48 25 48C37.690466 48 48 37.690466 48 25C48 12.309534 37.690466 2 25 2 z M 25 4C36.609534 4 46 13.390466 46 25C46 36.609534 36.609534 46 25 46C13.390466 46 4 36.609534 4 25C4 13.390466 13.390466 4 25 4 z M 34.988281 14.988281 A 1.0001 1.0001 0 0 0 34.171875 15.439453L23.970703 30.476562L16.679688 23.710938 A 1.0001 1.0001 0 1 0 15.320312 25.177734L24.316406 33.525391L35.828125 16.560547 A 1.0001 1.0001 0 0 0 34.988281 14.988281 z" />
</svg>