<?xml version="1.0" encoding="utf-8"?>
<svg xmlns="http://www.w3.org/2000/svg" viewBox="0 0 50 50" width="16" height="16" fill="context-fill" fill-opacity="context-fill-opacity">
  <path d="M7.9941406 7C6.3401406 7 4.9941406 8.346 4.9941406 10L4.9941406 40C4.9941406 41.654 6.3401406 43 7.9941406 43L26.628906 43C26.419906 42.355 26.270062 41.685 26.164062 41L7.9941406 41C7.4431406 41 6.9941406 40.551 6.9941406 40L6.9941406 15L44.994141 15L44.994141 27.474609C45.702141 27.844609 46.370141 28.278578 46.994141 28.767578L46.994141 10C46.994141 8.346 45.648141 7 43.994141 7L7.9941406 7 z M 8.9941406 10C9.5461406 10 9.9941406 10.448 9.9941406 11C9.9941406 11.552 9.5461406 12 8.9941406 12C8.4421406 12 7.9941406 11.552 7.9941406 11C7.9941406 10.448 8.4421406 10 8.9941406 10 z M 11.994141 10C12.546141 10 12.994141 10.448 12.994141 11C12.994141 11.552 12.546141 12 11.994141 12C11.442141 12 10.994141 11.552 10.994141 11C10.994141 10.448 11.442141 10 11.994141 10 z M 14.994141 10C15.546141 10 15.994141 10.448 15.994141 11C15.994141 11.552 15.546141 12 14.994141 12C14.442141 12 13.994141 11.552 13.994141 11C13.994141 10.448 14.442141 10 14.994141 10 z M 36.900391 28L36.400391 31.199219C36.100391 31.299219 35.700391 31.499609 35.400391 31.599609L32.699219 29.699219L29.699219 32.699219L31.5 35.199219C31.3 35.499219 31.199609 35.900781 31.099609 36.300781L28 36.800781L28 41L31.099609 41.5C31.199609 41.8 31.4 42.2 31.5 42.5L29.699219 45.199219L32.699219 48.199219L35.400391 46.400391C35.800391 46.600391 36.1 46.700781 36.5 46.800781L36.900391 50L41.099609 50L41.599609 46.800781C41.899609 46.700781 42.299609 46.500391 42.599609 46.400391L45.300781 48.199219L48.300781 45.199219L46.400391 42.599609C46.600391 42.299609 46.700781 41.899609 46.800781 41.599609L50 41L50 36.800781L46.800781 36.300781C46.700781 36.000781 46.500391 35.600781 46.400391 35.300781L48.199219 32.599609L45.300781 29.699219L42.699219 31.599609C42.399219 31.399609 41.999219 31.299219 41.699219 31.199219L41.099609 28L36.900391 28 z M 39 36C40.7 36 42 37.3 42 39C42 40.7 40.7 42 39 42C37.3 42 36 40.7 36 39C36 37.3 37.3 36 39 36 z" />
</svg>