<svg xmlns="http://www.w3.org/2000/svg" fill-opacity="context-fill-opacity" fill="context-fill">
 <g>
  <path d="m2.89648,1.5c-0.82253,0 -1.5,0.67747 -1.5,1.5l0,10c0,0.82253 0.67747,1.5 1.5,1.5l10,0c0.82253,0 1.5,-0.67747 1.5,-1.5l0,-1.5l-1,0l0,1.5c0,0.28147 -0.21853,0.5 -0.5,0.5l-10,0c-0.28147,0 -0.5,-0.21853 -0.5,-0.5l0,-10c0,-0.28147 0.21853,-0.5 0.5,-0.5l10,0c0.28147,0 0.5,0.21853 0.5,0.5l0,1.5l1,0l0,-1.5c0,-0.82253 -0.67747,-1.5 -1.5,-1.5l-10,0zm8.22852,3.02148l-0.70704,0.70704l2.27149,2.27148l-7.29297,0l0,1l7.29297,0l-2.27149,2.27148l0.70704,0.70704l3.47851,-3.47852l-3.47851,-3.47852z"/>
 </g>
</svg>