<svg xmlns="http://www.w3.org/2000/svg" viewBox="0 0 48 48" width="16" height="16" fill="context-fill" fill-opacity="context-fill-opacity"><path d="M9.5 7C7.0324991 7 5 9.0324991 5 11.5L5 36.5C5 38.967501 7.0324991 41 9.5 41L38.5 41C40.967501 41 43 38.967501 43 36.5L43 17.986328L43 17.5L43 11.5C43 9.0324991 40.967501 7 38.5 7L17.5 7 A 1.50015 1.50015 0 0 0 17.242188 7.0195312C17.109672 7.0098665 16.977489 7 16.84375 7L9.5 7 z M 9.5 10L16.84375 10C17.505637 10 18.142285 10.263379 18.611328 10.732422L23.439453 15.560547 A 1.50015 1.50015 0 0 0 24.5 16L38.5 16C39.346499 16 40 16.653501 40 17.5L40 17.986328L40 36.5C40 37.346499 39.346499 38 38.5 38L9.5 38C8.6535009 38 8 37.346499 8 36.5L8 11.5C8 10.653501 8.6535009 10 9.5 10 z M 22.121094 10L38.5 10C39.346499 10 40 10.653501 40 11.5L40 13.279297C39.527904 13.109157 39.027452 13 38.5 13L25.121094 13L22.121094 10 z"/></svg>