<svg width="45.687480449676514" height="45.687480449676514" xmlns="http://www.w3.org/2000/svg" fill-opacity="context-fill-opacity" fill="context-fill"><path d="m14.28289,1.15626c-7.22947,0 -13.12663,5.89715 -13.12663,13.12663l0,17.12169c0,7.2285 5.89695,13.12663 13.12663,13.12663l17.12169,0c7.22871,0 13.12663,-5.89792 13.12663,-13.12663l0,-17.12169c0,-7.22968 -5.89812,-13.12663 -13.12663,-13.12663l-17.12169,0zm0,3.42434l17.12169,0c5.37762,0 9.70229,4.32356 9.70229,9.70229l0,17.12169c0,5.37742 -4.32487,9.70229 -9.70229,9.70229l-17.12169,0c-5.37873,0 -9.70229,-4.32466 -9.70229,-9.70229l0,-17.12169c0,-5.37894 4.32335,-9.70229 9.70229,-9.70229zm19.9753,4.56578c-1.2613,0 -2.28289,1.02159 -2.28289,2.28289c0,1.2613 1.02159,2.28289 2.28289,2.28289c1.2613,0 2.28289,-1.02159 2.28289,-2.28289c0,-1.2613 -1.02159,-2.28289 -2.28289,-2.28289zm-11.41446,2.28289c-6.28345,0 -11.41446,5.131 -11.41446,11.41446c0,6.28345 5.131,11.41446 11.41446,11.41446c6.28345,0 11.41446,-5.131 11.41446,-11.41446c0,-6.28345 -5.131,-11.41446 -11.41446,-11.41446zm0,3.42434c4.43244,0 7.99012,3.55768 7.99012,7.99012c0,4.43244 -3.55768,7.99012 -7.99012,7.99012c-4.43244,0 -7.99012,-3.55768 -7.99012,-7.99012c0,-4.43244 3.55768,-7.99012 7.99012,-7.99012z"/></svg>