<svg viewBox="0 0 1024 1024" xmlns="http://www.w3.org/2000/svg" xmlns:xlink="http://www.w3.org/1999/xlink" fill="context-fill" fill-opacity="context-fill-opacity"><path d="M503.765333 16.490667C360.026334 16.490667 191.016359 50.680811 46.699266 125.007211l-22.504382 11.520592v25.436145c0 153.236261 2.931764 562.114046 458.387425 832.827312L503.765333 1007.509333l21.183024-12.718073c455.455662-270.713266 458.346133-679.591051 458.346134-832.868604v-25.105806l-22.215335-11.64447C818.496345 50.556933 647.504332 16.490667 503.765333 16.490667z m0 83.080398c122.9689 0 271.869454 31.506135 395.416448 90.7195-0.33034 160.545024-17.260242 476.638686-395.416448 715.598063-378.156206-238.959376-395.127401-555.053038-395.416448-715.598063C233.712747 130.870738 380.796434 99.571065 503.765333 99.571065z m207.907458 229.792453c-10.736036 0.33034-19.985543 7.143593-25.188391 12.346441l-222.153351 230.41184-83.080398-99.638668c-39.434284-45.669444-93.403509-10.364404-105.873828-2.064623l193.124763 224.217974 263.652258-357.09706a28.904711 28.904711 0 0 0-20.481053-8.175904z"></path></svg>