<?xml version="1.0" ?><!DOCTYPE svg  PUBLIC '-//W3C//DTD SVG 1.1//EN'  'http://www.w3.org/Graphics/SVG/1.1/DTD/svg11.dtd'><!-- Uploaded to: SVG Repo, www.svgrepo.com, Transformed by: SVG Repo Tools -->
<svg fill="context-fill" fill-opacity="context-fill-opacity" viewBox="0 0 32 32" style="fill-rule:evenodd;clip-rule:evenodd;stroke-linejoin:round;stroke-miterlimit:2;" version="1.1" xml:space="preserve" xmlns="http://www.w3.org/2000/svg" xmlns:serif="http://www.serif.com/" xmlns:xlink="http://www.w3.org/1999/xlink"><path d="M4.258,6.276c-1.409,1.449 -2.203,3.414 -2.203,5.464c-0,2.049 0.794,4.014 2.203,5.463l9.624,9.899c0.568,0.585 1.34,0.911 2.143,0.911c0.804,-0 1.575,-0.326 2.143,-0.911c1.743,-1.792 9.618,-9.907 9.618,-9.907c1.408,-1.449 2.202,-3.414 2.202,-5.463c-0,-2.05 -0.794,-4.015 -2.203,-5.464c-0,-0 -0,-0 -0,-0c-1.419,-1.46 -3.345,-2.278 -5.352,-2.278c-2.006,0 -3.932,0.818 -5.351,2.278c-0,-0 -1.065,1.095 -1.065,1.095c0,-0 -1.056,-1.087 -1.056,-1.087c-1.419,-1.46 -3.345,-2.277 -5.352,-2.277c-2.007,-0 -3.932,0.817 -5.351,2.277Zm20.93,10.724l-4.246,-0c-0.446,-0 -0.838,-0.295 -0.961,-0.724c-0,-0 -0.732,-2.549 -0.732,-2.549l-3.397,6.724c-0.18,0.355 -0.553,0.57 -0.951,0.547c-0.397,-0.023 -0.743,-0.279 -0.88,-0.653c-0,0 -2.144,-5.826 -2.144,-5.826l-0.988,1.936c-0.17,0.334 -0.513,0.544 -0.888,0.545l-3.145,0.007l8.46,8.701c0.188,0.194 0.443,0.305 0.709,0.305c0.267,-0 0.521,-0.111 0.709,-0.305c1.326,-1.363 6.197,-6.382 8.454,-8.708Zm1.812,-2c0.639,-0.954 0.988,-2.093 0.988,-3.268c-0,-1.526 -0.588,-2.991 -1.627,-4.06c-0.003,-0.003 -0.007,-0.007 -0.01,-0.01c-1.039,-1.069 -2.448,-1.672 -3.918,-1.672c-1.469,0 -2.878,0.603 -3.917,1.672l-1.782,1.832c-0.188,0.194 -0.447,0.303 -0.717,0.303c-0.27,0 -0.528,-0.109 -0.717,-0.303c0,0 -1.773,-1.824 -1.773,-1.824c-1.04,-1.069 -2.448,-1.671 -3.918,-1.671c-1.47,-0 -2.878,0.602 -3.917,1.671l-0,0c-1.05,1.079 -1.637,2.544 -1.637,4.07c-0,1.176 0.349,2.316 0.99,3.271l4.341,-0.01l1.75,-3.428c0.18,-0.354 0.553,-0.567 0.95,-0.544c0.397,0.024 0.742,0.28 0.879,0.653c-0,0 2.139,5.815 2.139,5.815l3.51,-6.948c0.186,-0.367 0.578,-0.583 0.987,-0.545c0.41,0.039 0.754,0.325 0.867,0.72c0,0 1.227,4.276 1.227,4.276l5.305,-0Z"/></svg>