<svg width="24" height="24" xmlns="http://www.w3.org/2000/svg">
  <path d="m14.99805,2.99903l-6,0.00586l-1.83399,1.99609l-3.16406,0c-1.1,0 -2,0.9 -2,2l0,12c0,1.1 0.9,2 2,2l16,0c1.1,0 2,-0.9 2,-2l0,-12c0,-1.1 -0.9,-2 -2,-2l-3.15625,0l-1.8457,-2.00195zm-0.87696,2l1.84571,2.00195l4.0332,0l0,12l-16,0l0,-12l4.04297,0l1.83594,-1.99805l4.24218,-0.0039zm-2.12109,3.00195c-2.761,0 -5,2.239 -5,5c0,2.761 2.239,5 5,5c2.761,0 5,-2.239 5,-5c0,-2.761 -2.239,-5 -5,-5zm0,2c1.657,0 3,1.343 3,3c0,1.657 -1.343,3 -3,3c-1.657,0 -3,-1.343 -3,-3c0,-1.657 1.343,-3 3,-3z"/>
</svg>