<svg xmlns="http://www.w3.org/2000/svg" viewBox="0 0 16 16" fill="context-fill" fill-opacity="context-fill-opacity"><path d="M2.5 2C1.675781 2 1 2.675781 1 3.5L1 12.5C1 13.324219 1.675781 14 2.5 14L13.5 14C14.324219 14 15 13.324219 15 12.5L15 3.5C15 2.675781 14.324219 2 13.5 2 Z M 2.5 3L13.5 3C13.78125 3 14 3.21875 14 3.5L14 10.765625L10.496094 7.066406L8.542969 9.265625L5.53125 6.089844L2 10.066406L2 3.5C2 3.21875 2.21875 3 2.5 3 Z M 11 4C10.449219 4 10 4.449219 10 5C10 5.550781 10.449219 6 11 6C11.550781 6 12 5.550781 12 5C12 4.449219 11.550781 4 11 4 Z M 5.554688 7.566406L10.707031 13L2.5 13C2.21875 13 2 12.78125 2 12.5L2 11.574219 Z M 10.515625 8.546875L14 12.21875L14 12.5C14 12.78125 13.78125 13 13.5 13L12.082031 13L9.234375 9.992188Z"/></svg>