<?xml version="1.0" encoding="utf-8"?>
<svg xmlns="http://www.w3.org/2000/svg" viewBox="0 0 50 50" width="32" height="32" fill="context-fill" fill-opacity="context-fill-opacity">
  <path d="M0.00390625 3L0.00390625 35L2 35L2 5L45 5L45 3 Z M 4 7L4 39L27 39L27 37L6 37L6 34.980469L18.808594 24.851563C19.84375 25.757813 21.757813 27.421875 22 27.632813C23.523438 28.960938 25.140625 29.296875 26.175781 29.296875C27.210938 29.296875 28.828125 28.960938 30.355469 27.632813C31.539063 26.601563 43.179688 16.453125 46 13.996094L46 31L48 33L48 7 Z M 6 9L46 9L46 11.34375C44.964844 12.246094 30.3125 25.019531 29.042969 26.125C27.921875 27.101563 26.78125 27.296875 26.175781 27.296875C25.570313 27.296875 24.433594 27.097656 23.3125 26.125C22.007813 24.988281 6.441406 11.421875 6 11.035156 Z M 6 13.6875C7.695313 15.167969 12.71875 19.546875 17.273438 23.515625L6 32.429688 Z M 39.988281 29.988281C39.582031 29.992188 39.21875 30.238281 39.0625 30.613281C38.910156 30.992188 39 31.421875 39.292969 31.707031L44.585938 37L31 37L31 39L44.585938 39L39.292969 44.292969C39.03125 44.542969 38.925781 44.917969 39.019531 45.265625C39.109375 45.617188 39.382813 45.890625 39.734375 45.980469C40.082031 46.074219 40.457031 45.96875 40.707031 45.707031L48.414063 38L40.707031 30.292969C40.519531 30.097656 40.261719 29.992188 39.988281 29.988281Z" />
</svg>