<?xml version="1.0" encoding="utf-8"?>
<svg xmlns="http://www.w3.org/2000/svg" viewBox="0 0 24 24" fill="context-fill" fill-opacity="context-fill-opacity">
  <path d="M12 4C4 4 1 12 1 12C1 12 4 20 12 20C20 20 23 12 23 12C23 12 20 4 12 4 z M 12 6C17.276 6 19.944594 10.267094 20.808594 11.996094C19.943594 13.713094 17.255 18 12 18C6.724 18 4.0554062 13.732906 3.1914062 12.003906C4.0574062 10.286906 6.745 6 12 6 z M 12 8C9.791 8 8 9.791 8 12C8 14.209 9.791 16 12 16C14.209 16 16 14.209 16 12C16 9.791 14.209 8 12 8 z M 12 10C13.105 10 14 10.895 14 12C14 13.105 13.105 14 12 14C10.895 14 10 13.105 10 12C10 10.895 10.895 10 12 10 z" />
</svg>