<?xml version="1.0" encoding="utf-8"?>
<svg xmlns="http://www.w3.org/2000/svg" viewBox="0 0 80 80" fill="context-fill" fill-opacity="context-fill-opacity">
  <path d="M11 13C8.800781 13 7 14.800781 7 17L7 63C7 65.199219 8.800781 67 11 67L69 67C71.199219 67 73 65.199219 73 63L73 17C73 14.800781 71.199219 13 69 13 Z M 11 15L69 15C70.117188 15 71 15.882813 71 17L71 63C71 64.117188 70.117188 65 69 65L11 65C9.882813 65 9 64.117188 9 63L9 17C9 15.882813 9.882813 15 11 15 Z M 9 50C9 50.550781 9.449219 51 10 51C10.550781 51 11 50.550781 11 50C11 49.449219 10.550781 49 10 49C9.449219 49 9 49.449219 9 50 Z M 71 50C71 49.449219 70.550781 49 70 49C69.449219 49 69 49.449219 69 50C69 50.550781 69.449219 51 70 51C70.550781 51 71 50.550781 71 50 Z M 14 49C13.449219 49 13 49.449219 13 50C13 50.550781 13.449219 51 14 51C14.550781 51 15 50.550781 15 50C15 49.449219 14.550781 49 14 49 Z M 18 49C17.449219 49 17 49.449219 17 50C17 50.550781 17.449219 51 18 51C18.550781 51 19 50.550781 19 50C19 49.449219 18.550781 49 18 49 Z M 22 49C21.449219 49 21 49.449219 21 50C21 50.550781 21.449219 51 22 51C22.550781 51 23 50.550781 23 50C23 49.449219 22.550781 49 22 49 Z M 26 49C25.449219 49 25 49.449219 25 50C25 50.550781 25.449219 51 26 51C26.550781 51 27 50.550781 27 50C27 49.449219 26.550781 49 26 49 Z M 30 49C29.449219 49 29 49.449219 29 50C29 50.550781 29.449219 51 30 51C30.550781 51 31 50.550781 31 50C31 49.449219 30.550781 49 30 49 Z M 34 49C33.449219 49 33 49.449219 33 50C33 50.550781 33.449219 51 34 51C34.550781 51 35 50.550781 35 50C35 49.449219 34.550781 49 34 49 Z M 38 49C37.449219 49 37 49.449219 37 50C37 50.550781 37.449219 51 38 51C38.550781 51 39 50.550781 39 50C39 49.449219 38.550781 49 38 49 Z M 42 49C41.449219 49 41 49.449219 41 50C41 50.550781 41.449219 51 42 51C42.550781 51 43 50.550781 43 50C43 49.449219 42.550781 49 42 49 Z M 46 49C45.449219 49 45 49.449219 45 50C45 50.550781 45.449219 51 46 51C46.550781 51 47 50.550781 47 50C47 49.449219 46.550781 49 46 49 Z M 50 49C49.449219 49 49 49.449219 49 50C49 50.550781 49.449219 51 50 51C50.550781 51 51 50.550781 51 50C51 49.449219 50.550781 49 50 49 Z M 54 49C53.449219 49 53 49.449219 53 50C53 50.550781 53.449219 51 54 51C54.550781 51 55 50.550781 55 50C55 49.449219 54.550781 49 54 49 Z M 58 49C57.449219 49 57 49.449219 57 50C57 50.550781 57.449219 51 58 51C58.550781 51 59 50.550781 59 50C59 49.449219 58.550781 49 58 49 Z M 62 49C61.449219 49 61 49.449219 61 50C61 50.550781 61.449219 51 62 51C62.550781 51 63 50.550781 63 50C63 49.449219 62.550781 49 62 49 Z M 66 49C65.449219 49 65 49.449219 65 50C65 50.550781 65.449219 51 66 51C66.550781 51 67 50.550781 67 50C67 49.449219 66.550781 49 66 49 Z M 16 54C13.800781 54 12 55.800781 12 58C12 60.199219 13.800781 62 16 62C18.199219 62 20 60.199219 20 58C20 55.800781 18.199219 54 16 54 Z M 26 54C23.800781 54 22 55.800781 22 58C22 60.199219 23.800781 62 26 62C28.199219 62 30 60.199219 30 58C30 55.800781 28.199219 54 26 54 Z M 33 54L33 62L68 62L68 54 Z M 16 56C17.117188 56 18 56.882813 18 58C18 59.117188 17.117188 60 16 60C14.882813 60 14 59.117188 14 58C14 56.882813 14.882813 56 16 56 Z M 26 56C27.117188 56 28 56.882813 28 58C28 59.117188 27.117188 60 26 60C24.882813 60 24 59.117188 24 58C24 56.882813 24.882813 56 26 56 Z M 35 56L66 56L66 60L35 60Z" />
</svg>