<?xml version="1.0" encoding="utf-8"?>
<svg xmlns="http://www.w3.org/2000/svg" viewBox="0 0 48 48" fill="context-fill" fill-opacity="context-fill-opacity">
  <path d="M10 6.0644531C7.791 6.0644531 6 7.8554531 6 10.064453L6 38.066406C6 40.275406 7.791 42.066406 10 42.066406L38 42.066406C40.209 42.066406 42 40.275406 42 38.066406L42 10.064453C42 7.8554531 40.209 6.0644531 38 6.0644531L10 6.0644531 z M 10 9.0644531L38 9.0644531C38.551 9.0644531 39 9.5134531 39 10.064453L39 38.066406C39 38.617406 38.551 39.066406 38 39.066406L10 39.066406C9.449 39.066406 9 38.617406 9 38.066406L9 10.064453C9 9.5134531 9.449 9.0644531 10 9.0644531 z M 21.5 16.910156C20.671 16.910156 20 17.581156 20 18.410156L20 24.259766L15.765625 17.605469C15.407625 17.042469 14.718078 16.784703 14.080078 16.970703C13.439078 17.156703 13 17.743156 13 18.410156L13 29.410156C13 30.239156 13.671 30.910156 14.5 30.910156C15.329 30.910156 16 30.239156 16 29.410156L16 23.5625L20.234375 30.216797C20.515375 30.657797 20.997 30.910156 21.5 30.910156C21.64 30.910156 21.781922 30.891562 21.919922 30.851562C22.560922 30.665563 23 30.077156 23 29.410156L23 18.410156C23 17.581156 22.329 16.910156 21.5 16.910156 z M 30.216797 20C28.411797 20 25.662109 20.505703 25.662109 22.345703C25.662109 23.212703 26.341828 23.751953 27.173828 23.751953C28.335828 23.751953 28.572688 22.539062 30.179688 22.539062C31.502688 22.539063 31.615234 23.287344 31.615234 24.402344L30.330078 24.402344C27.985078 24.402344 25 24.769641 25 27.806641C25 29.864641 26.606625 31 28.515625 31C29.876625 31 30.935047 30.614516 31.748047 29.478516C31.862047 30.285516 32.541047 30.902344 33.373047 30.902344C34.299047 30.902344 35 30.114406 35 29.191406L35 24.365234C35 21.154234 33.185797 20 30.216797 20 z M 30.519531 26.308594L31.636719 26.308594L31.636719 26.480469C31.636719 27.711469 30.954922 28.710938 29.669922 28.710938C28.988922 28.710938 28.440406 28.327656 28.441406 27.597656C28.441406 26.462656 29.650531 26.308594 30.519531 26.308594 z" />
</svg>