<svg xmlns="http://www.w3.org/2000/svg" viewBox="0 0 48 48" fill="context-fill" fill-opacity="context-fill-opacity" width="16" height="16" transform="scale(1.25)">
  <path d="M10.5 6C8.226 6 6.2698437 7.3880781 5.4335938 9.3613281C5.3639063 9.5257773 5.301707 9.6931145 5.2480469 9.8652344C5.1941478 10.037893 5.1481562 10.213141 5.1113281 10.392578C5.074625 10.57144 5.0481133 10.752823 5.0292969 10.9375C5.0103504 11.122755 5 11.309838 5 11.5L5 13.5L5 36.5C5 39.533 7.468 42 10.5 42L37.5 42C37.677 42 37.850437 41.989656 38.023438 41.972656L35.050781 39L10.5 39C9.121 39 8 37.878 8 36.5L8 15L40 15L40 34.050781L42.974609 37.023438C42.990609 36.851438 43 36.677 43 36.5L43 13.5L43 11.5C43 11.309838 42.98965 11.122755 42.970703 10.9375C42.951887 10.752823 42.925375 10.57144 42.888672 10.392578C42.851844 10.213141 42.805852 10.037893 42.751953 9.8652344C42.698293 9.6931145 42.636094 9.5257773 42.566406 9.3613281C41.730156 7.3880781 39.774 6 37.5 6L10.5 6 z M 10.5 9C11.328 9 12 9.672 12 10.5C12 11.328 11.328 12 10.5 12C9.672 12 9 11.328 9 10.5C9 9.7755 9.5139453 9.1711953 10.197266 9.03125C10.294883 9.0112578 10.3965 9 10.5 9 z M 15.5 9C16.328 9 17 9.672 17 10.5C17 11.328 16.328 12 15.5 12C14.672 12 14 11.328 14 10.5C14 9.672 14.672 9 15.5 9 z M 21.5 9L37.5 9C37.6035 9 37.705117 9.0112578 37.802734 9.03125C38.486055 9.1711953 39 9.7755 39 10.5C39 11.328 38.328 12 37.5 12L21.5 12C20.672 12 20 11.328 20 10.5C20 9.672 20.672 9 21.5 9 z M 31 23C27.151772 23 24 26.151775 24 30C24 33.848225 27.151772 37 31 37C32.377137 37 33.591509 36.493569 34.677734 35.798828L39.439453 40.560547 A 1.50015 1.50015 0 1 0 41.560547 38.439453L36.798828 33.677734C37.493568 32.591508 38 31.377136 38 30C38 26.151775 34.848228 23 31 23 z M 31 26C33.226909 26 35 27.773093 35 30C35 32.226907 33.226909 34 31 34C28.773091 34 27 32.226907 27 30C27 27.773093 28.773091 26 31 26 z" fill="#5B5B5B" />
</svg>