<?xml version="1.0" encoding="utf-8"?>
<svg version="1.1" xmlns="http://www.w3.org/2000/svg" xmlns:xlink="http://www.w3.org/1999/xlink"
	 viewBox="0 0 200 200" xml:space="preserve" fill="context-fill" fill-opacity="context-fill-opacity">
<path d="M190.3,45.2L98,137.5H64.7v-33.3L157,11.9c1.3-1.3,3-1.9,4.7-1.9c1.7,0,3.4,0.6,4.7,1.9l23.9,23.9c1.3,1.3,1.9,3,1.9,4.7
	C192.2,42.2,191.6,43.9,190.3,45.2z M161.7,29.4l-80.4,80.4v11.1h11.1l80.4-80.4L161.7,29.4L161.7,29.4z M100.7,37.7H31.4v133h133
	v-69.3c0-4.6,3.7-8.3,8.3-8.3c4.6,0,8.3,3.7,8.3,8.3v74.8c0,6.1-5,11.1-11.1,11.1H25.9c-6.1,0-11.1-5-11.1-11.1V32.2
	c0-6.1,5-11.1,11.1-11.1h74.8c4.6,0,8.3,3.7,8.3,8.3S105.3,37.7,100.7,37.7z"/>
</svg>
