<?xml version="1.0" encoding="utf-8"?>
<svg xmlns="http://www.w3.org/2000/svg" viewBox="0 0 50 50" width="16" height="16" fill="context-fill" fill-opacity="context-fill-opacity">
  <path d="M30.171875 2.0390625C29.772308 2.0096943 29.362201 2.0810982 28.982422 2.2636719L25 4.1582031L21.015625 2.2617188L21.013672 2.2617188C20.002382 1.7791224 18.778851 2.0829241 18.105469 2.9746094L18.105469 2.9765625L15.457031 6.5097656L11.044922 6.6835938L11.042969 6.6835938C9.9255354 6.7290366 8.9829928 7.5667188 8.8046875 8.671875L8.0996094 13.029297L4.2753906 15.236328C3.3056554 15.794558 2.8566519 16.972299 3.2109375 18.035156L4.6152344 22.224609L2.2519531 25.953125C1.653025 26.897913 1.8025001 28.150398 2.6132812 28.925781L5.7988281 31.980469L5.4394531 36.380859C5.3485071 37.497478 6.0657317 38.532982 7.1367188 38.845703L7.1386719 38.845703L11.380859 40.068359L13.107422 44.132812L13.107422 44.134766C13.546532 45.160473 14.661112 45.762119 15.767578 45.523438L20.087891 44.638672L23.501953 47.433594L23.501953 47.431641C23.93523 47.787366 24.471731 47.96875 25.001953 47.96875C25.534225 47.96875 26.067883 47.786414 26.5 47.431641L29.914062 44.636719L34.234375 45.521484C35.338687 45.758366 36.455946 45.160945 36.894531 44.130859L38.621094 40.068359L42.861328 38.845703L42.863281 38.845703C43.937226 38.53478 44.653174 37.495811 44.5625 36.380859L44.203125 31.978516L47.388672 28.923828C48.198308 28.148325 48.351272 26.896576 47.751953 25.951172L45.388672 22.222656L46.792969 18.033203L46.792969 18.03125C47.143072 16.970842 46.699089 15.79309 45.728516 15.234375L41.902344 13.027344L41.199219 8.6679688L41.199219 8.6660156C41.016296 7.5654307 40.074551 6.7290351 38.957031 6.6835938L34.544922 6.5097656L31.896484 2.9785156C31.559851 2.5296706 31.083761 2.2289026 30.566406 2.1015625C30.437068 2.0697275 30.305064 2.0488519 30.171875 2.0390625 z M 20.037109 3.96875C20.085171 3.9736939 20.133612 3.9877294 20.179688 4.0097656L25 6.3027344L29.820312 4.0097656L29.822266 4.0097656C30.003522 3.9226286 30.220971 3.9743156 30.345703 4.140625L33.546875 8.4101562L38.878906 8.6191406C39.089387 8.6277006 39.251988 8.7730047 39.287109 8.984375L40.136719 14.246094L44.761719 16.914062C44.940541 17.017003 45.019788 17.222902 44.955078 17.421875L43.259766 22.480469L46.115234 26.988281C46.225587 27.162358 46.200028 27.380795 46.048828 27.525391L42.197266 31.21875L42.630859 36.537109C42.648189 36.750158 42.528274 36.925298 42.324219 36.984375L37.197266 38.462891L35.113281 43.373047C35.029861 43.568961 34.832313 43.670024 34.640625 43.628906L34.636719 43.626953L29.400391 42.554688L25.271484 45.933594C25.189604 46.000824 25.099681 46.03125 25.001953 46.03125C24.902173 46.03125 24.811192 46.001817 24.730469 45.935547L20.601562 42.556641L15.365234 43.628906L15.359375 43.628906C15.167841 43.670226 14.973562 43.569386 14.888672 43.371094L14.888672 43.375L12.804688 38.462891L7.6796875 36.986328C7.4766676 36.927096 7.3540401 36.748444 7.3710938 36.539062L7.8046875 31.21875L3.953125 27.527344L3.953125 27.525391C3.8019062 27.380821 3.7756468 27.165446 3.8867188 26.990234L6.7441406 22.482422L5.046875 17.421875C4.981161 17.224732 5.05997 17.019785 5.2402344 16.916016L5.2421875 16.916016L9.8652344 14.248047L10.716797 8.9804688C10.750397 8.7721855 10.911399 8.6283981 11.121094 8.6191406L16.453125 8.4101562L19.652344 4.1425781C19.748498 4.0152511 19.892925 3.9539185 20.037109 3.96875 z M 12 21L12 29L13.419922 29L13.419922 23.087891L17.392578 29L19 29L19 21L17.580078 21L17.580078 26.912109L13.607422 21L12 21 z M 21 21L21 29L27 29L27 27.78125L22.433594 27.78125L22.433594 25.160156L26.642578 25.160156L26.642578 24.03125L22.433594 24.03125L22.433594 22.216797L27 22.216797L27 21L21 21 z M 28 21L30.181641 29L31.726562 29L33.544922 22.912109L35.271484 29L36.726562 29L39 21L37.455078 21L35.908203 27.173828L34.271484 21L32.726562 21L31 27.173828L29.455078 21L28 21 z" />
</svg>