<?xml version="1.0" encoding="utf-8"?>
<svg xmlns="http://www.w3.org/2000/svg" viewBox="0 0 30 30" fill="context-fill" fill-opacity="context-fill-opacity">
  <path d="M15 3C8.3845336 3 3 8.3845336 3 15C3 21.615466 8.3845336 27 15 27C21.615466 27 27 21.615466 27 15 A 1.0001 1.0001 0 1 0 25 15C25 20.534534 20.534534 25 15 25C9.4654664 25 5 20.534534 5 15C5 9.4654664 9.4654664 5 15 5C17.511974 5 19.790481 5.9310235 21.544922 7.4550781L19 10L25 10L25 4L22.960938 6.0390625C20.840494 4.1553732 18.053851 3 15 3 z" />
</svg>