<svg xmlns="http://www.w3.org/2000/svg" viewBox="0 0 32 32" fill="context-fill" fill-opacity="context-fill-opacity">
  <path d="M12 2C8.144531 2 5 5.144531 5 9C5 11.410156 6.230469 13.550781 8.09375 14.8125C4.527344 16.34375 2 19.882813 2 24L4 24C4 19.570313 7.570313 16 12 16C13.375 16 14.65625 16.359375 15.78125 16.96875C14.671875 18.34375 14 20.101563 14 22C14 26.40625 17.59375 30 22 30C26.40625 30 30 26.40625 30 22C30 17.59375 26.40625 14 22 14C20.253906 14 18.628906 14.574219 17.3125 15.53125C16.871094 15.253906 16.390625 15.019531 15.90625 14.8125C17.769531 13.550781 19 11.410156 19 9C19 5.144531 15.855469 2 12 2 Z M 12 4C14.773438 4 17 6.226563 17 9C17 11.773438 14.773438 14 12 14C9.226563 14 7 11.773438 7 9C7 6.226563 9.226563 4 12 4 Z M 22 16C25.324219 16 28 18.675781 28 22C28 25.324219 25.324219 28 22 28C18.675781 28 16 25.324219 16 22C16 18.675781 18.675781 16 22 16 Z M 25.28125 19.28125L22 22.5625L19.71875 20.28125L18.28125 21.71875L21.28125 24.71875L22 25.40625L22.71875 24.71875L26.71875 20.71875Z"/>
</svg>