<svg xmlns="http://www.w3.org/2000/svg" viewBox="0 0 48 48" width="16" height="16" fill="context-fill" fill-opacity="context-fill-opacity" transform="scale(1.4, 1.2)">
  <path d="M24 4C19.599415 4 16 7.599415 16 12L16 16L12.5 16C10.032499 16 8 18.032499 8 20.5L8 39.5C8 41.967501 10.032499 44 12.5 44L35.5 44C37.967501 44 40 41.967501 40 39.5L40 20.5C40 18.032499 37.967501 16 35.5 16L32 16L32 12C32 7.599415 28.400585 4 24 4 z M 24 7C26.779415 7 29 9.220585 29 12L29 16L19 16L19 12C19 9.220585 21.220585 7 24 7 z M 12.5 19L35.5 19C36.346499 19 37 19.653501 37 20.5L37 39.5C37 40.346499 36.346499 41 35.5 41L12.5 41C11.653501 41 11 40.346499 11 39.5L11 20.5C11 19.653501 11.653501 19 12.5 19 z M 24 27 A 3 3 0 0 0 24 33 A 3 3 0 0 0 24 27 z"/>
</svg>