<svg xmlns="http://www.w3.org/2000/svg" viewBox="0 0 26 26" width="16" height="16" fill="context-fill" fill-opacity="context-fill-opacity">
  <path d="M4 0C1.796875 0 0 1.796875 0 4L0 22C0 24.203125 1.796875 26 4 26L17 26C18.0625 26 19.539063 24.464844 21.25 22.71875C21.488281 22.476563 21.722656 22.246094 21.96875 22C22.214844 21.753906 22.476563 21.488281 22.71875 21.25C24.464844 19.539063 26 18.0625 26 17L26 4C26 1.796875 24.203125 0 22 0 Z M 4 2L22 2C23.105469 2 24 2.894531 24 4L24 17C24 17.996094 22.996094 18 22 18L19 18C18.449219 18 18 18.449219 18 19L18 22.0625C18 22.949219 18.003906 23.816406 17.28125 24L4 24C2.894531 24 2 23.105469 2 22L2 4C2 2.894531 2.894531 2 4 2 Z M 6.8125 8C6.261719 8.050781 5.855469 8.542969 5.90625 9.09375C5.957031 9.644531 6.449219 10.050781 7 10L19 10C19.359375 10.003906 19.695313 9.816406 19.878906 9.503906C20.058594 9.191406 20.058594 8.808594 19.878906 8.496094C19.695313 8.183594 19.359375 7.996094 19 8L7 8C6.96875 8 6.9375 8 6.90625 8C6.875 8 6.84375 8 6.8125 8 Z M 6.8125 13C6.261719 13.050781 5.855469 13.542969 5.90625 14.09375C5.957031 14.644531 6.449219 15.050781 7 15L17 15C17.359375 15.003906 17.695313 14.816406 17.878906 14.503906C18.058594 14.191406 18.058594 13.808594 17.878906 13.496094C17.695313 13.183594 17.359375 12.996094 17 13L7 13C6.96875 13 6.9375 13 6.90625 13C6.875 13 6.84375 13 6.8125 13Z"/>
</svg>