<svg width="48" height="48" xmlns="http://www.w3.org/2000/svg" fill-opacity="context-fill-opacity" fill="context-fill"><path d="m24,0.79646c-12.88889,0 -23.375,10.40918 -23.375,23.20354c0,12.79435 10.48611,23.20354 23.375,23.20354c12.88889,0 23.375,-10.40918 23.375,-23.20354c0,-12.79435 -10.48611,-23.20354 -23.375,-23.20354zm0,3.48054c10.99398,0 19.86875,8.80967 19.86875,19.72301c0,8.89318 -5.89408,16.38463 -14.025,18.85513l0,-5.93456c0,-2.21603 -1.28642,-4.11642 -3.14558,-5.06217a11.6875,9.28141 0 0 0 7.16317,-13.98331c0.51838,-1.58398 1.09748,-4.3623 -0.27849,-6.54865c-2.65291,0 -4.36475,1.80515 -5.18176,2.92763a11.6875,9.28141 0 0 0 -4.40109,-0.69565a11.6875,9.28141 0 0 0 -4.40563,0.68885c-0.81899,-1.12304 -2.52946,-2.92083 -5.1772,-2.92083c-1.57906,2.50906 -0.6029,5.20733 -0.0799,6.30847a11.6875,9.28141 0 0 0 6.95315,14.2303c-1.52655,0.78101 -2.66985,2.19823 -3.02003,3.91786l-1.53628,0c-1.51587,0 -2.10487,-0.61144 -2.92416,-1.64283c-0.80879,-1.03139 -1.67842,-1.72446 -2.72328,-2.01218c-0.56334,-0.05917 -0.94285,0.36617 -0.45198,0.74324c1.65846,1.12073 1.77292,2.95502 2.43795,4.15581c0.60541,1.08128 1.84581,2.05523 3.24831,2.05523l1.8353,0l0,3.77284c-8.13092,-2.47052 -14.025,-9.96196 -14.025,-18.85513c0,-10.91333 8.87476,-19.72301 19.86875,-19.72301l-0.00001,-0.00002l0.00002,-0.00001z"/></svg>