<?xml version="1.0" encoding="utf-8"?>
<svg xmlns="http://www.w3.org/2000/svg" viewBox="0 0 48 48" width="16" height="16" fill="context-fill" fill-opacity="context-fill-opacity">
  <path d="M24 4C12.972066 4 4 12.972074 4 24C4 35.027926 12.972066 44 24 44C35.027934 44 44 35.027926 44 24C44 12.972074 35.027934 4 24 4 z M 24 7C33.406615 7 41 14.593391 41 24C41 31.66536 35.956939 38.122519 29 40.251953L29 35.136719C29 33.226635 27.899316 31.588619 26.308594 30.773438 A 10 8 0 0 0 32.4375 18.720703C32.881044 17.355414 33.376523 14.960672 32.199219 13.076172C29.929345 13.076172 28.464667 14.632086 27.765625 15.599609 A 10 8 0 0 0 24 15 A 10 8 0 0 0 20.230469 15.59375C19.529731 14.625773 18.066226 13.076172 15.800781 13.076172C14.449711 15.238817 15.28492 17.564557 15.732422 18.513672 A 10 8 0 0 0 21.681641 30.779297C20.3755 31.452483 19.397283 32.674042 19.097656 34.15625L17.783203 34.15625C16.486203 34.15625 15.98225 33.629234 15.28125 32.740234C14.58925 31.851234 13.845172 31.253859 12.951172 31.005859C12.469172 30.954859 12.144453 31.321484 12.564453 31.646484C13.983453 32.612484 14.081391 34.193516 14.650391 35.228516C15.168391 36.160516 16.229687 37 17.429688 37L19 37L19 40.251953C12.043061 38.122519 7 31.66536 7 24C7 14.593391 14.593385 7 24 7 z" fill="#5B5B5B" />
</svg>