<?xml version="1.0" encoding="utf-8"?>
<svg xmlns="http://www.w3.org/2000/svg" viewBox="0 0 128 128" width="16" height="16" fill="context-fill" fill-opacity="context-fill-opacity">
  <path d="M14 3C12.3 3 11 4.3 11 6L11 124C11 125.7 12.3 127 14 127C15.7 127 17 125.7 17 124L17 6C17 4.3 15.7 3 14 3 z M 27.5 3C25.8 3 24.5 4.3 24.5 6C24.5 20.3 27.900781 34.600391 34.300781 47.400391L35.300781 49.300781C35.800781 50.300781 36.8 51 38 51C39.1 51 40.199219 50.300781 40.699219 49.300781L47.300781 35.900391L59.900391 39.5C61.000391 39.8 62.3 39.4 63 38.5C63.8 37.6 63.900391 36.299219 63.400391 35.199219L62.400391 33.300781C58.600391 25.700781 56.4 17.400391 56 8.9003906L104 8.9003906C107.9 8.9003906 111 12.000391 111 15.900391L111 123.90039C111 125.60039 112.3 126.90039 114 126.90039C115.7 126.90039 117 125.60039 117 123.90039L117 16C117 8.8 111.2 3 104 3L53 3C51.3 3 50 4.3 50 6C50 14.9 51.799219 23.700391 55.199219 31.900391L46.599609 29.400391C45.199609 29.000391 43.7 29.7 43 31L38 41.199219C33.1 30.199219 30.5 18.1 30.5 6C30.5 4.3 29.2 3 27.5 3 z M 34 66C32.3 66 31 67.3 31 69C31 70.7 32.3 72 34 72L89 72C90.7 72 92 70.7 92 69C92 67.3 90.7 66 89 66L34 66 z M 34 86C32.3 86 31 87.3 31 89C31 90.7 32.3 92 34 92L69 92C70.7 92 72 90.7 72 89C72 87.3 70.7 86 69 86L34 86 z" />
</svg>