<?xml version="1.0" encoding="utf-8"?>
<svg xmlns="http://www.w3.org/2000/svg" viewBox="0 0 30 30" width="16" height="16" fill="context-fill" fill-opacity="context-fill-opacity">
  <path d="M15 2C8.3844239 2 3 7.3844287 3 14C3 20.615571 8.3844239 26 15 26L25 26C26.105 26 27 25.105 27 24L27 14C27 7.3844287 21.615576 2 15 2 z M 15 4C20.534697 4 25 8.465307 25 14C25 19.534693 20.534697 24 15 24C9.4653034 24 5 19.534693 5 14C5 8.465307 9.4653034 4 15 4 z M 15.953125 6.9863281 A 1.0001 1.0001 0 0 0 15.013672 7.8359375L13.013672 19.835938 A 1.0001 1.0001 0 1 0 14.986328 20.164062L16.986328 8.1640625 A 1.0001 1.0001 0 0 0 15.953125 6.9863281 z M 10.980469 9.9882812 A 1.0001 1.0001 0 0 0 10.167969 10.445312L8.1679688 13.445312 A 1.0001 1.0001 0 0 0 8.1679688 14.554688L10.167969 17.554688 A 1.0001 1.0001 0 1 0 11.832031 16.445312L10.201172 14L11.832031 11.554688 A 1.0001 1.0001 0 0 0 10.980469 9.9882812 z M 18.988281 9.9882812 A 1.0001 1.0001 0 0 0 18.167969 11.554688L19.798828 14L18.167969 16.445312 A 1.0001 1.0001 0 1 0 19.832031 17.554688L21.832031 14.554688 A 1.0001 1.0001 0 0 0 21.832031 13.445312L19.832031 10.445312 A 1.0001 1.0001 0 0 0 18.988281 9.9882812 z" />
</svg>