<?xml version="1.0" encoding="utf-8"?>
<svg xmlns="http://www.w3.org/2000/svg" viewBox="0 0 50 50" width="16" height="16" fill="context-fill" fill-opacity="context-fill-opacity">
  <path d="M11 2L11 15L5 15C3.3550302 15 2 16.35503 2 18L2 36C2 37.64497 3.3550302 39 5 39L11 39L11 48L39 48L39 39L45 39C46.64497 39 48 37.64497 48 36L48 18C48 16.35503 46.64497 15 45 15L39 15L39 2L11 2 z M 13 4L37 4L37 15L13 15L13 4 z M 5 17L11.832031 17 A 1.0001 1.0001 0 0 0 12.158203 17L37.832031 17 A 1.0001 1.0001 0 0 0 38.158203 17L45 17C45.56503 17 46 17.43497 46 18L46 36C46 36.56503 45.56503 37 45 37L39 37L39 28L38 28L11 28L11 37L5 37C4.4349698 37 4 36.56503 4 36L4 18C4 17.43497 4.4349698 17 5 17 z M 41 20 A 2 2 0 0 0 39 22 A 2 2 0 0 0 41 24 A 2 2 0 0 0 43 22 A 2 2 0 0 0 41 20 z M 13 30L37 30L37 37.832031 A 1.0001 1.0001 0 0 0 37 38.158203L37 46L13 46L13 38.167969 A 1.0001 1.0001 0 0 0 13 37.841797L13 30 z M 17 33 A 1.0001 1.0001 0 1 0 17 35L33 35 A 1.0001 1.0001 0 1 0 33 33L17 33 z M 17 37 A 1.0001 1.0001 0 1 0 17 39L29 39 A 1.0001 1.0001 0 1 0 29 37L17 37 z M 17 41 A 1.0001 1.0001 0 1 0 17 43L33 43 A 1.0001 1.0001 0 1 0 33 41L17 41 z" />
</svg>