<?xml version="1.0" encoding="utf-8"?>
<svg xmlns="http://www.w3.org/2000/svg" viewBox="0 0 48 48" width="16" height="16" fill="context-fill" fill-opacity="context-fill-opacity">
  <path d="M12.5 4C10.019 4 8 6.019 8 8.5L8 39.5C8 41.981 10.019 44 12.5 44L25.619141 44C24.766141 43.111 24.038844 42.102 23.464844 41L12.5 41C11.673 41 11 40.327 11 39.5L11 8.5C11 7.673 11.673 7 12.5 7L24 7L24 15.5C24 17.981 26.019 20 28.5 20L37 20L37 22.152344C38.046 22.314344 39.052 22.600094 40 22.996094L40 18.5C40 18.0855 39.832047 17.710828 39.560547 17.439453L26.560547 4.4394531C26.289047 4.1680781 25.914 4 25.5 4L12.5 4 z M 27 9.1210938L34.878906 17L28.5 17C27.673 17 27 16.327 27 15.5L27 9.1210938 z M 35 24C28.925 24 24 28.925 24 35C24 41.075 28.925 46 35 46C41.075 46 46 41.075 46 35C46 28.925 41.075 24 35 24 z M 17.5 25C16.672 25 16 25.671 16 26.5C16 27.329 16.672 28 17.5 28L24.042969 28C24.767969 26.868 25.662406 25.856 26.691406 25L17.5 25 z M 35 28C36.924 28 38.709 28.804906 40 30.128906L40 29C40 28.448 40.447 28 41 28C41.553 28 42 28.448 42 29L42 33C42 33.552 41.552 34 41 34L37 34C36.447 34 36 33.552 36 33C36 32.448 36.447 32 37 32L38.960938 32C38.035938 30.772 36.589 30 35 30C32.825 30 30.969203 31.396844 30.283203 33.339844C30.143203 33.735844 29.769609 34 29.349609 34C28.646609 34 28.174109 33.297719 28.412109 32.636719C29.383109 29.936719 31.97 28 35 28 z M 17.5 32C16.672 32 16 32.671 16 33.5C16 34.329 16.672 35 17.5 35L22 35C22 33.967 22.120656 32.963 22.347656 32L17.5 32 z M 29 36L33 36C33.553 36 34 36.448 34 37C34 37.552 33.553 38 33 38L31.039062 38C31.964063 39.228 33.411 40 35 40C37.175 40 39.030797 38.603156 39.716797 36.660156C39.856797 36.264156 40.230391 36 40.650391 36C41.353391 36 41.825891 36.702281 41.587891 37.363281C40.616891 40.063281 38.03 42 35 42C33.076 42 31.291 41.195094 30 39.871094L30 41C30 41.552 29.553 42 29 42C28.447 42 28 41.552 28 41L28 37C28 36.448 28.448 36 29 36 z" />
</svg>