<svg xmlns="http://www.w3.org/2000/svg" viewBox="0 0 48 48" fill="context-fill" fill-opacity="context-fill-opacity"><path d="M23.833984 3.0078125C12.330105 3.0981402 3 12.475133 3 24C3 35.580585 12.419415 45 24 45C34.691969 45 43.527225 36.975481 44.820312 26.621094 A 1.50015 1.50015 0 0 0 43.125 24.951172C42.896195 24.98302 42.691127 25 42.5 25C41.137383 25 39.936062 24.401402 39.107422 23.449219 A 1.50015 1.50015 0 0 0 37.302734 23.091797C36.151605 23.669923 34.868914 24 33.5 24C28.78761 24 25 20.21239 25 15.5C25 13.904384 25.443768 12.42457 26.210938 11.144531 A 1.50015 1.50015 0 0 0 26.068359 9.4023438C25.401014 8.6168775 25 7.6152407 25 6.5C25 5.9812575 25.091836 5.482169 25.259766 5.0058594 A 1.50015 1.50015 0 0 0 23.833984 3.0078125 z M 33.5 4C31.791667 4 30.320482 4.6946334 29.378906 5.7539062C28.437331 6.8131791 28 8.1666668 28 9.5C28 10.833333 28.437331 12.186821 29.378906 13.246094C30.320482 14.305367 31.791667 15 33.5 15C35.208333 15 36.679518 14.305367 37.621094 13.246094C38.562669 12.186821 39 10.833333 39 9.5C39 8.1666668 38.562669 6.8131791 37.621094 5.7539062C36.679518 4.6946334 35.208333 4 33.5 4 z M 22.050781 6.203125C22.046336 6.3067371 22 6.3952189 22 6.5C22 7.9782316 22.522461 9.3037958 23.265625 10.466797C22.509105 11.995677 22 13.677743 22 15.5C22 21.83361 27.16639 27 33.5 27C35.015891 27 36.431537 26.637998 37.753906 26.103516C38.809503 26.998005 40.07291 27.577494 41.507812 27.779297C39.763427 35.892797 32.649325 42 24 42C14.040585 42 6 33.959415 6 24C6 14.709343 13.026242 7.1840456 22.050781 6.203125 z M 33.5 7C34.458333 7 34.987149 7.3053666 35.378906 7.7460938C35.770664 8.1868209 36 8.8333332 36 9.5C36 10.166667 35.770664 10.813179 35.378906 11.253906C34.987149 11.694633 34.458333 12 33.5 12C32.541667 12 32.012851 11.694633 31.621094 11.253906C31.229336 10.813179 31 10.166667 31 9.5C31 8.8333332 31.229336 8.1868209 31.621094 7.7460938C32.012851 7.3053666 32.541667 7 33.5 7 z M 16.5 14 A 1.5 1.5 0 0 0 16.5 17 A 1.5 1.5 0 0 0 16.5 14 z M 38.5 17 A 1.5 1.5 0 0 0 38.5 20 A 1.5 1.5 0 0 0 38.5 17 z M 19.5 24 A 1.5 1.5 0 0 0 19.5 27 A 1.5 1.5 0 0 0 19.5 24 z M 11.5 26 A 1.5 1.5 0 0 0 11.5 29 A 1.5 1.5 0 0 0 11.5 26 z M 32.5 30 A 1.5 1.5 0 0 0 32.5 33 A 1.5 1.5 0 0 0 32.5 30 z M 20.5 34 A 1.5 1.5 0 0 0 20.5 37 A 1.5 1.5 0 0 0 20.5 34 z M 28.5 36 A 1.5 1.5 0 0 0 28.5 39 A 1.5 1.5 0 0 0 28.5 36 z"/></svg>