<svg viewBox="0 0 1095 1024" version="1.1" xmlns="http://www.w3.org/2000/svg" width="16" height="16" fill="context-fill" fill-opacity="context-fill-opacity"><path d="M514.73453 948.99753c-257.336954 0-466.661925-205.748321-466.661926-458.781171C48.072604 237.24413 257.397575 31.495809 514.73453 31.495809c257.336954 0 466.601304 205.748321 466.601304 458.72055 0 253.03285-209.26435 458.781171-466.601304 458.781171z m0-860.032832c-225.268344 0-408.162476 179.74183-408.162477 401.251661 0 222.47977 182.894132 402.282221 408.162477 402.282221 226.238283 0 409.071794-179.802451 409.071794-402.282221 0-221.509831-182.833511-401.251661-409.071794-401.251661z m247.880048 458.72055H514.73453a27.037051 27.037051 0 0 1-21.702387-10.18436 25.097173 25.097173 0 0 1-6.607709-18.550085V231.666981a29.098171 29.098171 0 0 1 29.219413-28.734444 29.098171 29.098171 0 0 1 29.280035 28.734444v258.549378h219.569953a29.098171 29.098171 0 0 1 29.219414 28.734444 31.401777 31.401777 0 0 1-31.098671 28.734445z"></path></svg>