<svg xmlns="http://www.w3.org/2000/svg" viewBox="0 0 26 26" width="16" height="16" fill="context-fill" fill-opacity="context-fill-opacity" transform="scale(1.1)">
  <path d="M6 1C3.253906 1 1 3.253906 1 6L1 20C1 22.746094 3.253906 25 6 25L20 25C22.746094 25 25 22.746094 25 20L25 6C25 3.253906 22.746094 1 20 1 Z M 6 3L20 3C21.65625 3 23 4.34375 23 6L23 20C23 21.65625 21.65625 23 20 23L6 23C4.34375 23 3 21.65625 3 20L3 6C3 4.34375 4.34375 3 6 3 Z M 17.1875 7.0625C17.039063 7.085938 16.914063 7.164063 16.8125 7.3125L11.90625 14.59375L9.59375 12.3125C9.394531 12.011719 9.011719 11.988281 8.8125 12.1875L7.90625 13.09375C7.707031 13.394531 7.707031 13.800781 7.90625 14L11.40625 17.5C11.605469 17.601563 11.886719 17.8125 12.1875 17.8125C12.386719 17.8125 12.707031 17.707031 12.90625 17.40625L18.90625 8.59375C19.105469 8.292969 18.992188 8.011719 18.59375 7.8125L17.59375 7.09375C17.492188 7.042969 17.335938 7.039063 17.1875 7.0625Z"/>
</svg>