<svg width="16" height="16" xmlns="http://www.w3.org/2000/svg" viewBox="0 0 26 26" fill="context-fill" fill-opacity="context-fill-opacity">
  <path d="M21.125 2C22.710938 2 24 3.289063 24 4.875L24 21.125C24 22.710938 22.710938 24 21.125 24L4.875 24C3.289063 24 2 22.710938 2 21.125L2 4.875C2 3.289063 3.289063 2 4.875 2L21.125 2 M 21.125 0L4.875 0C2.183594 0 0 2.183594 0 4.875L0 21.125C0 23.816406 2.183594 26 4.875 26L21.125 26C23.816406 26 26 23.816406 26 21.125L26 4.875C26 2.183594 23.816406 0 21.125 0Z" />
</svg>