<svg xmlns="http://www.w3.org/2000/svg" viewBox="0 0 16 16" width="16" height="16" fill="context-fill" fill-opacity="context-fill-opacity" transform="scale(1.25)">
  <path d="M5.5 2C3.572833 2 2 3.572833 2 5.5L2 10.5C2 12.427167 3.572833 14 5.5 14L10.5 14C12.427167 14 14 12.427167 14 10.5L14 5.5C14 3.572833 12.427167 2 10.5 2L5.5 2 z M 5.5 3L10.5 3C11.886833 3 13 4.113167 13 5.5L13 10.5C13 11.886833 11.886833 13 10.5 13L5.5 13C4.113167 13 3 11.886833 3 10.5L3 5.5C3 4.113167 4.113167 3 5.5 3 z"/>
</svg>