<?xml version="1.0" encoding="utf-8"?>
<svg xmlns="http://www.w3.org/2000/svg" viewBox="0 0 24 24" width="16" height="16" fill="context-fill" fill-opacity="context-fill-opacity" transform="scale(1.15)">
  <path d="M12 2C6.4889971 2 2 6.4889971 2 12C2 17.511003 6.4889971 22 12 22C17.511003 22 22 17.511003 22 12C22 6.4889971 17.511003 2 12 2 z M 12 4C16.430123 4 20 7.5698774 20 12C20 16.430123 16.430123 20 12 20C7.9093463 20 4.5588463 16.954228 4.0683594 13L9 13L9 16L13 12L9 8L9 11L4.0683594 11C4.5588463 7.0457719 7.9093463 4 12 4 z"/>
</svg>