<?xml version="1.0" encoding="utf-8"?>
<svg xmlns="http://www.w3.org/2000/svg" viewBox="0 0 48 48" width="16" height="16" fill="context-fill" fill-opacity="context-fill-opacity" transform="scale(1.1)">
  <path d="M10.5 6C6.92 6 4 8.92 4 12.5L4 23.5C4 27.08 6.92 30 10.5 30L23 30C23.45 28.92 24.039766 27.91 24.759766 27L10.5 27C8.57 27 7 25.43 7 23.5L7 12.5C7 10.57 8.57 9 10.5 9L37.5 9C39.43 9 41 10.57 41 12.5L41 23.470703C41.99 23.980703 42.910469 24.629141 43.730469 25.369141C43.900469 24.779141 44 24.15 44 23.5L44 12.5C44 8.92 41.08 6 37.5 6L10.5 6 z M 15 16 A 2 2 0 0 0 15 20 A 2 2 0 0 0 15 16 z M 24 16 A 2 2 0 0 0 24 20 A 2 2 0 0 0 24 16 z M 33 16 A 2 2 0 0 0 33 20 A 2 2 0 0 0 33 16 z M 35 24C28.925 24 24 28.925 24 35C24 41.075 28.925 46 35 46C41.075 46 46 41.075 46 35C46 28.925 41.075 24 35 24 z M 35 28C36.924 28 38.709 28.804906 40 30.128906L40 29C40 28.448 40.447 28 41 28C41.553 28 42 28.448 42 29L42 33C42 33.552 41.553 34 41 34L37 34C36.447 34 36 33.552 36 33C36 32.448 36.447 32 37 32L38.960938 32C38.035938 30.772 36.589 30 35 30C32.243 30 30 32.243 30 35C30 37.757 32.243 40 35 40C37.11 40 39.002984 38.660969 39.708984 36.667969C39.892984 36.146969 40.463375 35.873594 40.984375 36.058594C41.505375 36.243594 41.77875 36.813984 41.59375 37.333984C40.60675 40.124984 37.956 42 35 42C31.141 42 28 38.86 28 35C28 31.14 31.141 28 35 28 z"/>
</svg>