<svg xmlns="http://www.w3.org/2000/svg" viewBox="0 0 48 48" width="16" height="16" fill="context-fill" fill-opacity="context-fill-opacity" transform="scale(1.1)">
  <path d="M24 4C18.556241 4 13.611105 6.1893107 10 9.7304688L10 8 A 2.0002 2.0002 0 0 0 7.9707031 5.9726562 A 2.0002 2.0002 0 0 0 6 8L6 15 A 2.0002 2.0002 0 0 0 8 17L15 17 A 2.0002 2.0002 0 1 0 15 13L12.382812 13C15.295566 9.9214921 19.412743 8 24 8C32.860089 8 40 15.139911 40 24C40 32.860089 32.860089 40 24 40 A 2.0002 2.0002 0 1 0 24 44C35.021911 44 44 35.021911 44 24C44 12.978089 35.021911 4 24 4 z M 6 22 A 2.0002 2.0002 0 1 0 6 26 A 2.0002 2.0002 0 1 0 6 22 z M 7.3691406 28.888672L5.8632812 29.574219L5.3886719 31.160156L6.2714844 32.560547L7.3691406 32.888672L8.8769531 32.203125L9.3515625 30.617188L8.46875 29.216797L7.3691406 28.888672 z M 11.277344 34.720703L9.7695312 35.40625L9.2949219 36.992188L10.177734 38.392578L11.277344 38.720703L12.783203 38.037109L13.257812 36.451172L12.375 35.050781L11.277344 34.720703 z M 17.107422 38.632812L15.599609 39.318359L15.125 40.904297L16.007812 42.304688L17.107422 42.632812L18.613281 41.947266L19.087891 40.361328L18.205078 38.960938L17.107422 38.632812 z"/>
</svg>