<svg xmlns="http://www.w3.org/2000/svg" viewBox="0 0 24 24" width="16" height="16" fill="context-fill" fill-opacity="context-fill-opacity">
  <path d="M12 0C5.382813 0 0 5.382813 0 12C0 18.617188 5.382813 24 12 24C18.617188 24 24 18.617188 24 12C24 5.382813 18.617188 0 12 0 Z M 12 2C17.535156 2 22 6.464844 22 12C22 14.398438 21.148438 16.59375 19.75 18.3125L5.6875 4.25C7.40625 2.851563 9.601563 2 12 2 Z M 4.25 5.6875L18.3125 19.75C16.59375 21.148438 14.398438 22 12 22C6.464844 22 2 17.535156 2 12C2 9.601563 2.851563 7.40625 4.25 5.6875Z" />
</svg>