<?xml version="1.0" standalone="no"?><!DOCTYPE svg PUBLIC "-//W3C//DTD SVG 1.1//EN" "http://www.w3.org/Graphics/SVG/1.1/DTD/svg11.dtd"><svg width="16" height="16" fill="context-fill" fill-opacity="context-fill-opacity" viewBox="0 0 1024 1024" xmlns="http://www.w3.org/2000/svg"><path d="M201.315556 987.093333a32.611556 32.611556 0 0 1-27.235556-14.136889c-11.079111-16.056889-4.551111-35.854222-1.536-43.946666l92.629333-342.727111a28.16 28.16 0 0 1 0.896-2.744889 7.338667 7.338667 0 0 0 0.327111-0.995556h-56.078222c-21.162667 0-38.613333-9.002667-47.843555-24.689778-9.315556-15.829333-8.661333-35.726222 1.777777-54.556444l230.286223-414.72c16.284444-29.425778 53.745778-51.655111 87.139555-51.655111h334.833778c22.172444 0 39.424 9.344 47.345778 25.671111 7.964444 16.398222 4.551111 35.925333-9.329778 53.575111L616.661333 419.427556h101.575111c33.450667 0 43.818667 18.602667 46.72 26.581333 2.887111 7.964444 6.840889 28.686222-18.304 50.147555L236.131556 971.150222c-0.341333 0.327111-0.711111 0.668444-1.080889 0.967111-12.16 10.197333-22.883556 14.976-33.735111 14.976z m118.428444-384.725333l-77.013333 284.942222 441.742222-410.993778h-84.536889c-22.172444 0-39.424-9.344-47.345778-25.642666-7.978667-16.398222-4.565333-35.939556 9.315556-53.617778L799.758222 93.809778H481.678222c-12.629333 0-31.146667 11.064889-37.390222 22.328889L216.888889 525.639111h49.066667c20.352 0 37.987556 8.661333 48.369777 23.779556 10.225778 14.862222 12.174222 34.090667 5.418667 52.949333z" fill="" p-id="2885"></path><path d="M376.675556 376.988444a14.222222 14.222222 0 0 1-12.416-21.12l12.743111-22.954666a14.208 14.208 0 1 1 24.860444 13.795555l-12.743111 22.954667a14.222222 14.222222 0 0 1-12.444444 7.324444z m40.149333-72.32a14.222222 14.222222 0 0 1-12.416-21.12l60.216889-108.444444c12.330667-22.272 41.756444-39.751111 67.000889-39.751111h37.191111a14.222222 14.222222 0 1 1 0 28.444444H531.626667c-15.061333 0-34.730667 11.719111-42.140445 25.102223l-60.216889 108.458666a14.222222 14.222222 0 0 1-12.444444 7.310222z"></path></svg>