<svg xmlns="http://www.w3.org/2000/svg" xmlns:xlink="http://www.w3.org/1999/xlink" viewBox="0 0 50 50" fill="context-fill" fill-opacity="context-fill-opacity">
  <path d="M5 4 A 1.0001 1.0001 0 0 0 4 5L4 45 A 1.0001 1.0001 0 0 0 5 46L45 46 A 1.0001 1.0001 0 0 0 46 45L46 5 A 1.0001 1.0001 0 0 0 45 4L5 4 z M 6 6L44 6L44 44L6 44L6 6 z M 20 11L20 12L20 19L40 19L40 11L20 11 z M 22 13L38 13L38 17L22 17L22 13 z M 10 14L10 16L18 16L18 14L10 14 z M 20 23L20 24L20 31L40 31L40 23L20 23 z M 22 25L38 25L38 29L22 29L22 25 z M 10 26L10 28L18 28L18 26L10 26 z M 20 35L20 36L20 41L26 41L26 35L20 35 z M 22 37L24 37L24 39L22 39L22 37 z M 28 37L28 39L40 39L40 37L28 37 z"/>
</svg>