<?xml version="1.0" encoding="utf-8"?>
<svg xmlns="http://www.w3.org/2000/svg" viewBox="0 0 50 50" fill="context-fill" fill-opacity="context-fill-opacity">
  <path d="M2.8125 3C2.335938 3.089844 1.992188 3.511719 2 4L2 22C2 22.550781 2.449219 23 3 23L47 23C47.550781 23 48 22.550781 48 22L48 4C48 3.449219 47.550781 3 47 3L3 3C2.96875 3 2.9375 3 2.90625 3C2.875 3 2.84375 3 2.8125 3 Z M 4 5L46 5L46 21L4 21 Z M 10 10C8.355469 10 7 11.355469 7 13C7 14.644531 8.355469 16 10 16C11.644531 16 13 14.644531 13 13C13 11.355469 11.644531 10 10 10 Z M 20 10C18.355469 10 17 11.355469 17 13C17 14.644531 18.355469 16 20 16C21.644531 16 23 14.644531 23 13C23 11.355469 21.644531 10 20 10 Z M 30 10C28.355469 10 27 11.355469 27 13C27 14.644531 28.355469 16 30 16C31.644531 16 33 14.644531 33 13C33 11.355469 31.644531 10 30 10 Z M 40 10C38.355469 10 37 11.355469 37 13C37 14.644531 38.355469 16 40 16C41.644531 16 43 14.644531 43 13C43 11.355469 41.644531 10 40 10 Z M 10 12C10.5625 12 11 12.4375 11 13C11 13.5625 10.5625 14 10 14C9.4375 14 9 13.5625 9 13C9 12.4375 9.4375 12 10 12 Z M 20 12C20.5625 12 21 12.4375 21 13C21 13.5625 20.5625 14 20 14C19.4375 14 19 13.5625 19 13C19 12.4375 19.4375 12 20 12 Z M 30 12C30.5625 12 31 12.4375 31 13C31 13.5625 30.5625 14 30 14C29.4375 14 29 13.5625 29 13C29 12.4375 29.4375 12 30 12 Z M 40 12C40.5625 12 41 12.4375 41 13C41 13.5625 40.5625 14 40 14C39.4375 14 39 13.5625 39 13C39 12.4375 39.4375 12 40 12 Z M 32.90625 26.96875C32.863281 26.976563 32.820313 26.988281 32.78125 27C32.316406 27.105469 31.988281 27.523438 32 28L32 29.90625C30.199219 28.117188 27.742188 27 25 27C19.464844 27 15 31.464844 15 37C15 42.535156 19.464844 47 25 47C30.535156 47 35 42.535156 35 37L33 37C33 41.464844 29.464844 45 25 45C20.535156 45 17 41.464844 17 37C17 32.535156 20.535156 29 25 29C27.53125 29 29.75 30.175781 31.21875 32L28 32C27.640625 31.996094 27.304688 32.183594 27.121094 32.496094C26.941406 32.808594 26.941406 33.191406 27.121094 33.503906C27.304688 33.816406 27.640625 34.003906 28 34L34 34L34 28C34.011719 27.710938 33.894531 27.433594 33.6875 27.238281C33.476563 27.039063 33.191406 26.941406 32.90625 26.96875Z" />
</svg>