<svg xmlns="http://www.w3.org/2000/svg" xmlns:xlink="http://www.w3.org/1999/xlink" viewBox="0 0 24 24" fill="context-fill" fill-opacity="context-fill-opacity"><path d="M12 2C9.709 2 7.5608125 3.1379063 6.2578125 5.0039062C2.7848125 5.1319063 5.9211895e-16 7.997 0 11.5C0 14.915 2.649 17.717609 6 17.974609L6 15.949219C3.756 15.696219 2 13.810953 2 11.501953C2 9.0199531 4.019 7 6.5 7L7.359375 7.046875L7.6679688 6.5136719C8.5599687 4.9626719 10.22 4 12 4C14.472 4 16.544641 5.7728437 16.931641 8.2148438L17.082031 9.1757812L18.181641 9.03125C18.286641 9.01725 18.391 9 18.5 9C20.43 9 22 10.57 22 12.5C22 14.43 20.43 16 18.5 16L18 16L18 18L18.5 18C21.532 18 24 15.533 24 12.5C24 9.536 21.643078 7.1119062 18.705078 7.0039062C17.839078 4.0559063 15.149 2 12 2 z M 9 11L6 14L8 14L8 22L10 22L10 14L12 14L9 11 z M 14 12L14 20L12 20L15 23L18 20L16 20L16 12L14 12 z"/></svg>