<svg xmlns="http://www.w3.org/2000/svg" viewBox="0 0 48 48" width="16" height="16" fill="context-fill" fill-opacity="context-fill-opacity"><path d="M24 4C12.972066 4 4 12.972074 4 24C4 35.027926 12.972066 44 24 44C35.027934 44 44 35.027926 44 24C44 12.972074 35.027934 4 24 4 z M 24 7C33.406615 7 41 14.593391 41 24C41 33.406609 33.406615 41 24 41C14.593385 41 7 33.406609 7 24C7 14.593391 14.593385 7 24 7 z M 24 12C20.704135 12 18 14.704135 18 18L18 20.279297C16.263561 20.905096 15 22.559951 15 24.5L15 29.5C15 31.967501 17.032499 34 19.5 34L28.5 34C30.967501 34 33 31.967501 33 29.5L33 24.5C33 22.032499 30.967501 20 28.5 20L21 20L21 18C21 16.325865 22.325865 15 24 15C25.320714 15 26.420463 15.840825 26.830078 17.001953 A 1.5004532 1.5004532 0 0 0 29.660156 16.003906C28.835771 13.667035 26.599286 12 24 12 z M 19.740234 23L28.5 23C29.346499 23 30 23.653501 30 24.5L30 29.5C30 30.346499 29.346499 31 28.5 31L19.5 31C18.653501 31 18 30.346499 18 29.5L18 24.5C18 23.702702 18.58272 23.083758 19.357422 23.013672 A 1.50015 1.50015 0 0 0 19.740234 23 z M 24 25 A 2 2 0 0 0 24 29 A 2 2 0 0 0 24 25 z"/></svg>