<?xml version="1.0" encoding="utf-8"?>
<svg xmlns="http://www.w3.org/2000/svg" viewBox="0 0 24 24" width="16" height="16" fill="context-fill" fill-opacity="context-fill-opacity">
  <path d="M12 2C6.486 2 2 6.486 2 12C2 17.514 6.486 22 12 22C12.225 22 12.445016 21.981797 12.666016 21.966797C12.378016 21.352797 12.177125 20.691094 12.078125 19.996094C12.051125 19.996094 12.027 20 12 20C7.589 20 4 16.411 4 12C4 7.589 7.589 4 12 4C16.411 4 20 7.589 20 12C20 12.027 19.996094 12.051125 19.996094 12.078125C20.691094 12.177125 21.353797 12.378969 21.966797 12.667969C21.981797 12.445969 22 12.225 22 12C22 6.486 17.514 2 12 2 z M 11 6L11 11.585938L7.2929688 15.292969L8.7070312 16.707031L13 12.414062L13 6L11 6 z M 19 14C16.239 14 14 16.239 14 19C14 21.761 16.239 24 19 24C21.761 24 24 21.761 24 19C24 16.239 21.761 14 19 14 z M 21.050781 16.650391L22.449219 18.050781L18.5 22L15.550781 19.050781L16.949219 17.650391L18.5 19.199219L21.050781 16.650391 z" />
</svg>