<svg width="16" height="16" viewBox="0 0 32 32" xmlns="http://www.w3.org/2000/svg" fill-opacity="context-fill-opacity" fill="context-fill"><path d="m16,1.4375c-7.96058,0 -14.4375,6.533 -14.4375,14.5625c0,8.0295 6.47692,14.5625 14.4375,14.5625c7.96058,0 14.4375,-6.533 14.4375,-14.5625c0,-8.0295 -6.47692,-14.5625 -14.4375,-14.5625zm0,2.24038c6.7589,0 12.21635,5.50469 12.21635,12.32212c0,6.81742 -5.45744,12.32212 -12.21635,12.32212c-6.7589,0 -12.21635,-5.50469 -12.21635,-12.32212c0,-6.81742 5.45744,-12.32212 12.21635,-12.32212zm-1.11058,6.72115l0,4.48077l-4.44231,0l0,2.24038l4.44231,0l0,4.48077l2.22115,0l0,-4.48077l4.44231,0l0,-2.24038l-4.44231,0l0,-4.48077l-2.22115,0z"/></svg>