<svg width="16" height="16" viewBox="0 0 24 24" xmlns="http://www.w3.org/2000/svg" fill="context-fill" fill-opacity="context-fill-opacity"><path id="svg_1" d="m3.83334,1.50001c-1.27524,0 -2.33333,1.0581 -2.33333,2.33333l0,16.33332c0,1.27524 1.0581,2.33333 2.33333,2.33333l16.33332,0c1.27524,0 2.33333,-1.0581 2.33333,-2.33333l0,-16.33332c0,-1.27524 -1.0581,-2.33333 -2.33333,-2.33333l-16.33332,0zm0,5.83333l16.33332,0l0,12.83332l-16.33332,0l0,-12.83332zm3.25846,3.25846l-1.16667,1.16667l2.57487,2.57487l-2.57487,2.57487l1.16667,1.16667l3.74153,-3.74153l-3.74153,-3.74153zm4.9082,5.49153l0,1.75l5.83333,0l0,-1.75l-5.83333,0z"/></svg>