<svg xmlns="http://www.w3.org/2000/svg" viewBox="0 0 48 48" width="16" height="16" fill-opacity="context-fill-opacity" fill="context-fill"><path d="M7.484375 5.984375 A 1.50015 1.50015 0 0 0 6 7.6914062L6 16.5 A 1.50015 1.50015 0 1 0 9 16.5L9 11.121094L18.439453 20.560547 A 1.50015 1.50015 0 1 0 20.560547 18.439453L11.121094 9L16.5 9 A 1.50015 1.50015 0 1 0 16.5 6L7.6894531 6 A 1.50015 1.50015 0 0 0 7.484375 5.984375 z M 40.470703 5.9863281 A 1.50015 1.50015 0 0 0 40.308594 6L31.5 6 A 1.50015 1.50015 0 1 0 31.5 9L36.878906 9L27.439453 18.439453 A 1.50015 1.50015 0 1 0 29.560547 20.560547L39 11.121094L39 16.5 A 1.50015 1.50015 0 1 0 42 16.5L42 7.6894531 A 1.50015 1.50015 0 0 0 40.470703 5.9863281 z M 28.484375 26.984375 A 1.50015 1.50015 0 0 0 27.439453 29.560547L36.878906 39L31.5 39 A 1.50015 1.50015 0 1 0 31.5 42L40.310547 42 A 1.50015 1.50015 0 0 0 42 40.308594L42 31.5 A 1.50015 1.50015 0 1 0 39 31.5L39 36.878906L29.560547 27.439453 A 1.50015 1.50015 0 0 0 28.484375 26.984375 z M 19.470703 26.986328 A 1.50015 1.50015 0 0 0 18.439453 27.439453L9 36.878906L9 31.5 A 1.50015 1.50015 0 1 0 6 31.5L6 40.310547 A 1.50015 1.50015 0 0 0 7.6914062 42L16.5 42 A 1.50015 1.50015 0 1 0 16.5 39L11.121094 39L20.560547 29.560547 A 1.50015 1.50015 0 0 0 19.470703 26.986328 z" /></svg>