<svg width="16" height="16" viewBox="0 0 32 32" xmlns="http://www.w3.org/2000/svg" fill-opacity="context-fill-opacity" fill="context-fill">
    <path d="m16,1.30005c-6.75184,0 -12.24996,5.49813 -12.24996,12.24996l0,4.89998c0,6.75184 5.49813,12.24996 12.24996,12.24996c6.75184,0 12.24996,-5.49813 12.24996,-12.24996l0,-4.89998c0,-6.75184 -5.49813,-12.24996 -12.24996,-12.24996zm0,2.44999c5.42635,0 9.79997,4.37362 9.79997,9.79997l0,4.89998c0,5.42635 -4.37362,9.79997 -9.79997,9.79997c-5.42635,0 -9.79997,-4.37362 -9.79997,-9.79997l0,-4.89998c0,-5.42635 4.37362,-9.79997 9.79997,-9.79997zm0,1.83749l-3.06249,3.06249l1.83749,0l0,3.67499l-1.83749,0l3.06249,3.06249l3.06249,-3.06249l-1.83749,0l0,-3.67499l1.83749,0l-3.06249,-3.06249z"/>
</svg>