<svg xmlns="http://www.w3.org/2000/svg" viewBox="0 0 24 24" width="16" height="16" fill-opacity="context-fill-opacity" fill="context-fill"><path d="M10 4C5.5935644 4 2 7.5935677 2 12C2 16.406432 5.5935644 20 10 20C14.406436 20 18 16.406432 18 12C18 7.5935677 14.406436 4 10 4 z M 18.732422 4.2167969C18.459922 4.1932969 18.179891 4.279375 17.962891 4.484375C17.593891 4.833375 17.538516 5.4095937 17.853516 5.8085938C19.243516 7.5675938 20 9.735 20 12C20 14.265 19.242516 16.433406 17.853516 18.191406C17.538516 18.590406 17.595844 19.166625 17.964844 19.515625C18.398844 19.925625 19.085125 19.860625 19.453125 19.390625C21.102125 17.286625 22 14.702 22 12C22 9.298 21.102125 6.7124219 19.453125 4.6074219C19.269125 4.3724219 19.004922 4.2402969 18.732422 4.2167969 z"/></svg>