<svg width="16" height="16" viewBox="0 0 16 16" xmlns="http://www.w3.org/2000/svg">
  <g id="svg_1" fill-opacity="context-fill-opacity" fill="context-fill">
    <path display="none"
      d="m5.5,0.93749a1.5,1.32422 0 0 0 -1.414,0.88281l-1.586,0a1.5,1.32422 0 0 0 -1.5,1.32422l0,10.59377a1.5,1.32422 0 0 0 1.5,1.32422l5.844,0a5.536,4.88726 0 0 1 -1.086,-0.88281l-4.758,0a0.5,0.44141 0 0 1 -0.5,-0.44141l0,-10.59377a0.5,0.44141 0 0 1 0.5,-0.44141l1.586,0a1.5,1.32422 0 0 0 1.414,0.88281l3,0a1.5,1.32422 0 0 0 1.414,-0.88281l1.586,0a0.5,0.44141 0 0 1 0.5,0.44141l0,3.11192c0.344,0.02737 0.677,0.08475 1,0.16597l0,-3.27789a1.5,1.32422 0 0 0 -1.5,-1.32422l-1.586,0a1.5,1.32422 0 0 0 -1.414,-0.88281l-3,0zm0,0.88281l3,0a0.5,0.44141 0 0 1 0,0.88281l-3,0a0.5,0.44141 0 0 1 0,-0.88281zm6,5.29688a4.5,3.97266 0 1 0 0,7.94533a4.5,3.97266 0 0 0 0,-7.94533zm0,1.76563c0.128,0 0.256,0.04326 0.354,0.12889l2,1.76563a0.502,0.44317 0 0 1 0.146,0.30898l0,0.00706a0.495,0.43699 0 0 1 -0.145,0.30722l-0.001,0.00177l-2,1.76563a0.5,0.44141 0 0 1 -0.708,-0.62503l1.147,-1.0117l-2.793,0a0.5,0.44141 0 0 1 0,-0.88281l2.793,0l-1.147,-1.0117a0.5,0.44141 0 0 1 0.354,-0.75392z" />
    <path
      d="m5.5,0.93749a1.5,1.32422 0 0 0 -1.414,0.88281l-1.586,0a1.5,1.32422 0 0 0 -1.5,1.32422l0,10.59377a1.5,1.32422 0 0 0 1.5,1.32422l3,0a0.5,0.44141 0 0 0 0,-0.88281l-3,0a0.5,0.44141 0 0 1 -0.5,-0.44141l0,-10.59377a0.5,0.44141 0 0 1 0.5,-0.44141l1.586,0a1.5,1.32422 0 0 0 1.414,0.88281l3,0a1.5,1.32422 0 0 0 1.414,-0.88281l1.586,0a0.5,0.44141 0 0 1 0.5,0.44141l0,0.88281a0.5,0.44141 0 0 0 1,0l0,-0.88281a1.5,1.32422 0 0 0 -1.5,-1.32422l-1.586,0a1.5,1.32422 0 0 0 -1.414,-0.88281l-3,0zm0,0.88281l3,0a0.5,0.44141 0 0 1 0,0.88281l-3,0a0.5,0.44141 0 0 1 0,-0.88281zm3,3.53126a1.5,1.32422 0 0 0 -1.5,1.32422l0,7.06251a1.5,1.32422 0 0 0 1.5,1.32422l5,0a1.5,1.32422 0 0 0 1.5,-1.32422l0,-7.06251a1.5,1.32422 0 0 0 -1.5,-1.32422l-5,0zm0,0.88281l5,0a0.5,0.44141 0 0 1 0.5,0.44141l0,7.06251a0.5,0.44141 0 0 1 -0.5,0.44141l-5,0a0.5,0.44141 0 0 1 -0.5,-0.44141l0,-7.06251a0.5,0.44141 0 0 1 0.5,-0.44141z" />
  </g>
</svg>