<svg width="16" height="16" xmlns="http://www.w3.org/2000/svg" viewBox="0 0 50 50" fill="context-fill" fill-opacity="context-fill-opacity">
  <path d="M25 2C12.320313 2 2 12.320313 2 25C2 37.679688 12.320313 48 25 48C37.679688 48 48 37.679688 48 25C48 12.320313 37.679688 2 25 2 Z M 25 6C35.515625 6 44 14.484375 44 25C44 35.515625 35.515625 44 25 44C14.484375 44 6 35.515625 6 25C6 14.484375 14.484375 6 25 6 Z M 25 21C22.789063 21 21 22.789063 21 25C21 27.210938 22.789063 29 25 29C27.210938 29 29 27.210938 29 25C29 22.789063 27.210938 21 25 21Z"/>
</svg>