<svg width="16" height="16" viewBox="0 0 32 32" xmlns="http://www.w3.org/2000/svg" fill="context-fill" fill-opacity="context-fill-opacity"><path id="svg_1" d="m16,2.125c-7.65113,0 -13.875,6.22387 -13.875,13.875c0,7.65113 6.22387,13.875 13.875,13.875c7.65113,0 13.875,-6.22387 13.875,-13.875c0,-7.65113 -6.22387,-13.875 -13.875,-13.875zm0,2.3125c6.40003,0 11.5625,5.16247 11.5625,11.5625c0,6.40003 -5.16247,11.5625 -11.5625,11.5625c-6.40003,0 -11.5625,-5.16247 -11.5625,-11.5625c0,-6.40003 5.16247,-11.5625 11.5625,-11.5625zm0,2.3125c-1.2782,0 -2.3125,1.0343 -2.3125,2.3125c0,1.2782 1.0343,2.3125 2.3125,2.3125c1.2782,0 2.3125,-1.0343 2.3125,-2.3125c0,-1.2782 -1.0343,-2.3125 -2.3125,-2.3125zm-6.68457,4.66113l-0.50586,2.24023l4.87793,1.08398l0,4.7334l-1.12012,5.56445l2.24023,0.43359l1.15625,-5.78125l0.03613,-0.1084l0.03613,0.1084l1.15625,5.78125l2.24023,-0.43359l-1.12012,-5.56445l0,-4.7334l4.87793,-1.08398l-0.50586,-2.24023l-4.9502,1.12012l-3.46875,0l-4.9502,-1.12012z"/></svg>