<svg xmlns="http://www.w3.org/2000/svg" viewBox="0 0 64 64" width="16" height="16" fill-opacity="context-fill-opacity" fill="context-fill">
  <path d="M11 8C8.79 8 7 9.79 7 12L7 54L40.689453 54L44.939453 50.050781C44.929453 50.030781 44.929922 50.02 44.919922 50L11 50L11 18L53 18L53 34.269531C53.8 34.089531 54.64 34 55.5 34C56.01 34 56.51 34.029609 57 34.099609L57 12C57 9.79 55.21 8 53 8L11 8 z M 19 24L19 28L23 28L23 24L19 24 z M 27 24L27 28L45 28L45 24L27 24 z M 19 32L19 36L23 36L23 32L19 32 z M 27 32L27 36L45 36L45 32L27 32 z M 55 37C50.029 37 46 41.029 46 46C46 50.971 50.029 55 55 55C59.971 55 64 50.971 64 46C64 41.029 59.971 37 55 37 z M 19 40L19 44L23 44L23 40L19 40 z M 27 40L27 44L44.099609 44C44.239609 42.88 44.55 41.810547 45 40.810547L45 40L27 40 z M 55 41C57.761 41 60 43.239 60 46C60 48.761 57.761 51 55 51C52.239 51 50 48.761 50 46C50 43.239 52.239 41 55 41 z M 45.107422 52.435547L38.091797 58.951172C38.091797 58.951172 38.289781 60.687219 39.300781 61.699219C40.311781 62.711219 42.091797 62.951172 42.091797 62.951172L48.607422 55.935547L45.107422 52.435547 z" fill="#5B5B5B" />
</svg>