<svg width="16" height="16" xmlns="http://www.w3.org/2000/svg" viewBox="0 0 48 48"  fill-opacity="context-fill-opacity" fill="context-fill">
  <path d="M10.5 6C7.462 6 5 8.462 5 11.5L5 36.5C5 39.538 7.462 42 10.5 42L37.5 42C40.538 42 43 39.538 43 36.5L43 11.5C43 8.462 40.538 6 37.5 6L10.5 6 z M 8 16L40 16L40 36.5C40 37.881 38.881 39 37.5 39L10.5 39C9.119 39 8 37.881 8 36.5L8 16 z M 32.234375 20.998047C31.914375 20.997422 31.594109 21.124906 31.349609 21.378906C30.860609 21.887906 30.858703 22.714609 31.345703 23.224609C31.382703 23.265609 32.5 24.526 32.5 27C32.5 29.474 31.382938 30.734109 31.335938 30.787109C30.865938 31.306109 30.876187 32.129953 31.367188 32.626953C31.611187 32.873953 31.926234 32.998047 32.240234 32.998047C32.557234 32.998047 32.874187 32.871187 33.117188 32.617188C33.194187 32.537188 35 30.603 35 27C35 23.397 33.194187 21.462812 33.117188 21.382812C32.873688 21.127313 32.554375 20.998672 32.234375 20.998047 z M 15.765625 21C15.445625 21.000625 15.126313 21.129266 14.882812 21.384766C14.805813 21.464766 13 23.399953 13 27.001953C13 30.603953 14.805813 32.538141 14.882812 32.619141C15.125812 32.873141 15.442766 33 15.759766 33C16.073766 33 16.389766 32.875906 16.634766 32.628906C17.125766 32.131906 17.136016 31.308062 16.666016 30.789062C16.619016 30.736062 15.501953 29.475953 15.501953 27.001953C15.501953 24.527953 16.617297 23.267563 16.654297 23.226562C17.141297 22.716562 17.139391 21.889859 16.650391 21.380859C16.405891 21.126859 16.085625 20.999375 15.765625 21 z M 20.953125 21.021484C20.63875 20.962609 20.302078 21.02425 20.017578 21.21875C19.448578 21.60875 19.302359 22.385078 19.693359 22.955078L22.460938 27L19.693359 31.044922C19.302359 31.614922 19.448578 32.39125 20.017578 32.78125C20.233578 32.92825 20.479656 33 20.722656 33C21.121656 33 21.513859 32.809078 21.755859 32.455078L23.974609 29.212891L26.193359 32.455078C26.435359 32.809078 26.826609 33 27.224609 33C27.468609 33 27.714687 32.92825 27.929688 32.78125C28.498688 32.39125 28.646859 31.614922 28.255859 31.044922L25.488281 27L28.255859 22.955078C28.646859 22.385078 28.498687 21.60875 27.929688 21.21875C27.359688 20.82875 26.583359 20.974922 26.193359 21.544922L23.974609 24.787109L21.755859 21.544922C21.560859 21.259922 21.2675 21.080359 20.953125 21.021484 z"/>
</svg>