<?xml version="1.0" standalone="no"?><!DOCTYPE svg PUBLIC "-//W3C//DTD SVG 1.1//EN" "http://www.w3.org/Graphics/SVG/1.1/DTD/svg11.dtd"><svg viewBox="0 0 1024 1024" version="1.1" xmlns="http://www.w3.org/2000/svg" xmlns:xlink="http://www.w3.org/1999/xlink" width="16" height="16" fill="context-fill" fill-opacity="context-fill-opacity" transform="scale(1.15, 1.05)"><path d="M469.333333 725.333333H170.666667a85.333333 85.333333 0 0 1-85.333334-85.333333V128a85.333333 85.333333 0 0 1 85.333334-85.333333h512v85.333333H170.666667v512h298.666666v-85.333333l170.666667 128-170.666667 128v-85.333334m341.333334 170.666667V298.666667H341.333333v256H256V298.666667a85.333333 85.333333 0 0 1 85.333333-85.333334h469.333334a85.333333 85.333333 0 0 1 85.333333 85.333334v597.333333a85.333333 85.333333 0 0 1-85.333333 85.333333H341.333333a85.333333 85.333333 0 0 1-85.333333-85.333333v-85.333333h85.333333v85.333333h469.333334z"></path></svg>