<?xml version="1.0" encoding="utf-8"?>
<svg xmlns="http://www.w3.org/2000/svg" viewBox="0 0 48 48" width="16" height="16">
  <path d="M21.476562 5.9785156 A 1.50015 1.50015 0 0 0 21.259766 6L10.5 6C7.4802259 6 5 8.4802259 5 11.5L5 36.5C5 39.519774 7.4802259 42 10.5 42L21.253906 42 A 1.50015 1.50015 0 0 0 21.740234 42L37.5 42C40.519774 42 43 39.519774 43 36.5L43 11.5C43 8.4802259 40.519774 6 37.5 6L21.746094 6 A 1.50015 1.50015 0 0 0 21.476562 5.9785156 z M 10.5 9L20 9L20 39L10.5 39C9.1017741 39 8 37.898226 8 36.5L8 11.5C8 10.101774 9.1017741 9 10.5 9 z M 23 9L37.5 9C38.898226 9 40 10.101774 40 11.5L40 36.5C40 37.898226 38.898226 39 37.5 39L23 39L23 9 z M 11.5 11 A 1.5 1.5 0 0 0 11.5 14 A 1.5 1.5 0 0 0 11.5 11 z M 16.5 11 A 1.5 1.5 0 0 0 16.5 14 A 1.5 1.5 0 0 0 16.5 11 z M 11.5 16 A 1.50015 1.50015 0 1 0 11.5 19L16.5 19 A 1.50015 1.50015 0 1 0 16.5 16L11.5 16 z" />
</svg>