<svg xmlns="http://www.w3.org/2000/svg" viewBox="0 0 24 24" width="16" height="16" fill="context-fill" fill-opacity="context-fill-opacity"><path d="M12 2C6.4889971 2 2 6.4889971 2 12C2 17.511003 6.4889971 22 12 22C17.511003 22 22 17.511003 22 12C22 6.4889971 17.511003 2 12 2 z M 12 4C16.430123 4 20 7.5698774 20 12C20 16.430123 16.430123 20 12 20C7.5698774 20 4 16.430123 4 12C4 7.5698774 7.5698774 4 12 4 z M 16.292969 8.2929688L10 14.585938L7.7070312 12.292969L6.2929688 13.707031L10 17.414062L17.707031 9.7070312L16.292969 8.2929688 z"/></svg>