<?xml version="1.0" encoding="utf-8"?>
<svg xmlns="http://www.w3.org/2000/svg" viewBox="0 0 50 50" width="16" height="16" fill="context-fill" fill-opacity="context-fill-opacity" transform="scale(1.2, 1)">
  <path d="M12 2C8.699219 2 6 4.699219 6 8L6 42.417969C6 45.59375 8.832031 48 12 48L44 48L44 46L12 46C9.839844 46 8 44.378906 8 42.417969C8 40.457031 9.800781 39 12 39L44 39L44 2 Z M 12 4L42 4L42 37L12 37C10.507813 37 9.09375 37.539063 8 38.417969L8 8C8 5.78125 9.78125 4 12 4 Z M 35.378906 14C34.484375 14 33.671875 14.085938 33.039063 14.230469C33.039063 14.230469 33.039063 25.875 33.039063 25.875C33.496094 25.945313 34.128906 26 35.011719 26C36.714844 26 37.878906 25.632813 38.5625 24.859375C39.109375 24.277344 39.425781 23.5 39.425781 22.515625C39.425781 21.09375 38.652344 19.964844 37.296875 19.59375L37.296875 19.542969C38.441406 19.050781 39.039063 18.046875 39.039063 16.9375C39.039063 16.09375 38.777344 15.335938 38.195313 14.828125C37.472656 14.175781 36.453125 14 35.378906 14 Z M 12 14.050781L12 26.050781L17 26.050781L17 24.394531L14 24.394531L14 20.589844L16.753906 20.589844L16.753906 19.003906L14 19.003906L14 15.707031L17 15.707031L17 14.050781 Z M 20 14.050781C19.167969 14.050781 18.605469 14.140625 18 14.28125L18 26.050781L20 26.050781L20 21.390625C20.175781 21.410156 20 21.40625 20.191406 21.40625C21.207031 21.40625 22.355469 21 23.066406 20.167969C23.617188 19.53125 23.953125 18.714844 23.953125 17.511719C23.953125 16.484375 23.632813 15.558594 22.996094 14.957031C22.285156 14.28125 21.257813 14.050781 20 14.050781 Z M 25 14.050781L25 21.636719C25 24.574219 26.140625 26.050781 28.480469 26.050781C30.6875 26.050781 32 24.609375 32 21.546875L32 14.050781L30 14.050781L30 21.863281C30 23.800781 29.375 24.398438 28.484375 24.398438C27.683594 24.398438 27 23.785156 27 21.863281L27 14.050781 Z M 35.574219 15.425781C36.734375 15.425781 37.191406 16.164063 37.191406 17.152344C37.191406 18.222656 36.417969 18.996094 35.449219 18.996094L35 18.996094C35.03125 19.183594 35 15.496094 35 15.496094C35.160156 15.445313 35.292969 15.425781 35.574219 15.425781 Z M 20.316406 15.59375C21.59375 15.59375 22.054688 16.535156 22.054688 17.652344C22.054688 19.015625 21.363281 19.863281 20.125 19.863281C19.929688 19.863281 20.140625 19.863281 20 19.828125L20 15.683594C20.160156 15.628906 20.050781 15.59375 20.316406 15.59375 Z M 35 20.40625L35.449219 20.40625C36.519531 20.40625 37.488281 21.109375 37.488281 22.5C37.488281 23.851563 36.644531 24.539063 35.5 24.539063C35.257813 24.539063 35.15625 24.519531 35 24.484375Z"/>
</svg>