<svg xmlns="http://www.w3.org/2000/svg" viewBox="0 0 16 16" width="16" height="16" fill="context-fill" fill-opacity="context-fill-opacity" transform="scale(1.5, 1.3)">
  <path d="M4.5 2C3.6774686 2 3 2.6774686 3 3.5L3 8L4 8L4 3.5C4 3.2185314 4.2185314 3 4.5 3L9 3L9 6L12 6L12 8L13 8L13 5.2929688L9.7070312 2L4.5 2 z M 10 3.7070312L11.292969 5L10 5L10 3.7070312 z M 3 9L3 14L4 14L4 12L4.5 12C5.3225314 12 6 11.322531 6 10.5C6 9.6774686 5.3225314 9 4.5 9L3 9 z M 7 9L7 14L8.5 14C9.3225314 14 10 13.322531 10 12.5L10 10.5C10 9.6774686 9.3225314 9 8.5 9L7 9 z M 11 9L11 14L12 14L12 12L13 12L13 11L12 11L12 10L14 10L14 9L11 9 z M 4 10L4.5 10C4.7814686 10 5 10.218531 5 10.5C5 10.781469 4.7814686 11 4.5 11L4 11L4 10 z M 8 10L8.5 10C8.7814686 10 9 10.218531 9 10.5L9 12.5C9 12.781469 8.7814686 13 8.5 13L8 13L8 10 z" fill="#5B5B5B" />
</svg>