<svg viewBox="0 0 48 48" width="16" height="16" fill-opacity="context-fill-opacity" fill="context-fill" xmlns="http://www.w3.org/2000/svg"><path d="m9.24309,2.75005c-3.565,0 -6.49304,2.92804 -6.49304,6.49304l0,23.61105c0,3.565 2.92804,6.49304 6.49304,6.49304l0.71017,0c0.31563,3.27843 3.01703,5.90276 6.37314,5.90276l22.4305,0c3.565,0 6.49304,-2.92804 6.49304,-6.49304l0,-23.61105c0,-3.565 -2.92804,-6.49304 -6.49304,-6.49304l-0.71017,0c-0.31563,-3.27843 -3.01703,-5.90276 -6.37314,-5.90276l-22.4305,0zm0,3.54166l22.4305,0c1.65068,0 2.95138,1.3007 2.95138,2.95138l0,1.18055a1.77101,1.77101 0 0 0 1.77083,1.77083l2.36111,0c1.65068,0 2.95138,1.3007 2.95138,2.95138l0,23.61105c0,1.65068 -1.3007,2.95138 -2.95138,2.95138l-22.4305,0c-1.65068,0 -2.95138,-1.3007 -2.95138,-2.95138l0,-1.18055a1.77101,1.77101 0 0 0 -1.77083,-1.77083l-2.36111,0c-1.65068,0 -2.95138,-1.3007 -2.95138,-2.95138l0,-23.61105c0,-1.65068 1.3007,-2.95138 2.95138,-2.95138zm7.05564,2.33575a1.77101,1.77101 0 0 0 -1.74316,1.79619l0,0.59028l-4.13193,0a1.77101,1.77101 0 1 0 0,3.54166l5.61224,0a1.77101,1.77101 0 0 0 0.57413,0l1.28201,0c-0.17097,1.2482 -0.50437,2.37337 -1.10677,3.26036c-0.51549,-0.15033 -1.04229,-0.26829 -1.54256,-0.60181c-0.73429,-0.48953 -1.20591,-0.9592 -1.20591,-0.9592a1.77101,1.77101 0 1 0 -2.50407,2.50407c0,0 0.70128,0.64318 1.57485,1.26356c-0.8049,0.19489 -1.52755,0.43579 -2.68392,0.43579a1.77101,1.77101 0 1 0 0,3.54166c3.18567,0 5.46909,-0.9938 7.26778,-2.36802a1.77101,1.77101 0 0 0 1.48031,-1.09293c0.05534,-0.06521 0.16133,-0.09238 0.21444,-0.1591c1.37205,-1.72406 1.84557,-3.78009 2.04521,-5.82436l0.79779,0a1.77101,1.77101 0 1 0 0,-3.54166l-2.07058,0a1.77101,1.77101 0 0 0 -0.57413,0l-1.48722,0l0,-0.59028a1.77101,1.77101 0 0 0 -1.7985,-1.79619zm14.1943,4.74757a1.77083,1.77083 0 0 0 0,3.54166a1.77083,1.77083 0 0 0 0,-3.54166zm-4.72221,5.90276a1.77083,1.77083 0 0 0 0,3.54166a1.77083,1.77083 0 0 0 0,-3.54166zm5.22026,3.54396a1.77101,1.77101 0 0 0 -1.52182,1.04222l-5.31249,11.80553a1.77101,1.77101 0 1 0 3.22808,1.45262l0.45885,-1.02145l6.4792,0l0.45885,1.02145a1.77101,1.77101 0 1 0 3.22808,-1.45262l-5.31249,-11.80553a1.77101,1.77101 0 0 0 -1.70626,-1.04222zm-9.94247,2.3588a1.77083,1.77083 0 0 0 0,3.54166a1.77083,1.77083 0 0 0 0,-3.54166zm10.0347,3.72382l1.64401,3.65464l-3.28803,0l1.64401,-3.65464zm-14.75691,2.17895a1.77083,1.77083 0 0 0 0,3.54166a1.77083,1.77083 0 0 0 0,-3.54166z"/></svg>