<svg xmlns="http://www.w3.org/2000/svg" viewBox="0 0 48 48" width="16" height="16" transform="scale(1.3)"><path fill="#bbdefb" d="M6,10c0-2.209,1.791-4,4-4h28c2.209,0,4,1.791,4,4v28c0,2.209-1.791,4-4,4H10c-2.209,0-4-1.791-4-4 V10z"/><path fill="#1976d2" d="M34 26h2v3h-2v3h-3v-3h-6l.013-2.66 5.201-10.307V16H34V26zM28 26h3v-6L28 26zM22.996 26.802c-.104-2.666-2.308-4.802-5-4.802-.705 0-1.366.132-1.963.373.247-1.9 1.876-3.373 3.843-3.373H21v-3h-1.125C16.084 16 13 19.084 13 22.875V27c0 1.365.568 2.687 1.558 3.627C15.497 31.518 16.709 32 17.996 32c.09 0 .18-.002.271-.007 2.591-.136 4.634-2.312 4.73-4.993L23 26.802H22.996zM18.11 28.997c-.546.037-1.083-.165-1.486-.546C16.222 28.069 16 27.554 16 27c0-1.178.821-2 1.996-2 1.073 0 1.952.846 2.002 1.905C19.949 28.016 19.121 28.944 18.11 28.997z"/></svg>