<svg xmlns="http://www.w3.org/2000/svg" viewBox="0 0 64 64" fill="context-fill" fill-opacity="context-fill-opacity" width="16" height="16" transform="scale(1.1) translate(-1, -1)">
  <path d="M11 8C8.79 8 7 9.79 7 12L7 54L35.279297 54C35.099297 53.03 35 52.03 35 51C35 50.66 35.009297 50.33 35.029297 50L11 50L11 18L53 18L53 35.119141C54.4 35.299141 55.74 35.649922 57 36.169922L57 12C57 9.79 55.21 8 53 8L11 8 z M 19 24L19 28L23 28L23 24L19 24 z M 27 24L27 28L45 28L45 24L27 24 z M 19 32L19 36L23 36L23 32L19 32 z M 27 32L27 36L45 36L45 32L27 32 z M 51 37C43.82 37 38 42.82 38 50C38 57.18 43.82 63 51 63C58.18 63 64 57.18 64 50C64 42.82 58.18 37 51 37 z M 19 40L19 44L23 44L23 40L19 40 z M 27 40L27 44L36.609375 44C37.319375 42.53 38.260859 41.18 39.380859 40L27 40 z M 50 43L52 43L53 48L58 49L58 51L53 52L52 57L50 57L49 52L44 51L44 49L49 48L50 43 z"/>
</svg>