<svg xmlns="http://www.w3.org/2000/svg" width="16" height="16" viewBox="0 0 48 48" fill="context-fill" fill-opacity="context-fill-opacity" transform="scale(1.2)">
  <path d="M11.5 6C8.4802259 6 6 8.4802259 6 11.5L6 36.5C6 39.519774 8.4802259 42 11.5 42L36.5 42C39.519774 42 42 39.519774 42 36.5L42 11.5C42 8.4802259 39.519774 6 36.5 6L11.5 6 z M 11.5 9L36.5 9C37.898226 9 39 10.101774 39 11.5L39 36.5C39 37.898226 37.898226 39 36.5 39L11.5 39C10.101774 39 9 37.898226 9 36.5L9 11.5C9 10.101774 10.101774 9 11.5 9 z M 17 12C16.487 12 16.026891 12.313016 15.837891 12.791016L12.087891 22.291016C11.834891 22.934016 12.149016 23.659109 12.791016 23.912109C13.435016 24.166109 14.159109 23.850984 14.412109 23.208984L14.791016 22.25L19.208984 22.25L19.587891 23.207031C19.781891 23.699031 20.252953 24 20.751953 24C20.903953 24 21.057984 23.971109 21.208984 23.912109C21.850984 23.658109 22.165109 22.933016 21.912109 22.291016L18.162109 12.791016C17.973109 12.313016 17.513 12 17 12 z M 17 16.654297L18.222656 19.75L15.777344 19.75L17 16.654297 z M 28.25 24C27.56 24 27 24.56 27 25.25C27 25.94 27.56 26.5 28.25 26.5L32.380859 26.5L27.21875 34.044922C26.95675 34.427922 26.927531 34.922031 27.144531 35.332031C27.359531 35.742031 27.786 36 28.25 36L34.75 36C35.441 36 36 35.44 36 34.75C36 34.06 35.44 33.5 34.75 33.5L30.619141 33.5L35.78125 25.955078C36.04325 25.572078 36.072469 25.077969 35.855469 24.667969C35.640469 24.257969 35.214 24 34.75 24L28.25 24 z"/>
</svg>