<?xml version="1.0" encoding="UTF-8"?>
<svg xmlns="http://www.w3.org/2000/svg" viewBox="0 0 32 32" width="16" height="16" fill="context-fill" fill-opacity="context-fill-opacity">
  <path d="M5 5L5 27L27 27L27 5 Z M 7 7L25 7L25 25L7 25 Z M 13.21875 11.9375L11.03125 14.46875C10.375 15.222656 10 16.1875 10 17.1875L10 17.5C10 18.867188 11.132813 20 12.5 20L13.5 20C14.867188 20 16 18.867188 16 17.5C16 16.132813 14.867188 15 13.5 15L13.21875 15L14.71875 13.25 Z M 20 12L20 15L19 15L19 12.03125L17 12.03125L17 17L20 17L20 20L22 20L22 12 Z M 12.0625 17L13.5 17C13.785156 17 14 17.214844 14 17.5C14 17.785156 13.785156 18 13.5 18L12.5 18C12.214844 18 12 17.785156 12 17.5L12 17.1875C12 17.121094 12.054688 17.066406 12.0625 17Z"/>
</svg>