<svg xmlns="http://www.w3.org/2000/svg" viewBox="0 0 48 48" width="16" height="16" transform="scale(1.35)"><linearGradient id="_mrS6zdlYNXjKXndQNmOka" x1="24" x2="24" y1="1.206" y2="19.206" gradientUnits="userSpaceOnUse"><stop offset="0" stop-color="#eba600"/><stop offset="1" stop-color="#c28200"/></linearGradient><path fill="url(#_mrS6zdlYNXjKXndQNmOka)" d="M27,19h-6V4c0-1.657,1.343-3,3-3h0c1.657,0,3,1.343,3,3V19z"/><rect width="6" height="5" x="21" y="13" fill="#16528c"/><linearGradient id="_mrS6zdlYNXjKXndQNmOkb" x1="24" x2="24" y1="44.265" y2="23.765" gradientUnits="userSpaceOnUse"><stop offset="0" stop-color="#ffcf54"/><stop offset=".261" stop-color="#fdcb4d"/><stop offset=".639" stop-color="#f7c13a"/><stop offset="1" stop-color="#f0b421"/></linearGradient><path fill="url(#_mrS6zdlYNXjKXndQNmOkb)" d="M38,24H10C8.706,34.353,6,43,6,43s7.647,2,18,2s18-2,18-2S39.294,34.353,38,24z"/><linearGradient id="_mrS6zdlYNXjKXndQNmOkc" x1="16.669" x2="16.669" y1="44.687" y2="34.602" gradientUnits="userSpaceOnUse"><stop offset="0" stop-color="#eba600"/><stop offset="1" stop-color="#c28200"/></linearGradient><path fill="url(#_mrS6zdlYNXjKXndQNmOkc)" d="M18,44.778V34c-0.471,3.767-1.809,7.705-2.663,10.546C16.18,44.633,17.074,44.711,18,44.778z"/><linearGradient id="_mrS6zdlYNXjKXndQNmOkd" x1="32.392" x2="32.392" y1="44.307" y2="29.756" gradientUnits="userSpaceOnUse"><stop offset="0" stop-color="#eba600"/><stop offset="1" stop-color="#c28200"/></linearGradient><path fill="url(#_mrS6zdlYNXjKXndQNmOkd)" d="M33.784,44.42C32.922,41.117,31.747,34.974,31,29v15.701C31.982,44.619,32.907,44.523,33.784,44.42z"/><linearGradient id="_mrS6zdlYNXjKXndQNmOke" x1="22.142" x2="25.491" y1="15.701" y2="27.791" gradientUnits="userSpaceOnUse"><stop offset="0" stop-color="#0d61a9"/><stop offset="1" stop-color="#16528c"/></linearGradient><path fill="url(#_mrS6zdlYNXjKXndQNmOke)" d="M38,24H10v-2.77c0-1.369,0.919-2.57,2.247-2.905C14.551,17.744,18.565,17,24,17s9.449,0.744,11.753,1.325C37.081,18.659,38,19.861,38,21.23V24z"/></svg>