<svg xmlns="http://www.w3.org/2000/svg" width="16" height="16" viewBox="0 0 48 48" fill="context-fill" fill-opacity="context-fill-opacity" transform="scale(1.2)">
  <path d="M19.476562 4.9785156 A 1.50015 1.50015 0 0 0 18 6.5L18 8C18 9.2644391 18.399446 10.441134 19.076172 11.412109C16.284331 12.374377 14.230218 14.941893 14.025391 18L13.5 18C10.996501 18 9 16.003499 9 13.5L9 10.5 A 1.50015 1.50015 0 0 0 7.4765625 8.9785156 A 1.50015 1.50015 0 0 0 6 10.5L6 13.5C6 17.624501 9.3754991 21 13.5 21L14 21L14 24.5L5.5 24.5 A 1.50015 1.50015 0 1 0 5.5 27.5L14 27.5L14 30.708984C14 30.806764 14.010947 30.902682 14.013672 31L13.5 31C9.3754991 31 6 34.375499 6 38.5L6 41.5 A 1.50015 1.50015 0 1 0 9 41.5L9 38.5C9 35.996501 10.996501 34 13.5 34L14.542969 34C15.800074 37.79048 19.152215 40.707067 23.337891 40.978516C28.071838 41.284486 32.187029 38.245933 33.533203 34L34.5 34C37.003499 34 39 35.996501 39 38.5L39 41.5 A 1.50015 1.50015 0 1 0 42 41.5L42 38.5C42 34.375499 38.624501 31 34.5 31L34 31L34 27.5L42.5 27.5 A 1.50015 1.50015 0 1 0 42.5 24.5L34 24.5L34 21L34.5 21C38.624501 21 42 17.624501 42 13.5L42 10.5 A 1.50015 1.50015 0 0 0 40.476562 8.9785156 A 1.50015 1.50015 0 0 0 39 10.5L39 13.5C39 16.003499 37.003499 18 34.5 18L33.974609 18C33.769782 14.941893 31.715669 12.374377 28.923828 11.412109C29.600554 10.441134 30 9.2644391 30 8L30 6.5 A 1.50015 1.50015 0 1 0 27 6.5L27 8C27 9.6741348 25.674135 11 24 11C22.325865 11 21 9.6741348 21 8L21 6.5 A 1.50015 1.50015 0 0 0 19.476562 4.9785156 z M 21.5 14L24 14L26.5 14C29.003499 14 31 15.996501 31 18.5L31 19.253906 A 1.50015 1.50015 0 0 0 31 19.740234L31 25.753906 A 1.50015 1.50015 0 0 0 31 26.240234L31 31C31 35.039108 27.642041 38.250069 23.53125 37.984375C19.833978 37.744601 17 34.481401 17 30.708984L17 26.246094 A 1.50015 1.50015 0 0 0 17 25.759766L17 19.746094 A 1.50015 1.50015 0 0 0 17 19.259766L17 18.5C17 15.996501 18.996501 14 21.5 14 z" fill="#5B5B5B" />
</svg>