<?xml version="1.0" encoding="UTF-8"?>
<svg xmlns="http://www.w3.org/2000/svg" viewBox="0 0 50 50" width="16" height="16" fill="context-fill" fill-opacity="context-fill-opacity" transform="scale(1.1)">
  <path d="M25 2C12.296875 2 2 12.296875 2 25C2 37.703125 12.296875 48 25 48C37.703125 48 48 37.703125 48 25C48 12.296875 37.703125 2 25 2 Z M 25 4C36.578125 4 46 13.421875 46 25C46 36.578125 36.578125 46 25 46C13.421875 46 4 36.578125 4 25C4 13.421875 13.421875 4 25 4 Z M 25 8C20.035156 8 16 12.035156 16 17L16 21L22 21L22 17C22 15.347656 23.347656 14 25 14C26.652344 14 28 15.347656 28 17L28 21L34 21L34 17C34 12.035156 29.964844 8 25 8 Z M 25 10C28.867188 10 32 13.132813 32 17L32 19L30 19L30 17C30 14.238281 27.761719 12 25 12C22.238281 12 20 14.238281 20 17L20 19L18 19L18 17C18 13.132813 21.132813 10 25 10 Z M 16 22C13.792969 22 12 23.792969 12 26L12 36C12 38.207031 13.792969 40 16 40L34 40C36.207031 40 38 38.207031 38 36L38 26C38 23.792969 36.207031 22 34 22 Z M 16 24L34 24C35.105469 24 36 24.894531 36 26L36 36C36 37.105469 35.105469 38 34 38L16 38C14.894531 38 14 37.105469 14 36L14 26C14 24.894531 14.894531 24 16 24 Z M 17 26C16.449219 26 16 26.449219 16 27L16 35C16 35.550781 16.449219 36 17 36C17.550781 36 18 35.550781 18 35L18 27C18 26.449219 17.550781 26 17 26 Z M 25 26C23.894531 26 23 26.894531 23 28C23 28.714844 23.382813 29.375 24 29.730469L24 35L26 35L26 29.730469C26.617188 29.371094 27 28.714844 27 28C27 26.894531 26.105469 26 25 26Z"/>
</svg>