<svg xmlns="http://www.w3.org/2000/svg" width="16" height="16" viewBox="0 0 24 24" fill="context-fill" fill-opacity="context-fill-opacity" transform="scale(1.1)">
  <path d="M18.357422 2C17.426422 2 16.495203 2.3563594 15.783203 3.0683594C15.711508 3.1394031 14.312222 4.5391234 13.132812 5.71875L12.207031 4.7929688L10.792969 6.2070312L11.71875 7.1328125C11.718748 7.1328143 11.716797 7.1347656 11.716797 7.1347656L11.777344 7.1953125C11.092478 7.8537032 7.0668187 11.72029 6.1015625 12.685547C5.262068 13.525041 4.7691713 14.197465 4.4804688 14.826172C4.1917662 15.454879 4.140511 16.020494 4.109375 16.400391C4.078239 16.780287 4.067985 16.975205 3.9160156 17.310547C3.7640463 17.645888 3.4373368 18.140895 2.7050781 18.880859L2.0058594 19.587891L4.4042969 21.986328L5.1113281 21.302734C6.5039438 19.956539 6.7711174 20.055409 7.5625 19.955078C7.9581913 19.904913 8.5158958 19.824442 9.1425781 19.525391C9.7692605 19.226339 10.454507 18.733767 11.304688 17.910156L11.308594 17.904297L11.314453 17.898438C12.293848 16.919042 16.346563 13.026476 16.992188 12.40625L17.792969 13.207031L19.207031 11.792969L18.279297 10.865234L20.931641 8.2148438C22.355641 6.7908438 22.355641 4.4913594 20.931641 3.0683594C20.220641 2.3563594 19.288422 2 18.357422 2 z M 18.357422 4C18.794422 4 19.206578 4.1714219 19.517578 4.4824219C19.828578 4.7934219 20 5.2055781 20 5.6425781C20 6.0795781 19.828578 6.4917344 19.517578 6.8027344L16.867188 9.453125L14.546875 7.1347656L14.546875 7.1328125L17.199219 4.4824219C17.509219 4.1714219 17.921422 4 18.357422 4 z M 13.191406 8.609375L15.576172 10.994141C14.904544 11.639076 10.954044 15.430722 9.9003906 16.484375C9.1595628 17.199834 8.6441016 17.545598 8.28125 17.71875C7.9156823 17.893198 7.6878556 17.922868 7.3105469 17.970703C6.828706 18.03179 6.0934509 18.30057 5.25 18.785156C5.377353 18.582814 5.6499992 18.325263 5.7363281 18.134766C6.0220151 17.504357 6.0725266 16.940603 6.1035156 16.5625C6.1345046 16.184397 6.1461244 15.992699 6.2988281 15.660156C6.4515318 15.327614 6.7796195 14.835615 7.515625 14.099609C8.398241 13.216994 12.532083 9.243497 13.191406 8.609375 z"/>
</svg>