<svg xmlns="http://www.w3.org/2000/svg" viewBox="0 0 30 30" fill="context-fill" fill-opacity="context-fill-opacity" width="16" height="16" transform="scale(1.1)">
  <path d="M10.984375 3.9863281 A 1.0001 1.0001 0 0 0 10.839844 4L5 4C3.9069372 4 3 4.9069372 3 6L3 24C3 25.093063 3.9069372 26 5 26L10.832031 26 A 1.0001 1.0001 0 0 0 11.158203 26L18.832031 26 A 1.0001 1.0001 0 0 0 19.158203 26L25 26C26.093063 26 27 25.093063 27 24L27 6C27 4.9069372 26.093063 4 25 4L19.154297 4 A 1.0001 1.0001 0 0 0 18.984375 3.9863281 A 1.0001 1.0001 0 0 0 18.839844 4L11.154297 4 A 1.0001 1.0001 0 0 0 10.984375 3.9863281 z M 5 6L10 6L10 24L5 24L5 6 z M 12 6L18 6L18 24L12 24L12 6 z M 20 6L25 6L25 24L20 24L20 6 z"/>
</svg>