<svg width="16" height="16" xmlns="http://www.w3.org/2000/svg" viewBox="0 0 48 48" fill="context-fill" fill-opacity="context-fill-opacity" transform="scale(1.2)">
  <path d="M10.5 7C6.9280619 7 4 9.9280619 4 13.5L4 30.5C4 34.071938 6.9280619 37 10.5 37L12 37L12 42.5C12 44.46599 14.427297 45.67893 16 44.5L26 37L37.5 37C41.071938 37 44 34.071938 44 30.5L44 13.5C44 9.9280619 41.071938 7 37.5 7L10.5 7 z M 10.5 10L37.5 10C39.450062 10 41 11.549938 41 13.5L41 30.5C41 32.450062 39.450062 34 37.5 34L25.5 34 A 1.50015 1.50015 0 0 0 24.599609 34.300781L15 41.5L15 35.5 A 1.50015 1.50015 0 0 0 13.5 34L10.5 34C8.5499381 34 7 32.450062 7 30.5L7 13.5C7 11.549938 8.5499381 10 10.5 10 z M 15.5 16.998047 A 1.50015 1.50015 0 1 0 15.5 19.998047L32.5 19.998047 A 1.50015 1.50015 0 1 0 32.5 16.998047L15.5 16.998047 z M 15.5 23.998047 A 1.50015 1.50015 0 1 0 15.5 26.998047L28.5 26.998047 A 1.50015 1.50015 0 1 0 28.5 23.998047L15.5 23.998047 z" />
</svg>