<svg xmlns="http://www.w3.org/2000/svg" width="16" height="16" viewBox="0 0 48 48" fill="context-fill" fill-opacity="context-fill-opacity" transform="scale(1.2)">
  <path d="M12.5 6C8.9280619 6 6 8.9280619 6 12.5L6 35.5C6 39.071938 8.9280619 42 12.5 42L35.5 42C39.071938 42 42 39.071938 42 35.5L42 12.5C42 8.9280619 39.071938 6 35.5 6L12.5 6 z M 12.5 9L35.5 9C37.450062 9 39 10.549938 39 12.5L39 14L9 14L9 12.5C9 10.549938 10.549938 9 12.5 9 z M 9 17L39 17L39 35.5C39 37.450062 37.450062 39 35.5 39L12.5 39C10.549938 39 9 37.450062 9 35.5L9 17 z M 17.484375 21.984375 A 1.50015 1.50015 0 0 0 16.439453 24.560547L19.378906 27.5L16.439453 30.439453 A 1.50015 1.50015 0 1 0 18.560547 32.560547L22.560547 28.560547 A 1.50015 1.50015 0 0 0 22.560547 26.439453L18.560547 22.439453 A 1.50015 1.50015 0 0 0 17.484375 21.984375 z M 25.5 30 A 1.50015 1.50015 0 1 0 25.5 33L31.5 33 A 1.50015 1.50015 0 1 0 31.5 30L25.5 30 z" />
</svg>