<svg xmlns="http://www.w3.org/2000/svg" viewBox="0 0 24 24" width="16" height="16" fill="context-fill" fill-opacity="context-fill-opacity" transform="scale(1.05)">
  <path d="M4 2C2.895 2 2 2.895 2 4L2 18L4 18L4 4L18 4L18 2L4 2 z M 8 6C6.895 6 6 6.895 6 8L6 20C6 21.105 6.895 22 8 22L20 22C21.105 22 22 21.105 22 20L22 8C22 6.895 21.105 6 20 6L8 6 z M 8 8L20 8L20 20L8 20L8 8 z M 16 9.0058594C15.230215 9.0058594 14.460443 9.2973698 13.878906 9.8789062L12.607422 11.150391L14.021484 12.564453L12.556641 14.029297L11.142578 12.615234L9.8789062 13.878906C8.7158332 15.041979 8.7158332 16.958021 9.8789062 18.121094C10.460397 18.702585 11.234094 19 12 19C12.765906 19 13.539603 18.702585 14.121094 18.121094L15.384766 16.857422L13.970703 15.443359L15.457031 13.957031L14.042969 12.542969L15.292969 11.292969C15.691896 10.894042 16.308104 10.894042 16.707031 11.292969C17.105958 11.691896 17.105958 12.308104 16.707031 12.707031L15.464844 13.949219L16.878906 15.363281L18.121094 14.121094C19.284167 12.958021 19.284167 11.041979 18.121094 9.8789062C17.539557 9.2973698 16.769785 9.0058594 16 9.0058594 z M 12.542969 14.042969L13.957031 15.457031L12.707031 16.707031C12.506522 16.90754 12.258094 17 12 17C11.741906 17 11.493478 16.90754 11.292969 16.707031C10.894042 16.308104 10.894042 15.691896 11.292969 15.292969L12.542969 14.042969 z"/>
</svg>