<svg width="16" height="16" xmlns="http://www.w3.org/2000/svg" viewBox="0 0 16 16" transform="scale(1.15, 1.2)"><path d="M12.203125 1.003906C11.878906 1.007813 11.554688 1.132813 11.3125 1.382813L6.648438 6.125L5.953125 9.046875L8.875 8.351563L8.976563 8.257813L13.621094 3.6875C14.117188 3.203125 14.125 2.386719 13.628906 1.894531L13.105469 1.367188C12.859375 1.121094 12.53125 1 12.203125 1.003906 Z M 12.210938 1.996094C12.277344 1.996094 12.34375 2.023438 12.398438 2.078125L12.921875 2.601563C13.03125 2.707031 13.03125 2.867188 12.921875 2.976563L8.375 7.445313L7.296875 7.703125L7.554688 6.625L12.027344 2.078125C12.078125 2.023438 12.144531 1.996094 12.210938 1.996094 Z M 3 2C1.894531 2 1 2.894531 1 4L1 12C1 13.105469 1.894531 14 3 14L11 14C12.105469 14 13 13.105469 13 12L13 5.703125L12 6.6875L12 12C12 12.550781 11.550781 13 11 13L3 13C2.449219 13 2 12.550781 2 12L2 4C2 3.449219 2.449219 3 3 3L8.320313 3L9.304688 2Z"/></svg>