<?xml version="1.0" encoding="iso-8859-1"?>
<svg xmlns="http://www.w3.org/2000/svg" xmlns:xlink="http://www.w3.org/1999/xlink" 
	 viewBox="0 0 512.001 512.001" xml:space="preserve" width="16" height="16" fill="context-fill" fill-opacity="context-fill-opacity" transform="scale(1.2, 1)">
<g>
	<g>
		<g>
			<path d="M203.836,245.606c-11.341,0-20.569,9.324-20.569,20.836c0,11.511,9.229,20.843,20.569,20.843
				c11.355,0,20.583-9.332,20.583-20.843C224.419,254.93,215.191,245.606,203.836,245.606z"/>
			<path d="M308.01,245.444c-11.45,0-20.739,9.401-20.739,20.999c0,11.598,9.288,20.999,20.739,20.999
				c11.437,0,20.725-9.401,20.725-20.999C328.735,254.845,319.446,245.444,308.01,245.444z"/>
			<path d="M219.852,415.644c-9.79,0-17.756,8.049-17.756,17.986c0,9.936,7.966,17.992,17.756,17.992
				c9.802,0,17.768-8.055,17.768-17.992C237.62,423.693,229.654,415.644,219.852,415.644z"/>
			<path d="M292.016,415.505c-9.885,0-17.903,8.115-17.903,18.126c0,10.011,8.018,18.126,17.903,18.126
				c9.872,0,17.89-8.115,17.89-18.126C309.906,423.619,301.889,415.505,292.016,415.505z"/>
			<path d="M465.76,12.397L463.209,2.25l-10.35-1.536c-1.809-0.268-44.707-6.249-80.768,21.756
				c-21.368,16.593-35.542,41.123-42.299,73.077c-20.657-8.262-45.306-12.431-73.79-12.431s-53.134,4.17-73.792,12.432
				c-6.756-31.955-20.931-56.484-42.298-73.078C103.849-5.535,60.95,0.445,59.142,0.714L48.792,2.25l-2.551,10.147
				c-0.301,1.198-7.306,29.729-1.397,64.232c5.163,30.142,21.281,70.231,67.794,96.368c-6.233,22.006-7.794,47.74-4.617,77.034
				c4.196,38.688,13.335,61.724,23.917,88.396c4.113,10.367,8.366,21.088,12.684,33.642c2.495,7.254,2.872,28.025,2.343,40.452
				l-0.015,0.675c0,47.041,23.227,70.799,42.711,82.446c22.62,13.52,48.561,16.358,66.339,16.358
				c17.778,0,43.719-2.838,66.339-16.358c19.485-11.647,42.711-35.405,42.711-82.446l-0.015-0.675
				c-0.519-12.056-0.134-33.25,2.343-40.452c4.319-12.557,8.572-23.276,12.684-33.643c10.582-26.672,19.721-49.706,23.917-88.395
				c3.177-29.293,1.615-55.028-4.618-77.034c46.513-26.136,62.63-66.226,67.793-96.367C473.066,42.126,466.061,13.595,465.76,12.397
				z M124.864,143.866c-26.859-16.147-43.304-40.141-48.943-71.509c-2.934-16.322-2.24-31.235-1.13-40.925
				c11.555,0.473,30.148,3.44,46.174,16.019c17.114,13.432,27.946,35.054,32.298,64.296c-5.541,4.213-10.625,8.881-15.232,14.015
				C133.054,131.306,128.67,137.348,124.864,143.866z M306.257,468.734c-17.35,10.371-38.934,11.918-50.256,11.918
				c-11.322,0-32.907-1.547-50.256-11.918c-18.394-10.994-27.373-29.06-27.446-55.218c0.053-1.307,0.13-3.486,0.181-6.249
				c17.618-16.308,46.674-26.264,77.521-26.264s59.902,9.955,77.521,26.264c0.051,2.763,0.128,4.941,0.181,6.249
				C333.63,439.674,324.65,457.739,306.257,468.734z M372.816,246.65c-3.738,34.46-11.748,54.652-21.89,80.215
				c-4.245,10.7-8.635,21.765-13.19,35.01c-0.831,2.416-1.505,5.209-2.052,8.221c-22.061-13.067-50.053-20.442-79.684-20.442
				c-29.631,0-57.622,7.375-79.684,20.442c-0.548-3.013-1.221-5.807-2.052-8.221c-4.555-13.245-8.946-24.31-13.19-35.009
				c-10.142-25.563-18.153-45.754-21.89-80.216c-4.832-44.543,2.631-78.173,22.177-99.953
				c19.194-21.389,51.035-32.234,94.639-32.234s75.445,10.845,94.639,32.234C370.186,168.477,377.648,202.106,372.816,246.65z
				 M436.259,71.337c-5.459,31.868-21.962,56.206-49.122,72.529c-3.806-6.518-8.19-12.56-13.167-18.106
				c-4.607-5.134-9.691-9.801-15.233-14.016c4.351-29.241,15.184-50.863,32.298-64.295c16.035-12.586,34.634-15.548,46.168-16.022
				C438.29,40.931,438.98,55.447,436.259,71.337z"/>
		</g>
	</g>
</g>
</svg>