<?xml version="1.0" encoding="UTF-8" standalone="no"?>
<!DOCTYPE svg PUBLIC "-//W3C//DTD SVG 1.1//EN" "http://www.w3.org/Graphics/SVG/1.1/DTD/svg11.dtd">
<svg viewBox="0 0 16 16" version="1.1" xmlns="http://www.w3.org/2000/svg" xmlns:xlink="http://www.w3.org/1999/xlink" width="16" height="16" fill="context-fill" fill-opacity="context-fill-opacity">
    <g transform="matrix(1.1,0,0,1.1,-0.73669,-0.207194)">
        <path d="M2.5,1C1.7,1 1,1.7 1,2.5L1,10.5C1,11.3 1.7,12 2.5,12L4,12L4,12.5C4,13.3 4.7,14 5.5,14L13.5,14C14.3,14 15,13.3 15,12.5L15,4.5C15,3.7 14.3,3 13.5,3L12,3L12,2.5C12,1.7 11.3,1 10.5,1L2.5,1ZM2.5,2L10.5,2C10.8,2 11,2.2 11,2.5L11,10.5C11,10.8 10.8,11 10.5,11L2.5,11C2.2,11 2,10.8 2,10.5L2,2.5C2,2.2 2.2,2 2.5,2ZM12,4L13.5,4C13.8,4 14,4.2 14,4.5L14,12.5C14,12.8 13.8,13 13.5,13L5.5,13C5.2,13 5,12.8 5,12.5L5,12L10.5,12C11.3,12 12,11.3 12,10.5L12,4Z" style="fill-rule:nonzero;"/>
    </g>
    <g transform="matrix(0.920989,0,0,0.920989,-4.63662,-3.46734)">
        <path d="M11.72,6.586C10.921,7.123 9.933,7.753 8.417,8.008C8.177,8.048 8,8.257 7.999,8.5L7.999,11.064C7.999,13.352 9.647,15.144 11.821,15.966C11.936,16.01 12.062,16.01 12.177,15.966C14.351,15.144 15.999,13.352 15.999,11.064L15.999,8.5C15.998,8.257 15.82,8.047 15.58,8.008C14.066,7.753 13.077,7.123 12.278,6.586C12.109,6.472 11.887,6.472 11.718,6.586L11.72,6.586ZM12,7.578C12.716,8.048 13.69,8.56 15,8.859L15,11.064C15,12.805 13.77,14.172 12,14.912C10.23,14.172 9,12.805 9,11.064L9,8.86C10.069,8.618 11.085,8.184 12,7.58L12,7.578Z" style="fill-rule:nonzero;"/>
    </g>
</svg>
