<svg xmlns="http://www.w3.org/2000/svg" viewBox="0 0 32 32" width="16" height="16" fill="context-fill" fill-opacity="context-fill-opacity" transform="scale(1.1)">
  <path d="M15 3C8.953125 3 4 7.953125 4 14C4 16.164063 4.839844 17.976563 5.59375 19.59375C6.347656 21.210938 7 22.628906 7 24.09375L7 29L9 29L9 24.09375C9 22.058594 8.152344 20.355469 7.40625 18.75C6.660156 17.144531 6 15.636719 6 14C6 9.046875 10.046875 5 15 5C18.808594 5 20.863281 6.609375 22.09375 8.21875C23.324219 9.828125 23.625 11.40625 23.625 11.40625L23.65625 11.53125L23.71875 11.65625L26.375 17C26.449219 17.171875 26.441406 17.304688 26.4375 17.34375L26.375 17.34375C25.839844 17.523438 24.75 17.84375 24.75 17.84375L24 18.03125L24 21C24 21.667969 23.625 22.4375 23.03125 23.03125C22.4375 23.625 21.667969 24 21 24L19 24L19 29L21 29L21 26C22.332031 26 23.5625 25.375 24.46875 24.46875C25.375 23.5625 26 22.332031 26 21L26 19.53125C26.339844 19.433594 26.566406 19.402344 26.9375 19.28125C26.96875 19.273438 27 19.257813 27.03125 19.25L27.03125 19.21875C27.675781 19.015625 28.214844 18.480469 28.375 17.90625C28.546875 17.296875 28.4375 16.734375 28.21875 16.21875L28.21875 16.1875L28.1875 16.15625L25.53125 10.8125L25.5 10.75C25.421875 10.398438 25.023438 8.789063 23.65625 7C22.136719 5.007813 19.394531 3 15 3 Z M 12.875 8.3125L11.125 9.3125L11.9375 10.71875C11.292969 11.320313 10.832031 12.117188 10.625 13L9 13L9 15L10.625 15C10.828125 15.890625 11.289063 16.675781 11.9375 17.28125L11.125 18.6875L12.875 19.6875L13.6875 18.28125C14.105469 18.410156 14.542969 18.5 15 18.5C15.457031 18.5 15.894531 18.410156 16.3125 18.28125L17.125 19.6875L18.875 18.6875L18.0625 17.28125C18.710938 16.675781 19.171875 15.890625 19.375 15L21 15L21 13L19.375 13C19.171875 12.109375 18.710938 11.324219 18.0625 10.71875L18.875 9.3125L17.125 8.3125L16.3125 9.71875C15.894531 9.589844 15.457031 9.5 15 9.5C14.542969 9.5 14.105469 9.589844 13.6875 9.71875 Z M 15 11.5C16.390625 11.5 17.5 12.609375 17.5 14C17.5 15.390625 16.390625 16.5 15 16.5C13.609375 16.5 12.5 15.390625 12.5 14C12.5 12.609375 13.609375 11.5 15 11.5Z"  />
</svg>