<svg xmlns="http://www.w3.org/2000/svg" viewBox="0 0 50 50" width="16" height="16" fill="context-fill" fill-opacity="context-fill-opacity" transform="scale(1, -1) translate(0, 1)">
  <path d="M25 0.0078125C13.425781 0.0078125 4.007813 9.425781 4.007813 21L4.007813 49C4.007813 49.546875 4.453125 49.992188 5 49.992188L15 49.992188C15.546875 49.992188 15.992188 49.546875 15.992188 49L15.992188 21C15.992188 16.03125 20.03125 11.992188 25 11.992188C29.96875 11.992188 34.007813 16.03125 34.007813 21L34.007813 49C34.007813 49.546875 34.453125 49.992188 35 49.992188L45 49.992188C45.546875 49.992188 45.992188 49.546875 45.992188 49L45.992188 21C45.992188 9.425781 36.574219 0.0078125 25 0.0078125 Z M 5.992188 48.007813L5.992188 42.992188L14.007813 42.992188L14.007813 48.007813 Z M 35.992188 48.007813L35.992188 42.992188L44.007813 42.992188L44.007813 48.007813Z"/>
</svg>