<svg xmlns="http://www.w3.org/2000/svg" viewBox="0 0 16 16" width="16" height="16" fill="context-fill" fill-opacity="context-fill-opacity" transform="scale(1.1, 1.2)">
  <path d="M2.5 2C1.675781 2 1 2.675781 1 3.5L1 12.5C1 13.324219 1.675781 14 2.5 14L13.5 14C14.324219 14 15 13.324219 15 12.5L15 3.5C15 2.675781 14.324219 2 13.5 2 Z M 2.5 3L13.5 3C13.78125 3 14 3.21875 14 3.5L14 12.5C14 12.78125 13.78125 13 13.5 13L2.5 13C2.21875 13 2 12.78125 2 12.5L2 3.5C2 3.21875 2.21875 3 2.5 3 Z M 11 5L11 9L10 9L11.5 11L13 9L12 9L12 5 Z M 3 5.027344L3 11L4 11L4 7.441406L5.5 8.941406L7 7.441406L7 11L8 11L8 5.027344L5.5 7.527344Z"/>
</svg>