<svg xmlns="http://www.w3.org/2000/svg" viewBox="0 0 26 26" width="16" height="16"><path d="M5.8125 0C5.335938 0.0898438 4.992188 0.511719 5 1L5 17L7 17L7 2L22 2L22 21C22 22.613281 20.71875 23.933594 19.125 24C19.082031 24 19.042969 24 19 24C18.84375 24 18.636719 23.933594 18.40625 23.59375C18.175781 23.253906 18 22.671875 18 22C18 21.328125 18.175781 20.746094 18.40625 20.40625C18.636719 20.066406 18.84375 20 19 20C19.546875 19.992188 19.984375 19.546875 19.984375 19C19.984375 18.453125 19.546875 18.007813 19 18L5 18C4.054688 18 3.246094 18.578125 2.75 19.3125C2.253906 20.046875 2 20.972656 2 22C2 23.027344 2.253906 23.953125 2.75 24.6875C3.246094 25.421875 4.054688 26 5 26L19 26C19.03125 26 19.0625 26 19.09375 26C19.105469 26 19.113281 26 19.125 26C21.8125 25.929688 24 23.703125 24 21L24 1C24 0.449219 23.550781 0 23 0L6 0C5.96875 0 5.9375 0 5.90625 0C5.875 0 5.84375 0 5.8125 0 Z M 5 20L16.5625 20C16.285156 20.617188 16 21.234375 16 22C16 22.765625 16.285156 23.382813 16.5625 24L5 24C4.84375 24 4.636719 23.933594 4.40625 23.59375C4.175781 23.253906 4 22.671875 4 22C4 21.328125 4.175781 20.746094 4.40625 20.40625C4.636719 20.066406 4.84375 20 5 20Z" />
</svg>