<svg xmlns="http://www.w3.org/2000/svg" viewBox="0 0 64 64" width="16" height="16"><path d="M17.660156 4C16.333156 3.998 15.059141 4.5239375 14.119141 5.4609375L5.4609375 14.119141C4.5239375 15.059141 3.998 16.333156 4 17.660156L4 57C4 58.657 5.343 60 7 60L47 60C48.657 60 50 58.657 50 57L50 46L58 46C59.105 46 60 45.105 60 44L60 24C60 22.895 59.105 22 58 22L50 22L50 7C50 5.343 48.657 4 47 4L17.660156 4 z M 18 6L47 6C47.552 6 48 6.448 48 7L48 22L16 22C14.895 22 14 22.895 14 24L14 44C14 45.105 14.895 46 16 46L48 46L48 57C48 57.552 47.552 58 47 58L7 58C6.448 58 6 57.552 6 57L6 18L15 18C16.657 18 18 16.657 18 15L18 6 z M 16 6.5L16 15C16 15.552 15.552 16 15 16L6.5 16C6.611 15.834 6.7388594 15.679063 6.8808594 15.539062L15.539062 6.8808594C15.679063 6.7388594 15.834 6.611 16 6.5 z M 16 24L58 24L58 44L16 44L16 24 z M 24 28C23.448 28 23 28.448 23 29L23 39C23 39.552 23.448 40 24 40C24.552 40 25 39.552 25 39L25 36L28 36C29.657 36 31 34.657 31 33L31 31C31 29.343 29.657 28 28 28L24 28 z M 40 28C39.447 28 39 28.448 39 29L39 35.390625L34.857422 28.486328C34.627422 28.100328 34.162422 27.918109 33.732422 28.037109C33.299422 28.156109 33 28.55 33 29L33 39C33 39.552 33.447 40 34 40C34.553 40 35 39.552 35 39L35 32.609375L39.142578 39.513672C39.325578 39.820672 39.655 40 40 40C40.089 40 40.179578 39.988844 40.267578 39.964844C40.700578 39.844844 41 39.45 41 39L41 29C41 28.448 40.553 28 40 28 z M 46 28C44.346 28 43 29.346 43 31L43 37C43 38.654 44.346 40 46 40L48 40C49.654 40 51 38.654 51 37L51 35C51 34.447 50.553 34 50 34L48 34C47.447 34 47 34.447 47 35C47 35.553 47.447 36 48 36L49 36L49 37C49 37.552 48.552 38 48 38L46 38C45.448 38 45 37.552 45 37L45 31C45 30.448 45.448 30 46 30L48 30C48.552 30 49 30.448 49 31C49 31.553 49.447 32 50 32C50.553 32 51 31.553 51 31C51 29.346 49.654 28 48 28L46 28 z M 25 30L28 30C28.552 30 29 30.448 29 31L29 33C29 33.552 28.552 34 28 34L25 34L25 30 z M 9 52C8.448 52 8 52.448 8 53L8 55C8 55.552 8.448 56 9 56C9.552 56 10 55.552 10 55L10 53C10 52.448 9.552 52 9 52 z M 14 52C13.448 52 13 52.448 13 53L13 55C13 55.552 13.448 56 14 56C14.552 56 15 55.552 15 55L15 53C15 52.448 14.552 52 14 52 z M 19 52C18.448 52 18 52.448 18 53L18 55C18 55.552 18.448 56 19 56C19.552 56 20 55.552 20 55L20 53C20 52.448 19.552 52 19 52 z M 24 52C23.448 52 23 52.448 23 53L23 55C23 55.552 23.448 56 24 56C24.552 56 25 55.552 25 55L25 53C25 52.448 24.552 52 24 52 z M 29 52C28.448 52 28 52.448 28 53L28 55C28 55.552 28.448 56 29 56C29.552 56 30 55.552 30 55L30 53C30 52.448 29.552 52 29 52 z M 34 52C33.448 52 33 52.448 33 53L33 55C33 55.552 33.448 56 34 56C34.552 56 35 55.552 35 55L35 53C35 52.448 34.552 52 34 52 z M 39 52C38.448 52 38 52.448 38 53L38 55C38 55.552 38.448 56 39 56C39.552 56 40 55.552 40 55L40 53C40 52.448 39.552 52 39 52 z M 44 52C43.448 52 43 52.448 43 53L43 55C43 55.552 43.448 56 44 56C44.552 56 45 55.552 45 55L45 53C45 52.448 44.552 52 44 52 z" /></svg>