<?xml version="1.0" encoding="utf-8"?>
<svg xmlns="http://www.w3.org/2000/svg" viewBox="0 0 64 64" width="16" height="16" transform="scale(1.2)">
  <radialGradient id="gVN6p95yXTYFwQiT2zzkZa" cx="32.002" cy="32" r="32.001" gradientTransform="matrix(1 0 0 -1 0 64)" gradientUnits="userSpaceOnUse">
    <stop offset="0" stop-color="#f4e9c3" />
    <stop offset=".219" stop-color="#f8eecd" />
    <stop offset=".644" stop-color="#fdf4dc" />
    <stop offset="1" stop-color="#fff6e1" />
  </radialGradient>
  <path fill="url(#gVN6p95yXTYFwQiT2zzkZa)" d="M63.996,36.263c-0.067,1-0.502,1.893-1.166,2.567C62.1,39.55,61.1,40,60,40h-7.34c-1.341,0-2.572,0.979-2.66,2.317c-0.05,0.761,0.237,1.46,0.73,1.953C51.18,44.72,51.81,45,52.5,45h1.27c2.345,0,4.382,1.924,4.226,4.263c-0.067,1-0.502,1.893-1.166,2.567C56.1,52.55,55.1,53,54,53h-4.89c-0.937,0-1.816,0.597-2.045,1.506c-0.186,0.739,0.047,1.437,0.525,1.904C47.95,56.78,48.45,57,49,57h0.3c2,0,3.77,1.64,3.7,3.63c-0.04,0.91-0.42,1.74-1.03,2.34C51.34,63.61,50.46,64,49.5,64H6.169c-1.603,0-3.046-1.182-3.161-2.78c-0.066-0.917,0.285-1.752,0.872-2.34C4.42,58.34,5.17,58,6,58h1.831c1.603,0,3.046-1.182,3.161-2.78c0.066-0.917-0.285-1.752-0.872-2.34C9.58,52.34,8.83,52,8,52H6.241c-2.85,0-5.34-2.334-5.238-5.182C1.05,45.511,1.6,44.33,2.46,43.46C3.37,42.56,4.62,42,6,42h8.34c1.458,0,2.742-1.196,2.655-2.652c-0.038-0.63-0.309-1.201-0.725-1.618C15.82,37.28,15.19,37,14.5,37H5.241c-2.85,0-5.34-2.334-5.238-5.182C0.05,30.511,0.6,29.33,1.46,28.46C2.37,27.56,3.62,27,5,27h1.83c1.6,0,3.05-1.18,3.16-2.78c0.07-0.92-0.28-1.75-0.87-2.34C8.58,21.34,7.83,21,7,21H5.5C3.015,21,1,18.985,1,16.5l0,0C1,14.015,3.015,12,5.5,12h18.003c1.381,0,2.5-1.119,2.5-2.5l0,0c0-1.381-1.119-2.5-2.5-2.5H20.47C19.53,6.23,18.94,5.08,19,3.81c0.05-1.03,0.49-1.95,1.17-2.64C20.9,0.45,21.9,0,23,0h31.77c2.345,0,4.382,1.924,4.226,4.263c-0.067,1-0.502,1.893-1.166,2.567C57.1,7.55,56.1,8,55,8h-1.77c-2.345,0-4.382,1.924-4.226,4.263c0.067,1,0.502,1.893,1.166,2.567C50.9,15.55,51.9,16,53,16h6.29c2.54,0,4.78,2.08,4.71,4.63c-0.04,1.19-0.53,2.27-1.32,3.05C61.87,24.5,60.74,25,59.5,25h-0.8c-2,0-3.77,1.64-3.7,3.63c0.04,0.91,0.42,1.74,1.03,2.34C56.66,31.61,57.54,32,58.5,32h1.27C62.115,32,64.152,33.924,63.996,36.263z" />
  <linearGradient id="gVN6p95yXTYFwQiT2zzkZb" x1="24" x2="24" y1="4.511" y2="71.599" gradientTransform="matrix(1 0 0 -1 0 66)" gradientUnits="userSpaceOnUse">
    <stop offset="0" stop-color="#155cde" />
    <stop offset=".122" stop-color="#196ae1" />
    <stop offset=".509" stop-color="#2493e9" />
    <stop offset=".815" stop-color="#2bacee" />
    <stop offset="1" stop-color="#2eb5f0" />
  </linearGradient>
  <path fill="url(#gVN6p95yXTYFwQiT2zzkZb)" d="M28,56h-8c-1.104,0-2-0.896-2-2s0.896-2,2-2h8c1.104,0,2,0.896,2,2S29.104,56,28,56z" />
  <linearGradient id="gVN6p95yXTYFwQiT2zzkZc" x1="10.5" x2="10.5" y1="4.188" y2="75.222" gradientTransform="matrix(1 0 0 -1 0 66)" gradientUnits="userSpaceOnUse">
    <stop offset="0" stop-color="#155cde" />
    <stop offset=".122" stop-color="#196ae1" />
    <stop offset=".509" stop-color="#2493e9" />
    <stop offset=".815" stop-color="#2bacee" />
    <stop offset="1" stop-color="#2eb5f0" />
  </linearGradient>
  <path fill="url(#gVN6p95yXTYFwQiT2zzkZc)" d="M13,56H8c-1.104,0-2-0.896-2-2v-5c0-1.104,0.896-2,2-2s2,0.896,2,2v3h3c1.104,0,2,0.896,2,2 S14.104,56,13,56z" />
  <linearGradient id="gVN6p95yXTYFwQiT2zzkZd" x1="8" x2="8" y1="4.08" y2="73.216" gradientTransform="matrix(1 0 0 -1 0 66)" gradientUnits="userSpaceOnUse">
    <stop offset="0" stop-color="#155cde" />
    <stop offset=".122" stop-color="#196ae1" />
    <stop offset=".509" stop-color="#2493e9" />
    <stop offset=".815" stop-color="#2bacee" />
    <stop offset="1" stop-color="#2eb5f0" />
  </linearGradient>
  <path fill="url(#gVN6p95yXTYFwQiT2zzkZd)" d="M8,44c-1.104,0-2-0.896-2-2v-8c0-1.104,0.896-2,2-2s2,0.896,2,2v8C10,43.104,9.104,44,8,44z M8,29c-1.104,0-2-0.896-2-2v-8c0-1.104,0.896-2,2-2s2,0.896,2,2v8C10,28.104,9.104,29,8,29z" />
  <linearGradient id="gVN6p95yXTYFwQiT2zzkZe" x1="10.5" x2="10.5" y1="2.247" y2="73.281" gradientTransform="matrix(1 0 0 -1 0 66)" gradientUnits="userSpaceOnUse">
    <stop offset="0" stop-color="#155cde" />
    <stop offset=".122" stop-color="#196ae1" />
    <stop offset=".509" stop-color="#2493e9" />
    <stop offset=".815" stop-color="#2bacee" />
    <stop offset="1" stop-color="#2eb5f0" />
  </linearGradient>
  <path fill="url(#gVN6p95yXTYFwQiT2zzkZe)" d="M8,14c-1.104,0-2-0.896-2-2V7c0-1.104,0.896-2,2-2h5c1.104,0,2,0.896,2,2s-0.896,2-2,2h-3v3 C10,13.104,9.104,14,8,14z" />
  <linearGradient id="gVN6p95yXTYFwQiT2zzkZf" x1="31.5" x2="31.5" y1="5.511" y2="72.599" gradientTransform="matrix(1 0 0 -1 0 66)" gradientUnits="userSpaceOnUse">
    <stop offset="0" stop-color="#155cde" />
    <stop offset=".122" stop-color="#196ae1" />
    <stop offset=".509" stop-color="#2493e9" />
    <stop offset=".815" stop-color="#2bacee" />
    <stop offset="1" stop-color="#2eb5f0" />
  </linearGradient>
  <path fill="url(#gVN6p95yXTYFwQiT2zzkZf)" d="M43,9h-8c-1.104,0-2-0.896-2-2s0.896-2,2-2h8c1.104,0,2,0.896,2,2S44.104,9,43,9z M28,9h-8 c-1.104,0-2-0.896-2-2s0.896-2,2-2h8c1.104,0,2,0.896,2,2S29.104,9,28,9z" />
  <linearGradient id="gVN6p95yXTYFwQiT2zzkZg" x1="52.5" x2="52.5" y1="2.247" y2="73.281" gradientTransform="matrix(1 0 0 -1 0 66)" gradientUnits="userSpaceOnUse">
    <stop offset="0" stop-color="#155cde" />
    <stop offset=".122" stop-color="#196ae1" />
    <stop offset=".509" stop-color="#2493e9" />
    <stop offset=".815" stop-color="#2bacee" />
    <stop offset="1" stop-color="#2eb5f0" />
  </linearGradient>
  <path fill="url(#gVN6p95yXTYFwQiT2zzkZg)" d="M55,14c-1.104,0-2-0.896-2-2V9h-3c-1.104,0-2-0.896-2-2s0.896-2,2-2h5c1.104,0,2,0.896,2,2v5 C57,13.104,56.104,14,55,14z" />
  <linearGradient id="gVN6p95yXTYFwQiT2zzkZh" x1="55" x2="55" y1="29.036" y2="59.763" gradientTransform="matrix(1 0 0 -1 0 66)" gradientUnits="userSpaceOnUse">
    <stop offset="0" stop-color="#155cde" />
    <stop offset=".122" stop-color="#196ae1" />
    <stop offset=".509" stop-color="#2493e9" />
    <stop offset=".815" stop-color="#2bacee" />
    <stop offset="1" stop-color="#2eb5f0" />
  </linearGradient>
  <path fill="url(#gVN6p95yXTYFwQiT2zzkZh)" d="M55,29c-1.104,0-2-0.896-2-2v-8c0-1.104,0.896-2,2-2s2,0.896,2,2v8 C57,28.104,56.104,29,55,29z" />
  <linearGradient id="gVN6p95yXTYFwQiT2zzkZi" x1="41.5" x2="41.5" y1="39.586" y2="31.906" gradientTransform="matrix(1 0 0 -1 0 64)" gradientUnits="userSpaceOnUse">
    <stop offset="0" stop-color="#a4a4a4" />
    <stop offset=".63" stop-color="#7f7f7f" />
    <stop offset="1" stop-color="#6f6f6f" />
    <stop offset="1" stop-color="#6f6f6f" />
  </linearGradient>
  <path fill="url(#gVN6p95yXTYFwQiT2zzkZi)" d="M49,32l-2,1H36l-2-1l1.336-2.109C35.707,29.334,36.331,29,37,29h8.93c0.669,0,1.293,0.334,1.664,0.891L49,32z" />
  <linearGradient id="gVN6p95yXTYFwQiT2zzkZj" x1="41.5" x2="41.5" y1="-1254.862" y2="-1217.876" gradientTransform="translate(0 1276)" gradientUnits="userSpaceOnUse">
    <stop offset="0" stop-color="#a4a4a4" />
    <stop offset=".63" stop-color="#7f7f7f" />
    <stop offset="1" stop-color="#6f6f6f" />
    <stop offset="1" stop-color="#6f6f6f" />
  </linearGradient>
  <path fill="url(#gVN6p95yXTYFwQiT2zzkZj)" d="M29,32h25c2.75,0,5,2.25,5,5v17c0,2.75-2.25,5-5,5H29c-2.75,0-5-2.25-5-5V37C24,34.25,26.25,32,29,32z" />
  <linearGradient id="gVN6p95yXTYFwQiT2zzkZk" x1="41.5" x2="41.5" y1="-1232.653" y2="-1211.653" gradientTransform="translate(0 1276)" gradientUnits="userSpaceOnUse">
    <stop offset="0" stop-color="#b2b2b2" />
    <stop offset=".594" stop-color="#949494" />
    <stop offset="1" stop-color="#848484" />
    <stop offset="1" stop-color="#848484" />
  </linearGradient>
  <path fill="url(#gVN6p95yXTYFwQiT2zzkZk)" d="M41.5,35C35.701,35,31,39.701,31,45.5S35.701,56,41.5,56S52,51.299,52,45.5S47.299,35,41.5,35z" />
  <linearGradient id="gVN6p95yXTYFwQiT2zzkZl" x1="41.5" x2="41.5" y1="-1238" y2="-1223" gradientTransform="translate(0 1276)" gradientUnits="userSpaceOnUse">
    <stop offset="0" stop-color="#def9ff" />
    <stop offset=".282" stop-color="#cff6ff" />
    <stop offset=".823" stop-color="#a7efff" />
    <stop offset="1" stop-color="#99ecff" />
  </linearGradient>
  <path fill="url(#gVN6p95yXTYFwQiT2zzkZl)" d="M41.5,38c-4.142,0-7.5,3.358-7.5,7.5s3.358,7.5,7.5,7.5s7.5-3.358,7.5-7.5S45.642,38,41.5,38z" />
</svg>