<?xml version="1.0" encoding="utf-8"?>
<svg width="16" height="16" viewBox="0 0 24 24" xmlns="http://www.w3.org/2000/svg" xmlns:xlink="http://www.w3.org/1999/xlink" transform="scale(1.1)">
  <defs>
    <path id="search-a" d="M11.7099609,0.572509766 C9.46940104,1.29012044 7.99951172,3.05419922 7.30029297,5.86474609 C6.25146484,10.0805664 4.95166016,10.6181641 0.719970703,9.11865234 C2.23974609,11.9257813 5.32006836,13.0512695 7.30029297,13.0512695 C9.28051758,13.0512695 14.4091797,10.2941895 13.8215332,5.0534668 C13.3114421,3.52709961 12.6075846,2.03344727 11.7099609,0.572509766 Z"/>
    <path id="search-c" d="M14.1791377,12.7701494 L19.7100661,18.3101411 C20.0966446,18.6967197 20.0966446,19.3234875 19.7100661,19.7100661 C19.3234875,20.0966446 18.6967197,20.0966446 18.3101411,19.7100661 L12.7803471,14.1712106 C11.4385246,15.2160226 9.75152329,15.8383427 7.91917136,15.8383427 C3.54553379,15.8383427 0,12.2928089 0,7.91917136 C0,3.54553379 3.54553379,0 7.91917136,0 C12.2928089,0 15.8383427,3.54553379 15.8383427,7.91917136 C15.8383427,9.74688445 15.2191696,11.4299819 14.1791377,12.7701494 Z M7.91917136,13.8585499 C11.1993995,13.8585499 13.8585499,11.1993995 13.8585499,7.91917136 C13.8585499,4.63894318 11.1993995,1.97979284 7.91917136,1.97979284 C4.63894318,1.97979284 1.97979284,4.63894318 1.97979284,7.91917136 C1.97979284,11.1993995 4.63894318,13.8585499 7.91917136,13.8585499 Z"/>
  </defs>
  <g fill="none" fill-rule="evenodd" transform="translate(2 2)">
    <g transform="translate(1 2)">
      <mask id="search-b" fill="#ffffff">
        <use xlink:href="#search-a"/>
      </mask>
      <use fill="#D8D8D8" xlink:href="#search-a"/>
      <g fill="#FFA0A0" mask="url(#search-b)">
        <rect width="24" height="24" transform="translate(-3 -4)"/>
      </g>
    </g>
    <mask id="search-d" fill="#ffffff">
      <use xlink:href="#search-c"/>
    </mask>
    <use fill="#000000" fill-rule="nonzero" xlink:href="#search-c"/>
    <g fill="#7600FF" mask="url(#search-d)">
      <rect width="24" height="24" transform="translate(-2 -2)"/>
    </g>
  </g>
</svg>