<svg viewBox="0 0 1024 1024" version="1.1" xmlns="http://www.w3.org/2000/svg" width="16" height="16" fill="context-fill" fill-opacity="context-fill-opacity" transform="scale(1.1)"><path d="M706.545 128.019a63.985 63.985 0 0 1 48.599 22.363l172.835 201.763-63.996 127.857-41.374-41.371c-6.25-6.248-14.437-9.372-22.624-9.372-8.188 0-16.374 3.124-22.624 9.372a32.006 32.006 0 0 0-9.375 22.626v402.727c0 17.672-14.327 31.998-31.999 31.998H320.01c-17.671 0-31.998-14.326-31.998-31.998V461.256c0-17.672-14.328-31.998-32-31.998a31.997 31.997 0 0 0-22.624 9.372l-41.373 41.371L96.02 352.007l172.835-201.64a63.987 63.987 0 0 1 48.592-22.348h6.507a95.97 95.97 0 0 1 50.13 14.132C428.37 175.394 474.338 192.015 512 192.015s83.629-16.621 137.915-49.864a95.968 95.968 0 0 1 50.13-14.132h6.5m0-63.998h-6.5a159.89 159.89 0 0 0-83.557 23.558C561.904 121 529.537 128.018 512 128.018c-17.538 0-49.904-7.017-104.495-40.446a159.881 159.881 0 0 0-83.55-23.55h-6.508a127.823 127.823 0 0 0-97.182 44.701L47.428 310.36c-19.522 22.774-20.6 56.05-2.61 80.047L140.815 518.4a63.998 63.998 0 0 0 83.199 17.025v328.558c0 52.932 43.06 95.995 95.995 95.995h415.98c52.935 0 95.996-43.063 95.996-95.995V535.425a64.028 64.028 0 0 0 42.24 7.749 64.014 64.014 0 0 0 46.99-34.528l63.997-127.857c11.522-23.028 8.125-50.722-8.633-70.279L803.744 108.747c-24.336-28.422-59.77-44.726-97.2-44.726z" p-id="1282"></path></svg>