<svg xmlns="http://www.w3.org/2000/svg" viewBox="0 0 32 32" fill="context-fill" fill-opacity="context-fill-opacity">
  <path d="M15.59375 2.96875C15.0625 2.984375 14.515625 3.042969 13.96875 3.125L13.9375 3.125C8.613281 3.996094 4.300781 8.191406 3.21875 13.5C2.894531 15.011719 2.914063 16.421875 3.125 17.8125C3.132813 17.816406 3.125 17.835938 3.125 17.84375C3.453125 20.191406 6.5 21.21875 8.21875 19.5C9.449219 18.269531 11.269531 18.269531 12.5 19.5C13.730469 20.730469 13.730469 22.550781 12.5 23.78125C10.78125 25.5 11.808594 28.546875 14.15625 28.875C14.164063 28.875 14.183594 28.867188 14.1875 28.875C15.566406 29.085938 16.96875 29.097656 18.46875 28.78125C18.480469 28.78125 18.488281 28.78125 18.5 28.78125C23.824219 27.789063 28.007813 23.375 28.875 18.0625L28.875 18.03125C30.007813 10.390625 24.421875 3.71875 17.15625 3.03125C16.636719 2.980469 16.125 2.953125 15.59375 2.96875 Z M 15.625 4.96875C16.078125 4.953125 16.527344 4.960938 16.96875 5C23.164063 5.566406 27.875 11.214844 26.90625 17.75C26.175781 22.226563 22.585938 25.992188 18.125 26.8125L18.09375 26.8125C16.816406 27.085938 15.636719 27.089844 14.4375 26.90625C13.617188 26.804688 13.238281 25.886719 13.90625 25.21875C15.875 23.25 15.875 20.0625 13.90625 18.09375C11.9375 16.125 8.75 16.125 6.78125 18.09375C6.113281 18.761719 5.195313 18.382813 5.09375 17.5625C4.910156 16.363281 4.914063 15.183594 5.1875 13.90625C6.105469 9.417969 9.773438 5.824219 14.25 5.09375C14.71875 5.023438 15.171875 4.984375 15.625 4.96875 Z M 14 7C12.894531 7 12 7.894531 12 9C12 10.105469 12.894531 11 14 11C15.105469 11 16 10.105469 16 9C16 7.894531 15.105469 7 14 7 Z M 21 9C19.894531 9 19 9.894531 19 11C19 12.105469 19.894531 13 21 13C22.105469 13 23 12.105469 23 11C23 9.894531 22.105469 9 21 9 Z M 9 11C7.894531 11 7 11.894531 7 13C7 14.105469 7.894531 15 9 15C10.105469 15 11 14.105469 11 13C11 11.894531 10.105469 11 9 11 Z M 23 16C21.894531 16 21 16.894531 21 18C21 19.105469 21.894531 20 23 20C24.105469 20 25 19.105469 25 18C25 16.894531 24.105469 16 23 16 Z M 19 21C17.894531 21 17 21.894531 17 23C17 24.105469 17.894531 25 19 25C20.105469 25 21 24.105469 21 23C21 21.894531 20.105469 21 19 21Z"/>
</svg>