<?xml version="1.0" encoding="utf-8"?><svg xmlns="http://www.w3.org/2000/svg" viewBox="0 0 32 32" width="16" height="16"><path d="M3 5L3 23L8 23L8 28.09375L9.625 26.78125L14.34375 23L29 23L29 5 Z M 5 7L27 7L27 21L13.65625 21L13.375 21.21875L10 23.90625L10 21L5 21 Z M 9.21875 9L9 9.6875L7.0625 15.6875L7 15.84375L7 17L9 17L9 16.125L9.03125 16L10.96875 16L11 16.125L11 17L13 17L13 15.84375L12.9375 15.6875L11 9.6875L10.78125 9 Z M 20 11L20 12L17 12L17 14L21.4375 14C21.269531 14.289063 21.082031 14.59375 20.84375 14.90625C20.769531 15.003906 20.675781 15.09375 20.59375 15.1875C20.105469 14.738281 19.75 14.34375 19.75 14.34375L18.25 15.65625C18.25 15.65625 18.574219 16.003906 19.0625 16.46875C18.476563 16.785156 17.804688 17 17 17L17 19C18.476563 19 19.710938 18.503906 20.6875 17.8125C21.609375 18.449219 22.71875 19 24 19L24 17C23.472656 17 22.820313 16.742188 22.1875 16.375C22.265625 16.277344 22.363281 16.1875 22.4375 16.09375C23.082031 15.25 23.429688 14.53125 23.65625 14L25 14L25 12L22 12L22 11 Z M 10 13.0625L10.3125 14L9.6875 14Z"/>
</svg>