<svg xmlns="http://www.w3.org/2000/svg" viewBox="0 0 128 128" width="16" height="16"><path fill="#fff" d="M114,124H14c-5.5,0-10-4.5-10-10V14C4,8.5,8.5,4,14,4h100c5.5,0,10,4.5,10,10v100 C124,119.5,119.5,124,114,124z"/><path fill="#ff5576" d="M124,28H4v86c0,5.5,4.5,10,10,10h100c5.5,0,10-4.5,10-10V28z"/><path fill="#444b54" d="M114,127H14c-7.2,0-13-5.8-13-13V41c0-1.7,1.3-3,3-3s3,1.3,3,3v73c0,3.9,3.1,7,7,7h100c3.9,0,7-3.1,7-7V14 c0-3.9-3.1-7-7-7H14c-3.9,0-7,3.1-7,7v11h104c1.7,0,3,1.3,3,3s-1.3,3-3,3H4c-1.7,0-3-1.3-3-3V14C1,6.8,6.8,1,14,1h100 c7.2,0,13,5.8,13,13v100C127,121.2,121.2,127,114,127z"/><path fill="#fff" d="M77.5,71.4l-19-11c-0.9-0.5-2.1-0.5-3,0C54.6,60.9,54,61.9,54,63v22c0,1.1,0.6,2.1,1.5,2.6 c0.5,0.3,1,0.4,1.5,0.4c0.5,0,1-0.1,1.5-0.4l19-11c0.9-0.5,1.5-1.5,1.5-2.6S78.4,71.9,77.5,71.4z"/><circle cx="16" cy="16" r="3" fill="#444b54"/><circle cx="26" cy="16" r="3" fill="#444b54"/><circle cx="36" cy="16" r="3" fill="#444b54"/></svg>