<svg xmlns="http://www.w3.org/2000/svg" viewBox="0 0 48 48" fill="context-fill" fill-opacity="context-fill-opacity" width="16" height="16" transform="scale(1.1)">
  <path d="M10.5 6C10.3105 6 10.124082 6.0104805 9.9394531 6.0292969C9.571481 6.0667987 9.2141905 6.1413291 8.8710938 6.2480469C7.1472189 6.7842455 5.7842455 8.1472189 5.2480469 9.8710938C5.1413291 10.21419 5.0667987 10.571481 5.0292969 10.939453C5.0292305 10.940097 5.0293631 10.940762 5.0292969 10.941406C5.0106094 11.125412 5 11.311158 5 11.5L5 13.5L5 36.5C5 39.519774 7.4802259 42 10.5 42L37.5 42C40.519774 42 43 39.519774 43 36.5L43 13.5L43 11.5C43 11.310603 42.989737 11.124126 42.970703 10.939453C42.933201 10.571481 42.858671 10.21419 42.751953 9.8710938C42.215754 8.1472189 40.852781 6.7842455 39.128906 6.2480469C38.78581 6.1413291 38.428519 6.0667987 38.060547 6.0292969C38.059905 6.0292315 38.059235 6.029362 38.058594 6.0292969C37.874547 6.0103939 37.688736 6 37.5 6L10.5 6 z M 10.5 9C11.328 9 12 9.672 12 10.5C12 11.328 11.328 12 10.5 12C9.672 12 9 11.328 9 10.5C9 9.672 9.672 9 10.5 9 z M 15.5 9C16.328 9 17 9.672 17 10.5C17 11.328 16.328 12 15.5 12C14.672 12 14 11.328 14 10.5C14 9.672 14.672 9 15.5 9 z M 21.5 9L37.5 9C38.328 9 39 9.672 39 10.5C39 11.328 38.328 12 37.5 12L21.5 12C20.672 12 20 11.328 20 10.5C20 9.672 20.672 9 21.5 9 z M 8 15L40 15L40 36.5C40 37.898226 38.898226 39 37.5 39L10.5 39C9.1017741 39 8 37.898226 8 36.5L8 15 z M 12.5 19 A 1.50015 1.50015 0 0 0 11 20.5L11 28.5 A 1.50015 1.50015 0 0 0 12.5 30L22.5 30 A 1.50015 1.50015 0 0 0 24 28.5L24 20.5 A 1.50015 1.50015 0 0 0 22.5 19L12.5 19 z M 28.5 19 A 1.50015 1.50015 0 0 0 27 20.5L27 34.5 A 1.50015 1.50015 0 0 0 28.5 36L35.5 36 A 1.50015 1.50015 0 0 0 37 34.5L37 20.5 A 1.50015 1.50015 0 0 0 35.5 19L28.5 19 z M 14 22L21 22L21 27L14 27L14 22 z M 30 22L34 22L34 33L30 33L30 22 z M 12.5 33 A 1.50015 1.50015 0 1 0 12.5 36L22.5 36 A 1.50015 1.50015 0 1 0 22.5 33L12.5 33 z"/>
</svg>