<svg xmlns="http://www.w3.org/2000/svg" viewBox="0 0 24 24" width="16" height="16" fill="context-fill" fill-opacity="context-fill-opacity" transform="scale(1.1)">
  <path d="M12 2C8.308 2 5.0855156 4.016 3.3535156 7L5.7949219 7C6.6949219 5.888 7.8693281 5.0079531 9.2363281 4.5019531C8.9233281 5.2299531 8.6724688 6.08 8.4804688 7L10.537109 7C11.016109 5.023 11.687 4 12 4C12.313 4 12.983891 5.023 13.462891 7L15.519531 7C15.327531 6.08 15.075672 5.2299531 14.763672 4.5019531C16.129672 5.0079531 17.305078 5.888 18.205078 7L20.646484 7C18.914484 4.016 15.692 2 12 2 z M 1 9L2.2421875 15L3.5507812 15L4.4003906 11.529297L5.2480469 15L6.5507812 15L7.7929688 9L6.2890625 9L5.7519531 12.365234L4.953125 9L3.8398438 9L3.0390625 12.371094L2.5078125 9L1 9 z M 8.6035156 9L9.8457031 15L11.154297 15L12.003906 11.529297L12.851562 15L14.154297 15L15.396484 9L13.894531 9L13.355469 12.365234L12.558594 9L11.443359 9L10.644531 12.371094L10.111328 9L8.6035156 9 z M 16.207031 9L17.449219 15L18.757812 15L19.607422 11.529297L20.455078 15L21.757812 15L23 9L21.496094 9L20.958984 12.365234L20.160156 9L19.046875 9L18.246094 12.371094L17.714844 9L16.207031 9 z M 3.3535156 17C5.0855156 19.984 8.308 22 12 22C15.692 22 18.914484 19.984 20.646484 17L18.205078 17C17.305078 18.112 16.130672 18.992047 14.763672 19.498047C15.075672 18.770047 15.325578 17.92 15.517578 17L13.460938 17C12.981938 18.977 12.311047 20 11.998047 20C11.685047 20 11.016109 18.977 10.537109 17L8.4804688 17C8.6724688 17.92 8.9243281 18.770047 9.2363281 19.498047C7.8703281 18.992047 6.6949219 18.112 5.7949219 17L3.3535156 17 z"/>
</svg>