<svg xmlns="http://www.w3.org/2000/svg" viewBox="0 0 48 48" fill="context-fill" fill-opacity="context-fill-opacity" width="16" height="16" transform="scale(1.15)">
  <path d="M9.5 6C7.019 6 5 8.019 5 10.5L5 29.5C5 31.981 7.019 34 9.5 34L10.804688 34C11.281688 32.952 11.955594 31.996125 12.808594 31.203125C12.880594 31.136125 12.958156 31.068 13.035156 31L9.5 31C8.673 31 8 30.327 8 29.5L8 10.5C8 9.673 8.673 9 9.5 9L38.5 9C39.327 9 40 9.673 40 10.5L40 29.5C40 30.327 39.327 31 38.5 31L34.964844 31C35.040844 31.068 35.119406 31.136125 35.191406 31.203125C36.044406 31.995125 36.718312 32.952 37.195312 34L38.5 34C40.981 34 43 31.981 43 29.5L43 10.5C43 8.019 40.981 6 38.5 6L9.5 6 z M 24.009766 13C20.161538 13 17.009766 16.151775 17.009766 20C17.009766 23.848225 20.161538 27 24.009766 27C27.857993 27 31.009766 23.848225 31.009766 20C31.009766 16.151775 27.857993 13 24.009766 13 z M 24.009766 16C26.236674 16 28.009766 17.773093 28.009766 20C28.009766 22.226907 26.236674 24 24.009766 24C21.782857 24 20.009766 22.226907 20.009766 20C20.009766 17.773093 21.782857 16 24.009766 16 z M 24 29C18.487577 29 15.828565 31.127219 14.169922 32.667969C12.763595 33.974027 12 35.802346 12 37.683594L12 37.994141C12 40.20473 13.850731 42 16.056641 42L31.945312 42C34.151494 42 36.001953 40.205051 36.001953 37.994141L36.001953 37.683594 A 1.50015 1.50015 0 0 0 35.878906 37.091797C35.732346 35.430884 35.084958 33.83271 33.832031 32.667969 A 1.50015 1.50015 0 0 0 33.830078 32.667969C32.171482 31.127219 29.512423 29 24 29 z M 24 32C28.835577 32 30.183706 33.373984 31.789062 34.865234C32.571358 35.592469 33 36.610114 33 37.683594 A 1.50015 1.50015 0 0 0 33.001953 37.720703L33.001953 37.994141C33.001906 38.549229 32.561132 39 31.945312 39L16.056641 39C15.43855 39 15 38.551551 15 37.994141L15 37.683594C15 36.608841 15.429264 35.591176 16.210938 34.865234C17.816294 33.373984 19.164423 32 24 32 z"/>
</svg>