<?xml version="1.0" encoding="utf-8"?>
<svg xmlns="http://www.w3.org/2000/svg" viewBox="0 0 80 80" fill="context-fill" fill-opacity="context-fill-opacity">
  <path d="M18.519531 10L10.296875 20.277344C10.234375 20.339844 10.175781 20.410156 10.128906 20.488281L10 20.648438L10 20.832031C9.980469 20.941406 9.980469 21.050781 10 21.15625L10 70L70 70L70 21.167969C70.019531 21.058594 70.019531 20.949219 70 20.84375L70 20.648438L69.875 20.488281C69.824219 20.410156 69.765625 20.335938 69.699219 20.269531L61.480469 10 Z M 19.480469 12L60.519531 12L66.917969 20L13.082031 20 Z M 12 22L68 22L68 68L12 68 Z M 33 28C32.640625 27.996094 32.304688 28.183594 32.121094 28.496094C31.941406 28.808594 31.941406 29.191406 32.121094 29.503906C32.304688 29.816406 32.640625 30.003906 33 30L47 30C47.359375 30.003906 47.695313 29.816406 47.878906 29.503906C48.058594 29.191406 48.058594 28.808594 47.878906 28.496094C47.695313 28.183594 47.359375 27.996094 47 28 Z M 18 63C17.449219 63 17 63.449219 17 64C17 64.550781 17.449219 65 18 65C18.550781 65 19 64.550781 19 64C19 63.449219 18.550781 63 18 63 Z M 22 63C21.449219 63 21 63.449219 21 64C21 64.550781 21.449219 65 22 65C22.550781 65 23 64.550781 23 64C23 63.449219 22.550781 63 22 63 Z M 26 63C25.449219 63 25 63.449219 25 64C25 64.550781 25.449219 65 26 65C26.550781 65 27 64.550781 27 64C27 63.449219 26.550781 63 26 63 Z M 30 63C29.449219 63 29 63.449219 29 64C29 64.550781 29.449219 65 30 65C30.550781 65 31 64.550781 31 64C31 63.449219 30.550781 63 30 63 Z M 34 63C33.449219 63 33 63.449219 33 64C33 64.550781 33.449219 65 34 65C34.550781 65 35 64.550781 35 64C35 63.449219 34.550781 63 34 63 Z M 38 63C37.449219 63 37 63.449219 37 64C37 64.550781 37.449219 65 38 65C38.550781 65 39 64.550781 39 64C39 63.449219 38.550781 63 38 63 Z M 42 63C41.449219 63 41 63.449219 41 64C41 64.550781 41.449219 65 42 65C42.550781 65 43 64.550781 43 64C43 63.449219 42.550781 63 42 63 Z M 46 63C45.449219 63 45 63.449219 45 64C45 64.550781 45.449219 65 46 65C46.550781 65 47 64.550781 47 64C47 63.449219 46.550781 63 46 63 Z M 50 63C49.449219 63 49 63.449219 49 64C49 64.550781 49.449219 65 50 65C50.550781 65 51 64.550781 51 64C51 63.449219 50.550781 63 50 63 Z M 54 63C53.449219 63 53 63.449219 53 64C53 64.550781 53.449219 65 54 65C54.550781 65 55 64.550781 55 64C55 63.449219 54.550781 63 54 63 Z M 58 63C57.449219 63 57 63.449219 57 64C57 64.550781 57.449219 65 58 65C58.550781 65 59 64.550781 59 64C59 63.449219 58.550781 63 58 63 Z M 62 63C61.449219 63 61 63.449219 61 64C61 64.550781 61.449219 65 62 65C62.550781 65 63 64.550781 63 64C63 63.449219 62.550781 63 62 63Z" />
</svg>