<svg xmlns="http://www.w3.org/2000/svg" viewBox="0 0 24 24" width="16" height="16" fill="context-fill" fill-opacity="context-fill-opacity"><path d="M16.064453 2C15.935453 2 15.8275 2.0966094 15.8125 2.2246094L15.695312 3.2363281C15.211311 3.4043017 14.773896 3.6598036 14.394531 3.9882812L13.457031 3.5839844C13.339031 3.5329844 13.202672 3.5774531 13.138672 3.6894531L12.201172 5.3105469C12.136172 5.4215469 12.166531 5.563625 12.269531 5.640625L13.078125 6.2402344C13.030702 6.4865104 13 6.7398913 13 7C13 7.2601087 13.030702 7.5134896 13.078125 7.7597656L12.269531 8.359375C12.166531 8.435375 12.137172 8.5774531 12.201172 8.6894531L13.138672 10.310547C13.202672 10.422547 13.339031 10.468969 13.457031 10.417969L14.394531 10.011719C14.773896 10.340196 15.211311 10.595698 15.695312 10.763672L15.8125 11.775391C15.8275 11.903391 15.935453 12 16.064453 12L17.935547 12C18.064547 12 18.1725 11.903391 18.1875 11.775391L18.304688 10.763672C18.789173 10.59553 19.227802 10.340666 19.607422 10.011719L20.542969 10.414062C20.660969 10.465063 20.797328 10.420594 20.861328 10.308594L21.798828 8.6875C21.863828 8.5765 21.833469 8.4344219 21.730469 8.3574219L20.923828 7.7578125C20.970992 7.5121818 21 7.2593796 21 7C21 6.7398913 20.969298 6.4865104 20.921875 6.2402344L21.730469 5.640625C21.833469 5.564625 21.862828 5.4225469 21.798828 5.3105469L20.861328 3.6894531C20.797328 3.5774531 20.660969 3.5310312 20.542969 3.5820312L19.605469 3.9882812C19.226104 3.6598036 18.788689 3.4043017 18.304688 3.2363281L18.1875 2.2246094C18.1725 2.0966094 18.064547 2 17.935547 2L16.064453 2 z M 17 5C18.105 5 19 5.895 19 7C19 8.105 18.105 9 17 9C15.895 9 15 8.105 15 7C15 5.895 15.895 5 17 5 z M 7.0644531 9C6.9354531 9 6.8275 9.0966094 6.8125 9.2246094L6.6386719 10.710938C5.8314079 10.940599 5.1026855 11.35237 4.5175781 11.921875L3.1582031 11.335938C3.0402031 11.284937 2.9038438 11.329406 2.8398438 11.441406L1.9023438 13.0625C1.8373437 13.1735 1.8677031 13.315578 1.9707031 13.392578L3.1679688 14.279297C3.0687954 14.672064 3 15.076469 3 15.5C3 15.923531 3.0687954 16.327936 3.1679688 16.720703L1.9707031 17.609375C1.8677031 17.685375 1.8383437 17.827453 1.9023438 17.939453L2.8398438 19.560547C2.9038438 19.672547 3.0402031 19.717016 3.1582031 19.666016L4.5175781 19.078125C5.1026855 19.64763 5.8314079 20.059401 6.6386719 20.289062L6.8125 21.775391C6.8275 21.903391 6.9354531 22 7.0644531 22L8.9355469 22C9.0645469 22 9.1725 21.903391 9.1875 21.775391L9.3613281 20.289062C10.168592 20.059401 10.897314 19.64763 11.482422 19.078125L12.841797 19.664062C12.959797 19.715062 13.096156 19.670594 13.160156 19.558594L14.097656 17.9375C14.162656 17.8265 14.132297 17.684422 14.029297 17.607422L12.832031 16.720703C12.931205 16.327936 13 15.923531 13 15.5C13 15.076469 12.931205 14.672064 12.832031 14.279297L14.029297 13.390625C14.132297 13.314625 14.161656 13.172547 14.097656 13.060547L13.160156 11.439453C13.096156 11.327453 12.959797 11.282984 12.841797 11.333984L11.482422 11.921875C10.897314 11.35237 10.168592 10.940599 9.3613281 10.710938L9.1875 9.2246094C9.1725 9.0966094 9.0645469 9 8.9355469 9L7.0644531 9 z M 8 12.5C9.657 12.5 11 13.843 11 15.5C11 17.157 9.657 18.5 8 18.5C6.343 18.5 5 17.157 5 15.5C5 13.843 6.343 12.5 8 12.5 z M 8 14.5C7.448 14.5 7 14.948 7 15.5C7 16.052 7.448 16.5 8 16.5C8.552 16.5 9 16.052 9 15.5C9 14.948 8.552 14.5 8 14.5 z"/></svg>