<?xml version="1.0" encoding="utf-8"?>
<svg xmlns="http://www.w3.org/2000/svg" viewBox="0 0 50 50" width="16" height="16" fill="context-fill" fill-opacity="context-fill-opacity">
  <path d="M5 4C4.449219 4 4 4.449219 4 5L4 11C3.996094 11.359375 4.183594 11.695313 4.496094 11.878906C4.808594 12.058594 5.191406 12.058594 5.503906 11.878906C5.816406 11.695313 6.003906 11.359375 6 11L6 6L11 6C11.359375 6.003906 11.695313 5.816406 11.878906 5.503906C12.058594 5.191406 12.058594 4.808594 11.878906 4.496094C11.695313 4.183594 11.359375 3.996094 11 4 Z M 15 4C14.640625 3.996094 14.304688 4.183594 14.121094 4.496094C13.941406 4.808594 13.941406 5.191406 14.121094 5.503906C14.304688 5.816406 14.640625 6.003906 15 6L23 6C23.359375 6.003906 23.695313 5.816406 23.878906 5.503906C24.058594 5.191406 24.058594 4.808594 23.878906 4.496094C23.695313 4.183594 23.359375 3.996094 23 4 Z M 27 4C26.640625 3.996094 26.304688 4.183594 26.121094 4.496094C25.941406 4.808594 25.941406 5.191406 26.121094 5.503906C26.304688 5.816406 26.640625 6.003906 27 6L35 6C35.359375 6.003906 35.695313 5.816406 35.878906 5.503906C36.058594 5.191406 36.058594 4.808594 35.878906 4.496094C35.695313 4.183594 35.359375 3.996094 35 4 Z M 39 4C38.640625 3.996094 38.304688 4.183594 38.121094 4.496094C37.941406 4.808594 37.941406 5.191406 38.121094 5.503906C38.304688 5.816406 38.640625 6.003906 39 6L44 6L44 11C43.996094 11.359375 44.183594 11.695313 44.496094 11.878906C44.808594 12.058594 45.191406 12.058594 45.503906 11.878906C45.816406 11.695313 46.003906 11.359375 46 11L46 5C46 4.449219 45.550781 4 45 4 Z M 4.984375 13.984375C4.433594 13.996094 3.992188 14.449219 4 15L4 23C3.996094 23.359375 4.183594 23.695313 4.496094 23.878906C4.808594 24.058594 5.191406 24.058594 5.503906 23.878906C5.816406 23.695313 6.003906 23.359375 6 23L6 15C6.003906 14.730469 5.898438 14.46875 5.707031 14.277344C5.515625 14.085938 5.253906 13.980469 4.984375 13.984375 Z M 44.984375 13.984375C44.433594 13.996094 43.992188 14.449219 44 15L44 23C43.996094 23.359375 44.183594 23.695313 44.496094 23.878906C44.808594 24.058594 45.191406 24.058594 45.503906 23.878906C45.816406 23.695313 46.003906 23.359375 46 23L46 15C46.003906 14.730469 45.898438 14.46875 45.707031 14.277344C45.515625 14.085938 45.253906 13.980469 44.984375 13.984375 Z M 4.984375 25.984375C4.433594 25.996094 3.992188 26.449219 4 27L4 35C3.996094 35.359375 4.183594 35.695313 4.496094 35.878906C4.808594 36.058594 5.191406 36.058594 5.503906 35.878906C5.816406 35.695313 6.003906 35.359375 6 35L6 27C6.003906 26.730469 5.898438 26.46875 5.707031 26.277344C5.515625 26.085938 5.253906 25.980469 4.984375 25.984375 Z M 44.984375 25.984375C44.433594 25.996094 43.992188 26.449219 44 27L44 35C43.996094 35.359375 44.183594 35.695313 44.496094 35.878906C44.808594 36.058594 45.191406 36.058594 45.503906 35.878906C45.816406 35.695313 46.003906 35.359375 46 35L46 27C46.003906 26.730469 45.898438 26.46875 45.707031 26.277344C45.515625 26.085938 45.253906 25.980469 44.984375 25.984375 Z M 4.984375 37.984375C4.433594 37.996094 3.992188 38.449219 4 39L4 45C4 45.550781 4.449219 46 5 46L11 46C11.359375 46.003906 11.695313 45.816406 11.878906 45.503906C12.058594 45.191406 12.058594 44.808594 11.878906 44.496094C11.695313 44.183594 11.359375 43.996094 11 44L6 44L6 39C6.003906 38.730469 5.898438 38.46875 5.707031 38.277344C5.515625 38.085938 5.253906 37.980469 4.984375 37.984375 Z M 44.984375 37.984375C44.433594 37.996094 43.992188 38.449219 44 39L44 44L39 44C38.640625 43.996094 38.304688 44.183594 38.121094 44.496094C37.941406 44.808594 37.941406 45.191406 38.121094 45.503906C38.304688 45.816406 38.640625 46.003906 39 46L45 46C45.550781 46 46 45.550781 46 45L46 39C46.003906 38.730469 45.898438 38.46875 45.707031 38.277344C45.515625 38.085938 45.253906 37.980469 44.984375 37.984375 Z M 15 44C14.640625 43.996094 14.304688 44.183594 14.121094 44.496094C13.941406 44.808594 13.941406 45.191406 14.121094 45.503906C14.304688 45.816406 14.640625 46.003906 15 46L23 46C23.359375 46.003906 23.695313 45.816406 23.878906 45.503906C24.058594 45.191406 24.058594 44.808594 23.878906 44.496094C23.695313 44.183594 23.359375 43.996094 23 44 Z M 27 44C26.640625 43.996094 26.304688 44.183594 26.121094 44.496094C25.941406 44.808594 25.941406 45.191406 26.121094 45.503906C26.304688 45.816406 26.640625 46.003906 27 46L35 46C35.359375 46.003906 35.695313 45.816406 35.878906 45.503906C36.058594 45.191406 36.058594 44.808594 35.878906 44.496094C35.695313 44.183594 35.359375 43.996094 35 44Z" />
</svg>