<svg viewBox="0 0 24 24" xmlns="http://www.w3.org/2000/svg" fill="context-fill" fill-opacity="context-fill-opacity"><g><path d="m0,0l24,0l0,24l-24,0l0,-24z" fill="none"/><path d="m21.64999,7.71111l0,13.93138a1.07222,1.07222 0 0 1 -1.06472,1.07973l-17.17056,0a1.06472,1.06472 0 0 1 -1.06472,-1.06364l0,-19.31715c0,-0.57578 0.48143,-1.06364 1.07437,-1.06364l11.78908,0l6.43655,6.43333zm-2.14444,1.07222l-5.36111,0l0,-5.36111l-9.65,0l0,17.15555l15.01111,0l0,-11.79444zm-11.79444,-2.14444l3.21667,0l0,2.14444l-3.21667,0l0,-2.14444zm0,4.28889l8.57778,0l0,2.14444l-8.57778,0l0,-2.14444zm0,4.28889l8.57778,0l0,2.14444l-8.57778,0l0,-2.14444z"/></g></svg>