<svg xmlns="http://www.w3.org/2000/svg" viewBox="0 0 48 48" width="16" height="16" fill="context-fill" fill-opacity="context-fill-opacity" transform="scale(1.2, 1.3)">
  <path d="M30.443359 5.4433594 A 1.50015 1.50015 0 0 0 30.189453 5.46875L9.578125 8.9785156C6.9441591 9.4264131 5 11.729365 5 14.400391L5 31.5 A 1.50015 1.50015 0 1 0 8 31.5L8 14.400391C8 13.171416 8.8680441 12.141649 10.080078 11.935547L30.693359 8.4257812 A 1.50015 1.50015 0 0 0 30.443359 5.4433594 z M 36.443359 10.443359 A 1.50015 1.50015 0 0 0 36.189453 10.46875L15.578125 13.978516C12.944159 14.426413 11 16.729365 11 19.400391L11 36.5 A 1.50015 1.50015 0 1 0 14 36.5L14 19.400391C14 18.171416 14.868044 17.141649 16.080078 16.935547L36.693359 13.425781 A 1.50015 1.50015 0 0 0 36.443359 10.443359 z M 39.244141 16.007812C39.076047 16.01688 38.906393 16.035553 38.736328 16.064453L21.585938 18.976562C18.94996 19.425239 17 21.727314 17 24.400391L17 38.5C17 41.260045 19.54264 43.397944 22.263672 42.935547L39.414062 40.023438C42.050041 39.574761 44 37.272686 44 34.599609L44 20.5C44 17.912458 41.765545 15.871793 39.244141 16.007812 z M 39.589844 19C40.381696 19.035762 41 19.663539 41 20.5L41 34.599609C41 35.826532 40.130132 36.85713 38.912109 37.064453L21.761719 39.978516 A 1.50015 1.50015 0 0 0 21.759766 39.978516C20.808845 40.140118 20 39.455955 20 38.5L20 24.400391C20 23.173468 20.869868 22.14287 22.087891 21.935547L39.238281 19.021484 A 1.50015 1.50015 0 0 0 39.240234 19.021484C39.359099 19.001284 39.476722 18.994891 39.589844 19 z"/>
</svg>