<svg xmlns="http://www.w3.org/2000/svg" viewBox="0 0 48 48" width="16" height="16" fill="context-fill" fill-opacity="context-fill-opacity"><path d="M10.5 13h27c1.146 0 2.229.266 3.201.728C39.961 11.563 37.912 10 35.5 10h-23c-2.412 0-4.461 1.563-5.201 3.728C8.271 13.266 9.354 13 10.5 13zM12.5 8h23c1.136 0 2.222.268 3.204.734C37.966 6.566 35.914 5 33.5 5h-19c-2.414 0-4.466 1.566-5.204 3.734C10.278 8.268 11.364 8 12.5 8zM37.5 15h-27C7.468 15 5 17.468 5 20.5v16.66C5 40.38 7.641 43 10.886 43h26.229C40.359 43 43 40.38 43 37.16V20.5C43 17.468 40.532 15 37.5 15zM17 19.5c0 .828-.672 1.5-1.5 1.5S14 20.328 14 19.5s.672-1.5 1.5-1.5S17 18.672 17 19.5zM12 19.5c0 .828-.672 1.5-1.5 1.5S9 20.328 9 19.5 9.672 18 10.5 18 12 18.672 12 19.5zM21.5 18h16c.828 0 1.5.672 1.5 1.5S38.328 21 37.5 21h-16c-.828 0-1.5-.672-1.5-1.5S20.672 18 21.5 18zM37.114 39H10.886C9.846 39 9 38.175 9 37.16V24h30v13.16C39 38.175 38.154 39 37.114 39z"/></svg>