<svg xmlns="http://www.w3.org/2000/svg" viewBox="0 0 50 50" fill="context-fill" fill-opacity="context-fill-opacity"><path d="M6.007813 6.003906C4.359375 6.003906 3.007813 7.359375 3.007813 9.003906L3.007813 15L3.011719 15L3.011719 41C3.011719 42.09375 3.917969 43 5.011719 43L32 43L32 49C32 49.550781 32.449219 50 33 50L49 50C49.550781 50 50 49.550781 50 49L50 36C50 35.734375 49.894531 35.480469 49.707031 35.292969L47 32.585938L47 15C47 13.90625 46.09375 13 45 13L41 13L41 9.003906C41 7.359375 39.644531 6.003906 38 6.003906L30 6.003906C29.230469 6.003906 28.535156 6.308594 28 6.789063C27.464844 6.308594 26.769531 6.003906 26 6.003906L18 6.003906C17.230469 6.003906 16.535156 6.308594 16 6.789063C15.464844 6.308594 14.769531 6.003906 14 6.003906 Z M 6.007813 8.003906L14 8.003906C14.566406 8.003906 15 8.4375 15 9.003906L15 15L45 15L45 32L33 32C32.449219 32 32 32.449219 32 33L32 41L5.011719 41L5.011719 13L5.007813 13L5.007813 9.003906C5.007813 8.4375 5.441406 8.003906 6.007813 8.003906 Z M 18 8.003906L26 8.003906C26.566406 8.003906 27 8.4375 27 9.003906L27 13L17 13L17 9.003906C17 8.4375 17.433594 8.003906 18 8.003906 Z M 30 8.003906L38 8.003906C38.566406 8.003906 39 8.4375 39 9.003906L39 13L29 13L29 9.003906C29 8.4375 29.433594 8.003906 30 8.003906 Z M 34 34L45.585938 34L48 36.414063L48 48L34 48 Z M 37 36L37 38L45 38L45 36 Z M 41 42C39.894531 42 39 42.894531 39 44C39 45.105469 39.894531 46 41 46C42.105469 46 43 45.105469 43 44C43 42.894531 42.105469 42 41 42Z"/></svg>