<svg xmlns="http://www.w3.org/2000/svg" viewBox="0 0 48 48" width="16" height="16" fill="context-fill" fill-opacity="context-fill-opacity" transform="scale(1.2)">
  <path d="M14.476562 5.9785156 A 1.50015 1.50015 0 0 0 14.257812 6L11.5 6C8.4802259 6 6 8.4802259 6 11.5L6 36.5C6 39.519774 8.4802259 42 11.5 42L13.253906 42 A 1.50015 1.50015 0 0 0 13.740234 42L34.253906 42 A 1.50015 1.50015 0 0 0 34.740234 42L36.5 42C39.519774 42 42 39.519774 42 36.5L42 15.5 A 1.50015 1.50015 0 0 0 41.496094 14.378906L32.496094 6.3789062 A 1.50015 1.50015 0 0 0 31.5 6L30.746094 6 A 1.50015 1.50015 0 0 0 30.259766 6L14.746094 6 A 1.50015 1.50015 0 0 0 14.476562 5.9785156 z M 11.5 9L13 9L13 14.5C13 16.414955 14.585045 18 16.5 18L28.5 18C30.414955 18 32 16.414955 32 14.5L32 9.9511719L39 16.173828L39 36.5C39 37.898226 37.898226 39 36.5 39L36 39L36 27.5C36 25.585045 34.414955 24 32.5 24L15.5 24C13.585045 24 12 25.585045 12 27.5L12 39L11.5 39C10.101774 39 9 37.898226 9 36.5L9 11.5C9 10.101774 10.101774 9 11.5 9 z M 16 9L29 9L29 14.5C29 14.795045 28.795045 15 28.5 15L16.5 15C16.204955 15 16 14.795045 16 14.5L16 9 z M 15.5 27L32.5 27C32.795045 27 33 27.204955 33 27.5L33 39L15 39L15 27.5C15 27.204955 15.204955 27 15.5 27 z"/>
</svg>