<svg xmlns="http://www.w3.org/2000/svg" viewBox="0 0 16 16" fill="context-fill" fill-opacity="context-fill-opacity"><path d="M1.5 0C0.675781 0 0 0.675781 0 1.5L0 10.5C0 11.324219 0.675781 12 1.5 12L2 12L2 12.5C2 13.324219 2.675781 14 3.5 14L12.5 14C13.324219 14 14 13.324219 14 12.5L14 3.5C14 2.675781 13.324219 2 12.5 2L12 2L12 1.5C12 0.675781 11.324219 0 10.5 0 Z M 1.5 1L10.5 1C10.78125 1 11 1.21875 11 1.5L11 2L3.5 2C2.675781 2 2 2.675781 2 3.5L2 11L1.5 11C1.21875 11 1 10.78125 1 10.5L1 1.5C1 1.21875 1.21875 1 1.5 1 Z M 3.5 3L12.5 3C12.78125 3 13 3.21875 13 3.5L13 12.5C13 12.78125 12.78125 13 12.5 13L3.5 13C3.21875 13 3 12.78125 3 12.5L3 3.5C3 3.21875 3.21875 3 3.5 3 Z M 10.5 4C10.117188 4 9.730469 4.148438 9.4375 4.4375L8.4375 5.4375C7.980469 5.898438 7.894531 6.578125 8.15625 7.132813C8.152344 7.136719 8.148438 7.140625 8.148438 7.148438L7.148438 8.148438C7.144531 8.148438 7.140625 8.152344 7.136719 8.15625C7.136719 8.15625 7.136719 8.160156 7.132813 8.15625C6.578125 7.898438 5.898438 7.980469 5.4375 8.4375L4.4375 9.4375C3.855469 10.023438 3.855469 10.976563 4.4375 11.5625C4.722656 11.84375 5.101563 12 5.5 12C5.898438 12 6.277344 11.84375 6.5625 11.5625L7.5625 10.5625C8.019531 10.101563 8.105469 9.421875 7.84375 8.867188C7.847656 8.863281 7.851563 8.859375 7.851563 8.851563L8.851563 7.851563C8.855469 7.851563 8.855469 7.851563 8.859375 7.851563C9.003906 7.703125 9.042969 7.488281 8.964844 7.296875C8.882813 7.109375 8.695313 6.992188 8.492188 6.996094C8.371094 7 8.257813 7.042969 8.171875 7.125L9.148438 6.148438L10.144531 5.148438C10.242188 5.050781 10.371094 5 10.5 5C10.628906 5 10.753906 5.050781 10.855469 5.148438C11.046875 5.339844 11.046875 5.660156 10.855469 5.851563L9.851563 6.851563L8.859375 7.851563C9.054688 7.945313 9.273438 8 9.5 8C9.898438 8 10.277344 7.84375 10.5625 7.5625L11.5625 6.5625C12.144531 5.976563 12.144531 5.023438 11.5625 4.4375C11.269531 4.148438 10.882813 4 10.5 4 Z M 7.109375 8.183594C6.9375 8.382813 6.949219 8.683594 7.136719 8.871094C7.328125 9.054688 7.628906 9.0625 7.824219 8.882813L6.851563 9.851563L5.851563 10.855469C5.664063 11.042969 5.335938 11.042969 5.148438 10.855469C4.953125 10.660156 4.953125 10.339844 5.148438 10.144531L6.148438 9.148438Z"/></svg>