<?xml version="1.0" encoding="utf-8"?>
<svg xmlns="http://www.w3.org/2000/svg" viewBox="0 0 64 64" width="16" height="16" fill="context-fill" fill-opacity="context-fill-opacity">
  <path d="M32.005859 2C31.750859 2 31.495781 2.0970156 31.300781 2.2910156L20.300781 13.291016C19.912781 13.681016 19.912781 14.311172 20.300781 14.701172L24.300781 18.701172C24.690781 19.089172 25.320938 19.089172 25.710938 18.701172L28.009766 16.5L28.009766 22L7 22C5.343 22 4 23.343 4 25L4 53C4 54.657 5.343 56 7 56L57 56C58.657 56 60 54.657 60 53L60 25C60 23.343 58.657 22 57 22L36 22L36 16L38.300781 18.701172C38.690781 19.089172 39.320937 19.089172 39.710938 18.701172L43.710938 14.701172C44.098937 14.311172 44.098937 13.681016 43.710938 13.291016L32.710938 2.2910156C32.515938 2.0970156 32.260859 2 32.005859 2 z M 32.009766 4.4101562L41.599609 14.001953L39.009766 16.591797L35.720703 13.300781C35.331703 12.908781 34.698641 12.905922 34.306641 13.294922C34.118641 13.481922 34.010766 13.736953 34.009766 14.001953L34.009766 40.001953L30 40L30 14C30.003 13.448 29.567625 12.997141 29.015625 12.994141C28.746625 12.992141 28.489781 13.100016 28.300781 13.291016L25.009766 16.591797L22.419922 14.001953L32.009766 4.4101562 z M 7 24L28.009766 24L28.009766 41.001953C28.009766 41.553953 28.448 42 29 42L35 42C35.552 42 36 41.552 36 41L36 24L57 24C57.552 24 58 24.448 58 25L58 53C58 53.552 57.552 54 57 54L7 54C6.448 54 6 53.552 6 53L6 25C6 24.448 6.448 24 7 24 z M 10 48C9.448 48 9 48.448 9 49L9 51C9 51.552 9.448 52 10 52C10.552 52 11 51.552 11 51L11 49C11 48.448 10.552 48 10 48 z M 15 48C14.448 48 14 48.448 14 49L14 51C14 51.552 14.448 52 15 52C15.552 52 16 51.552 16 51L16 49C16 48.448 15.552 48 15 48 z M 20 48C19.448 48 19 48.448 19 49L19 51C19 51.552 19.448 52 20 52C20.552 52 21 51.552 21 51L21 49C21 48.448 20.552 48 20 48 z M 25 48C24.448 48 24 48.448 24 49L24 51C24 51.552 24.448 52 25 52C25.552 52 26 51.552 26 51L26 49C26 48.448 25.552 48 25 48 z M 30 48C29.448 48 29 48.448 29 49L29 51C29 51.552 29.448 52 30 52C30.552 52 31 51.552 31 51L31 49C31 48.448 30.552 48 30 48 z M 35 48C34.448 48 34 48.448 34 49L34 51C34 51.552 34.448 52 35 52C35.552 52 36 51.552 36 51L36 49C36 48.448 35.552 48 35 48 z M 40 48C39.448 48 39 48.448 39 49L39 51C39 51.552 39.448 52 40 52C40.552 52 41 51.552 41 51L41 49C41 48.448 40.552 48 40 48 z M 45 48C44.448 48 44 48.448 44 49L44 51C44 51.552 44.448 52 45 52C45.552 52 46 51.552 46 51L46 49C46 48.448 45.552 48 45 48 z M 50 48C49.448 48 49 48.448 49 49L49 51C49 51.552 49.448 52 50 52C50.552 52 51 51.552 51 51L51 49C51 48.448 50.552 48 50 48 z M 55 48C54.448 48 54 48.448 54 49L54 51C54 51.552 54.448 52 55 52C55.552 52 56 51.552 56 51L56 49C56 48.448 55.552 48 55 48 z" />
</svg>