<?xml version="1.0" encoding="utf-8"?>
<svg xmlns="http://www.w3.org/2000/svg" viewBox="0 0 64 64" width="16" height="16" fill="context-fill" fill-opacity="context-fill-opacity">
  <path d="M29 2C28.449219 2 28 2.449219 28 3L28 16L7 16C5.347656 16 4 17.347656 4 19L4 53C4 54.652344 5.347656 56 7 56L57 56C58.652344 56 60 54.652344 60 53L60 19C60 17.347656 58.652344 16 57 16L36 16L36 3C36 2.449219 35.550781 2 35 2 Z M 30 4L34 4L34 30C34 30.402344 34.246094 30.769531 34.617188 30.921875C34.992188 31.078125 35.421875 30.992188 35.707031 30.707031L39 27.414063L41.585938 30L32 39.585938L22.414063 30L25 27.414063L28.292969 30.707031C28.578125 30.992188 29.007813 31.078125 29.382813 30.921875C29.753906 30.769531 30 30.402344 30 30 Z M 7 18L28 18L28 27.585938L25.707031 25.292969C25.316406 24.902344 24.683594 24.902344 24.292969 25.292969L20.292969 29.292969C20.097656 29.488281 20 29.742188 20 30C20 30.257813 20.097656 30.511719 20.292969 30.707031L31.292969 41.707031C31.683594 42.097656 32.316406 42.097656 32.707031 41.707031L43.707031 30.707031C44.097656 30.316406 44.097656 29.683594 43.707031 29.292969L39.707031 25.292969C39.316406 24.902344 38.683594 24.902344 38.292969 25.292969L36 27.585938L36 18L57 18C57.550781 18 58 18.449219 58 19L58 53C58 53.550781 57.550781 54 57 54L7 54C6.449219 54 6 53.550781 6 53L6 19C6 18.449219 6.449219 18 7 18 Z M 10 48C9.449219 48 9 48.445313 9 49L9 51C9 51.554688 9.449219 52 10 52C10.550781 52 11 51.554688 11 51L11 49C11 48.445313 10.550781 48 10 48 Z M 15 48C14.449219 48 14 48.445313 14 49L14 51C14 51.554688 14.449219 52 15 52C15.550781 52 16 51.554688 16 51L16 49C16 48.445313 15.550781 48 15 48 Z M 20 48C19.449219 48 19 48.445313 19 49L19 51C19 51.554688 19.449219 52 20 52C20.550781 52 21 51.554688 21 51L21 49C21 48.445313 20.550781 48 20 48 Z M 25 48C24.449219 48 24 48.445313 24 49L24 51C24 51.554688 24.449219 52 25 52C25.550781 52 26 51.554688 26 51L26 49C26 48.445313 25.550781 48 25 48 Z M 30 48C29.449219 48 29 48.445313 29 49L29 51C29 51.554688 29.449219 52 30 52C30.550781 52 31 51.554688 31 51L31 49C31 48.445313 30.550781 48 30 48 Z M 35 48C34.449219 48 34 48.445313 34 49L34 51C34 51.554688 34.449219 52 35 52C35.550781 52 36 51.554688 36 51L36 49C36 48.445313 35.550781 48 35 48 Z M 40 48C39.449219 48 39 48.445313 39 49L39 51C39 51.554688 39.449219 52 40 52C40.550781 52 41 51.554688 41 51L41 49C41 48.445313 40.550781 48 40 48 Z M 45 48C44.449219 48 44 48.445313 44 49L44 51C44 51.554688 44.449219 52 45 52C45.550781 52 46 51.554688 46 51L46 49C46 48.445313 45.550781 48 45 48 Z M 50 48C49.449219 48 49 48.445313 49 49L49 51C49 51.554688 49.449219 52 50 52C50.550781 52 51 51.554688 51 51L51 49C51 48.445313 50.550781 48 50 48 Z M 55 48C54.449219 48 54 48.445313 54 49L54 51C54 51.554688 54.449219 52 55 52C55.550781 52 56 51.554688 56 51L56 49C56 48.445313 55.550781 48 55 48Z" />
</svg>