<svg xmlns="http://www.w3.org/2000/svg" viewBox="0 0 24 24" fill-opacity="context-fill-opacity" fill="context-fill"><path d="m17.62754,0.97022c-1.55674,0 -2.8828,0.62863 -3.73376,1.58594c-0.85094,0.95731 -1.24782,2.18485 -1.24782,3.39565c0,1.2108 0.39688,2.43834 1.24782,3.39565c0.85095,0.95731 2.17701,1.58594 3.73376,1.58594c1.55674,0 2.8828,-0.62863 3.73376,-1.58594c0.85094,-0.95731 1.24782,-2.18485 1.24782,-3.39565c0,-1.2108 -0.39688,-2.43834 -1.24782,-3.39565c-0.85095,-0.95731 -2.17701,-1.58594 -3.73376,-1.58594zm-15.28529,0.38919l-1.76106,1.76106l2.83133,2.83133l-2.83133,2.83133l1.76106,1.76106l2.83133,-2.83133l2.83133,2.83133l1.76106,-1.76106l-2.83133,-2.83133l2.83133,-2.83133l-1.76106,-1.76106l-2.83133,2.83133l-2.83133,-2.83133zm15.28529,2.10161c0.93405,0 1.47608,0.30542 1.87052,0.74918c0.39445,0.44376 0.62027,1.08432 0.62027,1.74161c0,0.6573 -0.22582,1.29785 -0.62027,1.74161c-0.39444,0.44376 -0.93648,0.74918 -1.87052,0.74918c-0.93405,0 -1.47608,-0.30542 -1.87052,-0.74918c-0.39445,-0.44376 -0.62027,-1.08432 -0.62027,-1.74161c0,-0.6573 0.22582,-1.29785 0.62027,-1.74161c0.39444,-0.44376 0.93648,-0.74918 1.87052,-0.74918zm0.03162,9.57398a1.24552,1.24552 0 0 0 -1.09702,0.59838l-4.54618,7.50642a1.24552,1.24552 0 0 0 1.0654,1.88999l9.09236,0a1.24552,1.24552 0 0 0 1.0654,-1.88999l-4.54618,-7.50642a1.24552,1.24552 0 0 0 -1.03378,-0.59838zm-15.59907,1.01188a1.24552,1.24552 0 0 0 -1.2454,1.2454l0,6.22698a1.24552,1.24552 0 0 0 1.2454,1.2454l6.22698,0a1.24552,1.24552 0 0 0 1.2454,-1.2454l0,-6.22698a1.24552,1.24552 0 0 0 -1.2454,-1.2454l-6.22698,0zm1.2454,2.49079l3.73619,0l0,3.73619l-3.73619,0l0,-3.73619zm14.32205,0.14595l2.33512,3.85537l-4.67023,0l2.33512,-3.85537z"/></svg>