<svg width="48" height="48" xmlns="http://www.w3.org/2000/svg" fill-opacity="context-fill-opacity" fill="context-fill"><path d="m23.95387,2.52983a1.61045,1.61045 0 0 0 -1.2832,0.7003c0,0 -3.16953,4.63551 -6.57954,10.1293c-3.41001,5.49379 -7.04828,11.65399 -8.1353,15.5787c-1.24934,4.51079 0.69905,8.80505 3.90411,11.75426c3.20505,2.9492 7.68334,4.77844 12.14005,4.77844c4.45672,0 8.935,-1.82924 12.14005,-4.77844c3.20506,-2.94921 5.15345,-7.24347 3.90411,-11.75426c-1.08702,-3.9247 -4.72529,-10.08491 -8.1353,-15.5787c-3.41001,-5.49379 -6.57954,-10.1293 -6.57954,-10.1293a1.61045,1.61045 0 0 0 -1.37545,-0.7003zm0.04613,4.56668c0.9236,1.36717 2.49461,3.6468 5.17263,7.96127c3.36635,5.42344 6.97566,11.87788 7.76838,14.74c0.88698,3.20249 -0.40728,6.15443 -2.98155,8.5232c-2.57426,2.36878 -6.41197,3.92927 -9.95946,3.92927c-3.54749,0 -7.3852,-1.5605 -9.95946,-3.92927c-2.57427,-2.36877 -3.86853,-5.32071 -2.98155,-8.5232c0.79272,-2.86213 4.40203,-9.31657 7.76838,-14.74c2.67802,-4.31448 4.24903,-6.59411 5.17263,-7.96127zm-8.0745,21.17486a1.61045,1.61045 0 0 0 -1.55577,1.31674c-0.62584,3.12918 0.41688,5.78801 2.3043,7.33226c1.88742,1.54424 4.37378,2.10931 6.78921,2.10931a1.61045,1.61045 0 1 0 0,-3.22058c-1.87867,0 -3.68641,-0.50846 -4.75119,-1.37965c-1.06478,-0.87118 -1.63235,-1.96968 -1.18466,-4.20813a1.61045,1.61045 0 0 0 -1.60189,-1.94995z"/></svg>