<svg xmlns="http://www.w3.org/2000/svg" viewBox="0 0 26 26">
  <path d="M13.8125 0C7.878906 0 4.082031 4.292969 4 10L0.5 10C0.300781 10 0.09375 10.113281 0.09375 10.3125C-0.0078125 10.511719 -0.0078125 10.710938 0.09375 10.8125L6.09375 18.5C6.195313 18.601563 6.300781 18.6875 6.5 18.6875C6.699219 18.6875 6.804688 18.601563 6.90625 18.5L12.90625 10.8125C13.007813 10.710938 13.007813 10.511719 12.90625 10.3125C12.804688 10.113281 12.601563 10 12.5 10L9 10C9.066406 2.464844 12.921875 0.789063 13.8125 0.09375C14.011719 -0.0078125 14.011719 0 13.8125 0 Z M 19.5 7.34375C19.351563 7.34375 19.195313 7.398438 19.09375 7.5L13.09375 15.1875C12.992188 15.386719 13 15.585938 13 15.6875C13.101563 15.886719 13.304688 16 13.40625 16L17 16C16.933594 23.535156 13.078125 25.210938 12.1875 25.90625C11.988281 26.007813 11.988281 26 12.1875 26C18.121094 26 21.917969 21.707031 22 16L25.40625 16C25.605469 16 25.8125 15.886719 25.8125 15.6875C26.011719 15.488281 26.007813 15.289063 25.90625 15.1875L19.90625 7.5C19.804688 7.398438 19.648438 7.34375 19.5 7.34375Z" fill="#55DE04" />
</svg>