<?xml version="1.0" encoding="utf-8"?>
<svg xmlns="http://www.w3.org/2000/svg" viewBox="0 0 50 50" width="32" height="32" fill="context-fill" fill-opacity="context-fill-opacity" >
  <path d="M25 2C12.308594 2 2 12.308594 2 25C2 37.691406 12.308594 48 25 48C37.691406 48 48 37.691406 48 25C48 12.308594 37.691406 2 25 2 Z M 25 4C36.609375 4 46 13.390625 46 25C46 36.609375 36.609375 46 25 46C13.390625 46 4 36.609375 4 25C4 13.390625 13.390625 4 25 4 Z M 18 18.3125C13 18.3125 12 23 12 25C12 27.800781 13.601563 31.6875 18 31.6875C20.101563 31.6875 21.210938 30.605469 21.8125 29.90625L22.09375 31.40625L23.5 31.40625L23.5 24.8125L18.1875 24.8125L18.1875 26.5L21.5 26.5C21.5 28.398438 20.5 30 18 30C16.101563 30 14.1875 28.59375 14.1875 25.09375C14.1875 24.492188 14.398438 20.1875 18 20.1875C20.699219 20.1875 21.085938 22.289063 21.1875 22.6875L23.3125 22.6875C23.3125 21.988281 22.5 18.3125 18 18.3125 Z M 32 18.3125C29.300781 18.3125 26 20.199219 26 25C26 27.199219 27.101563 31.6875 32 31.6875C36 31.6875 38 28.398438 38 25C38 21.199219 35.601563 18.3125 32 18.3125 Z M 32 20.09375C35.699219 20.09375 35.8125 24.398438 35.8125 25C35.8125 28.300781 34 29.90625 32 29.90625C28.699219 29.90625 28.1875 26.5 28.1875 25C28.1875 24.398438 28.398438 20.09375 32 20.09375Z" />
</svg>