<?xml version="1.0" standalone="no"?><!DOCTYPE svg PUBLIC "-//W3C//DTD SVG 1.1//EN" "http://www.w3.org/Graphics/SVG/1.1/DTD/svg11.dtd"><svg t="1649759653204" class="icon" viewBox="0 0 1024 1024" version="1.1" xmlns="http://www.w3.org/2000/svg" p-id="1943" xmlns:xlink="http://www.w3.org/1999/xlink" width="32" height="32" fill="context-fill" fill-opacity="context-fill-opacity"><defs><style type="text/css"></style></defs><path d="M783.69 882.537H289.438c-54.588 0-98.848-44.243-98.848-98.811v-98.808h49.424v98.808c0 27.286 22.132 49.406 49.424 49.406H783.69c27.294 0 49.423-22.124 49.423-49.406V240.274c0-27.287-22.133-49.407-49.423-49.407H289.438c-27.297 0-49.424 22.12-49.424 49.407v98.807H190.59v-98.807c0-54.568 44.26-98.812 98.848-98.812H783.69c54.587 0 98.847 44.243 98.847 98.812v543.451c0 54.568-44.26 98.812-98.847 98.812zM529.746 357.802c-9.63-9.649-9.63-25.304 0-34.93 9.65-9.65 25.313-9.65 34.967 0l170.501 170.432c5.139 5.14 7.335 11.966 6.999 18.695 0.336 6.731-1.86 13.557-6.999 18.723l-170.501 170.43c-9.655 9.648-25.318 9.648-34.967 0-9.63-9.65-9.63-25.306 0-34.932l129.57-129.52h-493.14c-13.637 0-24.713-11.047-24.713-24.702 0-13.627 11.076-24.703 24.711-24.703h493.143L529.746 357.8z m-40.774 0"></path></svg>