<svg xmlns="http://www.w3.org/2000/svg" xmlns:xlink="http://www.w3.org/1999/xlink" viewBox="0 0 48 48" width="16" height="16" fill="context-fill" fill-opacity="context-fill-opacity"><path d="M20.5 4C16.364 4 13 7.364 13 11.5L13 12L16 12L16 11.5C16 10.099 16.656109 8.8601563 17.662109 8.0351562C18.291109 6.4351563 19.341734 5.0497656 20.677734 4.0097656C20.617734 4.0077656 20.56 4 20.5 4 z M 26.5 4C22.375499 4 19 7.3754991 19 11.5L19 14L16.371094 14C14.22282 14 12.398814 15.6498 12.185547 17.787109L10.021484 39.375C9.7751662 41.827409 11.740868 44 14.205078 44L39.794922 44C42.258672 44 44.223257 41.828986 43.978516 39.376953L43.978516 39.375L41.814453 17.789062L41.814453 17.787109C41.600377 15.650186 39.775815 14 37.628906 14L36 14L36 17L37.628906 17C38.261352 17 38.765298 17.455843 38.828125 18.085938L40.994141 39.673828C41.067399 40.407795 40.531172 41 39.794922 41L14.205078 41C13.467289 41 12.932178 40.409372 13.005859 39.675781L13.005859 39.673828L15.171875 18.085938C15.234608 17.457294 15.739367 17 16.371094 17L19 17L19 18.5 A 1.50015 1.50015 0 1 0 22 18.5L22 11.5C22 8.9965009 23.996501 7 26.5 7C29.003499 7 31 8.9965009 31 11.5L31 14L24 14L24 17L31 17L31 18.5 A 1.50015 1.50015 0 1 0 34 18.5L34 11.5C34 7.3754991 30.624501 4 26.5 4 z M 10.369141 13.998047C8.1991406 13.998047 6.4015469 15.626156 6.1855469 17.785156L4.0214844 39.376953C3.9034844 40.556953 4.2918906 41.736234 5.0878906 42.615234C5.8838906 43.494234 7.0190781 44 8.2050781 44L9.6464844 44C9.6324844 43.986 9.6184688 43.972031 9.6054688 43.957031C8.8414688 43.113031 8.3360937 42.080422 8.1210938 40.982422C7.8110938 40.960422 7.5245 40.837516 7.3125 40.603516C7.0815 40.347516 6.9718594 40.016828 7.0058594 39.673828L9.171875 18.085938C9.230875 17.488937 9.7165937 17.043719 10.308594 17.011719C10.535594 15.850719 11.070031 14.821047 11.832031 13.998047L10.369141 13.998047 z M 24.138672 22.023438C22.515115 22.07923 21 23.406622 21 25.179688L21 32.818359C21 35.182612 23.693128 36.753881 25.746094 35.578125L32.404297 31.757812C34.471709 30.571171 34.471709 27.428829 32.404297 26.242188L25.746094 22.421875C25.232943 22.127527 24.679858 22.00484 24.138672 22.023438 z M 24.060547 24.984375C24.102099 24.959226 24.166208 24.973133 24.253906 25.023438L30.912109 28.84375C31.088698 28.945107 31.088698 29.054893 30.912109 29.15625L24.253906 32.976562L24.253906 32.974609C24.078872 33.0749 24 33.032107 24 32.818359L24 25.179688C24 25.07373 24.018995 25.009524 24.060547 24.984375 z"/></svg>