<?xml version="1.0" encoding="utf-8"?>
<svg xmlns="http://www.w3.org/2000/svg" viewBox="0 0 32 32" width="16" height="16" fill="context-fill" fill-opacity="context-fill-opacity">
  <path d="M4 4L4 28L28 28L28 4L18 4C18 5.117188 17.117188 6 16 6C14.882813 6 14 5.117188 14 4 Z M 6 6L12.5625 6C13.257813 7.183594 14.535156 8 16 8C17.464844 8 18.742188 7.183594 19.4375 6L26 6L26 26L6 26 Z M 15 11L15 19.25L12.71875 16.96875L11.28125 18.375L16 23.09375L20.71875 18.375L19.28125 16.96875L17 19.25L17 11Z" />
</svg>