<?xml version="1.0" encoding="utf-8"?>
<svg xmlns="http://www.w3.org/2000/svg" viewBox="0 0 24 24" width="16" height="16" fill="context-fill" fill-opacity="context-fill-opacity">
  <path d="M4 3C2.9069372 3 2 3.9069372 2 5L2 21L16 21L22 21L22 9C22 7.9069372 21.093063 7 20 7L16 7L16 5C16 3.9069372 15.093063 3 14 3L4 3 z M 4 5L14 5L14 19L4 19L4 5 z M 6 7L6 9L8 9L8 7L6 7 z M 10 7L10 9L12 9L12 7L10 7 z M 16 9L20 9L20 19L16 19L16 17L18 17L18 15L16 15L16 13L18 13L18 11L16 11L16 9 z M 6 11L6 13L8 13L8 11L6 11 z M 10 11L10 13L12 13L12 11L10 11 z M 6 15L6 17L8 17L8 15L6 15 z M 10 15L10 17L12 17L12 15L10 15 z" />
</svg>