<?xml version="1.0" encoding="utf-8"?>
<svg xmlns="http://www.w3.org/2000/svg" viewBox="0 0 24 24" width="16" height="16" fill="context-fill" fill-opacity="context-fill-opacity">
  <path d="M5.75 3C5.395 3 5.0657188 3.1890937 4.8867188 3.4960938L3.1367188 6.4960938C3.0477188 6.6490937 3 6.823 3 7L3 19C3 20.103 3.897 21 5 21L12.294922 21C12.105922 20.366 12 19.695 12 19L5 19L5 9L19 9L19 12C19.695 12 20.366 12.105922 21 12.294922L21 7C21 6.823 20.952281 6.6490938 20.863281 6.4960938L19.113281 3.4960938C18.934281 3.1890937 18.605 3 18.25 3L5.75 3 z M 6.3242188 5L17.675781 5L18.841797 7L5.1582031 7L6.3242188 5 z M 9 11L9 13L15 13L15 11L9 11 z M 18.048828 14C17.919828 14 17.811875 14.096609 17.796875 14.224609L17.679688 15.236328C17.195687 15.404328 16.757906 15.660281 16.378906 15.988281L15.443359 15.582031C15.325359 15.531031 15.187047 15.578453 15.123047 15.689453L14.1875 17.310547C14.1235 17.421547 14.152859 17.563625 14.255859 17.640625L15.0625 18.240234C15.0145 18.487234 14.984375 18.74 14.984375 19C14.984375 19.26 15.0145 19.512766 15.0625 19.759766L14.255859 20.359375C14.152859 20.436375 14.1225 20.578453 14.1875 20.689453L15.123047 22.310547C15.187047 22.422547 15.325359 22.467016 15.443359 22.416016L16.378906 22.011719C16.757906 22.340719 17.195687 22.595672 17.679688 22.763672L17.796875 23.775391C17.811875 23.903391 17.919828 24 18.048828 24L19.921875 24C20.050875 24 20.158828 23.903391 20.173828 23.775391L20.289062 22.763672C20.773063 22.595672 21.212797 22.339719 21.591797 22.011719L22.527344 22.417969C22.645344 22.468969 22.783656 22.421547 22.847656 22.310547L23.783203 20.689453C23.847203 20.577453 23.817844 20.435375 23.714844 20.359375L22.908203 19.759766C22.956203 19.512766 22.984375 19.26 22.984375 19C22.984375 18.74 22.956203 18.487234 22.908203 18.240234L23.714844 17.640625C23.817844 17.563625 23.848203 17.421547 23.783203 17.310547L22.847656 15.689453C22.783656 15.578453 22.645344 15.531031 22.527344 15.582031L21.591797 15.988281C21.212797 15.660281 20.773062 15.404328 20.289062 15.236328L20.173828 14.224609C20.158828 14.096609 20.050875 14 19.921875 14L18.048828 14 z M 18.984375 17C20.088375 17 20.984375 17.895 20.984375 19C20.984375 20.104 20.088375 21 18.984375 21C17.880375 21 16.984375 20.104 16.984375 19C16.984375 17.895 17.880375 17 18.984375 17 z"/>
</svg>