<?xml version="1.0" encoding="utf-8"?>
<svg xmlns="http://www.w3.org/2000/svg" viewBox="0 0 32 32" width="16" height="16" fill="context-fill" fill-opacity="context-fill-opacity" transform="scale(1.45, 1.15)">
  <path d="M6 3L6 10L8 10L8 5L24 5L24 10L26 10L26 3L6 3 z M 8 12L8 20L12 20L12 18L10 18L10 12L8 12 z M 15.5 12C14.116667 12 13 13.116667 13 14.5L13 17.5C13 18.883333 14.116667 20 15.5 20C16.883333 20 18 18.883333 18 17.5L18 14.5C18 13.116667 16.883333 12 15.5 12 z M 21.5 12C20.116667 12 19 13.116667 19 14.5L19 17.5C19 18.883333 20.116667 20 21.5 20L24 20L24 16L22 16L22 17L22 18L21.5 18C21.283333 18 21 17.716667 21 17.5L21 14.5C21 14.283333 21.283333 14 21.5 14C21.716667 14 22 14.283333 22 14.5L22 15L24 15L24 14.5C24 13.116667 22.883333 12 21.5 12 z M 15.5 14C15.716667 14 16 14.283333 16 14.5L16 17.5C16 17.716667 15.716667 18 15.5 18C15.283333 18 15 17.716667 15 17.5L15 14.5C15 14.283333 15.283333 14 15.5 14 z M 6 22L6 29L26 29L26 22L24 22L24 27L8 27L8 22L6 22 z"/>
</svg>