<?xml version="1.0" encoding="utf-8"?>
<svg xmlns="http://www.w3.org/2000/svg" viewBox="0 0 50 50" fill="context-fill" fill-opacity="context-fill-opacity">
  <path d="M7 2L7 48L43 48L43 47L43 15.410156L29.183594 2L7 2 z M 9 4L28 4L28 17L41 17L41 46L9 46L9 4 z M 30 5.5800781L39.707031 15L30 15L30 5.5800781 z M 24.101562 23.435547C21.866563 23.435547 20.771484 25.820078 20.771484 28.580078C20.771484 31.355078 21.671797 33.785156 23.966797 33.785156C25.886797 33.785156 27.236328 32.239688 27.236328 28.429688C27.236328 26.119688 26.547563 23.436547 24.101562 23.435547 z M 32.509766 23.464844C30.364766 23.464844 28.26375 24.994922 28.21875 28.669922C28.18875 30.409922 28.653437 31.91 29.523438 32.75C30.198438 33.425 31.069609 33.755859 32.224609 33.755859C32.959609 33.755859 33.889219 33.574531 34.324219 33.394531C34.323219 33.394531 34.323219 27.994141 34.324219 27.994141L31.609375 27.994141L31.609375 29.599609L32.509766 29.599609L32.509766 32.044922C32.433766 32.074922 32.297187 32.089844 32.117188 32.089844C31.202187 32.089844 30.259766 31.219062 30.259766 28.789062C30.259766 26.149063 31.323203 25.234375 32.658203 25.234375C33.153203 25.234375 33.5275 25.310938 33.8125 25.460938L34.158203 23.765625C33.844203 23.615625 33.274766 23.464844 32.509766 23.464844 z M 15.675781 23.556641L15.675781 33.666016L20.236328 33.666016L20.236328 32.001953L17.640625 32.001953L17.640625 23.556641L15.675781 23.556641 z M 24.027344 25.144531C24.911344 25.144531 25.183594 26.749531 25.183594 28.519531C25.183594 30.574531 24.866969 32.074219 24.042969 32.074219C23.248969 32.074219 22.8125 30.904375 22.8125 28.609375C22.8125 26.435375 23.246344 25.145531 24.027344 25.144531 z" />
</svg>