<?xml version="1.0" encoding="utf-8"?>
<svg xmlns="http://www.w3.org/2000/svg" viewBox="0 0 48 48" width="16" height="16" fill="context-fill" fill-opacity="context-fill-opacity" transform="scale(1.15)">
  <path d="M10.5 6C10.310438 6 10.122177 6.0104805 9.9375 6.0292969C9.7535346 6.0481114 9.5707816 6.0747532 9.3925781 6.1113281C9.2137158 6.1480312 9.0373542 6.1943867 8.8652344 6.2480469C6.6288688 6.9461757 5 9.0371449 5 11.5L5 13.5L5 36.5C5 39.532 7.467 42 10.5 42L37.5 42C40.533 42 43 39.532 43 36.5L43 13.5L43 11.5C43 9.0371449 41.371131 6.9461757 39.134766 6.2480469C39.134168 6.2478607 39.13341 6.2482329 39.132812 6.2480469C38.789218 6.140914 38.431076 6.0669919 38.0625 6.0292969C38.06186 6.0292317 38.061186 6.0293618 38.060547 6.0292969C37.875918 6.0104805 37.6895 6 37.5 6L10.5 6 z M 10.5 9C11.328 9 12 9.672 12 10.5C12 11.328 11.328 12 10.5 12C9.672 12 9 11.328 9 10.5C9 9.7755 9.5139453 9.1711953 10.197266 9.03125C10.294883 9.0112578 10.3965 9 10.5 9 z M 15.5 9C16.328 9 17 9.672 17 10.5C17 11.328 16.328 12 15.5 12C14.672 12 14 11.328 14 10.5C14 9.672 14.672 9 15.5 9 z M 21.5 9L37.5 9C37.6035 9 37.705117 9.0112578 37.802734 9.03125C38.486055 9.1711953 39 9.7755 39 10.5C39 11.328 38.328 12 37.5 12L21.5 12C20.672 12 20 11.328 20 10.5C20 9.672 20.672 9 21.5 9 z M 8 15L40 15L40 36.5C40 37.879 38.878 39 37.5 39L10.5 39C9.122 39 8 37.879 8 36.5L8 15 z M 24 18C23.76225 18 23.525406 18.099875 23.378906 18.296875C21.316906 21.061875 17.810344 21.113281 17.777344 21.113281C17.347344 21.113281 17 21.464484 17 21.896484L17 26.609375C17 34.176375 23.742547 35.958563 23.810547 35.976562C23.872547 35.991563 23.937 36 24 36C24.063 36 24.127453 35.991562 24.189453 35.976562C24.257453 35.959562 31 34.176375 31 26.609375L31 21.896484C31 21.465484 30.652609 21.116281 30.224609 21.113281C30.189609 21.113281 26.683094 21.062875 24.621094 18.296875C24.474594 18.099875 24.23775 18 24 18 z" fill="#5B5B5B" />
</svg>