<?xml version="1.0" encoding="utf-8"?>
<svg xmlns="http://www.w3.org/2000/svg" viewBox="0 0 50 50" fill="context-fill" fill-opacity="context-fill-opacity">
  <path d="M24.417969 4.003906C15.472656 3.835938 7.050781 9.449219 4.078125 18.375C2.3125 23.699219 2.71875 29.390625 5.234375 34.40625C7.746094 39.421875 12.0625 43.15625 17.382813 44.925781C19.574219 45.652344 21.800781 46 23.988281 46C25.695313 46 27.375 45.785156 29 45.386719L29 43.316406C25.507813 44.277344 21.703125 44.253906 18.015625 43.03125C13.199219 41.429688 9.292969 38.046875 7.023438 33.511719C4.75 28.972656 4.378906 23.824219 5.976563 19.007813C8.625 11.046875 16.058594 6 24.019531 6C26.003906 6 28.019531 6.3125 30 6.972656C34.816406 8.574219 38.71875 11.953125 40.992188 16.488281C41.609375 17.722656 42.074219 19 42.410156 20.304688L36.386719 17.824219C35.871094 17.613281 35.289063 17.855469 35.078125 18.363281C34.867188 18.875 35.109375 19.460938 35.621094 19.671875L43.527344 22.925781C43.652344 22.976563 43.777344 23 43.90625 23C44.300781 23 44.671875 22.769531 44.832031 22.382813L47.925781 14.871094C48.136719 14.359375 47.890625 13.773438 47.378906 13.5625C46.871094 13.355469 46.285156 13.597656 46.074219 14.109375L44.09375 18.921875C43.75 17.789063 43.320313 16.675781 42.78125 15.59375C40.269531 10.582031 35.953125 6.84375 30.628906 5.074219C28.570313 4.390625 26.480469 4.042969 24.417969 4.003906 Z M 34.832031 31C32.726563 31 31 32.726563 31 34.832031L31 46.167969C31 48.269531 32.726563 50 34.832031 50L46.167969 50C48.269531 50 50 48.273438 50 46.167969L50 34.832031C50 32.726563 48.273438 31 46.167969 31 Z M 34.832031 33L46.167969 33C47.179688 33 48 33.820313 48 34.832031L48 46.167969C48 47.179688 47.179688 48 46.167969 48L34.832031 48C33.820313 48 33 47.179688 33 46.167969L33 34.832031C33 33.820313 33.820313 33 34.832031 33 Z M 45.199219 36L39.800781 42.300781L36.5 39.800781L35.300781 41.402344L40 45L46.699219 37.300781Z" />
</svg>