<?xml version="1.0" encoding="utf-8"?>
<svg xmlns="http://www.w3.org/2000/svg" viewBox="0 0 24 24" width="16" height="16" fill="context-fill" fill-opacity="context-fill-opacity" transform="scale(1.2)">
  <path d="M12 3C7.4216946 3 3.6306015 6.4403916 3.0761719 10.876953 A 1.0001 1.0001 0 1 0 5.0605469 11.123047C5.4921173 7.6696084 8.4203054 5 12 5C14.014324 5 15.815128 5.8498034 17.087891 7.2050781L15.146484 9.1464844C14.951484 9.3414844 14.951484 9.6585156 15.146484 9.8535156C15.243484 9.9515156 15.372 10 15.5 10L20 10 A 1 1 0 0 0 21 9L21 4.5C21 4.372 20.950516 4.2444844 20.853516 4.1464844C20.658516 3.9514844 20.341484 3.9514844 20.146484 4.1464844L18.503906 5.7890625C16.865504 4.0712244 14.555549 3 12 3 z M 19.941406 11.986328 A 1.0001 1.0001 0 0 0 18.939453 12.876953C18.507883 16.330392 15.579695 19 12 19C9.9856959 19 8.1882644 18.149095 6.9140625 16.792969L8.8535156 14.853516C9.0485156 14.658516 9.0485156 14.341484 8.8535156 14.146484C8.7565156 14.048484 8.628 14 8.5 14L4 14 A 1 1 0 0 0 3 15L3 19.5C3 19.628 3.0494844 19.755516 3.1464844 19.853516C3.3414844 20.048516 3.6585156 20.048516 3.8535156 19.853516L5.4980469 18.208984C7.1356697 19.925461 9.4454356 21 12 21C16.578305 21 20.369399 17.559608 20.923828 13.123047 A 1.0001 1.0001 0 0 0 19.941406 11.986328 z"/>
</svg>