<svg xmlns="http://www.w3.org/2000/svg" viewBox="0 0 26 26" fill="context-fill" fill-opacity="context-fill-opacity">
  <path d="M17.222656 4.679688L20.140625 4.679688L18.285156 12.910156C18.019531 14.5 17.753906 15.296875 17.488281 15.828125C18.019531 17.953125 18.550781 19.011719 19.613281 19.011719C20.671875 19.011719 20.9375 18.21875 21.203125 16.890625L22 16.890625C22 18.21875 21.734375 19.277344 21.203125 20.074219C20.671875 20.871094 20.140625 21.402344 19.347656 21.402344C18.816406 21.402344 18.285156 21.136719 18.019531 20.605469C17.753906 20.074219 17.488281 19.011719 16.957031 17.421875C15.628906 20.074219 13.773438 21.136719 11.117188 21.136719C9.261719 21.136719 7.667969 20.339844 6.605469 19.011719C5.546875 17.421875 5.015625 15.5625 5.015625 12.644531C5.015625 9.988281 5.546875 7.867188 6.871094 6.273438C8.199219 4.679688 9.527344 4.152344 11.117188 4.152344C12.445313 4.152344 13.242188 4.679688 14.039063 5.476563C14.835938 6.273438 15.363281 7.601563 16.160156 9.722656 Z M 15.628906 11.582031C15.101563 9.722656 14.570313 8.132813 13.773438 7.070313C12.976563 6.007813 12.179688 5.476563 11.382813 5.476563C9.261719 5.476563 8.199219 7.867188 8.199219 12.910156C8.199219 17.6875 9.261719 20.074219 11.382813 20.074219C13.242188 20.074219 14.570313 17.953125 15.363281 13.703125Z"/>
</svg>