<?xml version="1.0" encoding="utf-8"?>
<svg xmlns="http://www.w3.org/2000/svg" viewBox="0 0 48 48" width="16" height="16" fill="context-fill" fill-opacity="context-fill-opacity">
  <path d="M8.5 11C5.4802259 11 3 13.480226 3 16.5L3 31.5C3 34.519774 5.4802259 37 8.5 37L39.5 37C42.519774 37 45 34.519774 45 31.5L45 16.5C45 13.480226 42.519774 11 39.5 11L8.5 11 z M 8.5 14L39.5 14C40.898226 14 42 15.101774 42 16.5L42 31.5C42 32.898226 40.898226 34 39.5 34L8.5 34C7.1017741 34 6 32.898226 6 31.5L6 16.5C6 15.101774 7.1017741 14 8.5 14 z M 17.5 22.5 A 1.5 1.5 0 0 0 17.5 25.5 A 1.5 1.5 0 0 0 17.5 22.5 z M 24 22.5 A 1.5 1.5 0 0 0 24 25.5 A 1.5 1.5 0 0 0 24 22.5 z M 30.5 22.5 A 1.5 1.5 0 0 0 30.5 25.5 A 1.5 1.5 0 0 0 30.5 22.5 z" />
</svg>