<?xml version="1.0" encoding="utf-8"?>
<svg xmlns="http://www.w3.org/2000/svg" viewBox="0 0 32 32" fill="context-fill" fill-opacity="context-fill-opacity">
  <path d="M20 3.0214844C19.143 3.0214844 18.393422 3.3390937 17.857422 3.8710938C17.545972 4.1802196 17.317346 4.5680337 17.171875 5L5 5L5 27L27 27L27 5L22.828125 5C22.682654 4.5680337 22.454028 4.1802196 22.142578 3.8710938C21.606578 3.3390937 20.857 3.0214844 20 3.0214844 z M 20 5.0214844C20.302 5.0214844 20.556375 5.1140156 20.734375 5.2910156C20.908375 5.4650156 21 5.71 21 6L21 16.859375L20 18.373047L19 16.859375L19 6C19 5.71 19.091625 5.4659688 19.265625 5.2929688C19.443625 5.1159688 19.698 5.0214844 20 5.0214844 z M 7 7L17 7L17 9L7 9L7 7 z M 23 7L25 7L25 9L23 9L23 7 z M 7 11L17 11L17 17.460938L20 22L23 17.460938L23 11L25 11L25 25L7 25L7 11 z" />
</svg>