<svg viewBox="0 0 1024 1024" version="1.1" xmlns="http://www.w3.org/2000/svg" xmlns:xlink="http://www.w3.org/1999/xlink" width="16" height="16" fill="context-fill" fill-opacity="context-fill-opacity"><path d="M170.263273 747.101091C90.949818 667.554909 46.545455 574.836364 46.545455 519.586909v-13.218909c0-111.616 180.642909-376.087273 465.454545-376.087273 82.990545 0 156.346182 22.109091 219.368727 55.761455l-52.317091 52.317091A390.190545 390.190545 0 0 0 512 200.098909c-240.221091 0-395.636364 227.560727-395.636364 306.269091v13.218909c0 38.493091 37.329455 112.453818 103.330909 178.036364l-49.431272 49.477818zM977.454545 505.809455v13.777454c-0.977455 115.060364-177.803636 376.040727-465.454545 376.040727-98.769455 0-184.552727-32.069818-255.022545-78.382545L106.123636 968.145455a34.816 34.816 0 0 1-49.338181 0 34.909091 34.909091 0 0 1 0-49.384728L917.876364 57.716364a34.909091 34.909091 0 1 1 49.384727 49.384727l-143.080727 143.080727c97.559273 84.014545 152.669091 192.046545 153.274181 255.627637z m-365.195636-43.752728l-151.226182 151.179637c15.36 7.959273 32.488727 12.8 50.920728 12.8 62.370909 0 113.105455-50.734545 113.105454-113.105455a109.195636 109.195636 0 0 0-12.8-50.874182z m295.377455 44.032c-0.465455-48.733091-49.431273-137.122909-132.933819-206.475636l-111.616 111.662545c19.828364 29.090909 31.883636 63.860364 31.883637 101.655273a183.109818 183.109818 0 0 1-182.923637 182.923636c-37.841455 0-72.610909-12.055273-101.701818-31.930181l-102.493091 102.493091c57.576727 35.141818 126.231273 59.345455 204.194909 59.345454 236.404364 0 394.845091-218.158545 395.636364-306.501818v-13.172364zM512 399.872c1.722182 0 3.304727 0.418909 5.026909 0.512l58.321455-58.321455A180.270545 180.270545 0 0 0 512 330.053818a183.109818 183.109818 0 0 0-182.923636 182.923637c0 22.341818 4.608 43.566545 11.962181 63.348363l58.321455-58.321454c0-1.722182-0.465455-3.304727-0.465455-5.026909 0-62.370909 50.734545-113.105455 113.105455-113.105455z"></path></svg>