<?xml version="1.0" encoding="utf-8"?>
<svg xmlns="http://www.w3.org/2000/svg" viewBox="0 0 50 50" width="16" height="16" fill="context-fill" fill-opacity="context-fill-opacity">
  <path d="M29.984375 2.9863281 A 1.0001 1.0001 0 0 0 29.839844 3L8 3L8 47L36.371094 47L34.632812 45L10 45L10 5L29 5L29 16L40 16L40 29L42 29L42 14.585938L30.791016 3.3769531 A 1.0001 1.0001 0 0 0 30.603516 3.1894531L30.414062 3L30.154297 3 A 1.0001 1.0001 0 0 0 29.984375 2.9863281 z M 31 6.4140625L38.585938 14L31 14L31 6.4140625 z M 16 21L16 23L34 23L34 21L16 21 z M 16 27L16 29L29 29L29 27L16 27 z M 38 31L38 40L33 40L41.693359 50.003906L50 40L45 40L45 31L38 31 z M 16 33L16 35L34 35L34 33L16 33 z M 40 33L43 33L43 42L46 42L41.693359 46.955078L37.388672 42L40 42L40 33 z" />
</svg>