<?xml version="1.0" encoding="utf-8"?>
<svg xmlns="http://www.w3.org/2000/svg" viewBox="0 0 24 24" fill="context-fill" fill-opacity="context-fill-opacity">
  <path d="M11 0L11 12L13 12L13 0L11 0 z M 7.6367188 0.81835938C3.1635683 2.564831 -5.9211895e-16 6.9211915 0 12C0 18.615466 5.3845336 24 12 24C18.615466 24 24 18.615466 24 12C24 6.9210486 20.83638 2.564811 16.363281 0.81835938L15.634766 2.6816406C19.357667 4.135189 22 7.7509514 22 12C22 17.534534 17.534534 22 12 22C6.4654664 22 2 17.534534 2 12C2 7.7508085 4.6404317 4.135169 8.3632812 2.6816406L7.6367188 0.81835938 z" />
</svg>