<?xml version="1.0" encoding="utf-8"?>
<svg xmlns="http://www.w3.org/2000/svg" viewBox="0 0 48 48" fill="context-fill" fill-opacity="context-fill-opacity">
  <path d="M33.044922 4.9375C30.641327 5.0044808 28.25764 5.9532969 26.429688 7.78125C23.908438 10.302498 23.149448 13.862655 23.980469 17.09375L13.394531 27.681641C11.183104 27.495494 8.9036678 28.054423 7.2167969 29.740234C4.929909 32.027122 4.3540714 35.402337 5.5175781 38.232422 A 1.50015 1.50015 0 0 0 7.9648438 38.724609L10.710938 35.978516C11.084112 35.60534 11.646355 35.60534 12.019531 35.978516C12.392707 36.351691 12.392707 36.915887 12.019531 37.289062L9.2753906 40.033203 A 1.50015 1.50015 0 0 0 9.765625 42.480469C12.594542 43.643495 15.970836 43.069787 18.257812 40.783203L18.259766 40.78125C19.946788 39.095143 20.504553 36.81596 20.318359 34.605469L30.908203 24.017578C34.138812 24.847797 37.696031 24.089128 40.216797 21.568359C43.002249 18.782907 43.748748 14.711129 42.441406 11.238281 A 1.50015 1.50015 0 0 0 39.976562 10.705078L36.037109 14.644531C35.285099 15.396542 34.109217 15.396258 33.355469 14.644531C32.602993 13.892056 32.602345 12.714628 33.355469 11.960938L37.292969 8.0234375 A 1.50015 1.50015 0 0 0 36.761719 5.5585938C35.893507 5.2317584 34.987938 5.033364 34.074219 4.9628906C33.731574 4.9364631 33.388293 4.9279313 33.044922 4.9375 z M 33.074219 7.9980469L31.232422 9.8398438C29.333546 11.740152 29.332897 14.866101 31.232422 16.765625 A 1.50015 1.50015 0 0 0 31.234375 16.765625C33.134683 18.664501 36.258679 18.665149 38.158203 16.765625L40.001953 14.921875C39.945083 16.562218 39.354961 18.188008 38.095703 19.447266C36.153156 21.389813 33.346512 21.889033 30.943359 20.984375 A 1.50015 1.50015 0 0 0 29.353516 21.328125L18.914062 31.767578L19.943359 32.796875 A 1.50015 1.50015 0 0 0 17.419922 34.189453C17.775226 35.751265 17.359512 37.440853 16.138672 38.660156 A 1.50015 1.50015 0 0 0 16.136719 38.660156C15.407414 39.389854 14.509567 39.815032 13.572266 39.978516L14.142578 39.410156C15.663402 37.889332 15.663402 35.378246 14.142578 33.857422C12.621754 32.336598 10.110668 32.336598 8.5898438 33.857422L8.0214844 34.425781C8.1853783 33.489063 8.6090146 32.590204 9.3378906 31.861328C10.558532 30.641454 12.249189 30.224877 13.810547 30.580078 A 1.50015 1.50015 0 0 0 15.203125 28.056641L16.232422 29.085938L26.671875 18.644531 A 1.50015 1.50015 0 0 0 27.015625 17.054688C26.110967 14.651535 26.608234 11.844891 28.550781 9.9023438C29.809526 8.6435986 31.434558 8.0553759 33.074219 7.9980469 z" />
</svg>