<svg xmlns="http://www.w3.org/2000/svg" width="16" height="16" viewBox="0 0 512 512" transform="scale(1.05)"><path fill="#25B7D3" d="M7.9,256C7.9,119,119,7.9,256,7.9C393,7.9,504.1,119,504.1,256c0,137-111.1,248.1-248.1,248.1C119,504.1,7.9,393,7.9,256z"/><path fill="#FFF" d="M402.4 159.2l-49.6-49.6c-10.7-10.7-28.1-10.7-38.8 0l-76.6 76.6c-10.7 10.7-10.7 28.1 0 38.8l49.6 49.6c10.7 10.7 28.1 10.7 38.8 0l76.6-76.6C413.1 187.3 413.1 170 402.4 159.2zM320.5 243.3c-6.3 6.3-16.5 6.3-22.8 0l-29.1-29.1c-6.3-6.3-6.3-16.5 0-22.8l50.5-50.5c6.3-6.3 16.5-6.3 22.8 0l29.1 29.1c6.3 6.3 6.3 16.5 0 22.8L320.5 243.3zM274.7 286.9l-49.6-49.6c-10.7-10.7-28.1-10.7-38.8 0l-76.6 76.6c-10.7 10.7-10.7 28.1 0 38.8l49.6 49.6c10.7 10.7 28.1 10.7 38.8 0l76.6-76.6C285.4 315 285.4 297.6 274.7 286.9zM192.8 371c-6.3 6.3-16.5 6.3-22.8 0L141 341.9c-6.3-6.3-6.3-16.5 0-22.8l50.5-50.5c6.3-6.3 16.5-6.3 22.8 0l29.1 29.1c6.3 6.3 6.3 16.5 0 22.8L192.8 371z"/><path fill="#48A1AF" d="M314.8,199.6l-2.4-2.4c-7.7-7.7-20.3-7.7-28.1,0l-87.2,87.2c-7.7,7.7-7.7,20.3,0,28.1l2.4,2.4c7.7,7.7,20.3,7.7,28.1,0l87.2-87.2C322.6,219.9,322.6,207.3,314.8,199.6z"/><path fill="#FFF" d="M223.3,310.5c-5.3,5.3-14,5.3-19.4,0l-2.4-2.4c-5.3-5.3-5.3-14,0-19.4l87.2-87.2c5.3-5.3,14-5.3,19.4,0l2.4,2.4c5.3,5.3,5.3,14,0,19.4L223.3,310.5z"/></svg>