<svg xmlns="http://www.w3.org/2000/svg" viewBox="0 0 24 24" width="16" height="16" fill="context-fill" fill-opacity="context-fill-opacity" transform="scale(1.1)">
  <path d="M12 3C7.042969 3 3 7.042969 3 12C3 12.6875 3.101563 13.355469 3.25 14L2 14C1.449219 14 1 14.449219 1 15C1 15.550781 1.449219 16 2 16L3.96875 16C5.445313 18.953125 8.480469 21 12 21C16.957031 21 21 16.957031 21 12C21 11.3125 20.898438 10.644531 20.75 10L22 10C22.550781 10 23 9.550781 23 9C23 8.449219 22.550781 8 22 8L20.03125 8C18.554688 5.046875 15.519531 3 12 3 Z M 12 5C14.382813 5 16.488281 6.1875 17.75 8L8 8C7.449219 8 7 8.449219 7 9C7 9.550781 7.449219 10 8 10L18.71875 10C18.90625 10.632813 19 11.308594 19 12C19 15.878906 15.878906 19 12 19C9.617188 19 7.511719 17.8125 6.25 16L16 16C16.550781 16 17 15.550781 17 15C17 14.449219 16.550781 14 16 14L5.28125 14C5.09375 13.367188 5 12.691406 5 12C5 8.121094 8.121094 5 12 5 Z M 8 11C7.449219 11 7 11.449219 7 12C7 12.550781 7.449219 13 8 13L16 13C16.550781 13 17 12.550781 17 12C17 11.449219 16.550781 11 16 11Z"/>
</svg>