<svg xmlns="http://www.w3.org/2000/svg" viewBox="0 0 26 26" width="16" height="16">
  <path d="M3 0C1.355469 0 0 1.355469 0 3L0 23C0 24.644531 1.355469 26 3 26L23 26C24.644531 26 26 24.644531 26 23L26 3C26 1.355469 24.644531 0 23 0 Z M 3 2L23 2C23.554688 2 24 2.445313 24 3L24 23C24 23.554688 23.554688 24 23 24L3 24C2.445313 24 2 23.554688 2 23L2 3C2 2.445313 2.445313 2 3 2 Z M 8 6C6.300781 6 5 7.300781 5 9L5 15C5 16.699219 6.300781 18 8 18L11 18L11 19L9 19C8.398438 19 8 19.398438 8 20L8 21L18 21L18 20C18 19.398438 17.601563 19 17 19L15 19L15 18L18 18C19.699219 18 21 16.699219 21 15L21 9C21 7.300781 19.699219 6 18 6 Z M 8 8L18 8C18.601563 8 19 8.398438 19 9L19 15C19 15.601563 18.601563 16 18 16L8 16C7.398438 16 7 15.601563 7 15L7 9C7 8.398438 7.398438 8 8 8Z" />
</svg>