<svg xmlns="http://www.w3.org/2000/svg" viewBox="0 0 100 100" width="16" height="16" transform="scale(1.38)"><path fill="#eddc67" d="M50 86c-4.963 0-9-4.038-9-9h18C59 81.962 54.963 86 50 86zM54.388 18c-.455-2.004-2.247-3.5-4.388-3.5s-3.934 1.496-4.388 3.5"/><path fill="#f9e65c" d="M79,67l-3.526-28.795C74.062,26.669,64.266,18,52.645,18h-5.289c-11.621,0-21.417,8.669-22.829,20.205L21,67c-2.761,0-5,2.239-5,5s2.239,5,5,5h58c2.761,0,5-2.239,5-5S81.761,67,79,67z"/><path fill="#1f212b" d="M79.894,66.066l-3.428-27.983c-1.39-11.358-10.614-20.066-21.843-20.991C53.865,15.237,52.067,14,50,14s-3.865,1.237-4.622,3.092c-11.229,0.925-20.454,9.633-21.843,20.991l-3.428,27.983C17.221,66.499,15,68.995,15,72c0,3.309,2.691,6,6,6h20.059c0.499,4.493,4.316,8,8.941,8s8.442-3.507,8.941-8H79c3.309,0,6-2.691,6-6C85,68.995,82.779,66.499,79.894,66.066z M50,15c1.484,0,2.786,0.803,3.478,2.039C53.199,17.029,52.925,17,52.645,17h-5.289c-0.281,0-0.555,0.029-0.833,0.039C47.214,15.803,48.516,15,50,15z M50,85c-4.072,0-7.436-3.06-7.931-7h15.861C57.436,81.94,54.072,85,50,85z M79,76H21c-2.206,0-4-1.794-4-4s1.794-4,4-4h43.5c0.276,0,0.5-0.224,0.5-0.5S64.776,67,64.5,67H22.007l3.511-28.674C26.868,27.309,36.256,19,47.355,19h5.289c11.1,0,20.487,8.309,21.837,19.326l3.526,28.795C78.068,67.623,78.495,68,79,68c2.206,0,4,1.794,4,4S81.206,76,79,76z"/><path fill="#1f212b" d="M75.5 67h-2c-.276 0-.5.224-.5.5s.224.5.5.5h2c.276 0 .5-.224.5-.5S75.776 67 75.5 67zM71.5 67h-4c-.276 0-.5.224-.5.5s.224.5.5.5h4c.276 0 .5-.224.5-.5S71.776 67 71.5 67z"/></svg>