<?xml version="1.0" encoding="utf-8"?>
<svg xmlns="http://www.w3.org/2000/svg" viewBox="0 0 48 48" fill="context-fill" fill-opacity="context-fill-opacity">
  <path d="M36 5C32.151772 5 29 8.1517752 29 12C29 15.848225 32.151772 19 36 19C39.848228 19 43 15.848225 43 12C43 8.1517752 39.848228 5 36 5 z M 11.5 8C8.467 8 6 10.468 6 13.5L6 36.5C6 39.532 8.467 42 11.5 42L34.5 42C37.533 42 40 39.532 40 36.5L40 20.052734C39.078 20.512734 38.069 20.823406 37 20.941406L37 36.5C37 37.879 35.878 39 34.5 39L11.5 39C10.122 39 9 37.879 9 36.5L9 13.5C9 12.121 10.122 11 11.5 11L27.058594 11C27.176594 9.931 27.488266 8.922 27.947266 8L11.5 8 z M 36 8C38.226909 8 40 9.7730927 40 12C40 14.226907 38.226909 16 36 16C33.773091 16 32 14.226907 32 12C32 9.7730927 33.773091 8 36 8 z" />
</svg>