<svg xmlns="http://www.w3.org/2000/svg" viewBox="0 0 48 48" fill="context-fill" fill-opacity="context-fill-opacity"><path d="M10.5 6C8.0365 6 5.9456289 7.627676 5.2480469 9.8652344C5.2478641 9.86582 5.2482295 9.8666018 5.2480469 9.8671875C5.1410271 10.21088 5.0668644 10.568788 5.0292969 10.9375C5.0292309 10.938145 5.0293626 10.938808 5.0292969 10.939453C5.010609 11.123509 5 11.311094 5 11.5L5 13.5L5 36.5C5 39.533 7.468 42 10.5 42L24.056641 42C23.462641 41.073 22.979766 40.068 22.634766 39L10.5 39C9.121 39 8 37.878 8 36.5L8 15L40 15L40 23C41.084 23.452 42.088 24.053578 43 24.767578L43 13.5L43 11.5C43 11.309838 42.98965 11.122755 42.970703 10.9375C42.933136 10.568788 42.858973 10.21088 42.751953 9.8671875C42.751771 9.8666018 42.752136 9.86582 42.751953 9.8652344C42.054371 7.627676 39.9635 6 37.5 6L10.5 6 z M 10.5 9C11.328 9 12 9.672 12 10.5C12 11.328 11.328 12 10.5 12C9.672 12 9 11.328 9 10.5C9 9.7755 9.5139453 9.1711953 10.197266 9.03125C10.294883 9.0112578 10.3965 9 10.5 9 z M 15.5 9C16.328 9 17 9.672 17 10.5C17 11.328 16.328 12 15.5 12C14.672 12 14 11.328 14 10.5C14 9.672 14.672 9 15.5 9 z M 21.5 9L37.5 9C37.6035 9 37.705117 9.0112578 37.802734 9.03125C38.486055 9.1711953 39 9.7755 39 10.5C39 11.328 38.328 12 37.5 12L21.5 12C20.672 12 20 11.328 20 10.5C20 9.672 20.672 9 21.5 9 z M 35 24C28.925 24 24 28.925 24 35C24 41.075 28.925 46 35 46C41.075 46 46 41.075 46 35C46 28.925 41.075 24 35 24 z M 35 28C36.924 28 38.709 28.804906 40 30.128906L40 29C40 28.448 40.447 28 41 28C41.553 28 42 28.448 42 29L42 33C42 33.552 41.553 34 41 34L37 34C36.447 34 36 33.552 36 33C36 32.448 36.447 32 37 32L38.960938 32C38.035938 30.772 36.589 30 35 30C32.243 30 30 32.243 30 35C30 37.757 32.243 40 35 40C37.11 40 39.002984 38.660969 39.708984 36.667969C39.892984 36.146969 40.463375 35.873594 40.984375 36.058594C41.505375 36.243594 41.77875 36.813984 41.59375 37.333984C40.60675 40.124984 37.956 42 35 42C31.141 42 28 38.86 28 35C28 31.14 31.141 28 35 28 z"/></svg>