<?xml version="1.0" encoding="utf-8"?>
<svg xmlns="http://www.w3.org/2000/svg" viewBox="0 0 128 128" width="16" height="16" fill="context-fill" fill-opacity="context-fill-opacity">
  <path d="M23.67,114.59c1.74,0.78,3.57,1.17,5.37,1.17c3.1,0,6.14-1.13,8.59-3.31l21.71-19.3c2.65-2.36,6.65-2.36,9.3,0l21.71,19.3 c3.88,3.45,9.23,4.27,13.96,2.14c4.73-2.13,7.67-6.67,7.67-11.86V24c0-7.17-5.83-13-13-13H29c-7.17,0-13,5.83-13,13v78.73 C16,107.92,18.94,112.47,23.67,114.59z M22,24c0-3.86,3.14-7,7-7h70c3.86,0,7,3.14,7,7v78.73c0,2.84-1.54,5.22-4.13,6.39 c-2.59,1.16-5.4,0.73-7.52-1.15l-21.71-19.3c-2.46-2.19-5.55-3.28-8.64-3.28s-6.17,1.09-8.64,3.28l-21.71,19.3 c-2.12,1.88-4.93,2.32-7.52,1.15c-2.59-1.16-4.13-3.55-4.13-6.39V24z" />
</svg>