<?xml version="1.0" encoding="utf-8"?>
<svg xmlns="http://www.w3.org/2000/svg" viewBox="0 0 50 50" width="16" height="16" fill="context-fill" fill-opacity="context-fill-opacity">
  <path d="M4.9980469 4C3.353077 4 1.9980469 5.3550302 1.9980469 7L1.9980469 16L1.9980469 26L1.9980469 43C1.9980469 44.64497 3.353077 46 4.9980469 46L44.998047 46C46.643017 46 47.998047 44.64497 47.998047 43L47.998047 11C47.998047 9.3550302 46.643017 8 44.998047 8L17.998047 8C18.08462 8 17.967039 8.000364 17.722656 7.71875C17.478274 7.437136 17.177465 6.9699412 16.863281 6.46875C16.549097 5.9675588 16.221777 5.4327899 15.806641 4.9628906C15.391504 4.4929914 14.816801 4 13.998047 4L4.9980469 4 z M 4.9980469 6L13.998047 6C13.937297 6 14.059187 6.00701 14.306641 6.2871094C14.554098 6.5672101 14.857231 7.0324412 15.169922 7.53125C15.482613 8.0300588 15.806429 8.562864 16.212891 9.03125C16.619352 9.499636 17.176973 10 17.998047 10L44.998047 10C45.563077 10 45.998047 10.43497 45.998047 11L45.998047 13.1875C45.683155 13.07394 45.349889 13 44.998047 13L4.9980469 13C4.6462043 13 4.3129384 13.07394 3.9980469 13.1875L3.9980469 7C3.9980469 6.4349698 4.4330167 6 4.9980469 6 z M 4.9980469 15L44.998047 15C45.563077 15 45.998047 15.43497 45.998047 16L45.998047 43C45.998047 43.56503 45.563077 44 44.998047 44L4.9980469 44C4.4330167 44 3.9980469 43.56503 3.9980469 43L3.9980469 16C3.9980469 15.43497 4.4330167 15 4.9980469 15 z M 24.5 18C19.26514 18 15 22.26514 15 27.5C15 32.73486 19.26514 37 24.5 37C26.758219 37 28.832076 36.201761 30.464844 34.878906L36.542969 40.957031L37.957031 39.542969L31.878906 33.464844C33.201761 31.832076 34 29.758219 34 27.5C34 22.26514 29.73486 18 24.5 18 z M 24.5 20C28.65398 20 32 23.34602 32 27.5C32 31.65398 28.65398 35 24.5 35C20.34602 35 17 31.65398 17 27.5C17 23.34602 20.34602 20 24.5 20 z" />
</svg>