<?xml version="1.0" encoding="utf-8"?>
<svg xmlns="http://www.w3.org/2000/svg" viewBox="0 0 50 50" fill="context-fill" fill-opacity="context-fill-opacity">
  <path d="M6.007813 6.003906C4.359375 6.003906 3.007813 7.359375 3.007813 9.003906L3.007813 15L3.011719 15L3.011719 41C3.011719 42.09375 3.917969 43 5.011719 43L30.464844 43C31.746094 47.046875 35.542969 50 40 50C45.5 50 50 45.5 50 40C50 37.21875 48.847656 34.699219 47 32.878906L47 15C47 13.90625 46.09375 13 45 13L41 13L41 9.003906C41 7.359375 39.644531 6.003906 38 6.003906L30 6.003906C29.230469 6.003906 28.535156 6.308594 28 6.789063C27.464844 6.308594 26.769531 6.003906 26 6.003906L18 6.003906C17.230469 6.003906 16.535156 6.308594 16 6.789063C15.464844 6.308594 14.769531 6.003906 14 6.003906 Z M 6.007813 8.003906L14 8.003906C14.566406 8.003906 15 8.4375 15 9.003906L15 15L45 15L45 31.359375C43.734375 30.621094 42.300781 30.15625 40.769531 30.039063C40.515625 30.015625 40.261719 30 40 30C39.3125 30 38.640625 30.070313 37.992188 30.203125C37.667969 30.269531 37.347656 30.355469 37.035156 30.453125C33.902344 31.425781 31.425781 33.902344 30.453125 37.035156C30.355469 37.347656 30.269531 37.664063 30.203125 37.988281C30.203125 37.988281 30.203125 37.992188 30.203125 37.992188C30.070313 38.640625 30 39.3125 30 40C30 40.335938 30.019531 40.671875 30.050781 41L5.011719 41L5.011719 13L5.007813 13L5.007813 9.003906C5.007813 8.4375 5.441406 8.003906 6.007813 8.003906 Z M 18 8.003906L26 8.003906C26.566406 8.003906 27 8.4375 27 9.003906L27 13L17 13L17 9.003906C17 8.4375 17.433594 8.003906 18 8.003906 Z M 30 8.003906L38 8.003906C38.566406 8.003906 39 8.4375 39 9.003906L39 13L29 13L29 9.003906C29 8.4375 29.433594 8.003906 30 8.003906 Z M 40 32C40.269531 32 40.535156 32.015625 40.796875 32.042969C40.847656 32.046875 40.898438 32.054688 40.953125 32.0625C41.164063 32.089844 41.375 32.117188 41.578125 32.160156C41.636719 32.171875 41.691406 32.1875 41.746094 32.199219C41.9375 32.242188 42.125 32.289063 42.3125 32.34375C42.390625 32.371094 42.46875 32.398438 42.546875 32.425781C42.710938 32.480469 42.871094 32.539063 43.03125 32.605469C43.113281 32.636719 43.199219 32.675781 43.28125 32.714844C43.421875 32.777344 43.558594 32.84375 43.695313 32.917969C43.785156 32.964844 43.875 33.015625 43.960938 33.0625C44.089844 33.140625 44.21875 33.21875 44.34375 33.296875C44.4375 33.359375 44.523438 33.417969 44.613281 33.484375C44.71875 33.554688 44.820313 33.632813 44.921875 33.710938C45.019531 33.789063 45.117188 33.867188 45.214844 33.953125C46.914063 35.421875 48 37.589844 48 40C48 44.398438 44.398438 48 40 48C36.199219 48 33 45.3125 32.199219 41.746094C32.140625 41.488281 32.097656 41.230469 32.0625 40.96875C32.0625 40.941406 32.054688 40.914063 32.050781 40.886719C32.019531 40.59375 32 40.296875 32 40C32 39.726563 32.015625 39.453125 32.042969 39.1875C32.042969 39.183594 32.039063 39.179688 32.042969 39.179688C32.425781 35.429688 35.429688 32.425781 39.179688 32.042969C39.179688 32.039063 39.183594 32.042969 39.1875 32.042969C39.453125 32.011719 39.726563 32 40 32 Z M 36.5 35.5C36.25 35.5 36 35.601563 35.800781 35.800781C35.402344 36.199219 35.402344 36.800781 35.800781 37.199219L38.597656 40L35.800781 42.800781C35.402344 43.199219 35.402344 43.800781 35.800781 44.199219C36 44.398438 36.300781 44.5 36.5 44.5C36.699219 44.5 37 44.398438 37.199219 44.199219L40 41.402344L42.800781 44.199219C43 44.398438 43.300781 44.5 43.5 44.5C43.699219 44.5 44 44.398438 44.199219 44.199219C44.597656 43.800781 44.597656 43.199219 44.199219 42.800781L41.402344 40L44.199219 37.199219C44.597656 36.800781 44.597656 36.199219 44.199219 35.800781C43.800781 35.402344 43.199219 35.402344 42.800781 35.800781L40 38.597656L37.199219 35.800781C37 35.601563 36.75 35.5 36.5 35.5Z" />
</svg>