<?xml version="1.0" encoding="utf-8"?>
<svg xmlns="http://www.w3.org/2000/svg" viewBox="0 0 50 50" fill="context-fill" fill-opacity="context-fill-opacity">
  <path d="M29.984375 5.984375C29.9375 5.988281 29.886719 5.992188 29.839844 6L5 6C3.355469 6 2 7.355469 2 9L2 41C2 42.644531 3.355469 44 5 44L29.832031 44C29.941406 44.019531 30.050781 44.019531 30.15625 44L45 44C46.644531 44 48 42.644531 48 41L48 9C48 7.355469 46.644531 6 45 6L30.15625 6C30.097656 5.992188 30.042969 5.984375 29.984375 5.984375 Z M 5 8L29 8L29 42L5 42C4.433594 42 4 41.566406 4 41L4 9C4 8.433594 4.433594 8 5 8 Z M 31 8L45 8C45.566406 8 46 8.433594 46 9L46 41C46 41.566406 45.566406 42 45 42L31 42 Z M 18.996094 18.988281C18.589844 18.988281 18.222656 19.234375 18.066406 19.609375C17.910156 19.984375 18 20.417969 18.289063 20.703125L21.546875 24L9 24C8.640625 23.996094 8.304688 24.183594 8.121094 24.496094C7.941406 24.808594 7.941406 25.191406 8.121094 25.503906C8.304688 25.816406 8.640625 26.003906 9 26L21.546875 26L18.289063 29.296875C18.03125 29.550781 17.925781 29.921875 18.019531 30.273438C18.113281 30.621094 18.386719 30.894531 18.738281 30.984375C19.089844 31.074219 19.460938 30.964844 19.710938 30.703125L25.347656 25L19.710938 19.296875C19.523438 19.101563 19.265625 18.992188 18.996094 18.988281Z" />
</svg>