<?xml version="1.0" encoding="utf-8"?>
<svg xmlns="http://www.w3.org/2000/svg" viewBox="0 0 32 32" width="16" height="16" fill="context-fill" fill-opacity="context-fill-opacity">
  <path d="M2 10L2 22L16.28125 22C16.113281 22.644531 16 23.304688 16 24C16 28.40625 19.59375 32 24 32C28.40625 32 32 28.40625 32 24C32 21.964844 31.226563 20.101563 29.96875 18.6875L30 18.6875L30 10 Z M 4 12L28 12L28 17.09375C26.820313 16.40625 25.457031 16 24 16C21.050781 16 18.480469 17.613281 17.09375 20L4 20 Z M 24 18C27.324219 18 30 20.675781 30 24C30 27.324219 27.324219 30 24 30C20.675781 30 18 27.324219 18 24C18 20.675781 20.675781 18 24 18 Z M 21.71875 20.28125L20.28125 21.71875L22.5625 24L20.28125 26.28125L21.71875 27.71875L24 25.4375L26.28125 27.71875L27.71875 26.28125L25.4375 24L27.71875 21.71875L26.28125 20.28125L24 22.5625Z" />
</svg>