<?xml version="1.0" encoding="UTF-8" standalone="no" ?>
<!DOCTYPE svg PUBLIC "-//W3C//DTD SVG 1.1//EN" "http://www.w3.org/Graphics/SVG/1.1/DTD/svg11.dtd">
<svg xmlns="http://www.w3.org/2000/svg" xmlns:xlink="http://www.w3.org/1999/xlink" version="1.1" viewBox="0 0 16 16" xml:space="preserve" fill="context-fill" fill-opacity="context-fill-opacity">
<g transform="matrix(-1 0 0 1 8 8)" id="uxbRGTOmZWGJk65X_uUfG">
<path style="stroke: none; stroke-width: 1; stroke-dasharray: none; stroke-linecap: butt; stroke-dashoffset: 0; stroke-linejoin: miter; stroke-miterlimit: 4; fill-rule: nonzero; opacity: 1;" vector-effect="non-scaling-stroke"  transform=" translate(-8, -8)" d="M 2.89648 1.5 C 2.07395 1.5 1.39648 2.17747 1.39648 3 L 1.39648 13 C 1.39648 13.82253 2.07395 14.5 2.89648 14.5 L 12.89648 14.5 C 13.71901 14.5 14.39648 13.82253 14.39648 13 L 14.39648 11.5 L 13.39648 11.5 L 13.39648 13 C 13.39648 13.28147 13.177950000000001 13.5 12.89648 13.5 L 2.8964800000000004 13.5 C 2.6150100000000003 13.5 2.3964800000000004 13.28147 2.3964800000000004 13 L 2.3964800000000004 3 C 2.3964800000000004 2.71853 2.6150100000000003 2.5 2.8964800000000004 2.5 L 12.89648 2.5 C 13.177950000000001 2.5 13.39648 2.71853 13.39648 3 L 13.39648 4.5 L 14.39648 4.5 L 14.39648 3 C 14.39648 2.17747 13.71901 1.5 12.89648 1.5 L 2.8964800000000004 1.5 z M 11.125 4.52148 L 10.41796 5.2285200000000005 L 12.68945 7.5 L 5.39648 7.5 L 5.39648 8.5 L 12.68945 8.5 L 10.41796 10.77148 L 11.125 11.47852 L 14.60351 8 L 11.125 4.52148 z" stroke-linecap="round" />
</g>
</svg>