<?xml version="1.0" encoding="utf-8"?>
<svg xmlns="http://www.w3.org/2000/svg" viewBox="0 0 26 26" fill="context-fill" fill-opacity="context-fill-opacity">
  <path d="M8 0C5.800781 0 4 1.800781 4 4L4 11L1 11C0.398438 11 0 11.5 0 12L0 18C0 18.5 0.398438 19 1 19L4 19L4 22C4 24.199219 5.800781 26 8 26L20 26C22.199219 26 24 24.199219 24 22L24 8C24 6.898438 23.011719 5.886719 21.3125 4.1875C21.011719 3.988281 20.800781 3.699219 20.5 3.5C20.300781 3.199219 20.011719 2.988281 19.8125 2.6875C18.113281 0.988281 17.101563 0 16 0 Z M 8 2L15.3125 2C16.011719 2.199219 16 3.101563 16 4L16 7C16 7.601563 16.398438 8 17 8L20 8C21 8 22 8 22 9L22 22C22 23.101563 21.101563 24 20 24L8 24C6.898438 24 6 23.101563 6 22L6 19L20 19C20.601563 19 21 18.5 21 18L21 12C21 11.5 20.601563 11 20 11L6 11L6 4C6 2.898438 6.898438 2 8 2 Z M 13.4375 12C13.460938 11.988281 13.5 12 13.5 12L14.59375 12C14.695313 12 14.6875 12.09375 14.6875 12.09375L15 17.5C15.101563 17.800781 15.101563 17.8125 15 17.8125L14.09375 17.8125C13.992188 17.8125 14 17.6875 14 17.6875L13.90625 15.8125L13.90625 15.09375C13.90625 15.292969 13.8125 15.488281 13.8125 15.6875L13.3125 17.59375C13.3125 17.695313 13.1875 17.6875 13.1875 17.6875L12.5 17.6875C12.398438 17.6875 12.40625 17.695313 12.40625 17.59375L12 15.6875C12 15.539063 11.933594 15.378906 11.90625 15.1875L11.8125 17.59375C11.8125 17.695313 11.6875 17.6875 11.6875 17.6875L10.6875 17.6875L10.6875 17.59375L11.09375 12.1875C11.09375 12.085938 11.1875 12.09375 11.1875 12.09375L12 12.09375C12.101563 12.09375 12.09375 12.085938 12.09375 12.1875L12.59375 14.5C12.695313 14.800781 12.710938 15.113281 12.8125 15.3125C12.914063 14.914063 13 14.492188 13 14.09375L13.40625 12.09375C13.40625 12.042969 13.414063 12.011719 13.4375 12 Z M 2.1875 12.1875L3.1875 12.1875C3.289063 12.1875 3.3125 12.3125 3.3125 12.3125L3.3125 14.3125L4.09375 14.3125L4.09375 12.3125C4.09375 12.210938 4.1875 12.1875 4.1875 12.1875L5.1875 12.1875C5.289063 12.1875 5.3125 12.3125 5.3125 12.3125L5.3125 17.6875L5.40625 17.6875C5.40625 17.789063 5.3125 17.8125 5.3125 17.8125L4.3125 17.8125C4.210938 17.8125 4.1875 17.6875 4.1875 17.6875L4.1875 15.59375L3.3125 15.59375L3.3125 17.6875C3.3125 17.789063 3.1875 17.8125 3.1875 17.8125L2.1875 17.8125C2.085938 17.8125 2.09375 17.6875 2.09375 17.6875L2.09375 12.3125C2.09375 12.210938 2.1875 12.1875 2.1875 12.1875 Z M 6.5 12.1875L9.5 12.1875C9.601563 12.1875 9.59375 12.3125 9.59375 12.3125L9.59375 13.3125C9.59375 13.414063 9.5 13.40625 9.5 13.40625L8.59375 13.40625L8.59375 17.6875C8.59375 17.789063 8.5 17.8125 8.5 17.8125L7.5 17.8125C7.398438 17.8125 7.40625 17.6875 7.40625 17.6875L7.40625 13.40625L6.5 13.40625C6.398438 13.40625 6.40625 13.3125 6.40625 13.3125L6.40625 12.3125C6.40625 12.210938 6.5 12.1875 6.5 12.1875 Z M 16.59375 12.1875L17.59375 12.1875C17.695313 12.1875 17.6875 12.3125 17.6875 12.3125L17.6875 16.6875L19 16.6875C19.101563 16.6875 19.09375 16.8125 19.09375 16.8125L19.09375 17.6875C19.09375 17.789063 19 17.8125 19 17.8125L16.59375 17.8125C16.492188 17.8125 16.5 17.6875 16.5 17.6875L16.5 12.3125C16.5 12.210938 16.59375 12.1875 16.59375 12.1875Z" />
</svg>