<svg xmlns="http://www.w3.org/2000/svg" viewBox="0 0 24 24" width="16" height="16" fill-opacity="context-fill-opacity" fill="context-fill" transform="scale(1.2)"><path d="M19.980469 2.9902344 A 1.0001 1.0001 0 0 0 19.869141 3L15 3 A 1.0001 1.0001 0 1 0 15 5L17.585938 5L8.2929688 14.292969 A 1.0001 1.0001 0 1 0 9.7070312 15.707031L19 6.4140625L19 9 A 1.0001 1.0001 0 1 0 21 9L21 4.1269531 A 1.0001 1.0001 0 0 0 19.980469 2.9902344 z M 5 3C3.9069372 3 3 3.9069372 3 5L3 19C3 20.093063 3.9069372 21 5 21L19 21C20.093063 21 21 20.093063 21 19L21 13 A 1.0001 1.0001 0 1 0 19 13L19 19L5 19L5 5L11 5 A 1.0001 1.0001 0 1 0 11 3L5 3 z" /></svg>