<?xml version="1.0" encoding="utf-8"?>
<svg xmlns="http://www.w3.org/2000/svg" viewBox="0 0 128 128" width="16" height="16" fill="context-fill" fill-opacity="context-fill-opacity">
  <path d="M14 1C6.8 1 1 6.8 1 14L1 28L1 114C1 121.2 6.8 127 14 127L114 127C121.2 127 127 121.2 127 114L127 14C127 6.8 121.2 1 114 1L14 1 z M 14 7L114 7C117.9 7 121 10.1 121 14L121 29L7 29L7 14C7 10.1 10.1 7 14 7 z M 18 15C16.3 15 15 16.3 15 18C15 19.7 16.3 21 18 21L22 21C23.7 21 25 19.7 25 18C25 16.3 23.7 15 22 15L18 15 z M 34 15C32.3 15 31 16.3 31 18C31 19.7 32.3 21 34 21L38 21C39.7 21 41 19.7 41 18C41 16.3 39.7 15 38 15L34 15 z M 7 35L121 35L121 114C121 117.9 117.9 121 114 121L14 121C10.1 121 7 117.9 7 114L7 35 z M 40 64C31.7 64 25 70.7 25 79C25 87.3 31.7 94 40 94L51.5 94C53.2 94 54.5 92.7 54.5 91C54.5 89.3 53.2 88 51.5 88L40 88C35 88 31 84 31 79C31 74 35 70 40 70L51.5 70C53.2 70 54.5 68.7 54.5 67C54.5 65.3 53.2 64 51.5 64L40 64 z M 76.5 64C74.8 64 73.5 65.3 73.5 67C73.5 68.7 74.8 70 76.5 70L88 70C93 70 97 74 97 79C97 84 93 88 88 88L76.5 88C74.8 88 73.5 89.3 73.5 91C73.5 92.7 74.8 94 76.5 94L88 94C96.3 94 103 87.3 103 79C103 70.7 96.3 64 88 64L76.5 64 z M 54 76C52.3 76 51 77.3 51 79C51 80.7 52.3 82 54 82L74 82C75.7 82 77 80.7 77 79C77 77.3 75.7 76 74 76L54 76 z" />
</svg>