<?xml version="1.0" encoding="utf-8"?>
<svg xmlns="http://www.w3.org/2000/svg" viewBox="0 0 48 48" fill="context-fill" fill-opacity="context-fill-opacity">
  <path d="M32.470703 5.9863281 A 1.50015 1.50015 0 0 0 31.439453 6.4394531L27.439453 10.439453 A 1.50015 1.50015 0 0 0 27.439453 12.560547L31.439453 16.560547 A 1.50015 1.50015 0 1 0 33.560547 14.439453L32.121094 13L36.5 13C37.898226 13 39 14.101774 39 15.5L39 33.5C39 34.898226 37.898226 36 36.5 36L28.5 36 A 1.50015 1.50015 0 1 0 28.5 39L36.5 39C39.519774 39 42 36.519774 42 33.5L42 15.5C42 12.480226 39.519774 10 36.5 10L32.121094 10L33.560547 8.5605469 A 1.50015 1.50015 0 0 0 32.470703 5.9863281 z M 9.5 6C7.5850452 6 6 7.5850452 6 9.5L6 12.5C6 14.414955 7.5850452 16 9.5 16L21.5 16C23.414955 16 25 14.414955 25 12.5L25 9.5C25 7.5850452 23.414955 6 21.5 6L9.5 6 z M 9.5 9L21.5 9C21.795045 9 22 9.2049548 22 9.5L22 12.5C22 12.795045 21.795045 13 21.5 13L9.5 13C9.2049548 13 9 12.795045 9 12.5L9 9.5C9 9.2049548 9.2049548 9 9.5 9 z M 9.5 19C7.5850452 19 6 20.585045 6 22.5L6 25.5C6 27.414955 7.5850452 29 9.5 29L21.5 29C23.414955 29 25 27.414955 25 25.5L25 22.5C25 20.585045 23.414955 19 21.5 19L9.5 19 z M 9.5 22L21.5 22C21.795045 22 22 22.204955 22 22.5L22 25.5C22 25.795045 21.795045 26 21.5 26L9.5 26C9.2049548 26 9 25.795045 9 25.5L9 22.5C9 22.204955 9.2049548 22 9.5 22 z M 9.5 32C7.5850452 32 6 33.585045 6 35.5L6 38.5C6 40.414955 7.5850452 42 9.5 42L21.5 42C23.414955 42 25 40.414955 25 38.5L25 35.5C25 33.585045 23.414955 32 21.5 32L9.5 32 z M 10.912109 35L16.085938 35 A 1.5 1.5 0 0 0 17.5 36 A 1.5 1.5 0 0 0 18.912109 35L21.5 35C21.795045 35 22 35.204955 22 35.5L22 37.085938 A 1.5 1.5 0 0 0 21.5 37 A 1.5 1.5 0 0 0 20.085938 39L14.912109 39 A 1.5 1.5 0 0 0 13.5 37 A 1.5 1.5 0 0 0 12.085938 39L9.5 39C9.2049548 39 9 38.795045 9 38.5L9 35.914062 A 1.5 1.5 0 0 0 9.5 36 A 1.5 1.5 0 0 0 10.912109 35 z" />
</svg>