<svg xmlns="http://www.w3.org/2000/svg" viewBox="0 0 16 16" fill="context-fill" fill-opacity="context-fill-opacity"><path d="M3.5 1C2.6774686 1 2 1.6774686 2 2.5L2 12.5C2 13.322531 2.6774686 14 3.5 14L11 14L11 13L3.5 13C3.2185314 13 3 12.781469 3 12.5L3 10L5 10L5 9L3 9L3 6L5 6L5 5L3 5L3 2.5C3 2.2185314 3.2185314 2 3.5 2L12.5 2C12.781469 2 13 2.2185314 13 2.5L13 5L6 5L6 6L13 6L13 7L14 7L14 2.5C14 1.6774686 13.322531 1 12.5 1L3.5 1 z M 13.5 8.5L11 11L13 11L13 15.5L13 16L14 16L14 15.5L14 11L16 11L13.5 8.5 z M 6 9L6 10L10.585938 10L11.585938 9L6 9 z"/></svg>