<svg viewBox="0 0 1024 1024" xmlns="http://www.w3.org/2000/svg"  fill="context-fill" fill-opacity="context-fill-opacity"><path d="M293.312 688a32 32 0 0 1-31.296-38.816C287.488 532.608 392.64 448 512 448a256.96 256.96 0 0 1 220.768 126.592 32 32 0 1 1-55.168 32.384A192.768 192.768 0 0 0 512 512c-89.504 0-168.352 63.424-187.456 150.816a32 32 0 0 1-31.232 25.184zM512 960a256.288 256.288 0 0 1-223.072-130.592 32 32 0 1 1 55.744-31.392A192.352 192.352 0 0 0 512 896c89.504 0 168.352-63.424 187.456-150.816a32 32 0 0 1 62.496 13.632C736.512 875.392 631.36 960 512 960z"></path><path d="M288 928a32 32 0 0 1-32-32v-96a32 32 0 0 1 32-32h96a32 32 0 1 1 0 64h-64v64a32 32 0 0 1-32 32zM736 640h-96a32 32 0 1 1 0-64h64v-64a32 32 0 1 1 64 0v96a32 32 0 0 1-32 32z"></path><path d="M860.448 808.352a32 32 0 0 1-15.424-60.032A160.256 160.256 0 0 0 928 608a159.552 159.552 0 0 0-58.912-123.968 32 32 0 0 1-10.56-33.472c3.744-13.184 5.472-24.16 5.472-34.56 0-70.592-57.408-128-128-128-6.912 0-14.24 0.736-23.104 2.368a31.872 31.872 0 0 1-34.592-17.536C635.104 183.488 546.848 128 448 128c-141.152 0-256 114.848-256 256l0.416 7.264a31.936 31.936 0 0 1-13.76 27.04A192.224 192.224 0 0 0 96 576c0 63.424 31.328 122.72 83.744 158.624a32 32 0 0 1-36.128 52.832A256.16 256.16 0 0 1 32 576a256.16 256.16 0 0 1 96.096-199.776C132.224 203.36 274.144 64 448 64a317.376 317.376 0 0 1 277.056 160.384C728.768 224.128 732.448 224 736 224c105.888 0 192 86.112 192 192 0 10.464-0.992 20.96-3.136 32.128A223.168 223.168 0 0 1 992 608a224.128 224.128 0 0 1-116.192 196.384 31.68 31.68 0 0 1-15.36 3.968z"></path><path d="M64 608a32 32 0 0 1-32-32c0-141.152 114.848-256 256-256a32 32 0 1 1 0 64c-105.888 0-192 86.112-192 192a32 32 0 0 1-32 32z" p-id="2168"></path><path d="M736 416a32 32 0 0 1-32-32c0-141.152-114.848-256-256-256a32 32 0 1 1 0-64c176.448 0 320 143.552 320 320a32 32 0 0 1-32 32z"></path></svg>