<?xml version="1.0" encoding="utf-8"?>
<svg xmlns="http://www.w3.org/2000/svg" viewBox="0 0 32 32" width="16" height="16" fill="context-fill" fill-opacity="context-fill-opacity">
  <path d="M9 4C6.25 4 4 6.25 4 9C4 10.515625 4.707031 11.863281 5.78125 12.78125C3.53125 13.949219 2 16.300781 2 19L4 19C4 16.226563 6.226563 14 9 14C11.773438 14 14 16.226563 14 19L16 19C16 16.300781 14.46875 13.949219 12.21875 12.78125C13.292969 11.863281 14 10.515625 14 9C14 6.25 11.75 4 9 4 Z M 16 19L18 19C18 16.226563 20.226563 14 23 14C25.773438 14 28 16.226563 28 19L30 19C30 16.300781 28.46875 13.949219 26.21875 12.78125C27.292969 11.863281 28 10.515625 28 9C28 6.25 25.75 4 23 4C20.25 4 18 6.25 18 9C18 10.515625 18.707031 11.863281 19.78125 12.78125C17.53125 13.949219 16 16.300781 16 19 Z M 9 6C10.667969 6 12 7.332031 12 9C12 10.667969 10.667969 12 9 12C7.332031 12 6 10.667969 6 9C6 7.332031 7.332031 6 9 6 Z M 23 6C24.667969 6 26 7.332031 26 9C26 10.667969 24.667969 12 23 12C21.332031 12 20 10.667969 20 9C20 7.332031 21.332031 6 23 6 Z M 6.28125 20.28125L3.28125 23.28125L2.59375 24L3.28125 24.71875L6.28125 27.71875L7.71875 26.28125L6.4375 25L11 25L11 23L6.4375 23L7.71875 21.71875 Z M 25.71875 20.28125L24.28125 21.71875L25.5625 23L21 23L21 25L25.5625 25L24.28125 26.28125L25.71875 27.71875L28.71875 24.71875L29.40625 24L28.71875 23.28125 Z M 13 23L13 25L15 25L15 23 Z M 17 23L17 25L19 25L19 23Z" />
</svg>