<svg viewBox="0 0 24 24" xmlns="http://www.w3.org/2000/svg" fill="context-fill" fill-opacity="context-fill-opacity"><path fill="none" d="m-0.125,0l24,0l0,24l-24,0l0,-24z"/><path d="m3.34724,15.23636l2.47222,0l0,5.39394l14.8333,0l0,-17.26059l-14.8333,0l0,5.39394l-2.47222,0l0,-6.47272a1.23611,1.07879 0 0 1 1.23611,-1.07879l17.30552,0a1.23611,1.07879 0 0 1 1.23611,1.07879l0,19.41817a1.23611,1.07879 0 0 1 -1.23611,1.07879l-17.30552,0a1.23611,1.07879 0 0 1 -1.23611,-1.07879l0,-6.47272zm7.41665,-4.31515l0,-3.23636l6.18054,4.31515l-6.18054,4.31515l0,-3.23636l-9.88887,0l0,-2.15757l9.88887,0z"/></svg>