<svg viewBox="0 0 1024 1024" xmlns="http://www.w3.org/2000/svg" width="16" height="16" fill="context-fill" fill-opacity="context-fill-opacity"><path d="M431.1 960c-25.3 0-45.9-20.6-45.9-45.9V706.7c0-10.8 3.7-21 10.8-29.4l364.7-433-552.8 297.3L356.4 616c12.5 6.3 21.3 17.7 24.1 31.4 2.8 13.6-0.7 27.5-9.7 38.1-8.7 10.2-21.3 16.1-34.6 16.1-7 0-14.1-1.7-20.4-4.9L89.7 582.6c-15.5-7.8-25.3-23.5-25.5-41-0.2-17.4 9.2-33.3 24.6-41.5L892.2 69.5c6.7-3.6 14.2-5.5 21.7-5.5 13.1 0 25.6 5.7 34.4 15.6 8.8 9.9 12.8 22.7 11.2 36L863.4 904c-2.7 23-22.4 40.4-45.6 40.4-7.2 0-14.2-1.7-20.7-4.9L511.6 795.4c-12.5-6.3-21.3-17.7-24.1-31.4-2.8-13.7 0.7-27.7 9.7-38.5 8.7-10.3 21.4-16.2 34.9-16.2 7 0 14 1.7 20.3 4.8l228.2 114.2 65.5-542.6-367.2 437.6c-1.2 1.4-1.8 3.2-1.8 5V914c-0.1 25.4-20.7 46-46 46z"></path></svg>