<svg xmlns="http://www.w3.org/2000/svg" viewBox="0 0 30 30">
  <path d="M4 2C2.9069372 2 2 2.9069372 2 4L2 26C2 27.093063 2.9069372 28 4 28L14 28C15.093063 28 16 27.093063 16 26L16 4C16 2.9069372 15.093063 2 14 2L4 2 z M 19 2 A 1 1 0 0 0 18 3 A 1 1 0 0 0 19 4 A 1 1 0 0 0 20 3 A 1 1 0 0 0 19 2 z M 23 2 A 1 1 0 0 0 22 3 A 1 1 0 0 0 23 4 A 1 1 0 0 0 24 3 A 1 1 0 0 0 23 2 z M 27 2 A 1 1 0 0 0 26 3 A 1 1 0 0 0 27 4 A 1 1 0 0 0 28 3 A 1 1 0 0 0 27 2 z M 4 4L14 4L14 26L4 26L4 4 z M 27 6 A 1 1 0 0 0 26 7 A 1 1 0 0 0 27 8 A 1 1 0 0 0 28 7 A 1 1 0 0 0 27 6 z M 7 10 A 1 1 0 0 0 6 11 A 1 1 0 0 0 7 12 A 1 1 0 0 0 8 11 A 1 1 0 0 0 7 10 z M 11 10 A 1 1 0 0 0 10 11 A 1 1 0 0 0 11 12 A 1 1 0 0 0 12 11 A 1 1 0 0 0 11 10 z M 19 10 A 1 1 0 0 0 18 11 A 1 1 0 0 0 19 12 A 1 1 0 0 0 20 11 A 1 1 0 0 0 19 10 z M 23 10 A 1 1 0 0 0 22 11 A 1 1 0 0 0 23 12 A 1 1 0 0 0 24 11 A 1 1 0 0 0 23 10 z M 27 10 A 1 1 0 0 0 26 11 A 1 1 0 0 0 27 12 A 1 1 0 0 0 28 11 A 1 1 0 0 0 27 10 z M 27 14 A 1 1 0 0 0 26 15 A 1 1 0 0 0 27 16 A 1 1 0 0 0 28 15 A 1 1 0 0 0 27 14 z M 7 18 A 1 1 0 0 0 6 19 A 1 1 0 0 0 7 20 A 1 1 0 0 0 8 19 A 1 1 0 0 0 7 18 z M 11 18 A 1 1 0 0 0 10 19 A 1 1 0 0 0 11 20 A 1 1 0 0 0 12 19 A 1 1 0 0 0 11 18 z M 19 18 A 1 1 0 0 0 18 19 A 1 1 0 0 0 19 20 A 1 1 0 0 0 20 19 A 1 1 0 0 0 19 18 z M 23 18 A 1 1 0 0 0 22 19 A 1 1 0 0 0 23 20 A 1 1 0 0 0 24 19 A 1 1 0 0 0 23 18 z M 27 18 A 1 1 0 0 0 26 19 A 1 1 0 0 0 27 20 A 1 1 0 0 0 28 19 A 1 1 0 0 0 27 18 z M 27 22 A 1 1 0 0 0 26 23 A 1 1 0 0 0 27 24 A 1 1 0 0 0 28 23 A 1 1 0 0 0 27 22 z M 19 26 A 1 1 0 0 0 18 27 A 1 1 0 0 0 19 28 A 1 1 0 0 0 20 27 A 1 1 0 0 0 19 26 z M 23 26 A 1 1 0 0 0 22 27 A 1 1 0 0 0 23 28 A 1 1 0 0 0 24 27 A 1 1 0 0 0 23 26 z M 27 26 A 1 1 0 0 0 26 27 A 1 1 0 0 0 27 28 A 1 1 0 0 0 28 27 A 1 1 0 0 0 27 26 z" fill="#5B5B5B" />
</svg>