<svg width="48" height="48" xmlns="http://www.w3.org/2000/svg" fill-opacity="context-fill-opacity" fill="context-fill"><path transform="rotate(90, 24, 24)" id="svg_1" d="m20.48613,4.97867a1.50015,1.50015 0 0 0 -1.47656,1.52148l0,35a1.50015,1.50015 0 1 0 3,0l0,-35a1.50015,1.50015 0 0 0 -1.52344,-1.52148zm7,0a1.50015,1.50015 0 0 0 -1.47656,1.52148l0,35a1.50015,1.50015 0 1 0 3,0l0,-35a1.50015,1.50015 0 0 0 -1.52344,-1.52148zm11.00782,12.00586a1.50015,1.50015 0 0 0 -1.04493,2.57617l3.43946,3.43945l-8.37891,0a1.50015,1.50015 0 1 0 0,3l8.37891,0l-3.43946,3.43945a1.50015,1.50015 0 1 0 2.1211,2.1211l6,-6a1.50015,1.50015 0 0 0 0,-2.1211l-6,-6a1.50015,1.50015 0 0 0 -1.07617,-0.45507zm-29.01368,0.00195a1.50015,1.50015 0 0 0 -1.03125,0.45312l-5.87109,5.8711a1.50015,1.50015 0 0 0 0.00781,2.38672l5.86328,5.86328a1.50015,1.50015 0 1 0 2.1211,-2.1211l-3.43946,-3.43945l8.37891,0a1.50015,1.50015 0 1 0 0,-3l-8.37891,0l3.43946,-3.43945a1.50015,1.50015 0 0 0 -1.08985,-2.57422z"/></svg>