<svg xmlns="http://www.w3.org/2000/svg" viewBox="0 0 24 24" fill="context-fill" fill-opacity="context-fill-opacity">
  <path d="M12 2C11.84775 2 11.696078 2.0578281 11.580078 2.1738281L8.7695312 4.984375C8.3945312 5.359375 8.6594531 6 9.1894531 6L11 6L11 11L6 11L6 9.1894531C6 8.6594531 5.359375 8.3935781 4.984375 8.7675781L2.1738281 11.578125C1.9418281 11.810125 1.9418281 12.187922 2.1738281 12.419922L4.984375 15.230469C5.359375 15.605469 6 15.340547 6 14.810547L6 13L11 13L11 18L9.1894531 18C8.6594531 18 8.3945312 18.640625 8.7695312 19.015625L11.580078 21.826172C11.812078 22.058172 12.189875 22.058172 12.421875 21.826172L15.232422 19.015625C15.606422 18.640625 15.340547 18 14.810547 18L13 18L13 13L18 13L18 14.810547C18 15.340547 18.640625 15.605469 19.015625 15.230469L21.826172 12.419922C22.058172 12.187922 22.058172 11.810125 21.826172 11.578125L19.015625 8.7675781C18.640625 8.3935781 18 8.6594531 18 9.1894531L18 11L13 11L13 6L14.810547 6C15.340547 6 15.606422 5.359375 15.232422 4.984375L12.421875 2.1738281C12.305875 2.0578281 12.15225 2 12 2 z"/>
</svg>