<svg xmlns="http://www.w3.org/2000/svg" viewBox="0 0 48 48" width="16" height="16" fill="context-fill" fill-opacity="context-fill-opacity"><path d="M23.978516 4 A 1.50015 1.50015 0 0 0 22.939453 4.4394531L17.939453 9.4394531 A 1.50015 1.50015 0 1 0 20.060547 11.560547L24 7.6210938L27.939453 11.560547 A 1.50015 1.50015 0 1 0 30.060547 9.4394531L25.060547 4.4394531 A 1.50015 1.50015 0 0 0 23.978516 4 z M 5.5 16 A 1.50015 1.50015 0 1 0 5.5 19L42.5 19 A 1.50015 1.50015 0 1 0 42.5 16L5.5 16 z M 5.5 23 A 1.50015 1.50015 0 1 0 5.5 26L42.5 26 A 1.50015 1.50015 0 1 0 42.5 23L5.5 23 z M 5.5 30 A 1.50015 1.50015 0 1 0 5.5 33L42.5 33 A 1.50015 1.50015 0 1 0 42.5 30L5.5 30 z M 28.986328 36.978516 A 1.50015 1.50015 0 0 0 27.939453 37.439453L24 41.378906L20.060547 37.439453 A 1.50015 1.50015 0 0 0 18.984375 36.984375 A 1.50015 1.50015 0 0 0 17.939453 39.560547L22.939453 44.560547 A 1.50015 1.50015 0 0 0 25.060547 44.560547L30.060547 39.560547 A 1.50015 1.50015 0 0 0 28.986328 36.978516 z"/></svg>