<svg xmlns="http://www.w3.org/2000/svg" viewBox="0 0 24 24" fill="context-fill" fill-opacity="context-fill-opacity">
  <path d="M8.5 5C6.566406 5 5 6.566406 5 8.5C5 10.433594 6.566406 12 8.5 12C10.433594 12 12 10.433594 12 8.5C12 6.566406 10.433594 5 8.5 5 Z M 17.5 7C16.117188 7 15 8.117188 15 9.5C15 10.882813 16.117188 12 17.5 12C18.882813 12 20 10.882813 20 9.5C20 8.117188 18.882813 7 17.5 7 Z M 17.5 9C17.777344 9 18 9.222656 18 9.5C18 9.777344 17.777344 10 17.5 10C17.222656 10 17 9.777344 17 9.5C17 9.222656 17.222656 9 17.5 9 Z M 8.5 13C3.5625 13 2 16.59375 2 16.59375L2 19L15 19L15 16.59375C15 16.59375 13.4375 13 8.5 13 Z M 17.59375 13C16.132813 13 15.117188 13.523438 14.4375 14.125C14.984375 14.738281 15.519531 15.34375 15.71875 15.75C15.984375 15.453125 16.40625 15 17.59375 15C19.359375 15 19.8125 16 19.8125 16L15.84375 16C15.898438 16.125 16 16.40625 16 16.40625L16 18L22 18L22 16C22 16 21.125 13 17.59375 13Z"/>
</svg>