<svg xmlns="http://www.w3.org/2000/svg" viewBox="0 0 48 48" fill="context-fill" fill-opacity="context-fill-opacity">
  <path d="M32.185547 4.0097656C30.774801 4.0097656 29.364543 4.5436602 28.296875 5.6113281L5.6113281 28.296875C3.4759922 30.432211 3.4759922 33.940836 5.6113281 36.076172L11.923828 42.388672C14.059164 44.524008 17.567789 44.524008 19.703125 42.388672L42.390625 19.701172C44.525508 17.566289 44.524785 14.058528 42.388672 11.923828L36.076172 5.6113281C35.008551 4.5436602 33.596293 4.0097656 32.185547 4.0097656 z M 32.185547 6.9902344C32.822301 6.9902344 33.460746 7.2380898 33.955078 7.7324219L40.267578 14.044922 A 1.50015 1.50015 0 0 0 40.267578 14.046875C41.257512 15.036175 41.256695 16.590961 40.267578 17.580078L17.582031 40.267578C16.593367 41.256242 15.033586 41.256242 14.044922 40.267578L7.7324219 33.955078C6.7437578 32.966414 6.7437578 31.406633 7.7324219 30.417969L9.015625 29.136719L11.455078 31.576172 A 1.50015 1.50015 0 1 0 13.576172 29.455078L11.136719 27.015625L14.015625 24.136719L17.439453 27.560547 A 1.50015 1.50015 0 1 0 19.560547 25.439453L16.136719 22.015625L19.015625 19.136719L21.455078 21.576172 A 1.50015 1.50015 0 1 0 23.576172 19.455078L21.136719 17.015625L24.015625 14.136719L27.439453 17.560547 A 1.50015 1.50015 0 1 0 29.560547 15.439453L26.136719 12.015625L30.417969 7.7324219C30.912301 7.2380898 31.548793 6.9902344 32.185547 6.9902344 z M 34.5 12 A 1.5 1.5 0 0 0 34.5 15 A 1.5 1.5 0 0 0 34.5 12 z"/>
</svg>