<svg xmlns="http://www.w3.org/2000/svg" viewBox="0 0 24 24" fill="context-fill" fill-opacity="context-fill-opacity">
  <path d="M12 2.0097656C8.144 2.0097656 5.0078125 5.1479063 5.0078125 9.0039062C5.0078125 13.486906 10.974516 20.769172 11.228516 21.076172L12 22.011719L12.771484 21.076172C13.025484 20.768172 18.992188 13.486906 18.992188 9.0039062C18.992187 5.1469062 15.856 2.0097656 12 2.0097656 z M 12 4.0097656C14.753 4.0097656 16.992188 6.2509062 16.992188 9.0039062C16.992187 11.708906 13.878 16.361172 12 18.826172C10.122 16.363172 7.0078125 11.712906 7.0078125 9.0039062C7.0078125 6.2509062 9.247 4.0097656 12 4.0097656 z M 12 6.5C10.619 6.5 9.5 7.619 9.5 9C9.5 10.381 10.619 11.5 12 11.5C13.381 11.5 14.5 10.381 14.5 9C14.5 7.619 13.381 6.5 12 6.5 z"/>
</svg>