<svg width="1024" height="1024" xmlns="http://www.w3.org/2000/svg" fill="context-fill" fill-opacity="context-fill-opacity">
 <g>
  <path d="m832.93721,69.32794a121.7348,121.7348 0 0 1 121.51347,114.29792l0.22134,7.43689l0,641.87445a121.7348,121.7348 0 0 1 -114.29792,121.51347l-7.43689,0.22134l-641.87445,0a121.7348,121.7348 0 0 1 -121.51347,-114.29792l-0.22134,-7.43689l0,-641.87445a121.7348,121.7348 0 0 1 114.29792,-121.51347l7.43689,-0.22134l641.87445,0zm0,66.40081l-48.25124,-0.04426l-623.94624,743.60049c7.21556,4.7366 15.62632,7.79104 24.65683,8.72064l5.66621,0.2656l48.82672,0l623.72491,-743.24637a54.97987,54.97987 0 0 0 -25.01097,-9.03051l-5.66621,-0.2656l0,0.00001zm55.33401,83.22235l-561.75082,669.32013l86.76372,0l474.98711,-566.17755l0,-103.14258l-0.00001,0zm0,206.50651l-388.40045,462.81362l86.76373,0l301.63673,-359.4497l0,-103.36392zm0,206.63931l-214.91728,256.17431l86.63093,0l128.28636,-152.85466l0,-103.31966zm-39.66342,253.96094c21.02692,-6.1974 36.83032,-24.52403 39.35355,-46.87897l-39.35355,46.87897zm-150.59703,-750.37337l-86.71946,0l-475.56258,566.84155l0,103.2754l562.1935,-670.11694l0.08853,0l0.00001,-0.00001zm-173.4389,0l-86.67519,0l-302.16794,360.15797l0,103.36392l388.88739,-463.52189l-0.04427,0zm-173.3061,0l-86.76372,0l-128.81756,153.51866l0,103.36392l215.58128,-256.88258zm-175.29812,2.08055c-19.65464,5.57767 -34.88256,21.69093 -39.08793,41.92104l-0.88536,5.84327l39.97329,-47.76431z"/>
 </g>

</svg>