<?xml version="1.0" encoding="utf-8"?>
<svg version="1.1" xmlns="http://www.w3.org/2000/svg" xmlns:xlink="http://www.w3.org/1999/xlink" x="0px" y="0px"
	 viewBox="0 0 128 128" style="enable-background:new 0 0 128 128;" xml:space="preserve" fill="context-fill" fill-opacity="context-fill-opacity">
<style type="text/css">
	.st0{stroke:currentColor;stroke-width:3;stroke-miterlimit:10;}
</style>
<path class="st0" d="M19.1,7.4c-6.5,0-11.7,5.2-11.7,11.7v12.6v77.3c0,6.5,5.2,11.7,11.7,11.7h89.8c6.5,0,11.7-5.2,11.7-11.7V19.1
	c0-6.5-5.2-11.7-11.7-11.7C108.9,7.4,19.1,7.4,19.1,7.4z M19.1,12.8h89.8c3.5,0,6.3,2.8,6.3,6.3v13.5H12.8V19.1
	C12.8,15.6,15.6,12.8,19.1,12.8z M22.7,20c-1.5,0-2.7,1.2-2.7,2.7c0,1.5,1.2,2.7,2.7,2.7h3.6c1.5,0,2.7-1.2,2.7-2.7
	c0-1.5-1.2-2.7-2.7-2.7H22.7z M37,20c-1.5,0-2.7,1.2-2.7,2.7c0,1.5,1.2,2.7,2.7,2.7h3.6c1.5,0,2.7-1.2,2.7-2.7
	c0-1.5-1.2-2.7-2.7-2.7H37z M12.8,37.9h102.4v71c0,3.5-2.8,6.3-6.3,6.3H19.1c-3.5,0-6.3-2.8-6.3-6.3C12.8,108.9,12.8,37.9,12.8,37.9
	z M42.4,64C35,64,29,70,29,77.5C29,84.9,35,91,42.4,91h10.3c1.5,0,2.7-1.2,2.7-2.7s-1.2-2.7-2.7-2.7H42.4c-4.5,0-8.1-3.6-8.1-8.1
	c0-4.5,3.6-8.1,8.1-8.1h10.3c1.5,0,2.7-1.2,2.7-2.7c0-1.5-1.2-2.7-2.7-2.7C52.8,64,42.4,64,42.4,64z M75.2,64
	c-1.5,0-2.7,1.2-2.7,2.7c0,1.5,1.2,2.7,2.7,2.7h10.3c4.5,0,8.1,3.6,8.1,8.1c0,4.5-3.6,8.1-8.1,8.1H75.2c-1.5,0-2.7,1.2-2.7,2.7
	c0,1.5,1.2,2.7,2.7,2.7h10.3C93,91,99,84.9,99,77.5C99,70,93,64,85.6,64C85.6,64,75.2,64,75.2,64z M55,74.8c-1.5,0-2.7,1.2-2.7,2.7
	c0,1.5,1.2,2.7,2.7,2.7h18c1.5,0,2.7-1.2,2.7-2.7c0-1.5-1.2-2.7-2.7-2.7H55z"/>
</svg>
