<svg xmlns="http://www.w3.org/2000/svg" fill-opacity="context-fill-opacity" fill="context-fill">
 <g>
  <path d="m9.42401,0.62901a1.995,1.995 0 0 0 -1.926,1.101l-1.73,3.46a1.503,1.503 0 0 1 -0.786,0.722l-3.59,1.436a0.999,0.999 0 0 0 -0.333,1.634l2.609,2.612l-3.293,3.293l0,0.707l0.707,0l3.293,-3.293l2.61,2.61a1,1 0 0 0 1.636,-0.337l1.436,-3.59a1.5,1.5 0 0 1 0.722,-0.783l3.457,-1.73a2,2 0 0 0 0.522,-3.203l-4.059,-4.057a1.978,1.978 0 0 0 -1.275,-0.582zm-0.069,0.998c0.23,0.015 0.456,0.11 0.637,0.291l4.059,4.057a1,1 0 0 1 -0.262,1.601l-3.457,1.73a2.498,2.498 0 0 0 -1.203,1.307l-1.436,3.59l-5.927,-5.928l3.59,-1.435a2.498,2.498 0 0 0 1.306,-1.203l1.729,-3.46a1,1 0 0 1 0.964,-0.55z"/>
  <line y2="12.87493" x2="13.47493" y1="2.50007" x1="3.10007" stroke="#000" fill="none"/>
 </g>
</svg>