<svg width="32" height="32" xmlns="http://www.w3.org/2000/svg" fill-opacity="context-fill-opacity" fill="context-fill">
<path id="svg_1" d="m16,2.08334c-7.6734,0 -13.91666,6.24326 -13.91666,13.91666c0,7.6734 6.24326,13.91666 13.91666,13.91666c7.6734,0 13.91666,-6.24326 13.91666,-13.91666c0,-7.6734 -6.24326,-13.91666 -13.91666,-13.91666zm0,2.14102c6.51507,0 11.77563,5.26056 11.77563,11.77563c0,2.91882 -1.05797,5.57419 -2.81009,7.6274l-16.42567,-16.7602c2.02812,-1.66013 4.62494,-2.64283 7.46013,-2.64283zm-8.96554,4.14823l16.42567,16.7602c-2.02812,1.66013 -4.62494,2.64283 -7.46013,2.64283c-6.51507,0 -11.77563,-5.26056 -11.77563,-11.77563c0,-2.91882 1.05797,-5.57419 2.81009,-7.6274z"/></svg>