<svg xmlns="http://www.w3.org/2000/svg" xmlns:xlink="http://www.w3.org/1999/xlink" viewBox="0 0 32 32" fill="context-fill" fill-opacity="context-fill-opacity"><path d="M16 3C8.832031 3 3 8.832031 3 16C3 23.167969 8.832031 29 16 29C23.167969 29 29 23.167969 29 16C29 8.832031 23.167969 3 16 3 Z M 16 5C22.085938 5 27 9.914063 27 16C27 18.726563 26.011719 21.207031 24.375 23.125L9.03125 7.46875C10.925781 5.917969 13.351563 5 16 5 Z M 7.625 8.875L22.96875 24.53125C21.074219 26.082031 18.648438 27 16 27C9.914063 27 5 22.085938 5 16C5 13.273438 5.988281 10.792969 7.625 8.875Z"/></svg>