<svg xmlns="http://www.w3.org/2000/svg" x="0px" y="0px" width="16" height="16" viewBox="0 0 48 48" transform="scale(1.1)">
<path fill="#febf10" d="M22.452,37.689l-0.783-3.248c0,0-8.616-0.238-11.504-3.091S5.851,24.226,6.72,21.24 c0,0-2.758,2.873-2.046,6.086s2.771,10.363,9.617,10.1L22.452,37.689z"></path><path fill="#1e4384" d="M11.777,37.426c0,0,6.712,4.644,11.231,3.327l-0.699-3.136L11.777,37.426z"></path><path fill="#ef4823" d="M16.468,13.585c0,0-4.862,1.135-7.667,4.684S6.56,25.068,6.56,25.068s0.654,9.846,15.11,9.175 l-1.036-3.185c0,0-5.553-0.286-7.803-2.632s-3.638-5.601,0.096-8.282l2.154-0.479L16.468,13.585z"></path><path fill="#74cccf" d="M44.234,20.661c0,7.957-6.558,15.053-14.589,14.407c-7.792-0.627-14.589-6.45-14.589-14.407 S21.588,6.254,29.645,6.254S44.234,12.704,44.234,20.661z"></path><path fill="#38b47b" d="M32.478,27.836c0,0-0.079-1.972,3.477-1.489s1.794,1.69,4.781-0.366c2.988-2.056,2.956,0,2.956,0 l-3.064,4.423L32.478,27.836z"></path><path fill="#38b47b" d="M20.872,31.057c0,0-5.511-2.032-5.7-12.218s12.69-12.585,12.69-12.585s1.604,1.658-0.766,2.089 c-2.37,0.431-1.987,2.848-1.987,2.848l-2.777,1.364l-0.161,0.91l1.643,0.649l1.271,0.93l1.744-0.605l1.176-4.374l0.917,0.294 l0.255,2.482l1.652,0.718h4.715l0.981,1.173l-0.766,0.957l-3.112,0.886l-1.46,1.532l-2.324,1.52l-0.5,1.401l0.55,1.305 l-0.191,0.993L26.4,23.158c0,0-2.029-0.65-2.15-0.677c-0.12-0.026-1.872,0.294-1.967,0.389c-0.096,0.096-1.652,2.217-1.652,2.217 L20.872,31.057z"></path><polygon fill="#38b47b" points="20.31,24.356 24,44.899 30.489,34.967"></polygon><polygon fill="#127274" points="24.564,44.39 30.689,34.921 43.851,32.032"></polygon><polygon fill="#74cccf" points="20.31,23.805 30.482,35.068 43.404,31.702"></polygon><path fill="#010101" d="M43.878,31.336c-0.05-0.048-0.112-0.088-0.189-0.116c-0.747-0.268-1.5-0.517-2.247-0.783 c1.571-1.608,2.507-3.711,2.931-5.904c0.481-2.491,0.523-5.191,0.14-7.699c-0.725-4.752-4.62-8.215-8.924-9.915 c-4.275-1.689-9.17-1.529-13.285,0.54c-2.352,1.182-4.332,2.998-5.704,5.194c-1.379,0.411-2.733,0.946-3.953,1.716 c-1.29,0.815-2.444,1.892-3.556,2.93C6.869,19.372,4.815,21.92,4.298,25c-1.034,6.163,3.525,11.289,8.562,14.069 c3.042,1.679,6.487,2.764,9.988,2.562c0.291,1.138,0.597,2.272,0.923,3.401c0.044,0.154,0.138,0.252,0.25,0.305 c0.141,0.106,0.329,0.14,0.515,0.016c2.214-1.471,4.427-2.942,6.641-4.413c3.548-2.357,7.095-4.715,10.643-7.072 c0.809-0.538,1.619-1.076,2.428-1.614c0.003-0.002,0.004-0.005,0.008-0.008c0.239-0.13,0.274-0.411,0.164-0.633 C44.325,31.405,44.117,31.263,43.878,31.336z M40.591,29.884c-0.068,0.067-0.104,0.139-0.126,0.213 c-2.458-0.868-4.917-1.734-7.385-2.572c0.429-0.645,1.21-0.907,1.985-0.842c1.134,0.094,2.072,0.775,3.156,1.024 c0.905,0.208,1.682-0.173,2.324-0.797c0.361-0.35,0.667-0.782,1.082-1.072c0.314-0.219,0.913-0.426,1.189-0.033 c0.045,0.063,0.097,0.11,0.153,0.145C42.481,27.418,41.718,28.782,40.591,29.884z M28.882,6.783 c1.617-0.066,3.249,0.117,4.823,0.557c3.947,1.104,8.165,3.947,9.45,8.024c0.767,2.433,0.725,5.259,0.43,7.771 c-0.07,0.593-0.175,1.185-0.315,1.766c-0.624-0.435-1.48-0.373-2.146,0.073c-0.499,0.334-0.859,0.815-1.285,1.229 c-0.513,0.498-1.002,0.676-1.698,0.435c-1.193-0.414-2.328-1.071-3.638-0.952c-0.985,0.089-1.956,0.586-2.4,1.499 c-3.278-1.107-6.571-2.173-9.866-3.227c0.004-0.058,0.002-0.12-0.019-0.187c-0.198-0.637,0.591-0.825,1.056-0.859 c0.596-0.044,1.119,0.104,1.657,0.344c0.806,0.358,1.578,0.729,2.484,0.688c0.691-0.031,1.653-0.302,2.028-0.952 c0.439-0.76-0.69-1.38-0.716-2.095c-0.016-0.452,0.474-0.911,0.757-1.214c0.434-0.464,0.854-0.633,1.431-0.86 c0.894-0.352,1.414-1.169,2.182-1.704c0.409-0.285,0.856-0.52,1.328-0.681c0.487-0.165,1.005-0.226,1.475-0.443 c0.695-0.321,1.258-1.122,0.902-1.895c-0.366-0.794-1.432-0.982-2.206-1.068c-1.101-0.123-2.2,0.054-3.298,0.122 c-0.431,0.027-0.899,0.069-1.32-0.057c-0.616-0.185-0.659-0.724-0.585-1.288c0.1-0.766,0.328-1.772-0.563-2.162 c-1.745-0.764-1.753,2.727-1.975,3.606c-0.185,0.729-1.014,1.767-1.906,1.454c-0.355-0.125-0.415-0.652-0.699-0.895 c-0.296-0.253-0.677-0.309-1.051-0.355c-0.26-0.032-0.622-0.004-0.545-0.35c0.046-0.207,0.356-0.469,0.512-0.595 c0.42-0.34,0.894-0.418,1.402-0.536c0.385-0.089,0.754-0.231,1.002-0.551c0.322-0.416,0.227-0.833,0.289-1.318 c0.153-1.181,1.783-1.168,2.558-1.756C28.987,7.921,29.104,7.333,28.882,6.783z M21.47,9.084c1.915-1.23,4.084-1.954,6.312-2.206 c0.01,0.013,0.013,0.027,0.024,0.04c0.426,0.462-0.019,0.699-0.446,0.876c-0.35,0.145-0.718,0.244-1.061,0.407 c-0.66,0.313-1.249,0.839-1.403,1.581c-0.057,0.273,0.056,0.787-0.095,1.016c-0.168,0.254-0.72,0.246-0.983,0.311 c-0.723,0.178-1.37,0.597-1.819,1.192c-0.333,0.441-0.591,1.009-0.251,1.527c0.15,0.228,0.387,0.38,0.637,0.477 c0.334,0.129,0.79,0.045,1.094,0.208c0.307,0.164,0.347,0.579,0.592,0.819c0.166,0.163,0.389,0.28,0.614,0.34 c0.67,0.181,1.429-0.06,1.989-0.436c1.266-0.851,1.182-2.297,1.436-3.631c0.021-0.111,0.217-1.037,0.353-1.013 c0.184,0.033-0.041,0.998-0.061,1.15c-0.089,0.699-0.028,1.405,0.526,1.906c1.111,1.004,3.107,0.4,4.431,0.348 c0.42-0.016,2.84-0.049,2.492,0.79c-0.173,0.418-0.929,0.468-1.3,0.569c-0.369,0.1-0.729,0.232-1.076,0.393 c-0.859,0.4-1.484,1.005-2.17,1.637c-0.662,0.61-1.571,0.692-2.245,1.303c-0.555,0.504-1.253,1.243-1.322,2.028 c-0.066,0.752,0.452,1.226,0.731,1.842c-1.273,1.086-2.949-0.378-4.31-0.601c-1.163-0.191-3.069,0.249-2.981,1.653 c-0.295-0.094-0.587-0.195-0.882-0.288c-0.195-0.062-0.348,0-0.456,0.109c-0.133,0.075-0.22,0.2-0.232,0.342 c-0.011,0.049-0.021,0.098-0.015,0.158c0.248,2.23,0.576,4.449,0.941,6.662c-1.464-1.079-2.537-2.627-3.328-4.252 c-0.98-2.013-1.607-4.312-1.645-6.555C15.484,15.475,17.875,11.392,21.47,9.084z M14.569,20.001 c0.063,2.109,0.62,4.218,1.447,6.136c0.652,1.512,1.539,2.973,2.691,4.167c-1.059-0.174-2.112-0.388-3.106-0.783 c-1.545-0.612-3.225-1.458-4.084-2.951c-0.798-1.387-0.8-3.134-0.023-4.528C12.156,20.855,13.277,20.203,14.569,20.001z M9.057,18.72c1.137-1.14,2.369-2.306,3.695-3.224c0.971-0.672,2.034-1.172,3.14-1.565c-0.637,1.312-1.07,2.729-1.248,4.209 c-0.035,0.289-0.053,0.579-0.067,0.87c-1.167,0.154-2.273,0.571-3.121,1.426c-0.86,0.867-1.38,2.054-1.512,3.26 c-0.167,1.524,0.327,3.073,1.323,4.234c1.006,1.173,2.442,1.877,3.842,2.463c1.598,0.668,3.337,0.88,5.037,1.143 c0.157,0.109,0.31,0.223,0.474,0.322c0.049,0.03,0.096,0.039,0.144,0.051c0.118,0.672,0.251,1.342,0.379,2.012 c-2.026,0.112-4.131-0.165-6.078-0.684c-3.021-0.806-5.956-2.466-7.285-5.429c-0.987-2.201-0.921-4.716-0.467-7.037 c0.002-0.009-0.001-0.017,0-0.026C7.843,20.026,8.431,19.347,9.057,18.72z M7.934,33.883c-1.767-2.116-2.894-4.837-2.773-7.622 c0.053-1.222,0.388-2.366,0.894-3.436c-0.182,3.336,0.726,6.608,3.486,8.834c2.484,2.003,5.706,2.865,8.832,3.172 c0.977,0.096,1.975,0.151,2.957,0.086c0.148,0.746,0.309,1.49,0.47,2.233c-1.977,0.168-3.964,0.188-5.943,0.03 c-1.843-0.148-3.783-0.356-5.527-1.008C9.464,35.481,8.645,34.734,7.934,33.883z M14.441,38.765 c-0.604-0.295-1.198-0.614-1.779-0.959c0.987,0.168,1.988,0.27,2.963,0.354c2.125,0.183,4.261,0.167,6.385-0.026 c0.188,0.837,0.391,1.671,0.596,2.504C19.771,40.751,16.983,40.006,14.441,38.765z M24.421,43.638 c-1.664-5.975-2.887-12.066-3.648-18.221c2.75,3.454,5.751,6.696,9.01,9.677c-0.253,0.349-0.503,0.7-0.75,1.053 c-0.583,0.835-1.149,1.68-1.699,2.536C26.299,40.297,25.338,41.955,24.421,43.638z M37.101,35.804 c-3.548,2.357-7.095,4.715-10.643,7.072c-0.252,0.168-0.504,0.335-0.756,0.503c1.532-2.738,3.217-5.386,5.057-7.929 c0.025-0.018,0.052-0.032,0.074-0.053c1.696-0.399,3.377-0.852,5.071-1.259c1.857-0.447,3.724-0.848,5.591-1.254 C40.03,33.858,38.565,34.831,37.101,35.804z M33.067,33.828c-0.826,0.222-1.713,0.345-2.527,0.607 c-3.255-2.973-6.266-6.205-9.009-9.656c6.901,2.201,13.764,4.518,20.587,6.951C39.093,32.397,36.06,33.025,33.067,33.828z"></path>
</svg>