<?xml version="1.0" encoding="UTF-8" standalone="no" ?>
<!DOCTYPE svg PUBLIC "-//W3C//DTD SVG 1.1//EN" "http://www.w3.org/Graphics/SVG/1.1/DTD/svg11.dtd">
<svg xmlns="http://www.w3.org/2000/svg" xmlns:xlink="http://www.w3.org/1999/xlink" version="1.1" width="16" height="16" viewBox="0 0 32 32" xml:space="preserve" fill-opacity="context-fill-opacity" fill="context-fill"><g transform="matrix(-1 0 0 1 16 16)" id="ZGkOcYyEwIQxRAAgnEnFS"><path style="stroke: none; stroke-width: 1; stroke-dasharray: none; stroke-linecap: butt; stroke-dashoffset: 0; stroke-linejoin: miter; stroke-miterlimit: 4; fill: rgb(0,0,0); fill-rule: nonzero; opacity: 1;" vector-effect="non-scaling-stroke"  transform=" translate(-16, -16)" d="M 16 2.08334 C 8.3266 2.08334 2.0833399999999997 8.326600000000001 2.0833399999999997 16 C 2.0833399999999997 23.6734 8.3266 29.91666 16 29.91666 C 23.6734 29.91666 29.91666 23.6734 29.91666 16 C 29.91666 8.3266 23.6734 2.0833399999999997 16 2.0833399999999997 z M 16 4.224360000000001 C 22.51507 4.224360000000001 27.77563 9.48492 27.77563 15.99999 C 27.77563 18.91881 26.71766 21.57418 24.96554 23.62739 L 8.53987 6.867189999999997 C 10.56799 5.207059999999997 13.16481 4.224359999999997 16 4.224359999999997 z M 7.034459999999999 8.37259 L 23.46013 25.13279 C 21.43201 26.79292 18.83519 27.77562 16 27.77562 C 9.48493 27.77562 4.22437 22.51506 4.22437 15.99999 C 4.22437 13.08117 5.2823400000000005 10.4258 7.034460000000001 8.37259 z" stroke-linecap="round" /></g></svg>