<?xml version="1.0" encoding="utf-8"?>
<svg xmlns="http://www.w3.org/2000/svg" viewBox="0 0 26 26" width="16" height="16" fill="context-fill" fill-opacity="context-fill-opacity">
  <path d="M13 1C6.382813 1 1 6.382813 1 13C1 19.617188 6.382813 25 13 25C19.617188 25 25 19.617188 25 13C25 6.382813 19.617188 1 13 1 Z M 13 3C18.535156 3 23 7.464844 23 13C23 18.535156 18.535156 23 13 23C7.464844 23 3 18.535156 3 13C3 7.464844 7.464844 3 13 3 Z M 17.1875 7.0625C17.039063 7.085938 16.914063 7.164063 16.8125 7.3125L11.90625 14.59375L9.59375 12.3125C9.394531 12.011719 9.011719 11.988281 8.8125 12.1875L7.90625 13.09375C7.707031 13.394531 7.707031 13.800781 7.90625 14L11.40625 17.5C11.605469 17.601563 11.886719 17.8125 12.1875 17.8125C12.386719 17.8125 12.707031 17.707031 12.90625 17.40625L18.90625 8.59375C19.105469 8.292969 18.992188 8.011719 18.59375 7.8125L17.59375 7.09375C17.492188 7.042969 17.335938 7.039063 17.1875 7.0625Z" />
</svg>