<?xml version="1.0" encoding="utf-8"?>
<svg xmlns="http://www.w3.org/2000/svg" viewBox="0 0 64 64" width="16" height="16" fill="context-fill" fill-opacity="context-fill-opacity">
  <path d="M38.28125 0C35.216406 0 32.430469 1.1921875 30.339844 3.125L8.3417969 3.125C7.2027344 3.125 6.2328125 3.9398438 6.0351562 5.0625L1.6210938 30.064453C1.5820312 30.289453 1.5625 30.516406 1.5625 30.742188L1.5625 41.40625C1.5625 42.698437 2.6140625 43.75 3.90625 43.75L42.96875 43.75C44.260937 43.75 45.3125 42.698438 45.3125 41.40625L45.3125 30.742188C45.3125 30.517188 45.29375 30.290234 45.253906 30.064453L43.835938 22.033203C47.503125 20.051172 50 16.171875 50 11.71875C50 5.2570312 44.742969 0 38.28125 0 z M 38.28125 1.5625C43.88125 1.5625 48.4375 6.11875 48.4375 11.71875C48.4375 17.31875 43.88125 21.875 38.28125 21.875C34.2 21.875 30.530859 19.448828 28.931641 15.693359C28.762109 15.294922 28.302344 15.111719 27.90625 15.28125C27.509375 15.45 27.324609 15.907812 27.494141 16.304688C29.339453 20.636719 33.573437 23.4375 38.28125 23.4375C39.719531 23.4375 41.091797 23.165234 42.365234 22.689453L43.599609 29.6875L3.2734375 29.6875L7.5722656 5.3320312C7.6386719 4.9585938 7.9613281 4.6875 8.3417969 4.6875L28.929688 4.6875C27.783594 6.2078125 27.002344 8.0117188 26.707031 9.9765625L24.771484 8.0410156C24.466016 7.7355469 23.973437 7.7355469 23.667969 8.0410156C23.3625 8.3464844 23.3625 8.8410156 23.667969 9.1464844L26.791016 12.269531C26.862891 12.342187 26.950781 12.399609 27.046875 12.439453C27.141406 12.479297 27.242187 12.5 27.34375 12.5C27.445313 12.5 27.547266 12.479297 27.642578 12.439453C27.738672 12.399609 27.824609 12.342187 27.896484 12.269531L31.021484 9.1464844C31.326953 8.8410156 31.326953 8.3464844 31.021484 8.0410156C30.716016 7.7355469 30.221484 7.7355469 29.916016 8.0410156L28.347656 9.609375C29.321875 5.01875 33.404687 1.5625 38.28125 1.5625 z M 38.28125 5.46875C37.849219 5.46875 37.5 5.8179687 37.5 6.25L37.5 11.71875C37.5 12.150781 37.849219 12.5 38.28125 12.5L43.75 12.5C44.182031 12.5 44.53125 12.150781 44.53125 11.71875C44.53125 11.286719 44.182031 10.9375 43.75 10.9375L39.0625 10.9375L39.0625 6.25C39.0625 5.8179688 38.713281 5.46875 38.28125 5.46875 z M 3.125 31.25L43.75 31.25L43.75 41.40625C43.75 41.8375 43.4 42.1875 42.96875 42.1875L3.90625 42.1875C3.475 42.1875 3.125 41.8375 3.125 41.40625L3.125 31.25 z M 8.59375 34.375C7.3015625 34.375 6.25 35.426563 6.25 36.71875C6.25 38.010937 7.3015625 39.0625 8.59375 39.0625C9.8859375 39.0625 10.9375 38.010937 10.9375 36.71875C10.9375 35.426563 9.8859375 34.375 8.59375 34.375 z M 24.21875 35.15625C23.786719 35.15625 23.4375 35.505469 23.4375 35.9375L23.4375 37.5C23.4375 37.932031 23.786719 38.28125 24.21875 38.28125C24.650781 38.28125 25 37.932031 25 37.5L25 35.9375C25 35.505469 24.650781 35.15625 24.21875 35.15625 z M 28.125 35.15625C27.692969 35.15625 27.34375 35.505469 27.34375 35.9375L27.34375 37.5C27.34375 37.932031 27.692969 38.28125 28.125 38.28125C28.557031 38.28125 28.90625 37.932031 28.90625 37.5L28.90625 35.9375C28.90625 35.505469 28.557031 35.15625 28.125 35.15625 z M 32.03125 35.15625C31.599219 35.15625 31.25 35.505469 31.25 35.9375L31.25 37.5C31.25 37.932031 31.599219 38.28125 32.03125 38.28125C32.463281 38.28125 32.8125 37.932031 32.8125 37.5L32.8125 35.9375C32.8125 35.505469 32.463281 35.15625 32.03125 35.15625 z M 35.9375 35.15625C35.505469 35.15625 35.15625 35.505469 35.15625 35.9375L35.15625 37.5C35.15625 37.932031 35.505469 38.28125 35.9375 38.28125C36.369531 38.28125 36.71875 37.932031 36.71875 37.5L36.71875 35.9375C36.71875 35.505469 36.369531 35.15625 35.9375 35.15625 z M 39.84375 35.15625C39.411719 35.15625 39.0625 35.505469 39.0625 35.9375L39.0625 37.5C39.0625 37.932031 39.411719 38.28125 39.84375 38.28125C40.275781 38.28125 40.625 37.932031 40.625 37.5L40.625 35.9375C40.625 35.505469 40.275781 35.15625 39.84375 35.15625 z M 8.59375 35.775391C9.1148438 35.775391 9.5371094 36.198437 9.5371094 36.71875C9.5371094 37.239062 9.1148438 37.662109 8.59375 37.662109C8.0726562 37.662109 7.6503906 37.239844 7.6503906 36.71875C7.6503906 36.197656 8.0726563 35.775391 8.59375 35.775391 z M 13.28125 35.9375C12.849219 35.9375 12.5 36.286719 12.5 36.71875C12.5 37.150781 12.849219 37.5 13.28125 37.5L16.40625 37.5C16.838281 37.5 17.1875 37.150781 17.1875 36.71875C17.1875 36.286719 16.838281 35.9375 16.40625 35.9375L13.28125 35.9375 z" transform="scale(1.28)" />
</svg>