<svg xmlns="http://www.w3.org/2000/svg" viewBox="0 0 16 16" fill="context-fill" fill-opacity="context-fill-opacity"><path d="M2.5 1C1.6774686 1 1 1.6774686 1 2.5L1 12.5C1 13.322531 1.6774686 14 2.5 14L12.5 14C13.322531 14 14 13.322531 14 12.5L14 11L13 11L13 12.5C13 12.781469 12.781469 13 12.5 13L2.5 13C2.2185314 13 2 12.781469 2 12.5L2 2.5C2 2.2185314 2.2185314 2 2.5 2L12.5 2C12.781469 2 13 2.2185314 13 2.5L13 4L14 4L14 2.5C14 1.6774686 13.322531 1 12.5 1L2.5 1 z M 10.728516 4.0214844L10.021484 4.7285156L12.292969 7L5 7L5 8L12.292969 8L10.021484 10.271484L10.728516 10.978516L14.207031 7.5L10.728516 4.0214844 z"/></svg>