<?xml version="1.0" encoding="utf-8"?>
<svg xmlns="http://www.w3.org/2000/svg" viewBox="0 0 50 50" width="16" height="16" fill="context-fill" fill-opacity="context-fill-opacity">
  <path d="M16 2L16 14C15.996094 14.359375 16.183594 14.695313 16.496094 14.878906C16.808594 15.058594 17.191406 15.058594 17.503906 14.878906C17.816406 14.695313 18.003906 14.359375 18 14L18 4L36 4L36 13.90625L45.90625 13.90625L45.90625 42L33 42C32.640625 41.996094 32.304688 42.183594 32.121094 42.496094C31.941406 42.808594 31.941406 43.191406 32.121094 43.503906C32.304688 43.816406 32.640625 44.003906 33 44L47.90625 44L47.90625 12.5L47.625 12.1875L37.71875 2.28125L37.40625 2 Z M 38 5.4375L44.46875 11.90625L38 11.90625 Z M 16.875 16C13.347656 16.066406 11.0625 17.644531 10.125 19.875C9.242188 21.972656 9.457031 24.429688 10.03125 26.84375C9.742188 27.242188 9.402344 27.835938 9.4375 28.78125C9.480469 29.917969 9.90625 30.757813 10.34375 31.28125C10.621094 31.613281 10.746094 31.660156 10.9375 31.78125C11.160156 32.632813 11.492188 33.46875 11.9375 34.0625C12.300781 34.546875 12.648438 34.773438 13 35.0625C13.015625 35.933594 13.058594 36.644531 13 37.5C12.796875 37.964844 12.304688 38.402344 11.375 38.84375C10.40625 39.300781 9.097656 39.714844 7.78125 40.25C6.464844 40.785156 5.132813 41.449219 4.03125 42.5C2.929688 43.550781 2.113281 45.027344 2 46.9375C1.984375 47.214844 2.082031 47.484375 2.269531 47.683594C2.460938 47.886719 2.722656 48 3 48L31 48C31.277344 48 31.539063 47.886719 31.730469 47.683594C31.917969 47.484375 32.015625 47.214844 32 46.9375C31.886719 45.027344 31.070313 43.550781 29.96875 42.5C28.867188 41.449219 27.535156 40.785156 26.21875 40.25C24.902344 39.714844 23.59375 39.300781 22.625 38.84375C21.695313 38.402344 21.203125 37.96875 21 37.5C20.941406 36.644531 20.984375 35.933594 21 35.0625C21.386719 34.757813 21.789063 34.484375 22.125 34C22.53125 33.414063 22.796875 32.621094 23 31.8125C23.355469 31.574219 24.5 30.691406 24.5 28.96875C24.5 28.097656 24.289063 27.480469 23.96875 26.9375C24.332031 25.722656 24.753906 23.882813 24.5625 22C24.457031 20.957031 24.167969 19.878906 23.46875 19.03125C22.851563 18.285156 21.84375 17.859375 20.6875 17.75C19.882813 16.746094 18.605469 16 16.90625 16C16.894531 16 16.886719 16 16.875 16 Z M 16.90625 18C18.21875 18 19.109375 18.691406 19.375 19.15625C19.554688 19.46875 19.890625 19.660156 20.25 19.65625C21.15625 19.65625 21.570313 19.90625 21.90625 20.3125C22.242188 20.71875 22.480469 21.386719 22.5625 22.1875C22.726563 23.792969 22.269531 25.839844 21.96875 26.75C21.847656 27.113281 21.945313 27.515625 22.21875 27.78125C22.125 27.6875 22.5 28.242188 22.5 28.96875C22.5 29.695313 21.6875 30.3125 21.6875 30.3125C21.4375 30.460938 21.269531 30.714844 21.21875 31C21.121094 31.675781 20.820313 32.363281 20.46875 32.875C20.117188 33.386719 19.65625 33.738281 19.5625 33.78125C19.214844 33.949219 18.996094 34.300781 19 34.6875C19 35.578125 18.914063 36.367188 18.96875 37.40625C18.839844 37.472656 18.722656 37.523438 18.5625 37.59375C18.039063 37.816406 17.367188 38 17 38C16.632813 38 15.949219 37.789063 15.40625 37.5625C15.1875 37.472656 15.1875 37.449219 15.03125 37.375C15.082031 36.351563 15 35.570313 15 34.6875C15.007813 34.308594 14.804688 33.957031 14.46875 33.78125C14.515625 33.804688 13.933594 33.382813 13.53125 32.84375C13.128906 32.304688 12.800781 31.636719 12.71875 31.03125C12.675781 30.691406 12.464844 30.398438 12.15625 30.25C12.15625 30.25 12.066406 30.226563 11.875 30C11.683594 29.773438 11.464844 29.386719 11.4375 28.6875C11.417969 28.203125 11.78125 27.78125 11.78125 27.78125C12.03125 27.527344 12.128906 27.15625 12.03125 26.8125C11.425781 24.484375 11.316406 22.179688 11.96875 20.625C12.621094 19.070313 13.894531 18.054688 16.90625 18 Z M 19.71875 39.21875C20.269531 39.847656 21.011719 40.292969 21.78125 40.65625C22.933594 41.203125 24.246094 41.597656 25.46875 42.09375C26.691406 42.589844 27.796875 43.175781 28.59375 43.9375C29.15625 44.476563 29.519531 45.175781 29.75 46L18.9375 46C18.625 43.523438 17.3125 41.46875 17.3125 41.46875L18.125 39.84375C18.578125 39.726563 18.980469 39.5625 19.34375 39.40625C19.5625 39.3125 19.550781 39.296875 19.71875 39.21875 Z M 14.25 39.25C14.382813 39.3125 14.472656 39.375 14.625 39.4375C14.96875 39.582031 15.359375 39.703125 15.78125 39.8125L16.625 41.46875C16.625 41.46875 15.28125 43.542969 14.96875 46L4.25 46C4.480469 45.175781 4.84375 44.476563 5.40625 43.9375C6.203125 43.175781 7.308594 42.589844 8.53125 42.09375C9.753906 41.597656 11.066406 41.203125 12.21875 40.65625C12.972656 40.296875 13.703125 39.859375 14.25 39.25Z" />
</svg>