<?xml version="1.0" encoding="utf-8"?>
<svg xmlns="http://www.w3.org/2000/svg" viewBox="0 0 50 50" fill="context-fill" fill-opacity="context-fill-opacity" stroke-width="1">
  <path d="M7 7C5.355469 7 4 8.355469 4 10L4 40C4 41.644531 5.355469 43 7 43L43 43C44.644531 43 46 41.644531 46 40L46 10C46 8.355469 44.644531 7 43 7 Z M 7 9L43 9C43.566406 9 44 9.433594 44 10L44 13L6 13L6 10C6 9.433594 6.433594 9 7 9 Z M 8 10C7.449219 10 7 10.449219 7 11C7 11.550781 7.449219 12 8 12C8.550781 12 9 11.550781 9 11C9 10.449219 8.550781 10 8 10 Z M 11 10C10.449219 10 10 10.449219 10 11C10 11.550781 10.449219 12 11 12C11.550781 12 12 11.550781 12 11C12 10.449219 11.550781 10 11 10 Z M 14 10C13.449219 10 13 10.449219 13 11C13 11.550781 13.449219 12 14 12C14.550781 12 15 11.550781 15 11C15 10.449219 14.550781 10 14 10 Z M 6 15L44 15L44 40C44 40.566406 43.566406 41 43 41L7 41C6.433594 41 6 40.566406 6 40 Z M 24.984375 18.984375C24.433594 18.996094 23.992188 19.449219 24 20L24 27L17 27C16.640625 26.996094 16.304688 27.183594 16.121094 27.496094C15.941406 27.808594 15.941406 28.191406 16.121094 28.503906C16.304688 28.816406 16.640625 29.003906 17 29L24 29L24 36C23.996094 36.359375 24.183594 36.695313 24.496094 36.878906C24.808594 37.058594 25.191406 37.058594 25.503906 36.878906C25.816406 36.695313 26.003906 36.359375 26 36L26 29L33 29C33.359375 29.003906 33.695313 28.816406 33.878906 28.503906C34.058594 28.191406 34.058594 27.808594 33.878906 27.496094C33.695313 27.183594 33.359375 26.996094 33 27L26 27L26 20C26.003906 19.730469 25.898438 19.46875 25.707031 19.277344C25.515625 19.085938 25.253906 18.980469 24.984375 18.984375Z" />
</svg>