<?xml version="1.0" encoding="utf-8"?>
<svg xmlns="http://www.w3.org/2000/svg" viewBox="0 0 50 50" width="32" height="32" fill="context-fill" fill-opacity="context-fill-opacity" stroke-width="1">
  <path d="M25 2C12.308594 2 2 12.308594 2 25C2 37.691406 12.308594 48 25 48C37.691406 48 48 37.691406 48 25C48 12.308594 37.691406 2 25 2 Z M 25 4C36.609375 4 46 13.390625 46 25C46 36.609375 36.609375 46 25 46C13.390625 46 4 36.609375 4 25C4 13.390625 13.390625 4 25 4 Z M 21.90625 13.96875C21.863281 13.976563 21.820313 13.988281 21.78125 14C21.40625 14.066406 21.105469 14.339844 21 14.703125C20.894531 15.070313 21.003906 15.460938 21.28125 15.71875L30.5625 25L21.28125 34.28125C20.882813 34.679688 20.882813 35.320313 21.28125 35.71875C21.679688 36.117188 22.320313 36.117188 22.71875 35.71875L32.71875 25.71875C32.914063 25.53125 33.023438 25.269531 33.023438 25C33.023438 24.730469 32.914063 24.46875 32.71875 24.28125L22.71875 14.28125C22.511719 14.058594 22.210938 13.945313 21.90625 13.96875Z" />
</svg>