<svg viewBox="0 0 24 24" width="16" height="16" xmlns="http://www.w3.org/2000/svg" fill-opacity="context-fill-opacity" fill="context-fill"><path d="m0,0l24,0l0,24l-24,0l0,-24z" fill="none"/><path d="m2.66667,1.5l18.66667,0a1.16667,1.16667 0 0 1 1.16667,1.16667l0,18.66667a1.16667,1.16667 0 0 1 -1.16667,1.16667l-18.66667,0a1.16667,1.16667 0 0 1 -1.16667,-1.16667l0,-18.66667a1.16667,1.16667 0 0 1 1.16667,-1.16667zm1.16667,2.33333l0,16.33333l16.33333,0l0,-16.33333l-16.33333,0zm7,7l0,-4.66667l2.33333,0l0,4.66667l4.66667,0l0,2.33333l-4.66667,0l0,4.66667l-2.33333,0l0,-4.66667l-4.66667,0l0,-2.33333l4.66667,0z"/></svg>