<svg viewBox="0 0 24 24" width="16" height="16" xmlns="http://www.w3.org/2000/svg" fill-opacity="context-fill-opacity" fill="context-fill"><g><path d="m0,0l24,0l0,24l-24,0l0,-24z" fill="none"/><path d="m2.66667,1.5l18.66667,0a1.16667,1.16667 0 0 1 1.16667,1.16667l0,18.66667a1.16667,1.16667 0 0 1 -1.16667,1.16667l-18.66667,0a1.16667,1.16667 0 0 1 -1.16667,-1.16667l0,-18.66667a1.16667,1.16667 0 0 1 1.16667,-1.16667zm1.16667,2.33333l0,16.33333l16.33333,0l0,-16.33333l-16.33333,0zm7.0035,12.83333l-4.95017,-4.95017l1.64967,-1.64967l3.3005,3.3005l6.59867,-6.59983l1.65083,1.64967l-8.2495,8.2495z"/></g></svg>