<svg viewBox="0 0 1024 1024" version="1.1" xmlns="http://www.w3.org/2000/svg" xmlns:xlink="http://www.w3.org/1999/xlink" width="16" height="16" fill="context-fill" fill-opacity="context-fill-opacity" transform="scale(1.05)"><path d="M725.333333 85.333333l213.333334 213.333334v170.666666h-85.333334v-135.253333L689.92 170.666667H170.666667v298.666666H85.333333V85.333333zM256 768v42.666667a42.666667 42.666667 0 0 1-85.333333 0v-170.666667a42.666667 42.666667 0 0 1 85.333333 0v42.666667h85.333333v-42.666667a128 128 0 0 0-256 0v170.666667a128 128 0 0 0 256 0v-42.666667z m256-85.333333a42.666667 42.666667 0 1 1 42.666667-42.666667h85.333333a128 128 0 1 0-128 128 42.666667 42.666667 0 1 1-42.666667 42.666667h-85.333333a128 128 0 1 0 128-128z m298.666667 0a42.666667 42.666667 0 1 1 42.666666-42.666667h85.333334a128 128 0 1 0-128 128 42.666667 42.666667 0 1 1-42.666667 42.666667h-85.333333a128 128 0 1 0 128-128z" p-id="7385"></path></svg>