<?xml version="1.0" encoding="utf-8"?>
<svg xmlns="http://www.w3.org/2000/svg" viewBox="0 0 48 48" fill="context-fill" fill-opacity="context-fill-opacity">
  <path d="M9.5 8C6.4802259 8 4 10.480226 4 13.5L4 34.5C4 37.519774 6.4802259 40 9.5 40L38.5 40C41.519774 40 44 37.519774 44 34.5L44 13.5C44 10.480226 41.519774 8 38.5 8L9.5 8 z M 9.5 11L38.5 11C39.898226 11 41 12.101774 41 13.5L41 34.5C41 35.898226 39.898226 37 38.5 37L9.5 37C8.1017741 37 7 35.898226 7 34.5L7 13.5C7 12.101774 8.1017741 11 9.5 11 z M 22 17C19.243 17 17 19.243 17 22L17 26C17 28.757 19.243 31 22 31C24.757 31 27 28.757 27 26L27 22C27 19.243 24.757 17 22 17 z M 34 17C31.243 17 29 19.243 29 22L29 26C29 28.757 31.243 31 34 31C36.757 31 39 28.757 39 26L39 22C39 19.243 36.757 17 34 17 z M 13.375 17.005859C13.257547 17.01575 13.139641 17.037922 13.025391 17.076172L10.025391 18.076172C9.2393906 18.338172 8.8141719 19.188609 9.0761719 19.974609C9.3381719 20.760609 10.190609 21.188828 10.974609 20.923828L12 20.580078L12 29.5C12 30.329 12.671 31 13.5 31C14.329 31 15 30.329 15 29.5L15 18.5C15 18.018 14.767953 17.565203 14.376953 17.283203C14.082953 17.071703 13.727359 16.976187 13.375 17.005859 z M 22 20C23.103 20 24 20.897 24 22L24 26C24 27.103 23.103 28 22 28C20.897 28 20 27.103 20 26L20 22C20 20.897 20.897 20 22 20 z M 34 20C35.103 20 36 20.897 36 22L36 26C36 27.103 35.103 28 34 28C32.897 28 32 27.103 32 26L32 22C32 20.897 32.897 20 34 20 z" />
</svg>