<svg width="32" height="32" xmlns="http://www.w3.org/2000/svg" fill-opacity="context-fill-opacity" fill="context-fill"><path id="svg_1" d="m16,2.06251c-4.84092,0 -9.11473,2.45449 -11.61458,6.20654l0,-3.88362l-2.32292,0l0,8.1302l8.1302,0l0,-2.32292l-4.21028,0c2.00533,-3.46169 5.71656,-5.80729 10.01757,-5.80729c6.42885,0 11.61458,5.18572 11.61458,11.61458c0,6.42885 -5.18572,11.61458 -11.61458,11.61458c-6.42885,0 -11.61458,-5.18572 -11.61458,-11.61458l-2.32292,0c0,7.68559 6.25191,13.93749 13.93749,13.93749c7.68559,0 13.93749,-6.25191 13.93749,-13.93749c0,-7.68559 -6.25191,-13.93749 -13.93749,-13.93749zm-1.16146,4.64583l0,10.45312l8.1302,0l0,-2.32292l-5.80729,0l0,-8.1302l-2.32292,0z"/>
</svg>