<svg width="1024" height="1024" xmlns="http://www.w3.org/2000/svg" fill-opacity="context-fill-opacity" fill="context-fill" version="1.1"><path d="m128.21214,417.19831l0,-239.44606l239.3264,-0.11966l0.11966,239.44606l-239.44606,0.11966zm239.44606,-319.22153l-239.56573,0a79.77547,79.77547 0 0 0 -79.6558,79.69569l0,239.56573a79.77547,79.77547 0 0 0 79.6558,79.6558l239.56573,0a79.77547,79.77547 0 0 0 79.6558,-79.69569l0,-239.52584a79.77547,79.77547 0 0 0 -79.6558,-79.6558l0,-0.03989zm-239.44606,797.87433l0,-239.44606l239.3264,-0.11966l0.11966,239.44606l-239.44606,0.11966zm239.44606,-319.22153l-239.56573,0a79.77547,79.77547 0 0 0 -79.6558,79.69569l0,239.56573a79.77547,79.77547 0 0 0 79.6558,79.6558l239.56573,0a79.77547,79.77547 0 0 0 79.6558,-79.69569l0,-239.52584a79.77547,79.77547 0 0 0 -79.6558,-79.6558l0,-0.03989zm358.94971,-109.85082l-169.32343,-169.32343l169.16388,-169.32343l169.4032,169.20377l-169.24365,169.44309zm225.64491,-225.64491l-169.4032,-169.4032a79.77547,79.77547 0 0 0 -112.64296,0l-169.4032,169.36332a79.09738,79.09738 0 0 0 -23.25455,56.16193a79.09738,79.09738 0 0 0 23.25455,56.48103l169.4032,169.44309a79.6558,79.6558 0 0 0 112.64296,-0.03989l169.4032,-169.4032a79.69569,79.69569 0 0 0 0,-112.64296l0,0.03989zm-345.38788,654.71726l0,-239.44606l239.3264,-0.11966l0.11966,239.44606l-239.44606,0.11966zm239.44606,-319.22153l-239.56573,0a79.77547,79.77547 0 0 0 -79.6558,79.69569l0,239.56573a79.77547,79.77547 0 0 0 79.6558,79.6558l239.56573,0a79.77547,79.77547 0 0 0 79.6558,-79.69569l0,-239.52584a79.77547,79.77547 0 0 0 -79.6558,-79.6558l0,-0.03989z"/></svg>