<?xml version="1.0" encoding="utf-8"?>
<svg xmlns="http://www.w3.org/2000/svg" viewBox="0 0 24 24" width="16" height="16" fill="context-fill" fill-opacity="context-fill-opacity">
  <path d="M12 2C8.738 2 5.8465313 3.577 4.0195312 6L6.7382812 6C8.1462813 4.762 9.982 4 12 4C16.411 4 20 7.589 20 12C20 16.411 16.411 20 12 20C9.982 20 8.1462813 19.238 6.7382812 18L4.0195312 18C5.8465312 20.423 8.738 22 12 22C17.514 22 22 17.514 22 12C22 6.486 17.514 2 12 2 z M 5 8L1 12L5 16L5 13L12 13L12 11L5 11L5 8 z" />
</svg>