<?xml version="1.0" encoding="utf-8"?>
<svg xmlns="http://www.w3.org/2000/svg" viewBox="0 0 50 50" width="16" height="16" fill="context-fill" fill-opacity="context-fill-opacity">
  <path d="M3 5C1.300781 5 0 6.300781 0 8L0 15.8125C-0.0078125 15.875 -0.0078125 15.9375 0 16L0 42C0 43.644531 1.355469 45 3 45L47 45C48.644531 45 50 43.644531 50 42L50 16C50 15.96875 50 15.9375 50 15.90625L50 8C50 6.300781 48.699219 5 47 5 Z M 7 9C8.101563 9 9 9.898438 9 11C9 12.101563 8.101563 13 7 13C5.898438 13 5 12.101563 5 11C5 9.898438 5.898438 9 7 9 Z M 14 9C15.101563 9 16 9.898438 16 11C16 12.101563 15.101563 13 14 13C12.898438 13 12 12.101563 12 11C12 9.898438 12.898438 9 14 9 Z M 20 9L45 9L45 13L20 13 Z M 2 17L48 17L48 42C48 42.554688 47.554688 43 47 43L3 43C2.445313 43 2 42.554688 2 42Z" />
</svg>