<svg xmlns="http://www.w3.org/2000/svg" viewBox="0 0 16 16"><path d="M2.5 1C1.675781 1 1 1.675781 1 2.5L1 10.5C1 11.324219 1.675781 12 2.5 12L4 12L4 12.5C4 13.324219 4.675781 14 5.5 14L13.5 14C14.324219 14 15 13.324219 15 12.5L15 4.5C15 3.675781 14.324219 3 13.5 3L12 3L12 2.5C12 1.675781 11.324219 1 10.5 1 Z M 2.5 2L10.5 2C10.78125 2 11 2.21875 11 2.5L11 10.5C11 10.78125 10.78125 11 10.5 11L2.5 11C2.21875 11 2 10.78125 2 10.5L2 2.5C2 2.21875 2.21875 2 2.5 2 Z M 12 4L13.5 4C13.78125 4 14 4.21875 14 4.5L14 12.5C14 12.78125 13.78125 13 13.5 13L5.5 13C5.21875 13 5 12.78125 5 12.5L5 12L10.5 12C11.324219 12 12 11.324219 12 10.5Z" fill="context-fill" fill-opacity="context-fill-opacity"/></svg>