<?xml version="1.0" encoding="utf-8"?>
<svg xmlns="http://www.w3.org/2000/svg" viewBox="0 0 48 48" width="16" height="16" fill="context-fill" fill-opacity="context-fill-opacity">
  <path d="M24 4C12.972066 4 4 12.972074 4 24C4 35.027926 12.972066 44 24 44C35.027934 44 44 35.027926 44 24C44 12.972074 35.027934 4 24 4 z M 24 7C33.406615 7 41 14.593391 41 24C41 33.406609 33.406615 41 24 41C14.593385 41 7 33.406609 7 24C7 14.593391 14.593385 7 24 7 z M 17.582031 17C14.228031 17 11.5 20.14 11.5 24C11.5 27.86 14.228031 31 17.582031 31C20.193031 31 21.786406 29.355766 22.316406 28.384766C22.436406 28.164766 22.5 27.918969 22.5 27.667969L22.5 24.5C22.5 23.671 21.829 23 21 23L19 23C18.171 23 17.5 23.671 17.5 24.5C17.5 25.329 18.171 26 19 26L19.5 26L19.5 27.185547C19.213 27.506547 18.605031 28 17.582031 28C15.882031 28 14.5 26.206 14.5 24C14.5 21.794 15.882031 20 17.582031 20C18.878031 20 19.255453 20.377547 19.939453 21.060547C20.525453 21.646547 21.474547 21.646547 22.060547 21.060547C22.646547 20.475547 22.646547 19.524453 22.060547 18.939453C21.242547 18.121453 20.120031 17 17.582031 17 z M 31 17C27.691 17 25 20.14 25 24C25 27.86 27.691 31 31 31C34.309 31 37 27.86 37 24C37 20.14 34.309 17 31 17 z M 31 20C32.626 20 34 21.832 34 24C34 26.168 32.626 28 31 28C29.374 28 28 26.168 28 24C28 21.832 29.374 20 31 20 z" />
</svg>