<?xml version="1.0" encoding="utf-8"?>
<svg xmlns="http://www.w3.org/2000/svg" viewBox="0 0 32 32" width="16" height="16" fill="context-fill" fill-opacity="context-fill-opacity">
  <path d="M16 3C8.832031 3 3 8.832031 3 16C3 23.167969 8.832031 29 16 29C23.167969 29 29 23.167969 29 16C29 8.832031 23.167969 3 16 3 Z M 16 5C22.085938 5 27 9.914063 27 16C27 22.085938 22.085938 27 16 27C9.914063 27 5 22.085938 5 16C5 9.914063 9.914063 5 16 5 Z M 14.21875 9.28125L12.78125 10.71875L18.0625 16L12.78125 21.28125L14.21875 22.71875L20.21875 16.71875L20.90625 16L20.21875 15.28125Z" />
</svg>