<?xml version="1.0" encoding="utf-8"?>
<svg xmlns="http://www.w3.org/2000/svg" viewBox="0 0 48 48" width="16" height="16" fill="context-fill" fill-opacity="context-fill-opacity">
  <path d="M24 4C12.972066 4 4 12.972074 4 24C4 35.027926 12.972066 44 24 44C35.027934 44 44 35.027926 44 24C44 12.972074 35.027934 4 24 4 z M 24 7C33.406615 7 41 14.593391 41 24C41 33.406609 33.406615 41 24 41C14.593385 41 7 33.406609 7 24C7 14.593391 14.593385 7 24 7 z M 15.5 19C13.585045 19 12 20.585045 12 22.5L12 25.5C12 27.414955 13.585045 29 15.5 29L32.5 29C34.414955 29 36 27.414955 36 25.5L36 22.5C36 20.585045 34.414955 19 32.5 19L15.5 19 z M 15.5 22L32.5 22C32.795045 22 33 22.204955 33 22.5L33 25.5C33 25.795045 32.795045 26 32.5 26L15.5 26C15.204955 26 15 25.795045 15 25.5L15 22.5C15 22.204955 15.204955 22 15.5 22 z" />
</svg>