<?xml version="1.0" encoding="utf-8"?>
<svg xmlns="http://www.w3.org/2000/svg" viewBox="0 0 48 48" fill="context-fill" fill-opacity="context-fill-opacity">
  <path d="M24 4C18.494917 4 14 8.494921 14 14C14 19.505079 18.494917 24 24 24C29.505083 24 34 19.505079 34 14C34 8.494921 29.505083 4 24 4 z M 24 7C27.883764 7 31 10.116238 31 14C31 17.883762 27.883764 21 24 21C20.116236 21 17 17.883762 17 14C17 10.116238 20.116236 7 24 7 z M 38 26.099609C33.6 26.099609 30 29.699609 30 34.099609C30 35.799609 30.500391 37.299609 31.400391 38.599609L26.5 43.5C25.9 44 25.900391 44.999609 26.400391 45.599609C26.700391 45.899609 27.1 46 27.5 46C27.9 46 28.299609 45.899609 28.599609 45.599609L33.5 40.699219C34.8 41.599219 36.3 42.099609 38 42.099609C42.4 42.099609 46 38.499609 46 34.099609C46 29.699609 42.4 26.099609 38 26.099609 z M 12.5 28C10 28 8 30 8 32.5L8 34C8 39.6 15 44 24 44C24.2 43.3 24.5 42.6 25 42L26.099609 40.900391C25.499609 41.000391 24.7 41 24 41C17 41 11 37.8 11 34L11 32.5C11 31.7 11.7 31 12.5 31L28.5 31C28.8 29.9 29.399609 28.9 30.099609 28L12.5 28 z M 38 29C40.8 29 43 31.2 43 34C43 36.8 40.8 39 38 39C35.2 39 33 36.8 33 34C33 31.2 35.2 29 38 29 z" />
</svg>