<svg xmlns="http://www.w3.org/2000/svg" viewBox="0 0 26 26" width="16" height="16" fill="context-fill" fill-opacity="context-fill-opacity"><path d="M3 1C1.34375 1 0 2.34375 0 4L0 18C0 19.65625 1.34375 21 3 21L10 21L10 22L16 22L16 21L23 21C24.65625 21 26 19.65625 26 18L26 4C26 2.34375 24.65625 1 23 1 Z M 3 3L23 3C23.550781 3 24 3.449219 24 4L24 18C24 18.550781 23.550781 19 23 19L3 19C2.449219 19 2 18.550781 2 18L2 4C2 3.449219 2.449219 3 3 3 Z M 8 5C6.34375 5 5 6.34375 5 8L5 14C5 15.65625 6.34375 17 8 17L18 17C19.65625 17 21 15.65625 21 14L21 8C21 6.34375 19.65625 5 18 5 Z M 7 8L19 8L19 14C19 14.550781 18.550781 15 18 15L8 15C7.449219 15 7 14.550781 7 14 Z M 6 23C5.019531 23 5 24 5 24L5 25L21 25L21 24C21 23.449219 20.550781 23 20 23Z"/></svg>