<svg xmlns="http://www.w3.org/2000/svg" viewBox="0 0 24 24" width="16" height="16" fill="context-fill" fill-opacity="context-fill-opacity" transform="scale(1.2)"><path d="M6 2C4.9057453 2 4 2.9057453 4 4L4 9C2.895 9 2 9.895 2 11L2 16C2 17.105 2.895 18 4 18L4 20C4 21.094255 4.9057453 22 6 22L18 22C19.094255 22 20 21.094255 20 20L20 7L15 2L6 2 z M 6 4L14 4L14 8L18 8L18 20L6 20L6 18L13 18C14.105 18 15 17.105 15 16L15 11C15 9.895 14.105 9 13 9L6 9L6 4 z M 4 11L7 11L7 12L5.3242188 15L7 15L7 16L4 16L4 15L5.7050781 12L4 12L4 11 z M 7.9941406 11L9 11L9 16L7.9941406 16L7.9941406 11 z M 10 11L11 11L11.5 11C12.328 11 13 11.672 13 12.5C13 13.328 12.328 14 11.5 14L11 14L11 16L10 16L10 14L10 11 z M 11 12L11 13L11.5 13C11.776 13 12 12.776 12 12.5C12 12.224 11.776 12 11.5 12L11 12 z" /></svg>