<?xml version="1.0" encoding="utf-8"?>
<svg xmlns="http://www.w3.org/2000/svg" viewBox="0 0 30 30" fill="context-fill" fill-opacity="context-fill-opacity">
  <path d="M13 3C7.4889971 3 3 7.4889971 3 13C3 18.511003 7.4889971 23 13 23C15.396508 23 17.597385 22.148986 19.322266 20.736328L25.292969 26.707031 A 1.0001 1.0001 0 1 0 26.707031 25.292969L20.736328 19.322266C22.148986 17.597385 23 15.396508 23 13C23 7.4889971 18.511003 3 13 3 z M 13 5C17.430123 5 21 8.5698774 21 13C21 17.430123 17.430123 21 13 21C8.5698774 21 5 17.430123 5 13C5 8.5698774 8.5698774 5 13 5 z M 12.984375 7.9863281 A 1.0001 1.0001 0 0 0 12 9L12 12L9 12 A 1.0001 1.0001 0 1 0 9 14L12 14L12 17 A 1.0001 1.0001 0 1 0 14 17L14 14L17 14 A 1.0001 1.0001 0 1 0 17 12L14 12L14 9 A 1.0001 1.0001 0 0 0 12.984375 7.9863281 z" />
</svg>