<svg xmlns="http://www.w3.org/2000/svg" width="16" height="16" fill="context-fill" fill-opacity="context-fill-opacity">
  <path d="m24,2.41667c-11.85502,0 -21.5,9.68236 -21.5,21.58333c0,11.90097 9.64498,21.58333 21.5,21.58333c11.85502,0 21.5,-9.68236 21.5,-21.58333c0,-11.90097 -9.64498,-21.58333 -21.5,-21.58333zm0,3.2375c0.78745,0 1.58711,0.32905 2.46494,1.14029c0.87783,0.81124 1.7682,2.09992 2.53002,3.76444c0.61276,1.33881 1.0647,3.05549 1.47812,4.80777l-12.94618,0c0.41342,-1.75229 0.86536,-3.46896 1.47812,-4.80777c0.76182,-1.66452 1.65219,-2.95319 2.53002,-3.76444c0.87783,-0.81124 1.67749,-1.14029 2.46494,-1.14029zm-6.68936,1.28151c-0.44459,0.70131 -0.86125,1.45189 -1.23667,2.27215c-0.81809,1.78745 -1.43192,3.90318 -1.90854,6.15884l-6.29463,0c2.03319,-3.82897 5.37958,-6.83063 9.43984,-8.43099zm13.37872,0c4.06026,1.60036 7.40665,4.60202 9.43984,8.43099l-6.29463,0c-0.47662,-2.25565 -1.09046,-4.37139 -1.90854,-6.15884c-0.37542,-0.82026 -0.79208,-1.57085 -1.23667,-2.27215zm-24.16021,11.66849l7.21636,0c-0.22092,1.76145 -0.49551,3.4877 -0.49551,5.39583c0,1.90813 0.27459,3.63439 0.49551,5.39583l-7.21636,0c-0.52,-1.70543 -0.80415,-3.51673 -0.80415,-5.39583c0,-1.8791 0.28415,-3.6904 0.80415,-5.39583zm10.44766,0l14.04638,0c0.23975,1.74114 0.50181,3.47559 0.50181,5.39583c0,1.92025 -0.26206,3.6547 -0.50181,5.39583l-14.04638,0c-0.23975,-1.74114 -0.50181,-3.47559 -0.50181,-5.39583c0,-1.92025 0.26206,-3.6547 0.50181,-5.39583zm17.27768,0l7.21636,0c0.52,1.70543 0.80415,3.51673 0.80415,5.39583c0,1.8791 -0.28415,3.6904 -0.80415,5.39583l-7.21636,0c0.22092,-1.76145 0.49551,-3.4877 0.49551,-5.39583c0,-1.90813 -0.27459,-3.63439 -0.49551,-5.39583zm-26.38369,14.02917l6.29463,0c0.47662,2.25565 1.09046,4.37139 1.90854,6.15884c0.37542,0.82026 0.79208,1.57085 1.23667,2.27215c-4.06026,-1.60036 -7.40665,-4.60203 -9.43984,-8.43099zm9.65611,0l12.94618,0c-0.41342,1.75229 -0.86536,3.46896 -1.47812,4.80777c-0.76182,1.66452 -1.65219,2.95319 -2.53002,3.76444c-0.87783,0.81124 -1.67749,1.14029 -2.46494,1.14029c-0.78745,0 -1.58711,-0.32905 -2.46494,-1.14029c-0.87783,-0.81124 -1.7682,-2.09992 -2.53002,-3.76444c-0.61276,-1.33881 -1.0647,-3.05549 -1.47812,-4.80777zm16.30766,0l6.29463,0c-2.03319,3.82896 -5.37958,6.83063 -9.43984,8.43099c0.44459,-0.70131 0.86125,-1.45189 1.23667,-2.27215c0.81809,-1.78745 1.43192,-3.90318 1.90854,-6.15884z"/>
</svg>