<?xml version="1.0" encoding="utf-8"?>
<svg xmlns="http://www.w3.org/2000/svg" viewBox="0 0 50 50" width="16" height="16" fill="context-fill" fill-opacity="context-fill-opacity">
  <path d="M25 2C12.309534 2 2 12.309534 2 25C2 37.690466 12.309534 48 25 48C37.690466 48 48 37.690466 48 25C48 12.309534 37.690466 2 25 2 z M 25 4C36.609534 4 46 13.390466 46 25C46 36.609534 36.609534 46 25 46C13.390466 46 4 36.609534 4 25C4 13.390466 13.390466 4 25 4 z M 32.990234 15.986328 A 1.0001 1.0001 0 0 0 32.292969 16.292969L25 23.585938L17.707031 16.292969 A 1.0001 1.0001 0 0 0 16.990234 15.990234 A 1.0001 1.0001 0 0 0 16.292969 17.707031L23.585938 25L16.292969 32.292969 A 1.0001 1.0001 0 1 0 17.707031 33.707031L25 26.414062L32.292969 33.707031 A 1.0001 1.0001 0 1 0 33.707031 32.292969L26.414062 25L33.707031 17.707031 A 1.0001 1.0001 0 0 0 32.990234 15.986328 z" />
</svg>