<?xml version="1.0" encoding="utf-8"?>
<svg xmlns="http://www.w3.org/2000/svg" viewBox="0 0 32 32" width="16" height="16" fill="context-fill" fill-opacity="context-fill-opacity">
  <path d="M16 3C8.832031 3 3 8.832031 3 16C3 23.167969 8.832031 29 16 29C23.167969 29 29 23.167969 29 16L27 16C27 22.085938 22.085938 27 16 27C9.914063 27 5 22.085938 5 16C5 9.914063 9.914063 5 16 5C19.875 5 23.261719 6.984375 25.21875 10L20 10L20 12L28 12L28 4L26 4L26 7.71875C23.617188 4.84375 20.019531 3 16 3Z" />
</svg>