<svg xmlns="http://www.w3.org/2000/svg" viewBox="0 0 48 48" width="16" height="16" fill="context-fill" fill-opacity="context-fill-opacity" transform="scale(1.1)">
  <path d="M10.5 5C7.467 5 5 7.468 5 10.5C5 13.532 7.467 16 10.5 16C13.533 16 16 13.532 16 10.5C16 7.468 13.533 5 10.5 5 z M 20.5 9 A 1.50015 1.50015 0 1 0 20.5 12L41.5 12 A 1.50015 1.50015 0 1 0 41.5 9L20.5 9 z M 10.5 18.5C8.7916671 18.5 7.3204817 19.194633 6.3789062 20.253906C5.4373308 21.313179 5 22.666667 5 24C5 25.333333 5.4373308 26.686821 6.3789062 27.746094C7.3204817 28.805367 8.7916671 29.5 10.5 29.5C12.208333 29.5 13.679518 28.805367 14.621094 27.746094C15.562669 26.686821 16 25.333333 16 24C16 22.666667 15.562669 21.313179 14.621094 20.253906C13.679518 19.194633 12.208333 18.5 10.5 18.5 z M 10.5 21.5C11.458333 21.5 11.987149 21.805367 12.378906 22.246094C12.770664 22.686821 13 23.333333 13 24C13 24.666667 12.770664 25.313179 12.378906 25.753906C11.987149 26.194633 11.458333 26.5 10.5 26.5C9.5416674 26.5 9.0128509 26.194633 8.6210938 25.753906C8.2293364 25.313179 8 24.666667 8 24C8 23.333333 8.2293365 22.686821 8.6210938 22.246094C9.0128509 21.805367 9.5416674 21.5 10.5 21.5 z M 20.5 22.5 A 1.50015 1.50015 0 1 0 20.5 25.5L41.5 25.5 A 1.50015 1.50015 0 1 0 41.5 22.5L20.5 22.5 z M 10.5 32C8.7916671 32 7.3204817 32.694633 6.3789062 33.753906C5.4373308 34.813179 5 36.166667 5 37.5C5 38.833333 5.4373308 40.186821 6.3789062 41.246094C7.3204817 42.305367 8.7916671 43 10.5 43C12.208333 43 13.679518 42.305367 14.621094 41.246094C15.562669 40.186821 16 38.833333 16 37.5C16 36.166667 15.562669 34.813179 14.621094 33.753906C13.679518 32.694633 12.208333 32 10.5 32 z M 10.5 35C11.458333 35 11.987149 35.305367 12.378906 35.746094C12.770664 36.186821 13 36.833333 13 37.5C13 38.166667 12.770664 38.813179 12.378906 39.253906C11.987149 39.694633 11.458333 40 10.5 40C9.5416674 40 9.0128509 39.694633 8.6210938 39.253906C8.2293364 38.813179 8 38.166667 8 37.5C8 36.833333 8.2293365 36.186821 8.6210938 35.746094C9.0128509 35.305367 9.5416674 35 10.5 35 z M 20.5 36 A 1.50015 1.50015 0 1 0 20.5 39L41.5 39 A 1.50015 1.50015 0 1 0 41.5 36L20.5 36 z"/>
</svg>