<svg xmlns="http://www.w3.org/2000/svg" viewBox="0 0 48 48" width="16" height="16" fill="context-fill" fill-opacity="context-fill-opacity" transform="scale(1.2)">
  <path d="M22.771484 8C10.241643 8 5.1074219 20.943359 5.1074219 20.943359 A 1.50015 1.50015 0 1 0 7.8925781 22.056641C7.8925781 22.056641 12.331325 11 22.771484 11C30.28751 11 35.193851 16.763345 37.361328 20L32.5 20 A 1.50015 1.50015 0 1 0 32.5 23L39.962891 23L41.5 23 A 1.50015 1.50015 0 0 0 43 21.5L43 12.5 A 1.50015 1.50015 0 0 0 41.476562 10.978516 A 1.50015 1.50015 0 0 0 40 12.5L40 18.523438C37.58816 14.823063 31.910736 8 22.771484 8 z M 7.5 28C5.5850452 28 4 29.585045 4 31.5L4 36.5C4 38.414955 5.5850452 40 7.5 40L12.5 40C14.414955 40 16 38.414955 16 36.5L16 31.5C16 29.585045 14.414955 28 12.5 28L7.5 28 z M 21.5 28C19.585045 28 18 29.585045 18 31.5L18 36.5C18 38.414955 19.585045 40 21.5 40L26.5 40C28.414955 40 30 38.414955 30 36.5L30 31.5C30 29.585045 28.414955 28 26.5 28L21.5 28 z M 35.5 28C33.585045 28 32 29.585045 32 31.5L32 36.5C32 38.414955 33.585045 40 35.5 40L40.5 40C42.414955 40 44 38.414955 44 36.5L44 31.5C44 29.585045 42.414955 28 40.5 28L35.5 28 z M 7.5 31L12.5 31C12.795045 31 13 31.204955 13 31.5L13 36.5C13 36.795045 12.795045 37 12.5 37L7.5 37C7.2049548 37 7 36.795045 7 36.5L7 31.5C7 31.204955 7.2049548 31 7.5 31 z M 21.5 31L26.5 31C26.795045 31 27 31.204955 27 31.5L27 36.5C27 36.795045 26.795045 37 26.5 37L21.5 37C21.204955 37 21 36.795045 21 36.5L21 31.5C21 31.204955 21.204955 31 21.5 31 z M 35.5 31L40.5 31C40.795045 31 41 31.204955 41 31.5L41 36.5C41 36.795045 40.795045 37 40.5 37L35.5 37C35.204955 37 35 36.795045 35 36.5L35 31.5C35 31.204955 35.204955 31 35.5 31 z"/>
</svg>