<svg xmlns="http://www.w3.org/2000/svg" width="16" height="16" viewBox="0 0 24 24" fill="context-fill" fill-opacity="context-fill-opacity"><path d="M0 0L0 20C0 22.199219 1.800781 24 4 24L20 24C22.199219 24 24 22.199219 24 20L24 4L18 4L18 0 Z M 2 2L16 2L16 20C16 20.742188 16.265625 21.402344 16.625 22L4 22C2.882813 22 2 21.117188 2 20 Z M 4 4L4 7L14 7L14 4 Z M 18 6L22 6L22 20C22 21.117188 21.117188 22 20 22C18.882813 22 18 21.117188 18 20L18 19L20 19L20 17L18 17L18 16L20 16L20 14L18 14L18 13L20 13L20 11L18 11L18 10L20 10L20 8L18 8 Z M 4 9L4 11L8 11L8 9 Z M 10 9L10 11L14 11L14 9 Z M 4 12L4 14L8 14L8 12 Z M 10 12L10 14L14 14L14 12 Z M 4 15L4 17L8 17L8 15 Z M 10 15L10 17L14 17L14 15 Z M 4 18L4 20L8 20L8 18 Z M 10 18L10 20L14 20L14 18Z"/></svg>