<svg viewBox="0 0 1024 1024" version="1.1" xmlns="http://www.w3.org/2000/svg" width="16" height="16" fill="context-fill" fill-opacity="context-fill-opacity"><path d="M139.072 974.336a96.448 96.448 0 1 0 0-192.832 96.448 96.448 0 0 0 0 192.832zM926.08 971.264a45.824 45.824 0 0 1-46.592-46.72c0-433.92-353.088-788.544-788.608-788.544a45.824 45.824 0 0 1-46.72-46.72c0-26.368 20.288-46.592 46.72-46.592 486.848 0 881.92 396.608 881.92 881.92 0 26.432-20.224 46.656-46.72 46.656z"></path><path d="M601.024 972.8a45.824 45.824 0 0 1-46.656-46.72c0-255.04-208.384-463.488-463.488-463.488A45.824 45.824 0 0 1 44.16 416c0-26.432 20.288-46.656 46.72-46.656 307.968 0 556.8 250.432 556.8 556.8 0 24.96-21.76 46.72-46.656 46.72z"></path></svg>