<?xml version="1.0" encoding="utf-8"?>
<svg xmlns="http://www.w3.org/2000/svg" viewBox="0 0 32 32" width="16" height="16" fill="context-fill" fill-opacity="context-fill-opacity">
  <path d="M9 4C6.800781 4 5 5.800781 5 8C5 9.113281 5.476563 10.117188 6.21875 10.84375C4.886719 11.746094 4 13.28125 4 15L4 20.625L6 21.625L6 28L12 28L12 21.625L14 20.625L14 19L12 19L12 19.375L10 20.375L10 26L8 26L8 20.375L6 19.375L6 15C6 13.332031 7.332031 12 9 12C10.667969 12 12 13.332031 12 15L14 15C14 13.28125 13.113281 11.746094 11.78125 10.84375C12.523438 10.117188 13 9.113281 13 8C13 5.800781 11.199219 4 9 4 Z M 23 4C20.800781 4 19 5.800781 19 8C19 9.113281 19.476563 10.117188 20.21875 10.84375C18.886719 11.746094 18 13.28125 18 15L18 20.625L20 21.625L20 28L26 28L26 21.625L28 20.625L28 15C28 13.28125 27.113281 11.746094 25.78125 10.84375C26.523438 10.117188 27 9.113281 27 8C27 5.800781 25.199219 4 23 4 Z M 9 6C10.117188 6 11 6.882813 11 8C11 9.117188 10.117188 10 9 10C7.882813 10 7 9.117188 7 8C7 6.882813 7.882813 6 9 6 Z M 23 6C24.117188 6 25 6.882813 25 8C25 9.117188 24.117188 10 23 10C21.882813 10 21 9.117188 21 8C21 6.882813 21.882813 6 23 6 Z M 23 12C24.667969 12 26 13.332031 26 15L26 19.375L24 20.375L24 26L22 26L22 20.375L20 19.375L20 15C20 13.332031 21.332031 12 23 12 Z M 15 14.1875L15 16L11 16L11 18L15 18L15 19.8125L17.8125 17Z" />
</svg>