<?xml version="1.0" standalone="no"?><!DOCTYPE svg PUBLIC "-//W3C//DTD SVG 1.1//EN" "http://www.w3.org/Graphics/SVG/1.1/DTD/svg11.dtd"><svg t="1649735875709" fill="context-fill" fill-opacity="context-fill-opacity"  class="icon" viewBox="0 0 1024 1024" version="1.1" xmlns="http://www.w3.org/2000/svg" p-id="1223" xmlns:xlink="http://www.w3.org/1999/xlink" width="32" height="32"><defs><style type="text/css"></style></defs><path d="M512.282433 957.937398c-247.529583 0-448.190719-200.661136-448.190719-448.185602 0-191.062524 119.757524-353.747743 288.115953-418.226267l0 69.339228c-132.148739 60.736293-224.088708 193.907315-224.088708 348.887039 0 212.150818 172.011632 384.16245 384.163473 384.16245 212.152864 0 384.158357-172.010609 384.158357-384.16245 0-154.979724-91.944062-288.150746-224.093824-348.917738l0-69.308529c168.359452 64.478524 288.115953 227.16886 288.115953 418.226267C960.468035 757.276263 759.807922 957.937398 512.282433 957.937398L512.282433 957.937398 512.282433 957.937398zM480.268298 61.561078l64.022129 0 0 449.339892-64.022129 0L480.268298 61.561078 480.268298 61.561078 480.268298 61.561078zM480.268298 61.561078" p-id="1224"></path></svg>