<?xml version="1.0" encoding="utf-8"?>
<svg xmlns="http://www.w3.org/2000/svg" viewBox="0 0 48 48" width="32" height="32" fill="context-fill" fill-opacity="context-fill-opacity" stroke-width="1">
  <path d="M18.996094 5.0234375C17.822732 4.9942935 16.634501 5.4104206 15.730469 6.3144531L6.3144531 15.728516 A 1.50015 1.50015 0 0 0 6.3144531 15.730469C4.2487592 17.797645 4.7260031 21.353061 7.2636719 22.802734L17.363281 28.576172L21.15625 38.056641 A 1.50015 1.50015 0 0 0 23.609375 38.560547L30.025391 32.146484L40.439453 42.560547 A 1.50015 1.50015 0 1 0 42.560547 40.439453L32.146484 30.025391L38.5625 23.609375 A 1.50015 1.50015 0 0 0 38.058594 21.15625L28.576172 17.363281L22.804688 7.2636719 A 1.50015 1.50015 0 0 0 22.804688 7.2617188C22.079308 5.9932276 20.826855 5.2404336 19.498047 5.0625C19.331946 5.0402583 19.163717 5.0276009 18.996094 5.0234375 z M 18.777344 7.984375C18.887026 7.9733548 18.997108 7.9757178 19.105469 7.9902344C19.538911 8.0483004 19.945598 8.308441 20.199219 8.7519531L26.232422 19.306641 A 1.50015 1.50015 0 0 0 26.976562 19.955078L34.832031 23.095703L23.095703 34.832031L19.955078 26.976562 A 1.50015 1.50015 0 0 0 19.306641 26.230469L8.7519531 20.199219C7.8662335 19.693241 7.7168954 18.574434 8.4375 17.851562L8.4375 17.849609L17.851562 8.4375C18.122177 8.1668851 18.448297 8.0174357 18.777344 7.984375 z" />
</svg>