<svg t="1649734656122" class="icon" viewBox="0 0 1024 1024" version="1.1" xmlns="http://www.w3.org/2000/svg" p-id="1131" width="32" height="32" fill="context-fill" fill-opacity="context-fill-opacity"><path d="M539.542857 238.857143H484.571429c-5.028571 0-9.142857 4.114286-9.142858 9.142857v314.628571c0 2.971429 1.371429 5.714286 3.771429 7.428572l188.914286 137.942857c4.114286 2.971429 9.828571 2.171429 12.8-1.942857l32.685714-44.571429c3.085714-4.228571 2.171429-9.942857-1.942857-12.8L548.685714 530.857143V248c0-5.028571-4.114286-9.142857-9.142857-9.142857z m251.2 85.942857l179.2 43.771429c5.714286 1.371429 11.314286-2.971429 11.314286-8.8l0.914286-184.571429c0-7.657143-8.8-12-14.742858-7.2L787.314286 308.685714a9.142857 9.142857 0 0 0 3.428571 16.114286z m191.657143 344.114286l-64.8-22.285715a9.142857 9.142857 0 0 0-11.542857 5.485715c-2.171429 5.828571-4.457143 11.542857-6.857143 17.257143-20.342857 48.114286-49.485714 91.428571-86.742857 128.571428a403.428571 403.428571 0 0 1-128.571429 86.742857 402.491429 402.491429 0 0 1-157.371428 31.771429c-54.628571 0-107.542857-10.628571-157.371429-31.771429a403.428571 403.428571 0 0 1-128.571428-86.742857c-37.142857-37.142857-66.285714-80.457143-86.742858-128.571428A403.931429 403.931429 0 0 1 122.285714 512c0-54.628571 10.628571-107.657143 31.771429-157.485714 20.342857-48.114286 49.485714-91.428571 86.742857-128.571429a403.428571 403.428571 0 0 1 128.571429-86.742857C418.971429 118.057143 472 107.428571 526.628571 107.428571s107.542857 10.628571 157.371429 31.771429A403.428571 403.428571 0 0 1 812.571429 225.942857c11.657143 11.771429 22.628571 24 32.685714 36.914286l68.342857-53.485714C823.657143 94.4 683.657143 20.457143 526.4 20.571429 252.571429 20.685714 32.685714 243.085714 35.428571 517.028571 38.171429 786.171429 257.028571 1003.428571 526.628571 1003.428571c212 0 392.571429-134.4 461.371429-322.628571 1.714286-4.8-0.8-10.171429-5.6-11.885714z" p-id="1132"></path></svg>