<?xml version="1.0" encoding="utf-8"?>
<svg xmlns="http://www.w3.org/2000/svg" viewBox="0 0 48 48" width="32" height="32" fill="context-fill" fill-opacity="context-fill-opacity" stroke-width="1">
  <path d="M42.470703 3.9863281 A 1.50015 1.50015 0 0 0 41.439453 4.4394531L4.4394531 41.439453 A 1.50015 1.50015 0 1 0 6.5605469 43.560547L18.558594 31.5625L21.15625 38.056641C21.34425 38.524641 21.752094 38.86775 22.246094 38.96875C22.347094 38.98975 22.447828 39 22.548828 39C22.942828 39 23.324375 38.844547 23.609375 38.560547L30.023438 32.144531L40.439453 42.560547 A 1.50015 1.50015 0 1 0 42.560547 40.439453L32.144531 30.023438L38.560547 23.609375C38.916547 23.253375 39.071703 22.742047 38.970703 22.248047C38.868703 21.753047 38.524641 21.34325 38.056641 21.15625L31.5625 18.558594L43.560547 6.5605469 A 1.50015 1.50015 0 0 0 42.470703 3.9863281 z M 18.980469 5C17.76966 4.9771816 16.604594 5.4412031 15.730469 6.3144531L6.3144531 15.730469C5.3164531 16.728469 4.8510625 18.102953 5.0390625 19.501953C5.2270625 20.899953 6.0386719 22.103734 7.2636719 22.802734L14.642578 27.019531L16.841797 24.820312L8.7519531 20.199219C8.3459531 19.967219 8.0756719 19.567516 8.0136719 19.103516C7.9506719 18.639516 8.1065 18.182562 8.4375 17.851562L17.851562 8.4355469C18.134563 8.1535469 18.508391 8 18.900391 8C18.966391 8 19.035516 8.0046719 19.103516 8.0136719C19.567516 8.0766719 19.965266 8.3449531 20.197266 8.7519531L24.820312 16.841797L27.019531 14.642578L22.804688 7.2636719C22.104688 6.0376719 20.901953 5.2260625 19.501953 5.0390625C19.327828 5.0156875 19.153441 5.0032598 18.980469 5 z M 29.253906 20.867188L34.830078 23.097656L23.097656 34.830078L20.867188 29.253906L29.253906 20.867188 z" />
</svg>