<svg viewBox="0 0 1024 1024" version="1.1" xmlns="http://www.w3.org/2000/svg" width="16" height="16" fill="context-fill" fill-opacity="context-fill-opacity"><path d="M346.026667 715.52a172.544 172.544 0 0 1-109.226667-53.76 190.421333 190.421333 0 0 1 0-259.84l93.44-98.133333a172.330667 172.330667 0 0 1 251.733333 0 190.421333 190.421333 0 0 1 0 259.84l-46.506666 49.066666a32 32 0 1 1-46.506667-43.946666l46.506667-49.066667a125.354667 125.354667 0 0 0 0-171.52 111.786667 111.786667 0 0 0-159.146667 0l-93.44 98.133333a125.354667 125.354667 0 0 0 0 171.52 109.397333 109.397333 0 0 0 69.12 34.133334 32.042667 32.042667 0 0 1 28.586667 34.986666 31.573333 31.573333 0 0 1-31.573334 28.586667z"></path><path d="M442.026667 720.213333a190.421333 190.421333 0 0 1 0-259.84l46.506666-49.066666a32 32 0 1 1 46.506667 43.946666l-46.506667 49.28a125.354667 125.354667 0 0 0 0 171.52 111.402667 111.402667 0 0 0 159.146667 0l93.44-98.133333a125.354667 125.354667 0 0 0 0-171.52 109.397333 109.397333 0 0 0-69.12-34.133333 32.042667 32.042667 0 0 1-28.586667-34.986667 31.488 31.488 0 0 1 34.986667-28.586667 174.677333 174.677333 0 0 1 109.226667 53.546667 190.421333 190.421333 0 0 1 0 259.84l-93.44 98.133333a172.842667 172.842667 0 0 1-252.16 0z"></path><path d="M640 970.666667H384c-231.765333 0-330.666667-98.901333-330.666667-330.666667V384c0-231.765333 98.901333-330.666667 330.666667-330.666667h256c231.765333 0 330.666667 98.901333 330.666667 330.666667v256c0 231.765333-98.901333 330.666667-330.666667 330.666667z m-256-853.333334C187.136 117.333333 117.333333 187.136 117.333333 384v256c0 196.864 69.802667 266.666667 266.666667 266.666667h256c196.864 0 266.666667-69.802667 266.666667-266.666667V384c0-196.864-69.76-266.666667-266.666667-266.666667z"></path></svg>