<svg xmlns="http://www.w3.org/2000/svg" xmlns:xlink="http://www.w3.org/1999/xlink" viewBox="0 0 50 50" width="16" height="16" fill="context-fill" fill-opacity="context-fill-opacity"><path d="M21.980469 2C18.136719 2.085938 15.375 3.199219 13.765625 5.3125C11.949219 7.703125 11.632813 11.265625 12.796875 16.195313C12.386719 16.726563 12.011719 17.574219 12.109375 18.734375C12.402344 20.898438 13.226563 21.789063 13.898438 22.152344C14.234375 23.953125 15.21875 25.863281 16.101563 26.765625C16.105469 26.988281 16.109375 27.203125 16.113281 27.417969C16.132813 28.375 16.144531 29.203125 16.019531 30.265625C15.472656 31.671875 13.441406 32.476563 11.09375 33.40625C7.191406 34.953125 2.335938 36.878906 2 42.949219L1.945313 44L25.371094 44C25.179688 43.605469 25.015625 43.195313 24.859375 42.78125C24.566406 39.25 22.5 35.800781 22.5 35.800781L24.667969 33.902344C24.390625 33.347656 24.058594 32.925781 23.730469 32.582031L25.589844 31.550781C25.738281 31.265625 25.90625 30.992188 26.074219 30.71875C26.28125 30.378906 26.503906 30.050781 26.734375 29.734375C26.789063 29.664063 26.835938 29.589844 26.890625 29.519531C27.179688 29.140625 27.488281 28.773438 27.8125 28.425781C27.804688 27.878906 27.800781 27.34375 27.800781 26.753906C28.667969 25.839844 29.589844 23.925781 29.972656 22.191406C30.691406 21.851563 31.589844 20.96875 31.796875 18.683594C31.890625 17.558594 31.582031 16.730469 31.15625 16.199219C31.816406 14.128906 32.9375 9.535156 31.09375 6.488281C30.253906 5.101563 28.941406 4.230469 27.183594 3.882813C26.21875 2.664063 24.398438 2 21.980469 2 Z M 22 4C23.890625 4 25.253906 4.476563 25.734375 5.304688L25.980469 5.722656L26.457031 5.789063C27.835938 5.984375 28.792969 6.550781 29.378906 7.523438C30.664063 9.640625 30.007813 13.5 29.058594 16.160156L28.742188 16.984375L29.535156 17.382813C29.625 17.445313 29.863281 17.789063 29.804688 18.507813C29.667969 19.988281 29.199219 20.382813 29.097656 20.402344L28.234375 20.402344L28.109375 21.261719C27.835938 23.183594 26.683594 25.15625 26.304688 25.433594L25.800781 25.71875L25.800781 26.300781C25.800781 27.320313 25.8125 28.195313 25.84375 29.121094L22 31.253906L18.105469 29.09375C18.125 28.503906 18.121094 27.945313 18.109375 27.378906C18.105469 27.035156 18.097656 26.679688 18.097656 26.296875L18.035156 25.734375L17.609375 25.4375C17.214844 25.167969 15.972656 23.171875 15.796875 21.304688L15.78125 20.40625L14.875 20.40625C14.730469 20.351563 14.285156 19.878906 14.09375 18.515625C14.027344 17.679688 14.453125 17.332031 14.453125 17.332031L15.046875 16.9375L14.871094 16.253906C13.707031 11.667969 13.867188 8.484375 15.359375 6.523438C16.578125 4.921875 18.820313 4.070313 22 4 Z M 38 26C31.390625 26 26 31.394531 26 38C26 44.605469 31.390625 50 38 50C44.609375 50 50 44.605469 50 38C50 31.394531 44.609375 26 38 26 Z M 38 28C43.523438 28 48 32.476563 48 38C48 43.523438 43.523438 48 38 48C32.476563 48 28 43.523438 28 38C28 32.476563 32.476563 28 38 28 Z M 17.773438 31.195313L20.269531 32.582031L17.988281 35.417969L16.121094 33.152344C16.84375 32.617188 17.414063 31.984375 17.773438 31.195313 Z M 37 32L37 37L32 37L32 39L37 39L37 44L39 44L39 39L44 39L44 37L39 37L39 32 Z M 14.375 34.179688L17.230469 37.636719C17.417969 37.867188 17.707031 38.003906 18.007813 38C18.308594 38 18.589844 37.859375 18.78125 37.625L20.742188 35.1875L21.5 35.800781C21.5 35.800781 19.746094 38.8125 19.242188 42L4.121094 42C4.855469 38.027344 8.398438 36.625 11.828125 35.265625C12.714844 34.914063 13.578125 34.566406 14.375 34.179688Z"/></svg>