<svg viewBox="0 0 1024 1024" version="1.1" xmlns="http://www.w3.org/2000/svg" xmlns:xlink="http://www.w3.org/1999/xlink" width="16" height="16" fill="context-fill" fill-opacity="context-fill-opacity"><path d="M991.776 535.2c0-25.632-9.984-49.76-28.064-67.872L588.992 92.128c-36.256-36.288-99.488-36.288-135.744-0.032L317.408 227.808c-37.408 37.408-37.44 98.336-0.032 135.776l374.656 375.136c18.144 18.144 42.24 28.128 67.936 28.128 25.632 0 49.728-9.984 67.84-28.096l35.328-35.296 26.112 26.144c12.512 12.512 12.512 32.768 1.856 43.584l-95.904 82.048c-12.448 12.544-32.736 12.48-45.248 0l-245.536-245.824 0 0-3.2-3.2c-37.44-37.408-98.336-37.472-135.744-0.096l-9.632 9.632L294.4 554.336c-6.24-6.24-14.432-9.376-22.624-9.376-8.192 0-16.384 3.136-22.656 9.376 0 0 0 0.032-0.032 0.032l-22.56 22.56c0 0 0 0 0 0l-135.872 135.712c-37.408 37.408-37.44 98.304-0.032 135.776l113.12 113.184c18.688 18.688 43.296 28.064 67.872 28.064 24.576 0 49.152-9.344 67.904-28.032l135.808-135.712c0.032-0.032 0.032-0.096 0.064-0.128l22.528-22.496c6.016-6.016 9.376-14.112 9.376-22.624 0-8.48-3.36-16.64-9.344-22.624l-96.896-96.96 9.6-9.6c12.48-12.544 32.768-12.48 45.248 0.032l0-0.032 3.2 3.2 0 0.032 245.568 245.856c18.944 18.912 43.872 28.256 68.544 28.256 24.032 0 47.808-8.896 65.376-26.56l95.904-82.048c37.44-37.408 37.472-98.336 0.032-135.808l-26.112-26.112 55.232-55.168C981.76 584.928 991.776 560.832 991.776 535.2zM362.144 848.544c-0.032 0.032-0.032 0.096-0.064 0.128l-67.776 67.712c-12.48 12.416-32.864 12.448-45.312 0L135.904 803.2c-12.48-12.48-12.48-32.768 0-45.28l67.904-67.84 0 0 67.936-67.84 158.336 158.432L362.144 848.544zM918.368 557.824l-135.808 135.68c-12.064 12.096-33.152 12.096-45.216-0.032L362.656 318.368c-12.48-12.512-12.48-32.8 0-45.28l135.84-135.712C504.544 131.328 512.576 128 521.12 128s16.608 3.328 22.624 9.344l374.688 375.2c6.016 6.016 9.344 14.048 9.344 22.592C927.776 543.712 924.448 551.744 918.368 557.824z" p-id="2668"></path><path d="M544.448 186.72c-12.352-12.672-32.64-12.832-45.248-0.48-12.64 12.384-12.832 32.64-0.48 45.248l322.592 329.216c6.24 6.368 14.528 9.6 22.848 9.6 8.096 0 16.16-3.04 22.4-9.152 12.64-12.352 12.8-32.608 0.448-45.248L544.448 186.72z"></path></svg>