<svg xmlns="http://www.w3.org/2000/svg" xmlns:xlink="http://www.w3.org/1999/xlink" viewBox="0 0 48 48" fill="context-fill" fill-opacity="context-fill-opacity"><path d="M24.216797 6.1015625C24.084935 6.1013567 23.952471 6.1110209 23.820312 6.1289062C23.29168 6.2004472 22.770296 6.4185563 22.339844 6.8007812 A 1.50015 1.50015 0 0 0 22.339844 6.8027344L13.117188 15L6.5 15C4.0324991 15 2 17.032499 2 19.5L2 28.5C2 30.967501 4.0324991 33 6.5 33L13.117188 33L22.339844 41.197266C23.200649 41.96254 24.421458 42.075139 25.345703 41.660156C26.269948 41.245173 27 40.257378 27 39.105469L27 8.8945312C27 7.7430679 26.271967 6.7549754 25.347656 6.3398438C25.00104 6.1841693 24.612384 6.10218 24.216797 6.1015625 z M 45 8.5 A 1.5 1.5 0 0 0 45 11.5 A 1.5 1.5 0 0 0 45 8.5 z M 24 9.3398438L24 38.660156L14.683594 30.378906 A 1.50015 1.50015 0 0 0 13.6875 30L6.5 30C5.6535009 30 5 29.346499 5 28.5L5 19.5C5 18.653501 5.6535009 18 6.5 18L13.6875 18 A 1.50015 1.50015 0 0 0 14.683594 17.621094L24 9.3398438 z M 38 12.5 A 1.5 1.5 0 0 0 38 15.5 A 1.5 1.5 0 0 0 38 12.5 z M 31 15.5 A 1.5 1.5 0 0 0 31 18.5 A 1.5 1.5 0 0 0 31 15.5 z M 31 22.5 A 1.5 1.5 0 0 0 31 25.5 A 1.5 1.5 0 0 0 31 22.5 z M 38 22.5 A 1.5 1.5 0 0 0 38 25.5 A 1.5 1.5 0 0 0 38 22.5 z M 45 22.5 A 1.5 1.5 0 0 0 45 25.5 A 1.5 1.5 0 0 0 45 22.5 z M 31 29.5 A 1.5 1.5 0 0 0 31 32.5 A 1.5 1.5 0 0 0 31 29.5 z M 38 32.5 A 1.5 1.5 0 0 0 38 35.5 A 1.5 1.5 0 0 0 38 32.5 z M 45 36.5 A 1.5 1.5 0 0 0 45 39.5 A 1.5 1.5 0 0 0 45 36.5 z"/></svg>