<?xml version="1.0" encoding="utf-8"?>
<svg xmlns="http://www.w3.org/2000/svg" viewBox="0 0 48 48" width="16" height="16" fill="context-fill" fill-opacity="context-fill-opacity">
  <path d="M24.009766 5 A 1.50015 1.50015 0 0 0 22.658203 5.8300781L17.505859 16.134766L5.2714844 18.017578 A 1.50015 1.50015 0 0 0 4.4394531 20.560547L12.902344 29.023438L11.017578 41.271484 A 1.50015 1.50015 0 0 0 13.193359 42.830078L24 37.191406L34.806641 42.830078 A 1.50015 1.50015 0 0 0 36.982422 41.271484L35.097656 29.023438L43.560547 20.560547 A 1.50015 1.50015 0 0 0 42.728516 18.017578L30.494141 16.134766L25.341797 5.8300781 A 1.50015 1.50015 0 0 0 24.009766 5 z M 24 9.8535156L28.158203 18.169922 A 1.50015 1.50015 0 0 0 29.271484 18.982422L39.345703 20.533203L32.439453 27.439453 A 1.50015 1.50015 0 0 0 32.017578 28.728516L33.566406 38.798828L24.693359 34.169922 A 1.50015 1.50015 0 0 0 23.306641 34.169922L14.433594 38.798828L15.982422 28.728516 A 1.50015 1.50015 0 0 0 15.560547 27.439453L8.6542969 20.533203L18.728516 18.982422 A 1.50015 1.50015 0 0 0 19.841797 18.169922L24 9.8535156 z" />
</svg>