<svg xmlns="http://www.w3.org/2000/svg" xmlns:xlink="http://www.w3.org/1999/xlink" viewBox="0 0 50 50"><path fill="context-fill" fill-opacity="context-fill-opacity" d="M25 2C17.832484 2 12 7.8324839 12 15L12 21L8 21C6.3550302 21 5 22.35503 5 24L5 47C5 48.64497 6.3550302 50 8 50L42 50C43.64497 50 45 48.64497 45 47L45 24C45 22.35503 43.64497 21 42 21L38 21L38 15C38 7.8324839 32.167516 2 25 2 z M 25 4C31.086484 4 36 8.9135161 36 15L36 21L14 21L14 15C14 8.9135161 18.913516 4 25 4 z M 8 23L42 23C42.56503 23 43 23.43497 43 24L43 47C43 47.56503 42.56503 48 42 48L8 48C7.4349698 48 7 47.56503 7 47L7 24C7 23.43497 7.4349698 23 8 23 z M 13 34 A 2 2 0 0 0 11 36 A 2 2 0 0 0 13 38 A 2 2 0 0 0 15 36 A 2 2 0 0 0 13 34 z M 21 34 A 2 2 0 0 0 19 36 A 2 2 0 0 0 21 38 A 2 2 0 0 0 23 36 A 2 2 0 0 0 21 34 z M 29 34 A 2 2 0 0 0 27 36 A 2 2 0 0 0 29 38 A 2 2 0 0 0 31 36 A 2 2 0 0 0 29 34 z M 37 34 A 2 2 0 0 0 35 36 A 2 2 0 0 0 37 38 A 2 2 0 0 0 39 36 A 2 2 0 0 0 37 34 z"/></svg>