<svg xmlns="http://www.w3.org/2000/svg" viewBox="0 0 50 50" width="16" height="16" fill-opacity="context-fill-opacity" fill="context-fill">
  <path d="M5.9785156 3.9804688 A 2.0002 2.0002 0 0 0 4.5859375 7.4140625L15.171875 18L10 18 A 2.0002 2.0002 0 1 0 10 22L22 22L22 10 A 2.0002 2.0002 0 0 0 19.970703 7.9726562 A 2.0002 2.0002 0 0 0 18 10L18 15.171875L7.4140625 4.5859375 A 2.0002 2.0002 0 0 0 5.9785156 3.9804688 z M 43.960938 3.9804688 A 2.0002 2.0002 0 0 0 42.585938 4.5859375L32 15.171875L32 10 A 2.0002 2.0002 0 0 0 29.970703 7.9726562 A 2.0002 2.0002 0 0 0 28 10L28 22L40 22 A 2.0002 2.0002 0 1 0 40 18L34.828125 18L45.414062 7.4140625 A 2.0002 2.0002 0 0 0 43.960938 3.9804688 z M 10 28 A 2.0002 2.0002 0 1 0 10 32L15.171875 32L4.5859375 42.585938 A 2.0002 2.0002 0 1 0 7.4140625 45.414062L18 34.828125L18 40 A 2.0002 2.0002 0 1 0 22 40L22 28L10 28 z M 28 28L28 40 A 2.0002 2.0002 0 1 0 32 40L32 34.828125L42.585938 45.414062 A 2.0002 2.0002 0 1 0 45.414062 42.585938L34.828125 32L40 32 A 2.0002 2.0002 0 1 0 40 28L28 28 z" />
</svg>