<svg xmlns="http://www.w3.org/2000/svg" viewBox="0 0 48 48" width="16" height="16" fill="context-fill" fill-opacity="context-fill-opacity" transform="scale(1.22)">
  <path d="M12.5 6C8.9280619 6 6 8.9280619 6 12.5L6 35.5C6 39.071938 8.9280619 42 12.5 42L35.5 42C39.071938 42 42 39.071938 42 35.5L42 12.5C42 8.9280619 39.071938 6 35.5 6L12.5 6 z M 12.5 9L35.5 9C37.450062 9 39 10.549938 39 12.5L39 14L9 14L9 12.5C9 10.549938 10.549938 9 12.5 9 z M 9 17L39 17L39 35.5C39 37.450062 37.450062 39 35.5 39L12.5 39C10.549938 39 9 37.450062 9 35.5L9 17 z M 24 20.5C23.446 20.5 22.952484 20.851953 22.771484 21.376953L21.486328 25.115234L17.220703 25.115234C16.663703 25.115234 16.168234 25.472 15.990234 26C15.812234 26.528 15.9925 27.110266 16.4375 27.447266L19.892578 30.068359L18.722656 33.814453C18.555656 34.352453 18.752891 34.936719 19.212891 35.261719C19.672891 35.586719 20.290234 35.579234 20.740234 35.240234L24 32.798828L27.259766 35.240234C27.489766 35.412234 27.763109 35.5 28.037109 35.5C28.299109 35.5 28.563109 35.420719 28.787109 35.261719C29.247109 34.936719 29.445344 34.351453 29.277344 33.814453L28.107422 30.068359L31.5625 27.447266C32.0065 27.110266 32.187766 26.527047 32.009766 25.998047C31.831766 25.470047 31.336297 25.115234 30.779297 25.115234L26.513672 25.115234L25.228516 21.376953C25.047516 20.852953 24.554 20.5 24 20.5 z"/>
</svg>