<svg xmlns="http://www.w3.org/2000/svg" viewBox="0 0 50 50" width="16" height="16" fill="context-fill" fill-opacity="context-fill-opacity" transform="scale(0.9)">
  <path d="M4 4C1.800781 4 0 5.800781 0 8C0 10.199219 1.800781 12 4 12C6.199219 12 8 10.199219 8 8C8 5.800781 6.199219 4 4 4 Z M 12 6L12 10L50 10L50 6 Z M 4 21C1.800781 21 0 22.800781 0 25C0 27.199219 1.800781 29 4 29C6.199219 29 8 27.199219 8 25C8 22.800781 6.199219 21 4 21 Z M 12 23L12 27L50 27L50 23 Z M 4 38C1.800781 38 0 39.800781 0 42C0 44.199219 1.800781 46 4 46C6.199219 46 8 44.199219 8 42C8 39.800781 6.199219 38 4 38 Z M 12 40L12 44L50 44L50 40Z"/>
</svg>