<?xml version="1.0" encoding="utf-8"?>
<svg xmlns="http://www.w3.org/2000/svg" viewBox="0 0 48 48" width="32" height="32" fill="context-fill" fill-opacity="context-fill-opacity" stroke-width="1">
  <path d="M14.5 7C11.480226 7 9 9.4802259 9 12.5L9 30.5C9 33.519774 11.480226 36 14.5 36L38.5 36C41.519774 36 44 33.519774 44 30.5L44 12.5C44 9.4802259 41.519774 7 38.5 7L14.5 7 z M 14.5 10L38.5 10C39.898226 10 41 11.101774 41 12.5L41 30.5C41 31.898226 39.898226 33 38.5 33L14.5 33C13.101774 33 12 31.898226 12 30.5L12 12.5C12 11.101774 13.101774 10 14.5 10 z M 7 12L5.78125 12.8125C4.66825 13.5545 4 14.803625 4 16.140625L4 31.5C4 36.747 8.253 41 13.5 41L34.859375 41C36.197375 41 37.4465 40.33175 38.1875 39.21875L39 38L13.5 38C9.91 38 7 35.09 7 31.5L7 12 z M 26.476562 14.978516 A 1.50015 1.50015 0 0 0 25 16.5L25 20L21.5 20 A 1.50015 1.50015 0 1 0 21.5 23L25 23L25 26.5 A 1.50015 1.50015 0 1 0 28 26.5L28 23L31.5 23 A 1.50015 1.50015 0 1 0 31.5 20L28 20L28 16.5 A 1.50015 1.50015 0 0 0 26.476562 14.978516 z" />
</svg>