<?xml version="1.0" encoding="utf-8"?>
<svg xmlns="http://www.w3.org/2000/svg" viewBox="0 0 50 50" width="32" height="32" fill="context-fill" fill-opacity="context-fill-opacity" stroke-width="1">
  <path d="M41.984375 1.9863281 A 1.0001 1.0001 0 0 0 41 3L41 9.9414062C37.014556 5.692295 31.313104 3.0234375 25 3.0234375C12.819434 3.0234375 3 12.842871 3 25.023438C3 37.204003 12.819434 47.023438 25 47.023438C37.180566 47.023438 47 37.204003 47 25.023438 A 1.0001 1.0001 0 1 0 45 25.023438C45 36.13287 36.109434 45.023438 25 45.023438C13.890566 45.023438 5 36.13287 5 25.023438C5 13.914003 13.890566 5.0234375 25 5.0234375C30.593333 5.0234375 35.63652 7.322796 39.238281 11L33 11 A 1.0001 1.0001 0 1 0 33 13L43 13L43 3 A 1.0001 1.0001 0 0 0 41.984375 1.9863281 z M 29.5 17C24.5 17 24.300781 21.7 24.300781 25C24.300781 27.5 24.1 33 29.5 33C34.4 33 34.699219 28.2 34.699219 25C34.699219 21.7 34.4 17 29.5 17 z M 19.5 17.099609C19.1 19.499609 17.4 19.999609 15 20.099609L15 21.599609L19.099609 21.599609L19.099609 32.900391L21 32.900391L21 17.099609L19.5 17.099609 z M 29.5 18.800781C33.4 18.800781 32.800781 24.699609 32.800781 25.099609C32.800781 28.399609 32.2 31.400391 29.5 31.400391C25.8 31.400391 26.199219 25.599609 26.199219 25.099609C26.199219 24.799609 25.6 18.800781 29.5 18.800781 z" />
</svg>