<svg xmlns="http://www.w3.org/2000/svg" xmlns:xlink="http://www.w3.org/1999/xlink" viewBox="0 0 50 50" wdith="16" height="16" fill="context-fill" fill-opacity="context-fill-opacity"><path d="M4 3C3.449219 3 3 3.449219 3 4L3 46C3 46.550781 3.449219 47 4 47L15 47C15.550781 47 16 46.550781 16 46L16 4C16 3.449219 15.550781 3 15 3 Z M 5 5L14 5L14 45L5 45 Z M 24.082031 5.449219C23.699219 5.398438 23.304688 5.578125 23.09375 5.933594L18 14.582031L18 18.527344L18.730469 17.285156L26.484375 21.855469L21.917969 29.609375L18 27.304688L18 29.625L20.90625 31.332031L18 36.265625L18 40.207031L23.132813 31.488281C23.132813 31.488281 23.136719 31.484375 23.136719 31.484375L28.714844 22.011719C28.714844 22.011719 28.714844 22.007813 28.714844 22.007813L28.714844 22.003906L34.292969 12.527344C34.429688 12.296875 34.46875 12.027344 34.402344 11.769531C34.335938 11.511719 34.167969 11.292969 33.9375 11.15625L24.460938 5.578125C24.339844 5.507813 24.210938 5.464844 24.082031 5.449219 Z M 24.308594 7.808594L32.0625 12.375L27.5 20.128906L19.742188 15.5625 Z M 37.988281 16.011719C37.859375 16.03125 37.734375 16.078125 37.621094 16.144531L32.734375 19.125L30.582031 22.777344L37.808594 18.375L42.488281 26.0625L34.804688 30.742188L30.269531 23.300781L29.121094 25.257813L33.097656 31.78125L25.410156 36.464844L23.941406 34.054688L22.792969 36.011719L23.703125 37.503906L18 40.980469L18 43.324219L34.988281 32.96875L34.992188 32.96875L44.386719 27.246094C44.859375 26.960938 45.007813 26.34375 44.71875 25.875L38.996094 16.480469C38.855469 16.253906 38.636719 16.089844 38.378906 16.027344C38.25 15.996094 38.117188 15.992188 37.988281 16.011719 Z M 37.148438 34L36.03125 34.679688L33.863281 36L34 36L34 45L25 45L25 41.402344L23 42.621094L23 45L18 45L18 47L46 47C46.554688 47 47 46.550781 47 46L47 35C47 34.449219 46.554688 34 46 34 Z M 36 36L45 36L45 45L36 45 Z M 9.5 39C8.671875 39 8 39.671875 8 40.5C8 41.328125 8.671875 42 9.5 42C10.328125 42 11 41.328125 11 40.5C11 39.671875 10.328125 39 9.5 39Z"/></svg>