<svg xmlns="http://www.w3.org/2000/svg" viewBox="0 0 32 32" width="16" height="16" fill="context-fill" fill-opacity="context-fill-opacity"><path d="M16.099609 3.828125C13.849609 3.828125 12.342106 4.7128733 10.984375 5.4511719C9.6266439 6.1894705 8.3812401 6.828125 6.0996094 6.828125L5.0996094 6.828125L5.0996094 7.828125C5.0996094 15.545981 7.7046167 20.568984 10.345703 23.607422C12.98679 26.64586 15.728516 27.757812 15.728516 27.757812L16.097656 27.90625L16.46875 27.757812C16.46875 27.757812 16.619105 27.696692 16.859375 27.580078C18.179664 30.193116 20.886533 32 24 32C28.4 32 32 28.4 32 24C32 20.255947 29.390478 17.100634 25.902344 16.240234C26.636953 13.884202 27.099609 11.099775 27.099609 7.828125L27.099609 6.828125L26.099609 6.828125C23.830416 6.828125 22.583832 6.1878509 21.222656 5.4492188C19.86148 4.7105865 18.349609 3.828125 16.099609 3.828125 z M 16.099609 5.828125C17.849609 5.828125 18.866457 6.4456634 20.269531 7.2070312C21.451584 7.8484634 23.010955 8.4559057 25.03125 8.6640625C24.950506 11.531086 24.522014 13.975048 23.857422 16.007812C19.523224 16.085413 16 19.648152 16 24C16 24.571092 16.064516 25.128 16.179688 25.666016C16.157257 25.675801 16.131574 25.688184 16.107422 25.699219C15.633441 25.486393 13.911915 24.66076 11.855469 22.294922C9.5962079 19.695755 7.3596361 15.405576 7.1699219 8.6640625C9.1976921 8.4561167 10.758993 7.8489345 11.939453 7.2070312C13.340222 6.4453299 14.349609 5.828125 16.099609 5.828125 z M 24 18C25.29077 18 26.485285 18.418649 27.466797 19.119141L19.119141 27.466797C18.418649 26.485285 18 25.29077 18 24C18 20.7 20.7 18 24 18 z M 28.880859 20.533203C29.581351 21.514715 30 22.70923 30 24C30 27.3 27.3 30 24 30C22.70923 30 21.514715 29.581351 20.533203 28.880859L28.880859 20.533203 z"/></svg>