<?xml version="1.0" encoding="utf-8"?>
<svg xmlns="http://www.w3.org/2000/svg" viewBox="0 0 50 50" width="16" height="16" fill="context-fill" fill-opacity="context-fill-opacity">
  <path d="M5 5C2.25 5 0 7.25 0 10L0 39C0 41.75 2.25 44 5 44L21 44C22.664063 44 24 45.351563 24 47C24 47.308594 24.144531 47.601563 24.386719 47.789063C24.632813 47.980469 24.949219 48.046875 25.25 47.96875C25.511719 47.902344 25.738281 47.734375 25.875 47.5C25.960938 47.347656 26.003906 47.175781 26 47C26 45.351563 27.335938 44 29 44L45 44C47.75 44 50 41.75 50 39L50 10C50 7.25 47.75 5 45 5L29 5C27.367188 5 25.914063 5.8125 25 7.03125C24.085938 5.8125 22.632813 5 21 5 Z M 5 7L21 7C22.667969 7 24 8.332031 24 10L24 43.125C23.152344 42.464844 22.148438 42 21 42L5 42C3.332031 42 2 40.667969 2 39L2 10C2 8.332031 3.332031 7 5 7 Z M 29 7L45 7C46.667969 7 48 8.332031 48 10L48 39C48 40.667969 46.667969 42 45 42L29 42C27.851563 42 26.847656 42.464844 26 43.125L26 10C26 8.332031 27.332031 7 29 7Z" />
</svg>