<svg xmlns="http://www.w3.org/2000/svg" xmlns:xlink="http://www.w3.org/1999/xlink" viewBox="0 0 30 30" width="16" height="16" fill="context-fill" fill-opacity="context-fill-opacity"><path d="M5 3C3.9069372 3 3 3.9069372 3 5L3 9 A 1.0001 1.0001 0 1 0 5 9L5 5L9 5 A 1.0001 1.0001 0 1 0 9 3L5 3 z M 21 3 A 1.0001 1.0001 0 0 0 20.929688 4.9980469 A 1.0001 1.0001 0 0 0 21 5L25 5L25 9 A 1.0001 1.0001 0 1 0 27 9L27 5C27 3.9069372 26.093063 3 25 3L21 3 z M 9.7695312 10L6.2988281 20L8.3984375 20L9.1679688 17.615234L12.679688 17.615234L13.435547 20L15.701172 20L12.230469 10L9.7695312 10 z M 20.691406 11.832031C18.685406 11.832031 17.333313 12.757375 17.195312 14.234375L19.134766 14.234375C19.308766 13.758375 19.816172 13.498047 20.576172 13.498047C21.444172 13.498047 21.921875 13.873062 21.921875 14.539062L21.921875 15.189453L19.988281 15.306641C18.005281 15.421641 16.898438 16.260984 16.898438 17.708984C16.898437 19.172984 17.976719 20.112281 19.511719 20.113281C20.547719 20.113281 21.415125 19.679219 21.828125 18.949219L21.958984 18.949219L21.958984 19.990234L24 19.990234L24 14.541016C24 12.833016 22.805406 11.832031 20.691406 11.832031 z M 10.871094 12.078125L10.996094 12.078125L12.236328 16.001953L9.6171875 16.001953L10.871094 12.078125 z M 21.921875 16.509766L21.921875 17.095703C21.921875 17.906703 21.184031 18.528297 20.207031 18.529297C19.476031 18.529297 18.962891 18.166266 18.962891 17.572266C18.962891 17.001266 19.403594 16.675375 20.308594 16.609375L21.921875 16.509766 z M 3.984375 19.986328 A 1.0001 1.0001 0 0 0 3 21L3 25C3 26.093063 3.9069372 27 5 27L9 27 A 1.0001 1.0001 0 0 0 9.0996094 26.996094 A 1.0001 1.0001 0 0 0 9.296875 26.958984 A 1.0001 1.0001 0 0 0 9.390625 26.925781 A 1.0001 1.0001 0 0 0 9 25L5 25L5 21 A 1.0001 1.0001 0 0 0 3.984375 19.986328 z M 25.984375 19.986328 A 1.0001 1.0001 0 0 0 25.785156 20.009766 A 1.0001 1.0001 0 0 0 25.689453 20.035156 A 1.0001 1.0001 0 0 0 25.001953 20.931641 A 1.0001 1.0001 0 0 0 25 21L25 25L21 25 A 1.0001 1.0001 0 0 0 20.929688 26.998047 A 1.0001 1.0001 0 0 0 21 27L25 27C26.093063 27 27 26.093063 27 25L27 21 A 1.0001 1.0001 0 0 0 25.984375 19.986328 z"/></svg>