<?xml version="1.0" encoding="utf-8"?>
<svg xmlns="http://www.w3.org/2000/svg" viewBox="0 0 26 26" width="16" height="16" fill="context-fill" fill-opacity="context-fill-opacity">
  <path d="M13.5 0C6.601563 0 1 5.601563 1 12.5C1 19.398438 6.601563 25 13.5 25C20.398438 25 26 19.398438 26 12.5C26 5.601563 20.398438 0 13.5 0 Z M 13.5 1.8125C19.398438 1.8125 24.1875 6.601563 24.1875 12.5C24.1875 18.398438 19.398438 23.1875 13.5 23.1875C7.601563 23.1875 2.8125 18.398438 2.8125 12.5C2.8125 6.601563 7.601563 1.8125 13.5 1.8125 Z M 12.3125 7L16.3125 11L7 11L7 14L16.3125 14L12.3125 18L15.09375 18L20.59375 12.5L15.09375 7Z" />
</svg>