<svg xmlns="http://www.w3.org/2000/svg" xmlns:xlink="http://www.w3.org/1999/xlink" viewBox="0 0 50 50" fill="context-fill" fill-opacity="context-fill-opacity"><path d="M6.667969 4C5.207031 4 4 5.207031 4 6.667969L4 43.332031C4 44.792969 5.207031 46 6.667969 46L43.332031 46C44.792969 46 46 44.796875 46 43.332031L46 6.667969C46 5.207031 44.796875 4 43.332031 4 Z M 6.667969 6L43.332031 6C43.703125 6 44 6.296875 44 6.667969L44 43.332031C44 43.703125 43.703125 44 43.332031 44L6.667969 44C6.296875 44 6 43.703125 6 43.332031L6 6.667969C6 6.296875 6.296875 6 6.667969 6 Z M 23 23L23 35.574219C23 37.503906 22.269531 38 21 38C19.671875 38 18.75 37.171875 18.140625 36.097656L15 38C15.910156 39.925781 18.140625 42 21.234375 42C24.65625 42 27 40.179688 27 36.183594L27 23 Z M 35.453125 23C32.046875 23 29.863281 25.179688 29.863281 28.042969C29.863281 31.148438 31.695313 32.617188 34.449219 33.789063L35.402344 34.199219C37.140625 34.960938 38 35.425781 38 36.734375C38 37.824219 37.171875 38.613281 35.589844 38.613281C33.707031 38.613281 32.816406 37.335938 32 36L29 38C30.121094 40.214844 32.132813 42 35.675781 42C39.300781 42 42 40.117188 42 36.683594C42 33.496094 40.171875 32.078125 36.925781 30.6875L35.972656 30.28125C34.335938 29.570313 33.625 29.109375 33.625 27.964844C33.625 27.039063 34.335938 26.328125 35.453125 26.328125C36.550781 26.328125 37.253906 26.792969 37.90625 27.964844L40.878906 26.058594C39.625 23.84375 37.878906 23 35.453125 23Z"/></svg>