<?xml version="1.0" encoding="utf-8"?>
<svg xmlns="http://www.w3.org/2000/svg" viewBox="0 0 26 26" width="16" height="16" fill="context-fill" fill-opacity="context-fill-opacity">
  <path d="M13 1C9.292969 1 6.132813 3.09375 4.75 6.09375C4.464844 6.039063 4.210938 6 4 6C1.789063 6 0 7.789063 0 10C0 11.816406 1.214844 13.324219 2.875 13.8125C2.328125 14.863281 2 16.003906 2 17.1875C2 22.085938 6.898438 26 13 26C19.101563 26 24 21.988281 24 17.1875C24 16.003906 23.671875 14.863281 23.125 13.8125C24.785156 13.324219 26 11.816406 26 10C26 7.789063 24.210938 6 22 6C21.789063 6 21.535156 6.039063 21.25 6.09375C19.867188 3.09375 16.707031 1 13 1 Z M 10 4.1875C11.699219 4.1875 13 5.488281 13 7.1875C13 5.488281 14.300781 4.1875 16 4.1875C17.398438 4.1875 20 5.988281 20 10.1875C20 10.886719 19.886719 11.710938 19.6875 12.3125C21.085938 13.511719 22 15.199219 22 17C22 20.898438 18 24 13 24C8 24 4 20.898438 4 17C4 15.199219 4.914063 13.511719 6.3125 12.3125C6.113281 11.613281 6 10.886719 6 10.1875C6 5.988281 8.699219 4.1875 10 4.1875 Z M 4 8C4.082031 8 4.109375 8 4.15625 8C4.066406 8.488281 4 8.988281 4 9.5C4 10.300781 4.113281 11.113281 4.3125 11.8125C4.253906 11.875 4.210938 11.9375 4.15625 12C4.105469 11.996094 4.050781 11.996094 4 12C2.808594 12 2 11.191406 2 10C2 8.808594 2.808594 8 4 8 Z M 21.84375 8C21.890625 8 21.917969 8 22 8C23.191406 8 24 8.808594 24 10C24 11.191406 23.191406 12 22 12C21.957031 11.996094 21.917969 11.996094 21.875 12C21.816406 11.933594 21.75 11.878906 21.6875 11.8125C21.886719 11.113281 22 10.300781 22 9.5C22 8.988281 21.933594 8.488281 21.84375 8 Z M 9.5 10C8.671875 10 8 10.671875 8 11.5C8 12.328125 8.671875 13 9.5 13C10.328125 13 11 12.328125 11 11.5C11 10.671875 10.328125 10 9.5 10 Z M 16.5 10C15.671875 10 15 10.671875 15 11.5C15 12.328125 15.671875 13 16.5 13C17.328125 13 18 12.328125 18 11.5C18 10.671875 17.328125 10 16.5 10 Z M 12 14C11.449219 14 11 14.222656 11 14.5C11 14.777344 11.449219 15 12 15C12.550781 15 13 14.777344 13 14.5C13 14.222656 12.550781 14 12 14 Z M 13 14.5C13 14.777344 13.449219 15 14 15C14.550781 15 15 14.777344 15 14.5C15 14.222656 14.550781 14 14 14C13.449219 14 13 14.222656 13 14.5 Z M 19.96875 16.9375C19.730469 16.964844 19.507813 17.074219 19.34375 17.25C19.34375 17.25 18.925781 17.640625 17.875 18.09375C16.824219 18.546875 15.207031 19 13 19C10.792969 19 9.175781 18.546875 8.125 18.09375C7.074219 17.640625 6.65625 17.25 6.65625 17.25C6.429688 17.039063 6.117188 16.949219 5.8125 17C5.429688 17.066406 5.121094 17.351563 5.023438 17.726563C4.921875 18.101563 5.046875 18.5 5.34375 18.75C5.34375 18.75 6.070313 19.359375 7.34375 19.90625C8.617188 20.453125 10.507813 21 13 21C15.492188 21 17.382813 20.453125 18.65625 19.90625C19.929688 19.359375 20.65625 18.75 20.65625 18.75C21.03125 18.488281 21.179688 18.003906 21.015625 17.578125C20.855469 17.148438 20.421875 16.886719 19.96875 16.9375Z" />
</svg>