<svg xmlns="http://www.w3.org/2000/svg" xmlns:xlink="http://www.w3.org/1999/xlink" viewBox="0 0 50 50" width="16" height="16" fill="context-fill" fill-opacity="context-fill-opacity"><path d="M8 7C6.346 7 5 8.346 5 10L5 40C5 41.654 6.346 43 8 43L30.476562 43C30.160563 42.373 29.869609 41.704 29.599609 41L8 41C7.448 41 7 40.551 7 40L7 15L45 15L45 27.509766C45.567 27.783766 46.205 28.060031 47 28.332031L47 10C47 8.346 45.654 7 44 7L8 7 z M 8 9L44 9C44.552 9 45 9.449 45 10L45 13L7 13L7 10C7 9.449 7.448 9 8 9 z M 9 10 A 1 1 0 0 0 9 12 A 1 1 0 0 0 9 10 z M 12 10 A 1 1 0 0 0 12 12 A 1 1 0 0 0 12 10 z M 15 10 A 1 1 0 0 0 15 12 A 1 1 0 0 0 15 10 z M 40 28C38.5 28 37.500781 28.499609 36.300781 29.099609C35.100781 29.699609 33.600781 30.4 30.800781 31L30 31.199219L30 32C30 45 39.2 49.700391 39.5 49.900391L40 50.099609L40.5 49.900391C40.9 49.700391 50 44.6 50 32L50 31.199219L49.199219 31C46.399219 30.4 44.899219 29.699609 43.699219 29.099609C42.499219 28.499609 41.5 28 40 28 z M 40 30C41.1 30 41.700781 30.300391 42.800781 30.900391C44.000781 31.400391 45.5 32.200781 48 32.800781C47.7 42.100781 41.7 46.700781 40 47.800781C38.2 46.800781 32.3 42.500781 32 32.800781C34.6 32.200781 36.099219 31.400391 37.199219 30.900391C38.299219 30.300391 38.9 30 40 30 z"/></svg>