<svg xmlns="http://www.w3.org/2000/svg" xmlns:xlink="http://www.w3.org/1999/xlink" viewBox="0 0 48 48" width="16" height="16" fill="context-fill" fill-opacity="context-fill-opacity"><path d="M33.509766 1C32.146821 1 31.009766 2.1370551 31.009766 3.5L31.009766 5.0644531L29.658203 4.2792969L29.654297 4.2773438C28.427413 3.5763415 26.813096 4.065025 26.179688 5.328125L26.232422 5.2324219L24.707031 7.7890625L24.701172 7.7988281C24.014825 8.9836652 24.437404 10.544456 25.626953 11.222656L26.982422 12L25.626953 12.777344C24.437404 13.455544 24.01478 15.01633 24.701172 16.201172L26.197266 18.792969C26.875466 19.982518 28.436252 20.405142 29.621094 19.71875L29.623047 19.716797L30.970703 18.935547L30.970703 20.5C30.970703 21.862945 32.107758 23 33.470703 23L36.470703 23C37.833648 23 38.970703 21.862945 38.970703 20.5L38.970703 18.935547L40.318359 19.716797L40.318359 19.71875C41.503201 20.405142 43.063986 19.982518 43.742188 18.792969L45.238281 16.201172C45.924626 15.016283 45.502049 13.455544 44.3125 12.777344L43.021484 12.003906L44.390625 11.21875L44.394531 11.216797C45.57527 10.530034 45.985518 8.969516 45.294922 7.7910156L45.291016 7.7871094L43.783203 5.2578125C43.105003 4.0683138 41.542263 3.6456391 40.357422 4.3320312L39.009766 5.1152344L39.009766 3.5C39.009766 2.1370551 37.872711 1 36.509766 1L33.509766 1 z M 34.009766 4L36.009766 4L36.009766 5.3984375C36.002266 6.3066461 36.493406 7.15265 37.285156 7.5976562C37.445156 7.6876562 37.572207 7.7610286 37.658203 7.8183594L37.697266 7.8457031L37.740234 7.8691406C38.511655 8.3145202 39.468814 8.3145202 40.240234 7.8691406L40.242188 7.8691406L41.433594 7.1777344L42.447266 8.875L41.251953 9.5605469L41.25 9.5605469C40.467808 10.012029 39.987429 10.858667 40 11.761719L40 12.238281C39.98743 13.141333 40.467808 13.987971 41.25 14.439453L42.394531 15.125L41.388672 16.871094L40.201172 16.181641L40.199219 16.181641C39.427799 15.736261 38.470639 15.736261 37.699219 16.181641L37.658203 16.205078L37.617188 16.232422C37.531188 16.289752 37.404141 16.363125 37.244141 16.453125C36.45239 16.898131 35.963203 17.744135 35.970703 18.652344L35.970703 20L33.970703 20L33.970703 18.652344C33.978203 17.744135 33.487064 16.898131 32.695312 16.453125C32.535314 16.363125 32.408262 16.289753 32.322266 16.232422L32.28125 16.205078L32.240234 16.181641C31.468814 15.736261 30.511655 15.736261 29.740234 16.181641L29.738281 16.181641L28.550781 16.871094L27.548828 15.132812L28.757812 14.439453L28.759766 14.439453C29.541958 13.987971 30.022336 13.141333 30.009766 12.238281L30.009766 11.761719C30.022336 10.858667 29.541958 10.012029 28.759766 9.5605469L28.757812 9.5605469L27.556641 8.8710938L28.591797 7.1289062L29.779297 7.8183594C30.550717 8.263739 31.507877 8.263739 32.279297 7.8183594L32.322266 7.7949219L32.361328 7.7675781C32.446988 7.7104691 32.575246 7.6363988 32.734375 7.546875C33.526125 7.1018686 34.017266 6.2558649 34.009766 5.3476562L34.009766 4 z M 30.779297 5.2207031C30.780497 5.2200147 30.782003 5.2213808 30.783203 5.2207031C30.751833 5.2407121 30.729656 5.2498924 30.697266 5.2714844L30.779297 5.2207031 z M 34.875 9.0019531 A 3 3 0 0 0 35 15 A 3 3 0 0 0 38 12 A 3 3 0 0 0 34.875 9.0019531 z M 14.5 17C13.137055 17 12 18.137055 12 19.5L12 20.080078C12.000345 20.617775 11.716965 21.109268 11.251953 21.378906L11.25 21.378906C11.25 21.378906 11.25 21.380859 11.25 21.380859L9.1816406 22.570312L9.1796875 22.570312C8.7135033 22.839464 8.1458717 22.839465 7.6796875 22.570312L7.6757812 22.568359L7.1445312 22.267578L7.1289062 22.257812C5.9173028 21.607904 4.3626526 22.088643 3.7285156 23.308594L3.7597656 23.25L2.265625 25.841797C1.5750285 27.020297 1.985277 28.580815 3.1660156 29.267578L3.1757812 29.273438L3.6699219 29.548828C4.1364101 29.818155 4.4202672 30.310955 4.4199219 30.849609L4.4199219 33.25C4.4202672 33.788654 4.1364101 34.281454 3.6699219 34.550781L3.1757812 34.828125L3.1660156 34.833984C1.985277 35.520706 1.5750285 37.079313 2.265625 38.257812L3.7597656 40.849609C4.4375958 42.024881 5.9803357 42.443319 7.1601562 41.773438L7.6757812 41.482422L7.6796875 41.478516C8.1458717 41.209364 8.7135033 41.209364 9.1796875 41.478516L9.1933594 41.486328L11.25 42.619141C11.716488 42.888468 12.000345 43.381268 12 43.919922L12 44.5C12 45.862945 13.137055 47 14.5 47L17.5 47C18.862945 47 20 45.862945 20 44.5L20 43.919922C19.999655 43.381268 20.283512 42.888468 20.75 42.619141L22.818359 41.429688L22.820312 41.429688C23.286497 41.160536 23.854128 41.160536 24.320312 41.429688L24.324219 41.431641L24.839844 41.724609C26.019664 42.394491 27.562404 41.9741 28.240234 40.798828L29.1875 39.154297L29.189453 39.148438C30.174349 37.448326 29.583588 35.227061 27.882812 34.242188C27.693255 34.132053 27.580537 33.936026 27.580078 33.716797L27.580078 30.283203C27.580537 30.063974 27.693255 29.867947 27.882812 29.757812C29.585438 28.771867 30.1769 26.546527 29.1875 24.845703L29.183594 24.839844L28.240234 23.25C27.562404 22.074728 26.019664 21.65629 24.839844 22.326172L24.324219 22.619141L24.320312 22.621094C23.854736 22.889895 23.288106 22.889195 22.822266 22.621094L22.820312 22.621094L20.759766 21.386719L20.75 21.380859C20.283512 21.111532 19.999655 20.618732 20 20.080078L20 19.5C20 18.137055 18.862945 17 17.5 17L14.5 17 z M 30.658203 18.728516C30.690593 18.750106 30.712771 18.759287 30.744141 18.779297C30.742941 18.778619 30.741434 18.779985 30.740234 18.779297L30.658203 18.728516 z M 39.28125 18.728516L39.199219 18.779297C39.198019 18.779985 39.196512 18.778619 39.195312 18.779297C39.226683 18.759287 39.24886 18.750106 39.28125 18.728516 z M 15 20L17 20L17 20.078125C16.999 21.684439 17.858891 23.175359 19.25 23.978516L21.308594 25.212891L21.320312 25.21875C22.710535 26.021395 24.43009 26.021395 25.820312 25.21875L25.894531 25.177734L26.59375 26.355469C26.765302 26.652586 26.67626 26.990089 26.378906 27.162109L26.376953 27.162109C25.269201 27.805717 24.582762 28.996197 24.580078 30.277344L24.580078 30.279297L24.580078 33.720703L24.580078 33.722656C24.582778 35.003803 25.269201 36.194283 26.376953 36.837891L26.378906 36.837891C26.676932 37.0103 26.766875 37.348874 26.59375 37.646484L26.591797 37.648438L25.888672 38.871094L25.814453 38.828125C24.425201 38.028664 22.708696 38.028448 21.320312 38.830078L19.251953 40.019531L19.25 40.021484C17.859546 40.824041 16.999667 42.314352 17 43.919922L17 44L15 44L15 43.921875L15 43.919922C15.000333 42.314352 14.140546 40.824316 12.75 40.021484L12.736328 40.013672L10.654297 38.865234L10.679688 38.880859C9.2913047 38.079276 7.5747986 38.079492 6.1855469 38.878906L6.1113281 38.919922L5.109375 37.183594L5.1621094 37.154297L5.1699219 37.148438C6.5610311 36.345281 7.4209518 34.856314 7.4199219 33.25L7.4199219 30.851562L7.4199219 30.849609C7.420255 29.244039 6.5604682 27.754004 5.1699219 26.951172L5.1621094 26.945312L5.109375 26.916016L6.1328125 25.140625L6.1855469 25.171875C7.5742351 25.971012 9.2896494 25.970578 10.677734 25.169922L12.748047 23.980469L12.75 23.978516C14.141109 23.175359 15.00103 21.684439 15 20.078125L15 20 z M 16 27 A 5 5 0 0 0 16 37 A 5 5 0 0 0 16 27 z"/></svg>